M48
;DRILL file {Pcbnew (2012-01-19 BZR 3256)-stable} date Wed Aug 28 15:54:00 2013
;FORMAT={-:-/ absolute / inch / decimal}
FMAT,2
INCH,TZ
T1C0.012
T2C0.025
%
G90
G05
M72
T1
X4.793Y2.018
X4.793Y2.205
X4.813Y1.860
X4.813Y2.045
X4.833Y2.018
X4.833Y2.244
X4.852Y1.821
X4.852Y2.045
X4.872Y2.284
X4.892Y1.782
X4.892Y2.045
X4.911Y2.018
X4.911Y2.284
X4.931Y1.782
X4.931Y2.045
X4.951Y2.018
X4.951Y2.284
X4.971Y1.782
X4.971Y2.045
X4.990Y2.018
X4.990Y2.284
X5.010Y1.782
X5.010Y2.045
X5.030Y2.018
X5.030Y2.284
X5.049Y1.782
X5.049Y2.045
X5.069Y2.018
X5.069Y2.284
X5.089Y1.782
X5.089Y2.045
X5.108Y2.018
X5.108Y2.284
X5.128Y1.782
X5.128Y2.045
X5.148Y2.018
X5.148Y2.284
X5.167Y1.782
X5.167Y2.045
X5.187Y2.018
X5.187Y2.284
X5.207Y1.782
X5.207Y2.045
X5.226Y2.018
X5.226Y2.284
X5.246Y1.782
X5.246Y2.045
X5.266Y2.022
X5.266Y2.284
X5.325Y2.008
X5.325Y2.264
X5.386Y1.923
X5.386Y2.043
X5.386Y2.154
X5.388Y1.776
X5.433Y2.016
X5.433Y2.284
X5.651Y1.219
X6.142Y2.063
X6.148Y1.746
X6.155Y1.370
X6.191Y2.152
X6.191Y2.285
X6.193Y1.919
X6.193Y2.030
X6.248Y1.821
X6.254Y2.073
X6.309Y1.789
X6.309Y2.053
X6.329Y1.762
X6.329Y2.030
X6.329Y2.287
X6.348Y1.789
X6.348Y2.057
X6.368Y1.762
X6.368Y2.030
X6.368Y2.287
X6.388Y1.789
X6.388Y2.057
X6.408Y1.762
X6.408Y2.030
X6.408Y2.287
X6.427Y1.789
X6.427Y2.057
X6.447Y1.762
X6.447Y2.030
X6.447Y2.287
X6.466Y1.789
X6.466Y2.057
X6.486Y1.762
X6.486Y2.030
X6.486Y2.287
X6.506Y1.789
X6.506Y2.057
X6.526Y1.762
X6.526Y2.030
X6.526Y2.287
X6.545Y1.789
X6.545Y2.057
X6.565Y1.762
X6.565Y2.030
X6.565Y2.287
X6.585Y1.789
X6.585Y2.057
X6.604Y1.762
X6.604Y2.030
X6.604Y2.287
X6.624Y1.789
X6.624Y2.057
X6.644Y1.762
X6.644Y2.030
X6.644Y2.287
X6.663Y1.789
X6.663Y2.057
X6.683Y1.762
X6.683Y2.030
X6.683Y2.287
X6.703Y1.829
X6.703Y2.057
X6.722Y1.801
X6.722Y2.030
X6.722Y2.248
X6.742Y1.868
X6.742Y2.057
X6.762Y2.030
X6.762Y2.209
X6.762Y2.280
X6.801Y2.169
X6.840Y2.200
T2
X4.644Y1.927
X4.742Y2.154
X4.756Y1.925
X4.758Y1.797
X5.030Y2.549
X5.380Y2.330
X5.575Y1.030
X5.591Y2.549
X5.734Y2.953
X5.817Y1.006
X5.902Y3.185
X5.972Y1.146
X5.996Y3.069
X6.839Y1.937
X6.845Y2.266
X6.858Y2.148
T0
M30
