M48
;DRILL file {Pcbnew (2012-01-19 BZR 3256)-stable} date 5/16/2012 3:34:21 PM
;FORMAT={-:-/ absolute / metric / decimal}
FMAT,2
METRIC,TZ
T1C0.635
T2C0.813
T3C1.016
%
G90
G05
M71
T1
X165.867Y47.775
X166.370Y27.305
X186.690Y46.355
T2
X119.380Y25.400
X128.270Y34.290
X128.270Y36.830
X128.270Y39.370
X137.160Y34.290
X137.160Y36.830
X137.160Y39.370
X142.240Y52.070
X185.420Y25.400
T3
X119.380Y22.860
X121.920Y22.860
X121.920Y25.400
X124.460Y22.860
X124.460Y25.400
X127.000Y22.860
X127.000Y25.400
X129.540Y22.860
X129.540Y25.400
X132.080Y22.860
X132.080Y25.400
X134.620Y22.860
X134.620Y25.400
X137.160Y22.860
X137.160Y25.400
X139.700Y22.860
X139.700Y25.400
X142.240Y22.860
X142.240Y25.400
X142.240Y49.530
X144.780Y22.860
X144.780Y25.400
X144.780Y49.530
X144.780Y52.070
X147.320Y22.860
X147.320Y25.400
X147.320Y49.530
X147.320Y52.070
X149.860Y22.860
X149.860Y25.400
X149.860Y49.530
X149.860Y52.070
X152.400Y22.860
X152.400Y25.400
X152.400Y49.530
X152.400Y52.070
X154.940Y22.860
X154.940Y25.400
X154.940Y49.530
X154.940Y52.070
X157.480Y22.860
X157.480Y25.400
X157.480Y49.530
X157.480Y52.070
X160.020Y22.860
X160.020Y25.400
X160.020Y49.530
X160.020Y52.070
X162.560Y22.860
X162.560Y25.400
X162.560Y49.530
X162.560Y52.070
X165.100Y22.860
X165.100Y25.400
X165.100Y49.530
X165.100Y52.070
X167.640Y22.860
X167.640Y25.400
X167.640Y49.530
X167.640Y52.070
X170.180Y34.290
X170.180Y36.830
X170.180Y39.370
X170.180Y49.530
X170.180Y52.070
X172.720Y49.530
X172.720Y52.070
X175.260Y49.530
X175.260Y52.070
X177.800Y49.530
X177.800Y52.070
X180.340Y49.530
X180.340Y52.070
X181.610Y34.290
X181.610Y36.830
X181.610Y39.370
X182.880Y49.530
X182.880Y52.070
X185.420Y22.860
X185.420Y49.530
X185.420Y52.070
X187.960Y22.860
X187.960Y25.400
X187.960Y49.530
X187.960Y52.070
X190.500Y22.860
X190.500Y25.400
X190.500Y49.530
X190.500Y52.070
X193.040Y22.860
X193.040Y25.400
X193.040Y34.290
X193.040Y36.830
X193.040Y39.370
X195.580Y22.860
X195.580Y25.400
X198.120Y22.860
X198.120Y25.400
X200.660Y22.860
X200.660Y25.400
X203.200Y22.860
X203.200Y25.400
X204.470Y34.290
X204.470Y36.830
X204.470Y39.370
X205.740Y22.860
X205.740Y25.400
X208.280Y22.860
X208.280Y25.400
X210.820Y22.860
X210.820Y25.400
X213.360Y22.860
X213.360Y25.400
X215.900Y22.860
X215.900Y25.400
X217.170Y34.290
X217.170Y39.370
X219.710Y36.830
X222.250Y34.290
X222.250Y39.370
T0
M30
