G04 (created by PCBNEW-RS274X (2012-01-19 BZR 3256)-stable) date 5/16/2012 3:34:04 PM*
G01*
G70*
G90*
%MOIN*%
G04 Gerber Fmt 3.4, Leading zero omitted, Abs format*
%FSLAX34Y34*%
G04 APERTURE LIST*
%ADD10C,0.006000*%
%ADD11R,0.060000X0.060000*%
%ADD12C,0.060000*%
%ADD13C,0.035000*%
%ADD14C,0.019700*%
%ADD15C,0.019800*%
%ADD16C,0.008000*%
%ADD17C,0.010000*%
G04 APERTURE END LIST*
G54D10*
G54D11*
X73000Y-10000D03*
G54D12*
X73000Y-09000D03*
X74000Y-10000D03*
X74000Y-09000D03*
X75000Y-10000D03*
X75000Y-09000D03*
X76000Y-10000D03*
X76000Y-09000D03*
X77000Y-10000D03*
X77000Y-09000D03*
X78000Y-10000D03*
X78000Y-09000D03*
X79000Y-10000D03*
X79000Y-09000D03*
X80000Y-10000D03*
X80000Y-09000D03*
X81000Y-10000D03*
X81000Y-09000D03*
X82000Y-10000D03*
X82000Y-09000D03*
X83000Y-10000D03*
X83000Y-09000D03*
X84000Y-10000D03*
X84000Y-09000D03*
X85000Y-10000D03*
X85000Y-09000D03*
G54D11*
X47000Y-10000D03*
G54D12*
X47000Y-09000D03*
X52000Y-10000D03*
X48000Y-09000D03*
X53000Y-10000D03*
X49000Y-09000D03*
X54000Y-10000D03*
X50000Y-09000D03*
X55000Y-10000D03*
X51000Y-09000D03*
X56000Y-10000D03*
X52000Y-09000D03*
X57000Y-10000D03*
X53000Y-09000D03*
X58000Y-10000D03*
X54000Y-09000D03*
X59000Y-10000D03*
X55000Y-09000D03*
X60000Y-10000D03*
X56000Y-09000D03*
X61000Y-10000D03*
X57000Y-09000D03*
X62000Y-10000D03*
X58000Y-09000D03*
X59000Y-09000D03*
X63000Y-10000D03*
X60000Y-09000D03*
X62000Y-09000D03*
X63000Y-09000D03*
X64000Y-09000D03*
X65000Y-09000D03*
X64000Y-10000D03*
X65000Y-10000D03*
X48000Y-10000D03*
X49000Y-10000D03*
X50000Y-10000D03*
X51000Y-10000D03*
X66000Y-10000D03*
X66000Y-09000D03*
X61000Y-09000D03*
X50500Y-15500D03*
X50500Y-14500D03*
X50500Y-13500D03*
X54000Y-15500D03*
X54000Y-14500D03*
X54000Y-13500D03*
G54D11*
X56000Y-20500D03*
G54D12*
X56000Y-19500D03*
X61000Y-20500D03*
X57000Y-19500D03*
X62000Y-20500D03*
X58000Y-19500D03*
X63000Y-20500D03*
X59000Y-19500D03*
X64000Y-20500D03*
X60000Y-19500D03*
X65000Y-20500D03*
X61000Y-19500D03*
X66000Y-20500D03*
X62000Y-19500D03*
X67000Y-20500D03*
X63000Y-19500D03*
X68000Y-20500D03*
X64000Y-19500D03*
X69000Y-20500D03*
X65000Y-19500D03*
X70000Y-20500D03*
X66000Y-19500D03*
X71000Y-20500D03*
X67000Y-19500D03*
X68000Y-19500D03*
X72000Y-20500D03*
X69000Y-19500D03*
X71000Y-19500D03*
X72000Y-19500D03*
X73000Y-19500D03*
X74000Y-19500D03*
X73000Y-20500D03*
X74000Y-20500D03*
X57000Y-20500D03*
X58000Y-20500D03*
X59000Y-20500D03*
X60000Y-20500D03*
X75000Y-20500D03*
X75000Y-19500D03*
X70000Y-19500D03*
X67000Y-15500D03*
X67000Y-14500D03*
X67000Y-13500D03*
X80500Y-15500D03*
X80500Y-14500D03*
X80500Y-13500D03*
X76000Y-15500D03*
X76000Y-14500D03*
X76000Y-13500D03*
X71500Y-15500D03*
X71500Y-14500D03*
X71500Y-13500D03*
X86500Y-14500D03*
X85500Y-13500D03*
X85500Y-15500D03*
X87500Y-15500D03*
X87500Y-13500D03*
G54D13*
X65500Y-10750D03*
X73500Y-18250D03*
X65302Y-18809D03*
G54D14*
X65500Y-10750D02*
X65500Y-08000D01*
G54D15*
X69500Y-15500D02*
X71500Y-15500D01*
X67000Y-15500D02*
X69500Y-15500D01*
X69500Y-15500D02*
X67000Y-15500D01*
X56000Y-08000D02*
X65500Y-08000D01*
X55500Y-09500D02*
X55500Y-08500D01*
X55000Y-10000D02*
X55500Y-09500D01*
X55500Y-08500D02*
X56000Y-08000D01*
X71500Y-15500D02*
X76000Y-15500D01*
G54D16*
X65556Y-19758D02*
X65742Y-19944D01*
X69554Y-20922D02*
X69576Y-20944D01*
X69554Y-20352D02*
X69554Y-20922D01*
X65742Y-19944D02*
X69146Y-19944D01*
X65556Y-19128D02*
X65556Y-19758D01*
X65649Y-19035D02*
X65556Y-19128D01*
X69576Y-20944D02*
X71556Y-20944D01*
X69146Y-19944D02*
X69554Y-20352D01*
X67000Y-14500D02*
X65649Y-15851D01*
X65649Y-15851D02*
X65649Y-19035D01*
X71556Y-20944D02*
X72000Y-20500D01*
G54D15*
X56000Y-21500D02*
X56000Y-20500D01*
X56500Y-22000D02*
X56000Y-21500D01*
X82000Y-22000D02*
X56500Y-22000D01*
X86500Y-17500D02*
X82000Y-22000D01*
X86500Y-14500D02*
X86500Y-17500D01*
G54D16*
X76556Y-15056D02*
X76000Y-14500D01*
X76556Y-15586D02*
X76556Y-15056D01*
X76185Y-15957D02*
X76556Y-15586D01*
X69543Y-15957D02*
X76185Y-15957D01*
X66000Y-19500D02*
X69543Y-15957D01*
X57453Y-18953D02*
X54000Y-15500D01*
X57453Y-20836D02*
X57453Y-18953D01*
X57750Y-21133D02*
X57453Y-20836D01*
X72046Y-21133D02*
X57750Y-21133D01*
X72544Y-20635D02*
X72046Y-21133D01*
X72544Y-20044D02*
X72544Y-20635D01*
X72000Y-19500D02*
X72544Y-20044D01*
X73456Y-20922D02*
X72819Y-21559D01*
X56500Y-21191D02*
X56500Y-19068D01*
X53444Y-16012D02*
X53444Y-14056D01*
X53444Y-14056D02*
X54000Y-13500D01*
X74000Y-19500D02*
X73456Y-20044D01*
X56500Y-19068D02*
X53444Y-16012D01*
X73456Y-20044D02*
X73456Y-20922D01*
X72819Y-21559D02*
X56868Y-21559D01*
X56868Y-21559D02*
X56500Y-21191D01*
X76475Y-16525D02*
X83000Y-10000D01*
X71434Y-19944D02*
X71456Y-19922D01*
X70556Y-19944D02*
X71434Y-19944D01*
X70000Y-20500D02*
X70556Y-19944D01*
X71456Y-19100D02*
X74031Y-16525D01*
X74031Y-16525D02*
X76475Y-16525D01*
X71456Y-19922D02*
X71456Y-19100D01*
G54D15*
X64000Y-09000D02*
X64000Y-10000D01*
X64000Y-10000D02*
X62500Y-11500D01*
X62500Y-11500D02*
X59000Y-11500D01*
X59000Y-11500D02*
X58500Y-12000D01*
X58500Y-12000D02*
X58500Y-20000D01*
X58500Y-20000D02*
X58000Y-20500D01*
X63000Y-09000D02*
X63000Y-10000D01*
X58000Y-11500D02*
X58000Y-19500D01*
X58500Y-11000D02*
X58000Y-11500D01*
X62000Y-11000D02*
X58500Y-11000D01*
X63000Y-10000D02*
X62000Y-11000D01*
G54D16*
X61691Y-18809D02*
X61000Y-19500D01*
X65302Y-18809D02*
X61691Y-18809D01*
G54D10*
G36*
X73071Y-20500D02*
X73000Y-20571D01*
X72929Y-20500D01*
X73000Y-20429D01*
X73071Y-20500D01*
X73071Y-20500D01*
G37*
G54D17*
X73071Y-20500D02*
X73000Y-20571D01*
X72929Y-20500D01*
X73000Y-20429D01*
X73071Y-20500D01*
G54D10*
G36*
X88175Y-22675D02*
X88043Y-22675D01*
X88043Y-15579D01*
X88043Y-13579D01*
X88032Y-13366D01*
X87972Y-13219D01*
X87878Y-13192D01*
X87808Y-13262D01*
X87808Y-13122D01*
X87781Y-13028D01*
X87579Y-12957D01*
X87366Y-12968D01*
X87219Y-13028D01*
X87192Y-13122D01*
X87500Y-13429D01*
X87808Y-13122D01*
X87808Y-13262D01*
X87571Y-13500D01*
X87878Y-13808D01*
X87972Y-13781D01*
X88043Y-13579D01*
X88043Y-15579D01*
X88032Y-15366D01*
X87972Y-15219D01*
X87878Y-15192D01*
X87808Y-15262D01*
X87808Y-15122D01*
X87808Y-13878D01*
X87500Y-13571D01*
X87429Y-13641D01*
X87429Y-13500D01*
X87122Y-13192D01*
X87028Y-13219D01*
X86957Y-13421D01*
X86968Y-13634D01*
X87028Y-13781D01*
X87122Y-13808D01*
X87429Y-13500D01*
X87429Y-13641D01*
X87192Y-13878D01*
X87219Y-13972D01*
X87421Y-14043D01*
X87634Y-14032D01*
X87781Y-13972D01*
X87808Y-13878D01*
X87808Y-15122D01*
X87781Y-15028D01*
X87579Y-14957D01*
X87366Y-14968D01*
X87219Y-15028D01*
X87192Y-15122D01*
X87500Y-15429D01*
X87808Y-15122D01*
X87808Y-15262D01*
X87571Y-15500D01*
X87878Y-15808D01*
X87972Y-15781D01*
X88043Y-15579D01*
X88043Y-22675D01*
X87808Y-22675D01*
X87808Y-15878D01*
X87500Y-15571D01*
X87429Y-15641D01*
X87429Y-15500D01*
X87122Y-15192D01*
X87049Y-15212D01*
X87049Y-14609D01*
X87049Y-14391D01*
X86965Y-14189D01*
X86811Y-14035D01*
X86609Y-13951D01*
X86391Y-13951D01*
X86189Y-14035D01*
X86043Y-14181D01*
X86043Y-13579D01*
X86032Y-13366D01*
X85972Y-13219D01*
X85878Y-13192D01*
X85808Y-13262D01*
X85808Y-13122D01*
X85781Y-13028D01*
X85579Y-12957D01*
X85366Y-12968D01*
X85219Y-13028D01*
X85192Y-13122D01*
X85500Y-13429D01*
X85808Y-13122D01*
X85808Y-13262D01*
X85571Y-13500D01*
X85878Y-13808D01*
X85972Y-13781D01*
X86043Y-13579D01*
X86043Y-14181D01*
X86035Y-14189D01*
X85951Y-14391D01*
X85951Y-14609D01*
X86035Y-14811D01*
X86151Y-14927D01*
X86151Y-17355D01*
X86043Y-17463D01*
X86043Y-15579D01*
X86032Y-15366D01*
X85972Y-15219D01*
X85878Y-15192D01*
X85808Y-15262D01*
X85808Y-15122D01*
X85808Y-13878D01*
X85500Y-13571D01*
X85429Y-13641D01*
X85429Y-13500D01*
X85122Y-13192D01*
X85028Y-13219D01*
X84957Y-13421D01*
X84968Y-13634D01*
X85028Y-13781D01*
X85122Y-13808D01*
X85429Y-13500D01*
X85429Y-13641D01*
X85192Y-13878D01*
X85219Y-13972D01*
X85421Y-14043D01*
X85634Y-14032D01*
X85781Y-13972D01*
X85808Y-13878D01*
X85808Y-15122D01*
X85781Y-15028D01*
X85579Y-14957D01*
X85366Y-14968D01*
X85219Y-15028D01*
X85192Y-15122D01*
X85500Y-15429D01*
X85808Y-15122D01*
X85808Y-15262D01*
X85571Y-15500D01*
X85878Y-15808D01*
X85972Y-15781D01*
X86043Y-15579D01*
X86043Y-17463D01*
X85808Y-17698D01*
X85808Y-15878D01*
X85500Y-15571D01*
X85429Y-15641D01*
X85429Y-15500D01*
X85122Y-15192D01*
X85028Y-15219D01*
X84957Y-15421D01*
X84968Y-15634D01*
X85028Y-15781D01*
X85122Y-15808D01*
X85429Y-15500D01*
X85429Y-15641D01*
X85192Y-15878D01*
X85219Y-15972D01*
X85421Y-16043D01*
X85634Y-16032D01*
X85781Y-15972D01*
X85808Y-15878D01*
X85808Y-17698D01*
X81855Y-21651D01*
X81049Y-21651D01*
X81049Y-15609D01*
X81049Y-15391D01*
X80965Y-15189D01*
X80811Y-15035D01*
X80726Y-15000D01*
X80811Y-14965D01*
X80965Y-14811D01*
X81049Y-14609D01*
X81049Y-14391D01*
X81043Y-14376D01*
X81043Y-13579D01*
X81032Y-13366D01*
X80972Y-13219D01*
X80878Y-13192D01*
X80571Y-13500D01*
X80878Y-13808D01*
X80972Y-13781D01*
X81043Y-13579D01*
X81043Y-14376D01*
X80965Y-14189D01*
X80811Y-14035D01*
X80719Y-13997D01*
X80781Y-13972D01*
X80808Y-13878D01*
X80500Y-13571D01*
X80192Y-13878D01*
X80219Y-13972D01*
X80284Y-13995D01*
X80189Y-14035D01*
X80035Y-14189D01*
X79951Y-14391D01*
X79951Y-14609D01*
X80035Y-14811D01*
X80189Y-14965D01*
X80273Y-15000D01*
X80189Y-15035D01*
X80035Y-15189D01*
X79951Y-15391D01*
X79951Y-15609D01*
X80035Y-15811D01*
X80189Y-15965D01*
X80391Y-16049D01*
X80609Y-16049D01*
X80811Y-15965D01*
X80965Y-15811D01*
X81049Y-15609D01*
X81049Y-21651D01*
X73137Y-21651D01*
X73660Y-21128D01*
X73660Y-21127D01*
X73661Y-21127D01*
X73723Y-21034D01*
X73724Y-21033D01*
X73733Y-20983D01*
X73891Y-21049D01*
X74109Y-21049D01*
X74311Y-20965D01*
X74465Y-20811D01*
X74500Y-20726D01*
X74535Y-20811D01*
X74689Y-20965D01*
X74891Y-21049D01*
X75109Y-21049D01*
X75311Y-20965D01*
X75465Y-20811D01*
X75549Y-20609D01*
X75549Y-20391D01*
X75465Y-20189D01*
X75311Y-20035D01*
X75226Y-20000D01*
X75311Y-19965D01*
X75465Y-19811D01*
X75549Y-19609D01*
X75549Y-19391D01*
X75465Y-19189D01*
X75311Y-19035D01*
X75109Y-18951D01*
X74891Y-18951D01*
X74689Y-19035D01*
X74535Y-19189D01*
X74500Y-19273D01*
X74465Y-19189D01*
X74311Y-19035D01*
X74109Y-18951D01*
X73891Y-18951D01*
X73689Y-19035D01*
X73535Y-19189D01*
X73500Y-19273D01*
X73465Y-19189D01*
X73311Y-19035D01*
X73109Y-18951D01*
X72891Y-18951D01*
X72689Y-19035D01*
X72535Y-19189D01*
X72500Y-19273D01*
X72465Y-19189D01*
X72311Y-19035D01*
X72109Y-18951D01*
X72015Y-18951D01*
X74151Y-16815D01*
X76475Y-16815D01*
X76586Y-16793D01*
X76680Y-16730D01*
X79958Y-13451D01*
X79968Y-13634D01*
X80028Y-13781D01*
X80122Y-13808D01*
X80394Y-13535D01*
X80429Y-13500D01*
X80500Y-13429D01*
X80535Y-13394D01*
X80808Y-13122D01*
X80781Y-13028D01*
X80579Y-12957D01*
X80446Y-12963D01*
X82870Y-10540D01*
X82891Y-10549D01*
X83109Y-10549D01*
X83311Y-10465D01*
X83465Y-10311D01*
X83500Y-10226D01*
X83535Y-10311D01*
X83689Y-10465D01*
X83891Y-10549D01*
X84109Y-10549D01*
X84311Y-10465D01*
X84465Y-10311D01*
X84500Y-10226D01*
X84535Y-10311D01*
X84689Y-10465D01*
X84891Y-10549D01*
X85109Y-10549D01*
X85311Y-10465D01*
X85465Y-10311D01*
X85549Y-10109D01*
X85549Y-09891D01*
X85543Y-09876D01*
X85543Y-09079D01*
X85532Y-08866D01*
X85472Y-08719D01*
X85378Y-08692D01*
X85308Y-08762D01*
X85308Y-08622D01*
X85281Y-08528D01*
X85079Y-08457D01*
X84866Y-08468D01*
X84719Y-08528D01*
X84692Y-08622D01*
X85000Y-08929D01*
X85308Y-08622D01*
X85308Y-08762D01*
X85071Y-09000D01*
X85378Y-09308D01*
X85472Y-09281D01*
X85543Y-09079D01*
X85543Y-09876D01*
X85465Y-09689D01*
X85311Y-09535D01*
X85219Y-09497D01*
X85281Y-09472D01*
X85308Y-09378D01*
X85000Y-09071D01*
X84929Y-09141D01*
X84929Y-09000D01*
X84622Y-08692D01*
X84528Y-08719D01*
X84502Y-08792D01*
X84472Y-08719D01*
X84378Y-08692D01*
X84308Y-08762D01*
X84308Y-08622D01*
X84281Y-08528D01*
X84079Y-08457D01*
X83866Y-08468D01*
X83719Y-08528D01*
X83692Y-08622D01*
X84000Y-08929D01*
X84308Y-08622D01*
X84308Y-08762D01*
X84071Y-09000D01*
X84378Y-09308D01*
X84472Y-09281D01*
X84497Y-09207D01*
X84528Y-09281D01*
X84622Y-09308D01*
X84929Y-09000D01*
X84929Y-09141D01*
X84692Y-09378D01*
X84719Y-09472D01*
X84784Y-09495D01*
X84689Y-09535D01*
X84535Y-09689D01*
X84500Y-09773D01*
X84465Y-09689D01*
X84311Y-09535D01*
X84219Y-09497D01*
X84281Y-09472D01*
X84308Y-09378D01*
X84000Y-09071D01*
X83929Y-09141D01*
X83929Y-09000D01*
X83622Y-08692D01*
X83528Y-08719D01*
X83502Y-08792D01*
X83472Y-08719D01*
X83378Y-08692D01*
X83308Y-08762D01*
X83308Y-08622D01*
X83281Y-08528D01*
X83079Y-08457D01*
X82866Y-08468D01*
X82719Y-08528D01*
X82692Y-08622D01*
X83000Y-08929D01*
X83308Y-08622D01*
X83308Y-08762D01*
X83071Y-09000D01*
X83378Y-09308D01*
X83472Y-09281D01*
X83497Y-09207D01*
X83528Y-09281D01*
X83622Y-09308D01*
X83929Y-09000D01*
X83929Y-09141D01*
X83692Y-09378D01*
X83719Y-09472D01*
X83784Y-09495D01*
X83689Y-09535D01*
X83535Y-09689D01*
X83500Y-09773D01*
X83465Y-09689D01*
X83311Y-09535D01*
X83219Y-09497D01*
X83281Y-09472D01*
X83308Y-09378D01*
X83000Y-09071D01*
X82929Y-09141D01*
X82929Y-09000D01*
X82622Y-08692D01*
X82528Y-08719D01*
X82502Y-08792D01*
X82472Y-08719D01*
X82378Y-08692D01*
X82308Y-08762D01*
X82308Y-08622D01*
X82281Y-08528D01*
X82079Y-08457D01*
X81866Y-08468D01*
X81719Y-08528D01*
X81692Y-08622D01*
X82000Y-08929D01*
X82308Y-08622D01*
X82308Y-08762D01*
X82071Y-09000D01*
X82378Y-09308D01*
X82472Y-09281D01*
X82497Y-09207D01*
X82528Y-09281D01*
X82622Y-09308D01*
X82929Y-09000D01*
X82929Y-09141D01*
X82692Y-09378D01*
X82719Y-09472D01*
X82784Y-09495D01*
X82689Y-09535D01*
X82535Y-09689D01*
X82500Y-09773D01*
X82465Y-09689D01*
X82311Y-09535D01*
X82219Y-09497D01*
X82281Y-09472D01*
X82308Y-09378D01*
X82000Y-09071D01*
X81929Y-09141D01*
X81929Y-09000D01*
X81622Y-08692D01*
X81528Y-08719D01*
X81502Y-08792D01*
X81472Y-08719D01*
X81378Y-08692D01*
X81308Y-08762D01*
X81308Y-08622D01*
X81281Y-08528D01*
X81079Y-08457D01*
X80866Y-08468D01*
X80719Y-08528D01*
X80692Y-08622D01*
X81000Y-08929D01*
X81308Y-08622D01*
X81308Y-08762D01*
X81071Y-09000D01*
X81378Y-09308D01*
X81472Y-09281D01*
X81497Y-09207D01*
X81528Y-09281D01*
X81622Y-09308D01*
X81929Y-09000D01*
X81929Y-09141D01*
X81692Y-09378D01*
X81719Y-09472D01*
X81784Y-09495D01*
X81689Y-09535D01*
X81535Y-09689D01*
X81500Y-09773D01*
X81465Y-09689D01*
X81311Y-09535D01*
X81219Y-09497D01*
X81281Y-09472D01*
X81308Y-09378D01*
X81000Y-09071D01*
X80929Y-09141D01*
X80929Y-09000D01*
X80622Y-08692D01*
X80528Y-08719D01*
X80502Y-08792D01*
X80472Y-08719D01*
X80378Y-08692D01*
X80308Y-08762D01*
X80308Y-08622D01*
X80281Y-08528D01*
X80079Y-08457D01*
X79866Y-08468D01*
X79719Y-08528D01*
X79692Y-08622D01*
X80000Y-08929D01*
X80308Y-08622D01*
X80308Y-08762D01*
X80071Y-09000D01*
X80378Y-09308D01*
X80472Y-09281D01*
X80497Y-09207D01*
X80528Y-09281D01*
X80622Y-09308D01*
X80929Y-09000D01*
X80929Y-09141D01*
X80692Y-09378D01*
X80719Y-09472D01*
X80784Y-09495D01*
X80689Y-09535D01*
X80535Y-09689D01*
X80500Y-09773D01*
X80465Y-09689D01*
X80311Y-09535D01*
X80219Y-09497D01*
X80281Y-09472D01*
X80308Y-09378D01*
X80000Y-09071D01*
X79929Y-09141D01*
X79929Y-09000D01*
X79622Y-08692D01*
X79528Y-08719D01*
X79502Y-08792D01*
X79472Y-08719D01*
X79378Y-08692D01*
X79308Y-08762D01*
X79308Y-08622D01*
X79281Y-08528D01*
X79079Y-08457D01*
X78866Y-08468D01*
X78719Y-08528D01*
X78692Y-08622D01*
X79000Y-08929D01*
X79308Y-08622D01*
X79308Y-08762D01*
X79071Y-09000D01*
X79378Y-09308D01*
X79472Y-09281D01*
X79497Y-09207D01*
X79528Y-09281D01*
X79622Y-09308D01*
X79929Y-09000D01*
X79929Y-09141D01*
X79692Y-09378D01*
X79719Y-09472D01*
X79784Y-09495D01*
X79689Y-09535D01*
X79535Y-09689D01*
X79500Y-09773D01*
X79465Y-09689D01*
X79311Y-09535D01*
X79219Y-09497D01*
X79281Y-09472D01*
X79308Y-09378D01*
X79000Y-09071D01*
X78929Y-09141D01*
X78929Y-09000D01*
X78622Y-08692D01*
X78528Y-08719D01*
X78502Y-08792D01*
X78472Y-08719D01*
X78378Y-08692D01*
X78308Y-08762D01*
X78308Y-08622D01*
X78281Y-08528D01*
X78079Y-08457D01*
X77866Y-08468D01*
X77719Y-08528D01*
X77692Y-08622D01*
X78000Y-08929D01*
X78308Y-08622D01*
X78308Y-08762D01*
X78071Y-09000D01*
X78378Y-09308D01*
X78472Y-09281D01*
X78497Y-09207D01*
X78528Y-09281D01*
X78622Y-09308D01*
X78929Y-09000D01*
X78929Y-09141D01*
X78692Y-09378D01*
X78719Y-09472D01*
X78784Y-09495D01*
X78689Y-09535D01*
X78535Y-09689D01*
X78500Y-09773D01*
X78465Y-09689D01*
X78311Y-09535D01*
X78219Y-09497D01*
X78281Y-09472D01*
X78308Y-09378D01*
X78000Y-09071D01*
X77692Y-09378D01*
X77719Y-09472D01*
X77784Y-09495D01*
X77689Y-09535D01*
X77535Y-09689D01*
X77500Y-09773D01*
X77465Y-09689D01*
X77311Y-09535D01*
X77226Y-09500D01*
X77311Y-09465D01*
X77465Y-09311D01*
X77502Y-09219D01*
X77528Y-09281D01*
X77622Y-09308D01*
X77929Y-09000D01*
X77622Y-08692D01*
X77528Y-08719D01*
X77504Y-08784D01*
X77465Y-08689D01*
X77311Y-08535D01*
X77109Y-08451D01*
X76891Y-08451D01*
X76689Y-08535D01*
X76535Y-08689D01*
X76500Y-08773D01*
X76465Y-08689D01*
X76311Y-08535D01*
X76109Y-08451D01*
X75891Y-08451D01*
X75689Y-08535D01*
X75535Y-08689D01*
X75500Y-08773D01*
X75465Y-08689D01*
X75311Y-08535D01*
X75109Y-08451D01*
X74891Y-08451D01*
X74689Y-08535D01*
X74535Y-08689D01*
X74500Y-08773D01*
X74465Y-08689D01*
X74311Y-08535D01*
X74109Y-08451D01*
X73891Y-08451D01*
X73689Y-08535D01*
X73535Y-08689D01*
X73500Y-08773D01*
X73465Y-08689D01*
X73311Y-08535D01*
X73109Y-08451D01*
X72891Y-08451D01*
X72689Y-08535D01*
X72535Y-08689D01*
X72451Y-08891D01*
X72451Y-09109D01*
X72535Y-09311D01*
X72675Y-09451D01*
X72651Y-09451D01*
X72559Y-09489D01*
X72489Y-09559D01*
X72451Y-09650D01*
X72451Y-09749D01*
X72451Y-10349D01*
X72489Y-10441D01*
X72559Y-10511D01*
X72650Y-10549D01*
X72749Y-10549D01*
X73349Y-10549D01*
X73441Y-10511D01*
X73511Y-10441D01*
X73549Y-10350D01*
X73549Y-10325D01*
X73689Y-10465D01*
X73891Y-10549D01*
X74109Y-10549D01*
X74311Y-10465D01*
X74465Y-10311D01*
X74500Y-10226D01*
X74535Y-10311D01*
X74689Y-10465D01*
X74891Y-10549D01*
X75109Y-10549D01*
X75311Y-10465D01*
X75465Y-10311D01*
X75500Y-10226D01*
X75535Y-10311D01*
X75689Y-10465D01*
X75891Y-10549D01*
X76109Y-10549D01*
X76311Y-10465D01*
X76465Y-10311D01*
X76500Y-10226D01*
X76535Y-10311D01*
X76689Y-10465D01*
X76891Y-10549D01*
X77109Y-10549D01*
X77311Y-10465D01*
X77465Y-10311D01*
X77500Y-10226D01*
X77535Y-10311D01*
X77689Y-10465D01*
X77891Y-10549D01*
X78109Y-10549D01*
X78311Y-10465D01*
X78465Y-10311D01*
X78500Y-10226D01*
X78535Y-10311D01*
X78689Y-10465D01*
X78891Y-10549D01*
X79109Y-10549D01*
X79311Y-10465D01*
X79465Y-10311D01*
X79500Y-10226D01*
X79535Y-10311D01*
X79689Y-10465D01*
X79891Y-10549D01*
X80109Y-10549D01*
X80311Y-10465D01*
X80465Y-10311D01*
X80500Y-10226D01*
X80535Y-10311D01*
X80689Y-10465D01*
X80891Y-10549D01*
X81109Y-10549D01*
X81311Y-10465D01*
X81465Y-10311D01*
X81500Y-10226D01*
X81535Y-10311D01*
X81689Y-10465D01*
X81891Y-10549D01*
X82040Y-10549D01*
X76354Y-16235D01*
X76245Y-16235D01*
X76296Y-16225D01*
X76390Y-16162D01*
X76761Y-15792D01*
X76761Y-15791D01*
X76824Y-15697D01*
X76845Y-15586D01*
X76846Y-15586D01*
X76846Y-15056D01*
X76824Y-14945D01*
X76761Y-14851D01*
X76540Y-14630D01*
X76549Y-14609D01*
X76549Y-14391D01*
X76543Y-14376D01*
X76543Y-13579D01*
X76532Y-13366D01*
X76472Y-13219D01*
X76378Y-13192D01*
X76308Y-13262D01*
X76308Y-13122D01*
X76281Y-13028D01*
X76079Y-12957D01*
X75866Y-12968D01*
X75719Y-13028D01*
X75692Y-13122D01*
X76000Y-13429D01*
X76308Y-13122D01*
X76308Y-13262D01*
X76071Y-13500D01*
X76378Y-13808D01*
X76472Y-13781D01*
X76543Y-13579D01*
X76543Y-14376D01*
X76465Y-14189D01*
X76311Y-14035D01*
X76219Y-13997D01*
X76281Y-13972D01*
X76308Y-13878D01*
X76000Y-13571D01*
X75929Y-13641D01*
X75929Y-13500D01*
X75622Y-13192D01*
X75528Y-13219D01*
X75457Y-13421D01*
X75468Y-13634D01*
X75528Y-13781D01*
X75622Y-13808D01*
X75929Y-13500D01*
X75929Y-13641D01*
X75692Y-13878D01*
X75719Y-13972D01*
X75784Y-13995D01*
X75689Y-14035D01*
X75535Y-14189D01*
X75451Y-14391D01*
X75451Y-14609D01*
X75535Y-14811D01*
X75689Y-14965D01*
X75773Y-15000D01*
X75689Y-15035D01*
X75573Y-15151D01*
X71927Y-15151D01*
X71811Y-15035D01*
X71726Y-15000D01*
X71811Y-14965D01*
X71965Y-14811D01*
X72049Y-14609D01*
X72049Y-14391D01*
X72043Y-14376D01*
X72043Y-13579D01*
X72032Y-13366D01*
X71972Y-13219D01*
X71878Y-13192D01*
X71808Y-13262D01*
X71808Y-13122D01*
X71781Y-13028D01*
X71579Y-12957D01*
X71366Y-12968D01*
X71219Y-13028D01*
X71192Y-13122D01*
X71500Y-13429D01*
X71808Y-13122D01*
X71808Y-13262D01*
X71571Y-13500D01*
X71878Y-13808D01*
X71972Y-13781D01*
X72043Y-13579D01*
X72043Y-14376D01*
X71965Y-14189D01*
X71811Y-14035D01*
X71719Y-13997D01*
X71781Y-13972D01*
X71808Y-13878D01*
X71500Y-13571D01*
X71429Y-13641D01*
X71429Y-13500D01*
X71122Y-13192D01*
X71028Y-13219D01*
X70957Y-13421D01*
X70968Y-13634D01*
X71028Y-13781D01*
X71122Y-13808D01*
X71429Y-13500D01*
X71429Y-13641D01*
X71192Y-13878D01*
X71219Y-13972D01*
X71284Y-13995D01*
X71189Y-14035D01*
X71035Y-14189D01*
X70951Y-14391D01*
X70951Y-14609D01*
X71035Y-14811D01*
X71189Y-14965D01*
X71273Y-15000D01*
X71189Y-15035D01*
X71073Y-15151D01*
X69500Y-15151D01*
X67427Y-15151D01*
X67311Y-15035D01*
X67226Y-15000D01*
X67311Y-14965D01*
X67465Y-14811D01*
X67549Y-14609D01*
X67549Y-14391D01*
X67543Y-14376D01*
X67543Y-13579D01*
X67532Y-13366D01*
X67472Y-13219D01*
X67378Y-13192D01*
X67308Y-13262D01*
X67308Y-13122D01*
X67281Y-13028D01*
X67079Y-12957D01*
X66866Y-12968D01*
X66719Y-13028D01*
X66692Y-13122D01*
X67000Y-13429D01*
X67308Y-13122D01*
X67308Y-13262D01*
X67071Y-13500D01*
X67378Y-13808D01*
X67472Y-13781D01*
X67543Y-13579D01*
X67543Y-14376D01*
X67465Y-14189D01*
X67311Y-14035D01*
X67219Y-13997D01*
X67281Y-13972D01*
X67308Y-13878D01*
X67000Y-13571D01*
X66929Y-13641D01*
X66929Y-13500D01*
X66622Y-13192D01*
X66528Y-13219D01*
X66457Y-13421D01*
X66468Y-13634D01*
X66528Y-13781D01*
X66622Y-13808D01*
X66929Y-13500D01*
X66929Y-13641D01*
X66692Y-13878D01*
X66719Y-13972D01*
X66784Y-13995D01*
X66689Y-14035D01*
X66535Y-14189D01*
X66451Y-14391D01*
X66451Y-14609D01*
X66459Y-14630D01*
X65444Y-15646D01*
X65381Y-15740D01*
X65359Y-15851D01*
X65359Y-18384D01*
X65218Y-18384D01*
X65062Y-18448D01*
X64991Y-18519D01*
X61691Y-18519D01*
X61580Y-18541D01*
X61486Y-18604D01*
X61130Y-18959D01*
X61109Y-18951D01*
X60891Y-18951D01*
X60689Y-19035D01*
X60535Y-19189D01*
X60500Y-19273D01*
X60465Y-19189D01*
X60311Y-19035D01*
X60109Y-18951D01*
X59891Y-18951D01*
X59689Y-19035D01*
X59535Y-19189D01*
X59500Y-19273D01*
X59465Y-19189D01*
X59311Y-19035D01*
X59109Y-18951D01*
X58891Y-18951D01*
X58849Y-18968D01*
X58849Y-12145D01*
X59145Y-11849D01*
X62500Y-11849D01*
X62633Y-11822D01*
X62634Y-11822D01*
X62747Y-11747D01*
X63945Y-10549D01*
X64109Y-10549D01*
X64311Y-10465D01*
X64465Y-10311D01*
X64500Y-10226D01*
X64535Y-10311D01*
X64689Y-10465D01*
X64891Y-10549D01*
X65109Y-10549D01*
X65126Y-10541D01*
X65075Y-10665D01*
X65075Y-10834D01*
X65139Y-10990D01*
X65259Y-11110D01*
X65415Y-11175D01*
X65584Y-11175D01*
X65740Y-11111D01*
X65860Y-10991D01*
X65925Y-10835D01*
X65925Y-10666D01*
X65874Y-10541D01*
X65891Y-10549D01*
X66109Y-10549D01*
X66311Y-10465D01*
X66465Y-10311D01*
X66549Y-10109D01*
X66549Y-09891D01*
X66465Y-09689D01*
X66311Y-09535D01*
X66226Y-09500D01*
X66311Y-09465D01*
X66465Y-09311D01*
X66549Y-09109D01*
X66549Y-08891D01*
X66465Y-08689D01*
X66311Y-08535D01*
X66109Y-08451D01*
X65891Y-08451D01*
X65848Y-08468D01*
X65848Y-08004D01*
X65848Y-08000D01*
X65849Y-08000D01*
X65822Y-07867D01*
X65822Y-07866D01*
X65747Y-07753D01*
X65634Y-07678D01*
X65500Y-07651D01*
X56000Y-07651D01*
X55866Y-07678D01*
X55753Y-07753D01*
X55253Y-08253D01*
X55178Y-08366D01*
X55156Y-08470D01*
X55109Y-08451D01*
X54891Y-08451D01*
X54689Y-08535D01*
X54535Y-08689D01*
X54500Y-08773D01*
X54465Y-08689D01*
X54311Y-08535D01*
X54109Y-08451D01*
X53891Y-08451D01*
X53689Y-08535D01*
X53535Y-08689D01*
X53497Y-08780D01*
X53472Y-08719D01*
X53378Y-08692D01*
X53308Y-08762D01*
X53308Y-08622D01*
X53281Y-08528D01*
X53079Y-08457D01*
X52866Y-08468D01*
X52719Y-08528D01*
X52692Y-08622D01*
X53000Y-08929D01*
X53308Y-08622D01*
X53308Y-08762D01*
X53071Y-09000D01*
X53378Y-09308D01*
X53472Y-09281D01*
X53495Y-09215D01*
X53535Y-09311D01*
X53689Y-09465D01*
X53773Y-09500D01*
X53689Y-09535D01*
X53535Y-09689D01*
X53497Y-09780D01*
X53472Y-09719D01*
X53378Y-09692D01*
X53308Y-09762D01*
X53308Y-09622D01*
X53281Y-09528D01*
X53207Y-09502D01*
X53281Y-09472D01*
X53308Y-09378D01*
X53000Y-09071D01*
X52692Y-09378D01*
X52719Y-09472D01*
X52792Y-09497D01*
X52719Y-09528D01*
X52692Y-09622D01*
X53000Y-09929D01*
X53308Y-09622D01*
X53308Y-09762D01*
X53071Y-10000D01*
X53378Y-10308D01*
X53472Y-10281D01*
X53495Y-10215D01*
X53535Y-10311D01*
X53689Y-10465D01*
X53891Y-10549D01*
X54109Y-10549D01*
X54311Y-10465D01*
X54465Y-10311D01*
X54500Y-10226D01*
X54535Y-10311D01*
X54689Y-10465D01*
X54891Y-10549D01*
X55109Y-10549D01*
X55311Y-10465D01*
X55465Y-10311D01*
X55500Y-10226D01*
X55535Y-10311D01*
X55689Y-10465D01*
X55891Y-10549D01*
X56109Y-10549D01*
X56311Y-10465D01*
X56465Y-10311D01*
X56500Y-10226D01*
X56535Y-10311D01*
X56689Y-10465D01*
X56891Y-10549D01*
X57109Y-10549D01*
X57311Y-10465D01*
X57465Y-10311D01*
X57500Y-10226D01*
X57535Y-10311D01*
X57689Y-10465D01*
X57891Y-10549D01*
X58109Y-10549D01*
X58311Y-10465D01*
X58465Y-10311D01*
X58500Y-10226D01*
X58535Y-10311D01*
X58689Y-10465D01*
X58891Y-10549D01*
X59109Y-10549D01*
X59311Y-10465D01*
X59465Y-10311D01*
X59500Y-10226D01*
X59535Y-10311D01*
X59689Y-10465D01*
X59891Y-10549D01*
X60109Y-10549D01*
X60311Y-10465D01*
X60465Y-10311D01*
X60500Y-10226D01*
X60535Y-10311D01*
X60689Y-10465D01*
X60891Y-10549D01*
X61109Y-10549D01*
X61311Y-10465D01*
X61465Y-10311D01*
X61500Y-10226D01*
X61535Y-10311D01*
X61689Y-10465D01*
X61891Y-10549D01*
X61957Y-10549D01*
X61855Y-10651D01*
X58500Y-10651D01*
X58366Y-10678D01*
X58253Y-10753D01*
X57753Y-11253D01*
X57678Y-11366D01*
X57651Y-11500D01*
X57651Y-18741D01*
X54540Y-15630D01*
X54549Y-15609D01*
X54549Y-15391D01*
X54465Y-15189D01*
X54311Y-15035D01*
X54226Y-15000D01*
X54311Y-14965D01*
X54465Y-14811D01*
X54549Y-14609D01*
X54549Y-14391D01*
X54465Y-14189D01*
X54311Y-14035D01*
X54226Y-14000D01*
X54311Y-13965D01*
X54465Y-13811D01*
X54549Y-13609D01*
X54549Y-13391D01*
X54465Y-13189D01*
X54311Y-13035D01*
X54109Y-12951D01*
X53891Y-12951D01*
X53689Y-13035D01*
X53535Y-13189D01*
X53451Y-13391D01*
X53451Y-13609D01*
X53459Y-13630D01*
X53308Y-13781D01*
X53308Y-10378D01*
X53000Y-10071D01*
X52929Y-10141D01*
X52929Y-10000D01*
X52622Y-09692D01*
X52528Y-09719D01*
X52504Y-09784D01*
X52465Y-09689D01*
X52311Y-09535D01*
X52226Y-09500D01*
X52311Y-09465D01*
X52465Y-09311D01*
X52502Y-09219D01*
X52528Y-09281D01*
X52622Y-09308D01*
X52929Y-09000D01*
X52622Y-08692D01*
X52528Y-08719D01*
X52504Y-08784D01*
X52465Y-08689D01*
X52311Y-08535D01*
X52109Y-08451D01*
X51891Y-08451D01*
X51689Y-08535D01*
X51535Y-08689D01*
X51497Y-08780D01*
X51472Y-08719D01*
X51378Y-08692D01*
X51308Y-08762D01*
X51308Y-08622D01*
X51281Y-08528D01*
X51079Y-08457D01*
X50866Y-08468D01*
X50719Y-08528D01*
X50692Y-08622D01*
X51000Y-08929D01*
X51308Y-08622D01*
X51308Y-08762D01*
X51071Y-09000D01*
X51378Y-09308D01*
X51472Y-09281D01*
X51495Y-09215D01*
X51535Y-09311D01*
X51689Y-09465D01*
X51773Y-09500D01*
X51689Y-09535D01*
X51535Y-09689D01*
X51497Y-09780D01*
X51472Y-09719D01*
X51378Y-09692D01*
X51308Y-09762D01*
X51308Y-09622D01*
X51281Y-09528D01*
X51207Y-09502D01*
X51281Y-09472D01*
X51308Y-09378D01*
X51000Y-09071D01*
X50692Y-09378D01*
X50719Y-09472D01*
X50792Y-09497D01*
X50719Y-09528D01*
X50692Y-09622D01*
X51000Y-09929D01*
X51308Y-09622D01*
X51308Y-09762D01*
X51071Y-10000D01*
X51378Y-10308D01*
X51472Y-10281D01*
X51495Y-10215D01*
X51535Y-10311D01*
X51689Y-10465D01*
X51891Y-10549D01*
X52109Y-10549D01*
X52311Y-10465D01*
X52465Y-10311D01*
X52502Y-10219D01*
X52528Y-10281D01*
X52622Y-10308D01*
X52929Y-10000D01*
X52929Y-10141D01*
X52692Y-10378D01*
X52719Y-10472D01*
X52921Y-10543D01*
X53134Y-10532D01*
X53281Y-10472D01*
X53308Y-10378D01*
X53308Y-13781D01*
X53239Y-13851D01*
X53176Y-13945D01*
X53154Y-14056D01*
X53154Y-16012D01*
X53176Y-16123D01*
X53239Y-16217D01*
X55973Y-18951D01*
X55891Y-18951D01*
X55689Y-19035D01*
X55535Y-19189D01*
X55451Y-19391D01*
X55451Y-19609D01*
X55535Y-19811D01*
X55675Y-19951D01*
X55651Y-19951D01*
X55559Y-19989D01*
X55489Y-20059D01*
X55451Y-20150D01*
X55451Y-20249D01*
X55451Y-20849D01*
X55489Y-20941D01*
X55559Y-21011D01*
X55650Y-21049D01*
X55651Y-21049D01*
X55651Y-21500D01*
X55678Y-21634D01*
X55753Y-21747D01*
X56253Y-22247D01*
X56366Y-22322D01*
X56367Y-22322D01*
X56500Y-22349D01*
X82000Y-22349D01*
X82133Y-22322D01*
X82134Y-22322D01*
X82247Y-22247D01*
X86744Y-17748D01*
X86746Y-17747D01*
X86747Y-17747D01*
X86822Y-17634D01*
X86849Y-17501D01*
X86848Y-17500D01*
X86849Y-17500D01*
X86849Y-14927D01*
X86965Y-14811D01*
X87049Y-14609D01*
X87049Y-15212D01*
X87028Y-15219D01*
X86957Y-15421D01*
X86968Y-15634D01*
X87028Y-15781D01*
X87122Y-15808D01*
X87429Y-15500D01*
X87429Y-15641D01*
X87192Y-15878D01*
X87219Y-15972D01*
X87421Y-16043D01*
X87634Y-16032D01*
X87781Y-15972D01*
X87808Y-15878D01*
X87808Y-22675D01*
X51308Y-22675D01*
X51308Y-10378D01*
X51000Y-10071D01*
X50929Y-10141D01*
X50929Y-10000D01*
X50622Y-09692D01*
X50528Y-09719D01*
X50504Y-09784D01*
X50465Y-09689D01*
X50311Y-09535D01*
X50226Y-09500D01*
X50311Y-09465D01*
X50465Y-09311D01*
X50502Y-09219D01*
X50528Y-09281D01*
X50622Y-09308D01*
X50929Y-09000D01*
X50622Y-08692D01*
X50528Y-08719D01*
X50504Y-08784D01*
X50465Y-08689D01*
X50311Y-08535D01*
X50109Y-08451D01*
X49891Y-08451D01*
X49689Y-08535D01*
X49535Y-08689D01*
X49497Y-08780D01*
X49472Y-08719D01*
X49378Y-08692D01*
X49308Y-08762D01*
X49308Y-08622D01*
X49281Y-08528D01*
X49079Y-08457D01*
X48866Y-08468D01*
X48719Y-08528D01*
X48692Y-08622D01*
X49000Y-08929D01*
X49308Y-08622D01*
X49308Y-08762D01*
X49071Y-09000D01*
X49378Y-09308D01*
X49472Y-09281D01*
X49495Y-09215D01*
X49535Y-09311D01*
X49689Y-09465D01*
X49773Y-09500D01*
X49689Y-09535D01*
X49535Y-09689D01*
X49497Y-09780D01*
X49472Y-09719D01*
X49378Y-09692D01*
X49308Y-09762D01*
X49308Y-09622D01*
X49281Y-09528D01*
X49207Y-09502D01*
X49281Y-09472D01*
X49308Y-09378D01*
X49000Y-09071D01*
X48692Y-09378D01*
X48719Y-09472D01*
X48792Y-09497D01*
X48719Y-09528D01*
X48692Y-09622D01*
X49000Y-09929D01*
X49308Y-09622D01*
X49308Y-09762D01*
X49071Y-10000D01*
X49378Y-10308D01*
X49472Y-10281D01*
X49495Y-10215D01*
X49535Y-10311D01*
X49689Y-10465D01*
X49891Y-10549D01*
X50109Y-10549D01*
X50311Y-10465D01*
X50465Y-10311D01*
X50502Y-10219D01*
X50528Y-10281D01*
X50622Y-10308D01*
X50929Y-10000D01*
X50929Y-10141D01*
X50692Y-10378D01*
X50719Y-10472D01*
X50921Y-10543D01*
X51134Y-10532D01*
X51281Y-10472D01*
X51308Y-10378D01*
X51308Y-22675D01*
X51049Y-22675D01*
X51049Y-15609D01*
X51049Y-15391D01*
X50965Y-15189D01*
X50811Y-15035D01*
X50726Y-15000D01*
X50811Y-14965D01*
X50965Y-14811D01*
X51049Y-14609D01*
X51049Y-14391D01*
X50965Y-14189D01*
X50811Y-14035D01*
X50726Y-14000D01*
X50811Y-13965D01*
X50965Y-13811D01*
X51049Y-13609D01*
X51049Y-13391D01*
X50965Y-13189D01*
X50811Y-13035D01*
X50609Y-12951D01*
X50391Y-12951D01*
X50189Y-13035D01*
X50035Y-13189D01*
X49951Y-13391D01*
X49951Y-13609D01*
X50035Y-13811D01*
X50189Y-13965D01*
X50273Y-14000D01*
X50189Y-14035D01*
X50035Y-14189D01*
X49951Y-14391D01*
X49951Y-14609D01*
X50035Y-14811D01*
X50189Y-14965D01*
X50273Y-15000D01*
X50189Y-15035D01*
X50035Y-15189D01*
X49951Y-15391D01*
X49951Y-15609D01*
X50035Y-15811D01*
X50189Y-15965D01*
X50391Y-16049D01*
X50609Y-16049D01*
X50811Y-15965D01*
X50965Y-15811D01*
X51049Y-15609D01*
X51049Y-22675D01*
X49308Y-22675D01*
X49308Y-10378D01*
X49000Y-10071D01*
X48929Y-10141D01*
X48929Y-10000D01*
X48622Y-09692D01*
X48528Y-09719D01*
X48504Y-09784D01*
X48465Y-09689D01*
X48311Y-09535D01*
X48226Y-09500D01*
X48311Y-09465D01*
X48465Y-09311D01*
X48502Y-09219D01*
X48528Y-09281D01*
X48622Y-09308D01*
X48929Y-09000D01*
X48622Y-08692D01*
X48528Y-08719D01*
X48504Y-08784D01*
X48465Y-08689D01*
X48311Y-08535D01*
X48109Y-08451D01*
X47891Y-08451D01*
X47689Y-08535D01*
X47535Y-08689D01*
X47500Y-08773D01*
X47465Y-08689D01*
X47311Y-08535D01*
X47109Y-08451D01*
X46891Y-08451D01*
X46689Y-08535D01*
X46535Y-08689D01*
X46451Y-08891D01*
X46451Y-09109D01*
X46535Y-09311D01*
X46675Y-09451D01*
X46651Y-09451D01*
X46559Y-09489D01*
X46489Y-09559D01*
X46451Y-09650D01*
X46451Y-09749D01*
X46451Y-10349D01*
X46489Y-10441D01*
X46559Y-10511D01*
X46650Y-10549D01*
X46749Y-10549D01*
X47349Y-10549D01*
X47441Y-10511D01*
X47511Y-10441D01*
X47549Y-10350D01*
X47549Y-10325D01*
X47689Y-10465D01*
X47891Y-10549D01*
X48109Y-10549D01*
X48311Y-10465D01*
X48465Y-10311D01*
X48502Y-10219D01*
X48528Y-10281D01*
X48622Y-10308D01*
X48929Y-10000D01*
X48929Y-10141D01*
X48692Y-10378D01*
X48719Y-10472D01*
X48921Y-10543D01*
X49134Y-10532D01*
X49281Y-10472D01*
X49308Y-10378D01*
X49308Y-22675D01*
X43825Y-22675D01*
X43825Y-08000D01*
X43825Y-07626D01*
X43825Y-07500D01*
X43825Y-07425D01*
X43825Y-05388D01*
X88175Y-05388D01*
X88175Y-07492D01*
X88175Y-07496D01*
X88175Y-07500D01*
X88175Y-08000D01*
X88175Y-22675D01*
X88175Y-22675D01*
G37*
G54D17*
X88175Y-22675D02*
X88043Y-22675D01*
X88043Y-15579D01*
X88043Y-13579D01*
X88032Y-13366D01*
X87972Y-13219D01*
X87878Y-13192D01*
X87808Y-13262D01*
X87808Y-13122D01*
X87781Y-13028D01*
X87579Y-12957D01*
X87366Y-12968D01*
X87219Y-13028D01*
X87192Y-13122D01*
X87500Y-13429D01*
X87808Y-13122D01*
X87808Y-13262D01*
X87571Y-13500D01*
X87878Y-13808D01*
X87972Y-13781D01*
X88043Y-13579D01*
X88043Y-15579D01*
X88032Y-15366D01*
X87972Y-15219D01*
X87878Y-15192D01*
X87808Y-15262D01*
X87808Y-15122D01*
X87808Y-13878D01*
X87500Y-13571D01*
X87429Y-13641D01*
X87429Y-13500D01*
X87122Y-13192D01*
X87028Y-13219D01*
X86957Y-13421D01*
X86968Y-13634D01*
X87028Y-13781D01*
X87122Y-13808D01*
X87429Y-13500D01*
X87429Y-13641D01*
X87192Y-13878D01*
X87219Y-13972D01*
X87421Y-14043D01*
X87634Y-14032D01*
X87781Y-13972D01*
X87808Y-13878D01*
X87808Y-15122D01*
X87781Y-15028D01*
X87579Y-14957D01*
X87366Y-14968D01*
X87219Y-15028D01*
X87192Y-15122D01*
X87500Y-15429D01*
X87808Y-15122D01*
X87808Y-15262D01*
X87571Y-15500D01*
X87878Y-15808D01*
X87972Y-15781D01*
X88043Y-15579D01*
X88043Y-22675D01*
X87808Y-22675D01*
X87808Y-15878D01*
X87500Y-15571D01*
X87429Y-15641D01*
X87429Y-15500D01*
X87122Y-15192D01*
X87049Y-15212D01*
X87049Y-14609D01*
X87049Y-14391D01*
X86965Y-14189D01*
X86811Y-14035D01*
X86609Y-13951D01*
X86391Y-13951D01*
X86189Y-14035D01*
X86043Y-14181D01*
X86043Y-13579D01*
X86032Y-13366D01*
X85972Y-13219D01*
X85878Y-13192D01*
X85808Y-13262D01*
X85808Y-13122D01*
X85781Y-13028D01*
X85579Y-12957D01*
X85366Y-12968D01*
X85219Y-13028D01*
X85192Y-13122D01*
X85500Y-13429D01*
X85808Y-13122D01*
X85808Y-13262D01*
X85571Y-13500D01*
X85878Y-13808D01*
X85972Y-13781D01*
X86043Y-13579D01*
X86043Y-14181D01*
X86035Y-14189D01*
X85951Y-14391D01*
X85951Y-14609D01*
X86035Y-14811D01*
X86151Y-14927D01*
X86151Y-17355D01*
X86043Y-17463D01*
X86043Y-15579D01*
X86032Y-15366D01*
X85972Y-15219D01*
X85878Y-15192D01*
X85808Y-15262D01*
X85808Y-15122D01*
X85808Y-13878D01*
X85500Y-13571D01*
X85429Y-13641D01*
X85429Y-13500D01*
X85122Y-13192D01*
X85028Y-13219D01*
X84957Y-13421D01*
X84968Y-13634D01*
X85028Y-13781D01*
X85122Y-13808D01*
X85429Y-13500D01*
X85429Y-13641D01*
X85192Y-13878D01*
X85219Y-13972D01*
X85421Y-14043D01*
X85634Y-14032D01*
X85781Y-13972D01*
X85808Y-13878D01*
X85808Y-15122D01*
X85781Y-15028D01*
X85579Y-14957D01*
X85366Y-14968D01*
X85219Y-15028D01*
X85192Y-15122D01*
X85500Y-15429D01*
X85808Y-15122D01*
X85808Y-15262D01*
X85571Y-15500D01*
X85878Y-15808D01*
X85972Y-15781D01*
X86043Y-15579D01*
X86043Y-17463D01*
X85808Y-17698D01*
X85808Y-15878D01*
X85500Y-15571D01*
X85429Y-15641D01*
X85429Y-15500D01*
X85122Y-15192D01*
X85028Y-15219D01*
X84957Y-15421D01*
X84968Y-15634D01*
X85028Y-15781D01*
X85122Y-15808D01*
X85429Y-15500D01*
X85429Y-15641D01*
X85192Y-15878D01*
X85219Y-15972D01*
X85421Y-16043D01*
X85634Y-16032D01*
X85781Y-15972D01*
X85808Y-15878D01*
X85808Y-17698D01*
X81855Y-21651D01*
X81049Y-21651D01*
X81049Y-15609D01*
X81049Y-15391D01*
X80965Y-15189D01*
X80811Y-15035D01*
X80726Y-15000D01*
X80811Y-14965D01*
X80965Y-14811D01*
X81049Y-14609D01*
X81049Y-14391D01*
X81043Y-14376D01*
X81043Y-13579D01*
X81032Y-13366D01*
X80972Y-13219D01*
X80878Y-13192D01*
X80571Y-13500D01*
X80878Y-13808D01*
X80972Y-13781D01*
X81043Y-13579D01*
X81043Y-14376D01*
X80965Y-14189D01*
X80811Y-14035D01*
X80719Y-13997D01*
X80781Y-13972D01*
X80808Y-13878D01*
X80500Y-13571D01*
X80192Y-13878D01*
X80219Y-13972D01*
X80284Y-13995D01*
X80189Y-14035D01*
X80035Y-14189D01*
X79951Y-14391D01*
X79951Y-14609D01*
X80035Y-14811D01*
X80189Y-14965D01*
X80273Y-15000D01*
X80189Y-15035D01*
X80035Y-15189D01*
X79951Y-15391D01*
X79951Y-15609D01*
X80035Y-15811D01*
X80189Y-15965D01*
X80391Y-16049D01*
X80609Y-16049D01*
X80811Y-15965D01*
X80965Y-15811D01*
X81049Y-15609D01*
X81049Y-21651D01*
X73137Y-21651D01*
X73660Y-21128D01*
X73660Y-21127D01*
X73661Y-21127D01*
X73723Y-21034D01*
X73724Y-21033D01*
X73733Y-20983D01*
X73891Y-21049D01*
X74109Y-21049D01*
X74311Y-20965D01*
X74465Y-20811D01*
X74500Y-20726D01*
X74535Y-20811D01*
X74689Y-20965D01*
X74891Y-21049D01*
X75109Y-21049D01*
X75311Y-20965D01*
X75465Y-20811D01*
X75549Y-20609D01*
X75549Y-20391D01*
X75465Y-20189D01*
X75311Y-20035D01*
X75226Y-20000D01*
X75311Y-19965D01*
X75465Y-19811D01*
X75549Y-19609D01*
X75549Y-19391D01*
X75465Y-19189D01*
X75311Y-19035D01*
X75109Y-18951D01*
X74891Y-18951D01*
X74689Y-19035D01*
X74535Y-19189D01*
X74500Y-19273D01*
X74465Y-19189D01*
X74311Y-19035D01*
X74109Y-18951D01*
X73891Y-18951D01*
X73689Y-19035D01*
X73535Y-19189D01*
X73500Y-19273D01*
X73465Y-19189D01*
X73311Y-19035D01*
X73109Y-18951D01*
X72891Y-18951D01*
X72689Y-19035D01*
X72535Y-19189D01*
X72500Y-19273D01*
X72465Y-19189D01*
X72311Y-19035D01*
X72109Y-18951D01*
X72015Y-18951D01*
X74151Y-16815D01*
X76475Y-16815D01*
X76586Y-16793D01*
X76680Y-16730D01*
X79958Y-13451D01*
X79968Y-13634D01*
X80028Y-13781D01*
X80122Y-13808D01*
X80394Y-13535D01*
X80429Y-13500D01*
X80500Y-13429D01*
X80535Y-13394D01*
X80808Y-13122D01*
X80781Y-13028D01*
X80579Y-12957D01*
X80446Y-12963D01*
X82870Y-10540D01*
X82891Y-10549D01*
X83109Y-10549D01*
X83311Y-10465D01*
X83465Y-10311D01*
X83500Y-10226D01*
X83535Y-10311D01*
X83689Y-10465D01*
X83891Y-10549D01*
X84109Y-10549D01*
X84311Y-10465D01*
X84465Y-10311D01*
X84500Y-10226D01*
X84535Y-10311D01*
X84689Y-10465D01*
X84891Y-10549D01*
X85109Y-10549D01*
X85311Y-10465D01*
X85465Y-10311D01*
X85549Y-10109D01*
X85549Y-09891D01*
X85543Y-09876D01*
X85543Y-09079D01*
X85532Y-08866D01*
X85472Y-08719D01*
X85378Y-08692D01*
X85308Y-08762D01*
X85308Y-08622D01*
X85281Y-08528D01*
X85079Y-08457D01*
X84866Y-08468D01*
X84719Y-08528D01*
X84692Y-08622D01*
X85000Y-08929D01*
X85308Y-08622D01*
X85308Y-08762D01*
X85071Y-09000D01*
X85378Y-09308D01*
X85472Y-09281D01*
X85543Y-09079D01*
X85543Y-09876D01*
X85465Y-09689D01*
X85311Y-09535D01*
X85219Y-09497D01*
X85281Y-09472D01*
X85308Y-09378D01*
X85000Y-09071D01*
X84929Y-09141D01*
X84929Y-09000D01*
X84622Y-08692D01*
X84528Y-08719D01*
X84502Y-08792D01*
X84472Y-08719D01*
X84378Y-08692D01*
X84308Y-08762D01*
X84308Y-08622D01*
X84281Y-08528D01*
X84079Y-08457D01*
X83866Y-08468D01*
X83719Y-08528D01*
X83692Y-08622D01*
X84000Y-08929D01*
X84308Y-08622D01*
X84308Y-08762D01*
X84071Y-09000D01*
X84378Y-09308D01*
X84472Y-09281D01*
X84497Y-09207D01*
X84528Y-09281D01*
X84622Y-09308D01*
X84929Y-09000D01*
X84929Y-09141D01*
X84692Y-09378D01*
X84719Y-09472D01*
X84784Y-09495D01*
X84689Y-09535D01*
X84535Y-09689D01*
X84500Y-09773D01*
X84465Y-09689D01*
X84311Y-09535D01*
X84219Y-09497D01*
X84281Y-09472D01*
X84308Y-09378D01*
X84000Y-09071D01*
X83929Y-09141D01*
X83929Y-09000D01*
X83622Y-08692D01*
X83528Y-08719D01*
X83502Y-08792D01*
X83472Y-08719D01*
X83378Y-08692D01*
X83308Y-08762D01*
X83308Y-08622D01*
X83281Y-08528D01*
X83079Y-08457D01*
X82866Y-08468D01*
X82719Y-08528D01*
X82692Y-08622D01*
X83000Y-08929D01*
X83308Y-08622D01*
X83308Y-08762D01*
X83071Y-09000D01*
X83378Y-09308D01*
X83472Y-09281D01*
X83497Y-09207D01*
X83528Y-09281D01*
X83622Y-09308D01*
X83929Y-09000D01*
X83929Y-09141D01*
X83692Y-09378D01*
X83719Y-09472D01*
X83784Y-09495D01*
X83689Y-09535D01*
X83535Y-09689D01*
X83500Y-09773D01*
X83465Y-09689D01*
X83311Y-09535D01*
X83219Y-09497D01*
X83281Y-09472D01*
X83308Y-09378D01*
X83000Y-09071D01*
X82929Y-09141D01*
X82929Y-09000D01*
X82622Y-08692D01*
X82528Y-08719D01*
X82502Y-08792D01*
X82472Y-08719D01*
X82378Y-08692D01*
X82308Y-08762D01*
X82308Y-08622D01*
X82281Y-08528D01*
X82079Y-08457D01*
X81866Y-08468D01*
X81719Y-08528D01*
X81692Y-08622D01*
X82000Y-08929D01*
X82308Y-08622D01*
X82308Y-08762D01*
X82071Y-09000D01*
X82378Y-09308D01*
X82472Y-09281D01*
X82497Y-09207D01*
X82528Y-09281D01*
X82622Y-09308D01*
X82929Y-09000D01*
X82929Y-09141D01*
X82692Y-09378D01*
X82719Y-09472D01*
X82784Y-09495D01*
X82689Y-09535D01*
X82535Y-09689D01*
X82500Y-09773D01*
X82465Y-09689D01*
X82311Y-09535D01*
X82219Y-09497D01*
X82281Y-09472D01*
X82308Y-09378D01*
X82000Y-09071D01*
X81929Y-09141D01*
X81929Y-09000D01*
X81622Y-08692D01*
X81528Y-08719D01*
X81502Y-08792D01*
X81472Y-08719D01*
X81378Y-08692D01*
X81308Y-08762D01*
X81308Y-08622D01*
X81281Y-08528D01*
X81079Y-08457D01*
X80866Y-08468D01*
X80719Y-08528D01*
X80692Y-08622D01*
X81000Y-08929D01*
X81308Y-08622D01*
X81308Y-08762D01*
X81071Y-09000D01*
X81378Y-09308D01*
X81472Y-09281D01*
X81497Y-09207D01*
X81528Y-09281D01*
X81622Y-09308D01*
X81929Y-09000D01*
X81929Y-09141D01*
X81692Y-09378D01*
X81719Y-09472D01*
X81784Y-09495D01*
X81689Y-09535D01*
X81535Y-09689D01*
X81500Y-09773D01*
X81465Y-09689D01*
X81311Y-09535D01*
X81219Y-09497D01*
X81281Y-09472D01*
X81308Y-09378D01*
X81000Y-09071D01*
X80929Y-09141D01*
X80929Y-09000D01*
X80622Y-08692D01*
X80528Y-08719D01*
X80502Y-08792D01*
X80472Y-08719D01*
X80378Y-08692D01*
X80308Y-08762D01*
X80308Y-08622D01*
X80281Y-08528D01*
X80079Y-08457D01*
X79866Y-08468D01*
X79719Y-08528D01*
X79692Y-08622D01*
X80000Y-08929D01*
X80308Y-08622D01*
X80308Y-08762D01*
X80071Y-09000D01*
X80378Y-09308D01*
X80472Y-09281D01*
X80497Y-09207D01*
X80528Y-09281D01*
X80622Y-09308D01*
X80929Y-09000D01*
X80929Y-09141D01*
X80692Y-09378D01*
X80719Y-09472D01*
X80784Y-09495D01*
X80689Y-09535D01*
X80535Y-09689D01*
X80500Y-09773D01*
X80465Y-09689D01*
X80311Y-09535D01*
X80219Y-09497D01*
X80281Y-09472D01*
X80308Y-09378D01*
X80000Y-09071D01*
X79929Y-09141D01*
X79929Y-09000D01*
X79622Y-08692D01*
X79528Y-08719D01*
X79502Y-08792D01*
X79472Y-08719D01*
X79378Y-08692D01*
X79308Y-08762D01*
X79308Y-08622D01*
X79281Y-08528D01*
X79079Y-08457D01*
X78866Y-08468D01*
X78719Y-08528D01*
X78692Y-08622D01*
X79000Y-08929D01*
X79308Y-08622D01*
X79308Y-08762D01*
X79071Y-09000D01*
X79378Y-09308D01*
X79472Y-09281D01*
X79497Y-09207D01*
X79528Y-09281D01*
X79622Y-09308D01*
X79929Y-09000D01*
X79929Y-09141D01*
X79692Y-09378D01*
X79719Y-09472D01*
X79784Y-09495D01*
X79689Y-09535D01*
X79535Y-09689D01*
X79500Y-09773D01*
X79465Y-09689D01*
X79311Y-09535D01*
X79219Y-09497D01*
X79281Y-09472D01*
X79308Y-09378D01*
X79000Y-09071D01*
X78929Y-09141D01*
X78929Y-09000D01*
X78622Y-08692D01*
X78528Y-08719D01*
X78502Y-08792D01*
X78472Y-08719D01*
X78378Y-08692D01*
X78308Y-08762D01*
X78308Y-08622D01*
X78281Y-08528D01*
X78079Y-08457D01*
X77866Y-08468D01*
X77719Y-08528D01*
X77692Y-08622D01*
X78000Y-08929D01*
X78308Y-08622D01*
X78308Y-08762D01*
X78071Y-09000D01*
X78378Y-09308D01*
X78472Y-09281D01*
X78497Y-09207D01*
X78528Y-09281D01*
X78622Y-09308D01*
X78929Y-09000D01*
X78929Y-09141D01*
X78692Y-09378D01*
X78719Y-09472D01*
X78784Y-09495D01*
X78689Y-09535D01*
X78535Y-09689D01*
X78500Y-09773D01*
X78465Y-09689D01*
X78311Y-09535D01*
X78219Y-09497D01*
X78281Y-09472D01*
X78308Y-09378D01*
X78000Y-09071D01*
X77692Y-09378D01*
X77719Y-09472D01*
X77784Y-09495D01*
X77689Y-09535D01*
X77535Y-09689D01*
X77500Y-09773D01*
X77465Y-09689D01*
X77311Y-09535D01*
X77226Y-09500D01*
X77311Y-09465D01*
X77465Y-09311D01*
X77502Y-09219D01*
X77528Y-09281D01*
X77622Y-09308D01*
X77929Y-09000D01*
X77622Y-08692D01*
X77528Y-08719D01*
X77504Y-08784D01*
X77465Y-08689D01*
X77311Y-08535D01*
X77109Y-08451D01*
X76891Y-08451D01*
X76689Y-08535D01*
X76535Y-08689D01*
X76500Y-08773D01*
X76465Y-08689D01*
X76311Y-08535D01*
X76109Y-08451D01*
X75891Y-08451D01*
X75689Y-08535D01*
X75535Y-08689D01*
X75500Y-08773D01*
X75465Y-08689D01*
X75311Y-08535D01*
X75109Y-08451D01*
X74891Y-08451D01*
X74689Y-08535D01*
X74535Y-08689D01*
X74500Y-08773D01*
X74465Y-08689D01*
X74311Y-08535D01*
X74109Y-08451D01*
X73891Y-08451D01*
X73689Y-08535D01*
X73535Y-08689D01*
X73500Y-08773D01*
X73465Y-08689D01*
X73311Y-08535D01*
X73109Y-08451D01*
X72891Y-08451D01*
X72689Y-08535D01*
X72535Y-08689D01*
X72451Y-08891D01*
X72451Y-09109D01*
X72535Y-09311D01*
X72675Y-09451D01*
X72651Y-09451D01*
X72559Y-09489D01*
X72489Y-09559D01*
X72451Y-09650D01*
X72451Y-09749D01*
X72451Y-10349D01*
X72489Y-10441D01*
X72559Y-10511D01*
X72650Y-10549D01*
X72749Y-10549D01*
X73349Y-10549D01*
X73441Y-10511D01*
X73511Y-10441D01*
X73549Y-10350D01*
X73549Y-10325D01*
X73689Y-10465D01*
X73891Y-10549D01*
X74109Y-10549D01*
X74311Y-10465D01*
X74465Y-10311D01*
X74500Y-10226D01*
X74535Y-10311D01*
X74689Y-10465D01*
X74891Y-10549D01*
X75109Y-10549D01*
X75311Y-10465D01*
X75465Y-10311D01*
X75500Y-10226D01*
X75535Y-10311D01*
X75689Y-10465D01*
X75891Y-10549D01*
X76109Y-10549D01*
X76311Y-10465D01*
X76465Y-10311D01*
X76500Y-10226D01*
X76535Y-10311D01*
X76689Y-10465D01*
X76891Y-10549D01*
X77109Y-10549D01*
X77311Y-10465D01*
X77465Y-10311D01*
X77500Y-10226D01*
X77535Y-10311D01*
X77689Y-10465D01*
X77891Y-10549D01*
X78109Y-10549D01*
X78311Y-10465D01*
X78465Y-10311D01*
X78500Y-10226D01*
X78535Y-10311D01*
X78689Y-10465D01*
X78891Y-10549D01*
X79109Y-10549D01*
X79311Y-10465D01*
X79465Y-10311D01*
X79500Y-10226D01*
X79535Y-10311D01*
X79689Y-10465D01*
X79891Y-10549D01*
X80109Y-10549D01*
X80311Y-10465D01*
X80465Y-10311D01*
X80500Y-10226D01*
X80535Y-10311D01*
X80689Y-10465D01*
X80891Y-10549D01*
X81109Y-10549D01*
X81311Y-10465D01*
X81465Y-10311D01*
X81500Y-10226D01*
X81535Y-10311D01*
X81689Y-10465D01*
X81891Y-10549D01*
X82040Y-10549D01*
X76354Y-16235D01*
X76245Y-16235D01*
X76296Y-16225D01*
X76390Y-16162D01*
X76761Y-15792D01*
X76761Y-15791D01*
X76824Y-15697D01*
X76845Y-15586D01*
X76846Y-15586D01*
X76846Y-15056D01*
X76824Y-14945D01*
X76761Y-14851D01*
X76540Y-14630D01*
X76549Y-14609D01*
X76549Y-14391D01*
X76543Y-14376D01*
X76543Y-13579D01*
X76532Y-13366D01*
X76472Y-13219D01*
X76378Y-13192D01*
X76308Y-13262D01*
X76308Y-13122D01*
X76281Y-13028D01*
X76079Y-12957D01*
X75866Y-12968D01*
X75719Y-13028D01*
X75692Y-13122D01*
X76000Y-13429D01*
X76308Y-13122D01*
X76308Y-13262D01*
X76071Y-13500D01*
X76378Y-13808D01*
X76472Y-13781D01*
X76543Y-13579D01*
X76543Y-14376D01*
X76465Y-14189D01*
X76311Y-14035D01*
X76219Y-13997D01*
X76281Y-13972D01*
X76308Y-13878D01*
X76000Y-13571D01*
X75929Y-13641D01*
X75929Y-13500D01*
X75622Y-13192D01*
X75528Y-13219D01*
X75457Y-13421D01*
X75468Y-13634D01*
X75528Y-13781D01*
X75622Y-13808D01*
X75929Y-13500D01*
X75929Y-13641D01*
X75692Y-13878D01*
X75719Y-13972D01*
X75784Y-13995D01*
X75689Y-14035D01*
X75535Y-14189D01*
X75451Y-14391D01*
X75451Y-14609D01*
X75535Y-14811D01*
X75689Y-14965D01*
X75773Y-15000D01*
X75689Y-15035D01*
X75573Y-15151D01*
X71927Y-15151D01*
X71811Y-15035D01*
X71726Y-15000D01*
X71811Y-14965D01*
X71965Y-14811D01*
X72049Y-14609D01*
X72049Y-14391D01*
X72043Y-14376D01*
X72043Y-13579D01*
X72032Y-13366D01*
X71972Y-13219D01*
X71878Y-13192D01*
X71808Y-13262D01*
X71808Y-13122D01*
X71781Y-13028D01*
X71579Y-12957D01*
X71366Y-12968D01*
X71219Y-13028D01*
X71192Y-13122D01*
X71500Y-13429D01*
X71808Y-13122D01*
X71808Y-13262D01*
X71571Y-13500D01*
X71878Y-13808D01*
X71972Y-13781D01*
X72043Y-13579D01*
X72043Y-14376D01*
X71965Y-14189D01*
X71811Y-14035D01*
X71719Y-13997D01*
X71781Y-13972D01*
X71808Y-13878D01*
X71500Y-13571D01*
X71429Y-13641D01*
X71429Y-13500D01*
X71122Y-13192D01*
X71028Y-13219D01*
X70957Y-13421D01*
X70968Y-13634D01*
X71028Y-13781D01*
X71122Y-13808D01*
X71429Y-13500D01*
X71429Y-13641D01*
X71192Y-13878D01*
X71219Y-13972D01*
X71284Y-13995D01*
X71189Y-14035D01*
X71035Y-14189D01*
X70951Y-14391D01*
X70951Y-14609D01*
X71035Y-14811D01*
X71189Y-14965D01*
X71273Y-15000D01*
X71189Y-15035D01*
X71073Y-15151D01*
X69500Y-15151D01*
X67427Y-15151D01*
X67311Y-15035D01*
X67226Y-15000D01*
X67311Y-14965D01*
X67465Y-14811D01*
X67549Y-14609D01*
X67549Y-14391D01*
X67543Y-14376D01*
X67543Y-13579D01*
X67532Y-13366D01*
X67472Y-13219D01*
X67378Y-13192D01*
X67308Y-13262D01*
X67308Y-13122D01*
X67281Y-13028D01*
X67079Y-12957D01*
X66866Y-12968D01*
X66719Y-13028D01*
X66692Y-13122D01*
X67000Y-13429D01*
X67308Y-13122D01*
X67308Y-13262D01*
X67071Y-13500D01*
X67378Y-13808D01*
X67472Y-13781D01*
X67543Y-13579D01*
X67543Y-14376D01*
X67465Y-14189D01*
X67311Y-14035D01*
X67219Y-13997D01*
X67281Y-13972D01*
X67308Y-13878D01*
X67000Y-13571D01*
X66929Y-13641D01*
X66929Y-13500D01*
X66622Y-13192D01*
X66528Y-13219D01*
X66457Y-13421D01*
X66468Y-13634D01*
X66528Y-13781D01*
X66622Y-13808D01*
X66929Y-13500D01*
X66929Y-13641D01*
X66692Y-13878D01*
X66719Y-13972D01*
X66784Y-13995D01*
X66689Y-14035D01*
X66535Y-14189D01*
X66451Y-14391D01*
X66451Y-14609D01*
X66459Y-14630D01*
X65444Y-15646D01*
X65381Y-15740D01*
X65359Y-15851D01*
X65359Y-18384D01*
X65218Y-18384D01*
X65062Y-18448D01*
X64991Y-18519D01*
X61691Y-18519D01*
X61580Y-18541D01*
X61486Y-18604D01*
X61130Y-18959D01*
X61109Y-18951D01*
X60891Y-18951D01*
X60689Y-19035D01*
X60535Y-19189D01*
X60500Y-19273D01*
X60465Y-19189D01*
X60311Y-19035D01*
X60109Y-18951D01*
X59891Y-18951D01*
X59689Y-19035D01*
X59535Y-19189D01*
X59500Y-19273D01*
X59465Y-19189D01*
X59311Y-19035D01*
X59109Y-18951D01*
X58891Y-18951D01*
X58849Y-18968D01*
X58849Y-12145D01*
X59145Y-11849D01*
X62500Y-11849D01*
X62633Y-11822D01*
X62634Y-11822D01*
X62747Y-11747D01*
X63945Y-10549D01*
X64109Y-10549D01*
X64311Y-10465D01*
X64465Y-10311D01*
X64500Y-10226D01*
X64535Y-10311D01*
X64689Y-10465D01*
X64891Y-10549D01*
X65109Y-10549D01*
X65126Y-10541D01*
X65075Y-10665D01*
X65075Y-10834D01*
X65139Y-10990D01*
X65259Y-11110D01*
X65415Y-11175D01*
X65584Y-11175D01*
X65740Y-11111D01*
X65860Y-10991D01*
X65925Y-10835D01*
X65925Y-10666D01*
X65874Y-10541D01*
X65891Y-10549D01*
X66109Y-10549D01*
X66311Y-10465D01*
X66465Y-10311D01*
X66549Y-10109D01*
X66549Y-09891D01*
X66465Y-09689D01*
X66311Y-09535D01*
X66226Y-09500D01*
X66311Y-09465D01*
X66465Y-09311D01*
X66549Y-09109D01*
X66549Y-08891D01*
X66465Y-08689D01*
X66311Y-08535D01*
X66109Y-08451D01*
X65891Y-08451D01*
X65848Y-08468D01*
X65848Y-08004D01*
X65848Y-08000D01*
X65849Y-08000D01*
X65822Y-07867D01*
X65822Y-07866D01*
X65747Y-07753D01*
X65634Y-07678D01*
X65500Y-07651D01*
X56000Y-07651D01*
X55866Y-07678D01*
X55753Y-07753D01*
X55253Y-08253D01*
X55178Y-08366D01*
X55156Y-08470D01*
X55109Y-08451D01*
X54891Y-08451D01*
X54689Y-08535D01*
X54535Y-08689D01*
X54500Y-08773D01*
X54465Y-08689D01*
X54311Y-08535D01*
X54109Y-08451D01*
X53891Y-08451D01*
X53689Y-08535D01*
X53535Y-08689D01*
X53497Y-08780D01*
X53472Y-08719D01*
X53378Y-08692D01*
X53308Y-08762D01*
X53308Y-08622D01*
X53281Y-08528D01*
X53079Y-08457D01*
X52866Y-08468D01*
X52719Y-08528D01*
X52692Y-08622D01*
X53000Y-08929D01*
X53308Y-08622D01*
X53308Y-08762D01*
X53071Y-09000D01*
X53378Y-09308D01*
X53472Y-09281D01*
X53495Y-09215D01*
X53535Y-09311D01*
X53689Y-09465D01*
X53773Y-09500D01*
X53689Y-09535D01*
X53535Y-09689D01*
X53497Y-09780D01*
X53472Y-09719D01*
X53378Y-09692D01*
X53308Y-09762D01*
X53308Y-09622D01*
X53281Y-09528D01*
X53207Y-09502D01*
X53281Y-09472D01*
X53308Y-09378D01*
X53000Y-09071D01*
X52692Y-09378D01*
X52719Y-09472D01*
X52792Y-09497D01*
X52719Y-09528D01*
X52692Y-09622D01*
X53000Y-09929D01*
X53308Y-09622D01*
X53308Y-09762D01*
X53071Y-10000D01*
X53378Y-10308D01*
X53472Y-10281D01*
X53495Y-10215D01*
X53535Y-10311D01*
X53689Y-10465D01*
X53891Y-10549D01*
X54109Y-10549D01*
X54311Y-10465D01*
X54465Y-10311D01*
X54500Y-10226D01*
X54535Y-10311D01*
X54689Y-10465D01*
X54891Y-10549D01*
X55109Y-10549D01*
X55311Y-10465D01*
X55465Y-10311D01*
X55500Y-10226D01*
X55535Y-10311D01*
X55689Y-10465D01*
X55891Y-10549D01*
X56109Y-10549D01*
X56311Y-10465D01*
X56465Y-10311D01*
X56500Y-10226D01*
X56535Y-10311D01*
X56689Y-10465D01*
X56891Y-10549D01*
X57109Y-10549D01*
X57311Y-10465D01*
X57465Y-10311D01*
X57500Y-10226D01*
X57535Y-10311D01*
X57689Y-10465D01*
X57891Y-10549D01*
X58109Y-10549D01*
X58311Y-10465D01*
X58465Y-10311D01*
X58500Y-10226D01*
X58535Y-10311D01*
X58689Y-10465D01*
X58891Y-10549D01*
X59109Y-10549D01*
X59311Y-10465D01*
X59465Y-10311D01*
X59500Y-10226D01*
X59535Y-10311D01*
X59689Y-10465D01*
X59891Y-10549D01*
X60109Y-10549D01*
X60311Y-10465D01*
X60465Y-10311D01*
X60500Y-10226D01*
X60535Y-10311D01*
X60689Y-10465D01*
X60891Y-10549D01*
X61109Y-10549D01*
X61311Y-10465D01*
X61465Y-10311D01*
X61500Y-10226D01*
X61535Y-10311D01*
X61689Y-10465D01*
X61891Y-10549D01*
X61957Y-10549D01*
X61855Y-10651D01*
X58500Y-10651D01*
X58366Y-10678D01*
X58253Y-10753D01*
X57753Y-11253D01*
X57678Y-11366D01*
X57651Y-11500D01*
X57651Y-18741D01*
X54540Y-15630D01*
X54549Y-15609D01*
X54549Y-15391D01*
X54465Y-15189D01*
X54311Y-15035D01*
X54226Y-15000D01*
X54311Y-14965D01*
X54465Y-14811D01*
X54549Y-14609D01*
X54549Y-14391D01*
X54465Y-14189D01*
X54311Y-14035D01*
X54226Y-14000D01*
X54311Y-13965D01*
X54465Y-13811D01*
X54549Y-13609D01*
X54549Y-13391D01*
X54465Y-13189D01*
X54311Y-13035D01*
X54109Y-12951D01*
X53891Y-12951D01*
X53689Y-13035D01*
X53535Y-13189D01*
X53451Y-13391D01*
X53451Y-13609D01*
X53459Y-13630D01*
X53308Y-13781D01*
X53308Y-10378D01*
X53000Y-10071D01*
X52929Y-10141D01*
X52929Y-10000D01*
X52622Y-09692D01*
X52528Y-09719D01*
X52504Y-09784D01*
X52465Y-09689D01*
X52311Y-09535D01*
X52226Y-09500D01*
X52311Y-09465D01*
X52465Y-09311D01*
X52502Y-09219D01*
X52528Y-09281D01*
X52622Y-09308D01*
X52929Y-09000D01*
X52622Y-08692D01*
X52528Y-08719D01*
X52504Y-08784D01*
X52465Y-08689D01*
X52311Y-08535D01*
X52109Y-08451D01*
X51891Y-08451D01*
X51689Y-08535D01*
X51535Y-08689D01*
X51497Y-08780D01*
X51472Y-08719D01*
X51378Y-08692D01*
X51308Y-08762D01*
X51308Y-08622D01*
X51281Y-08528D01*
X51079Y-08457D01*
X50866Y-08468D01*
X50719Y-08528D01*
X50692Y-08622D01*
X51000Y-08929D01*
X51308Y-08622D01*
X51308Y-08762D01*
X51071Y-09000D01*
X51378Y-09308D01*
X51472Y-09281D01*
X51495Y-09215D01*
X51535Y-09311D01*
X51689Y-09465D01*
X51773Y-09500D01*
X51689Y-09535D01*
X51535Y-09689D01*
X51497Y-09780D01*
X51472Y-09719D01*
X51378Y-09692D01*
X51308Y-09762D01*
X51308Y-09622D01*
X51281Y-09528D01*
X51207Y-09502D01*
X51281Y-09472D01*
X51308Y-09378D01*
X51000Y-09071D01*
X50692Y-09378D01*
X50719Y-09472D01*
X50792Y-09497D01*
X50719Y-09528D01*
X50692Y-09622D01*
X51000Y-09929D01*
X51308Y-09622D01*
X51308Y-09762D01*
X51071Y-10000D01*
X51378Y-10308D01*
X51472Y-10281D01*
X51495Y-10215D01*
X51535Y-10311D01*
X51689Y-10465D01*
X51891Y-10549D01*
X52109Y-10549D01*
X52311Y-10465D01*
X52465Y-10311D01*
X52502Y-10219D01*
X52528Y-10281D01*
X52622Y-10308D01*
X52929Y-10000D01*
X52929Y-10141D01*
X52692Y-10378D01*
X52719Y-10472D01*
X52921Y-10543D01*
X53134Y-10532D01*
X53281Y-10472D01*
X53308Y-10378D01*
X53308Y-13781D01*
X53239Y-13851D01*
X53176Y-13945D01*
X53154Y-14056D01*
X53154Y-16012D01*
X53176Y-16123D01*
X53239Y-16217D01*
X55973Y-18951D01*
X55891Y-18951D01*
X55689Y-19035D01*
X55535Y-19189D01*
X55451Y-19391D01*
X55451Y-19609D01*
X55535Y-19811D01*
X55675Y-19951D01*
X55651Y-19951D01*
X55559Y-19989D01*
X55489Y-20059D01*
X55451Y-20150D01*
X55451Y-20249D01*
X55451Y-20849D01*
X55489Y-20941D01*
X55559Y-21011D01*
X55650Y-21049D01*
X55651Y-21049D01*
X55651Y-21500D01*
X55678Y-21634D01*
X55753Y-21747D01*
X56253Y-22247D01*
X56366Y-22322D01*
X56367Y-22322D01*
X56500Y-22349D01*
X82000Y-22349D01*
X82133Y-22322D01*
X82134Y-22322D01*
X82247Y-22247D01*
X86744Y-17748D01*
X86746Y-17747D01*
X86747Y-17747D01*
X86822Y-17634D01*
X86849Y-17501D01*
X86848Y-17500D01*
X86849Y-17500D01*
X86849Y-14927D01*
X86965Y-14811D01*
X87049Y-14609D01*
X87049Y-15212D01*
X87028Y-15219D01*
X86957Y-15421D01*
X86968Y-15634D01*
X87028Y-15781D01*
X87122Y-15808D01*
X87429Y-15500D01*
X87429Y-15641D01*
X87192Y-15878D01*
X87219Y-15972D01*
X87421Y-16043D01*
X87634Y-16032D01*
X87781Y-15972D01*
X87808Y-15878D01*
X87808Y-22675D01*
X51308Y-22675D01*
X51308Y-10378D01*
X51000Y-10071D01*
X50929Y-10141D01*
X50929Y-10000D01*
X50622Y-09692D01*
X50528Y-09719D01*
X50504Y-09784D01*
X50465Y-09689D01*
X50311Y-09535D01*
X50226Y-09500D01*
X50311Y-09465D01*
X50465Y-09311D01*
X50502Y-09219D01*
X50528Y-09281D01*
X50622Y-09308D01*
X50929Y-09000D01*
X50622Y-08692D01*
X50528Y-08719D01*
X50504Y-08784D01*
X50465Y-08689D01*
X50311Y-08535D01*
X50109Y-08451D01*
X49891Y-08451D01*
X49689Y-08535D01*
X49535Y-08689D01*
X49497Y-08780D01*
X49472Y-08719D01*
X49378Y-08692D01*
X49308Y-08762D01*
X49308Y-08622D01*
X49281Y-08528D01*
X49079Y-08457D01*
X48866Y-08468D01*
X48719Y-08528D01*
X48692Y-08622D01*
X49000Y-08929D01*
X49308Y-08622D01*
X49308Y-08762D01*
X49071Y-09000D01*
X49378Y-09308D01*
X49472Y-09281D01*
X49495Y-09215D01*
X49535Y-09311D01*
X49689Y-09465D01*
X49773Y-09500D01*
X49689Y-09535D01*
X49535Y-09689D01*
X49497Y-09780D01*
X49472Y-09719D01*
X49378Y-09692D01*
X49308Y-09762D01*
X49308Y-09622D01*
X49281Y-09528D01*
X49207Y-09502D01*
X49281Y-09472D01*
X49308Y-09378D01*
X49000Y-09071D01*
X48692Y-09378D01*
X48719Y-09472D01*
X48792Y-09497D01*
X48719Y-09528D01*
X48692Y-09622D01*
X49000Y-09929D01*
X49308Y-09622D01*
X49308Y-09762D01*
X49071Y-10000D01*
X49378Y-10308D01*
X49472Y-10281D01*
X49495Y-10215D01*
X49535Y-10311D01*
X49689Y-10465D01*
X49891Y-10549D01*
X50109Y-10549D01*
X50311Y-10465D01*
X50465Y-10311D01*
X50502Y-10219D01*
X50528Y-10281D01*
X50622Y-10308D01*
X50929Y-10000D01*
X50929Y-10141D01*
X50692Y-10378D01*
X50719Y-10472D01*
X50921Y-10543D01*
X51134Y-10532D01*
X51281Y-10472D01*
X51308Y-10378D01*
X51308Y-22675D01*
X51049Y-22675D01*
X51049Y-15609D01*
X51049Y-15391D01*
X50965Y-15189D01*
X50811Y-15035D01*
X50726Y-15000D01*
X50811Y-14965D01*
X50965Y-14811D01*
X51049Y-14609D01*
X51049Y-14391D01*
X50965Y-14189D01*
X50811Y-14035D01*
X50726Y-14000D01*
X50811Y-13965D01*
X50965Y-13811D01*
X51049Y-13609D01*
X51049Y-13391D01*
X50965Y-13189D01*
X50811Y-13035D01*
X50609Y-12951D01*
X50391Y-12951D01*
X50189Y-13035D01*
X50035Y-13189D01*
X49951Y-13391D01*
X49951Y-13609D01*
X50035Y-13811D01*
X50189Y-13965D01*
X50273Y-14000D01*
X50189Y-14035D01*
X50035Y-14189D01*
X49951Y-14391D01*
X49951Y-14609D01*
X50035Y-14811D01*
X50189Y-14965D01*
X50273Y-15000D01*
X50189Y-15035D01*
X50035Y-15189D01*
X49951Y-15391D01*
X49951Y-15609D01*
X50035Y-15811D01*
X50189Y-15965D01*
X50391Y-16049D01*
X50609Y-16049D01*
X50811Y-15965D01*
X50965Y-15811D01*
X51049Y-15609D01*
X51049Y-22675D01*
X49308Y-22675D01*
X49308Y-10378D01*
X49000Y-10071D01*
X48929Y-10141D01*
X48929Y-10000D01*
X48622Y-09692D01*
X48528Y-09719D01*
X48504Y-09784D01*
X48465Y-09689D01*
X48311Y-09535D01*
X48226Y-09500D01*
X48311Y-09465D01*
X48465Y-09311D01*
X48502Y-09219D01*
X48528Y-09281D01*
X48622Y-09308D01*
X48929Y-09000D01*
X48622Y-08692D01*
X48528Y-08719D01*
X48504Y-08784D01*
X48465Y-08689D01*
X48311Y-08535D01*
X48109Y-08451D01*
X47891Y-08451D01*
X47689Y-08535D01*
X47535Y-08689D01*
X47500Y-08773D01*
X47465Y-08689D01*
X47311Y-08535D01*
X47109Y-08451D01*
X46891Y-08451D01*
X46689Y-08535D01*
X46535Y-08689D01*
X46451Y-08891D01*
X46451Y-09109D01*
X46535Y-09311D01*
X46675Y-09451D01*
X46651Y-09451D01*
X46559Y-09489D01*
X46489Y-09559D01*
X46451Y-09650D01*
X46451Y-09749D01*
X46451Y-10349D01*
X46489Y-10441D01*
X46559Y-10511D01*
X46650Y-10549D01*
X46749Y-10549D01*
X47349Y-10549D01*
X47441Y-10511D01*
X47511Y-10441D01*
X47549Y-10350D01*
X47549Y-10325D01*
X47689Y-10465D01*
X47891Y-10549D01*
X48109Y-10549D01*
X48311Y-10465D01*
X48465Y-10311D01*
X48502Y-10219D01*
X48528Y-10281D01*
X48622Y-10308D01*
X48929Y-10000D01*
X48929Y-10141D01*
X48692Y-10378D01*
X48719Y-10472D01*
X48921Y-10543D01*
X49134Y-10532D01*
X49281Y-10472D01*
X49308Y-10378D01*
X49308Y-22675D01*
X43825Y-22675D01*
X43825Y-08000D01*
X43825Y-07626D01*
X43825Y-07500D01*
X43825Y-07425D01*
X43825Y-05388D01*
X88175Y-05388D01*
X88175Y-07492D01*
X88175Y-07496D01*
X88175Y-07500D01*
X88175Y-08000D01*
X88175Y-22675D01*
M02*
