M48
;DRILL file {Pcbnew (2012-01-19 BZR 3256)-stable} date 5/23/2012 10:37:25 AM
;FORMAT={-:-/ absolute / metric / decimal}
FMAT,2
METRIC,TZ
T1C0.635
T2C1.016
T3C3.500
%
G90
G05
M71
T1
X148.679Y-56.830
X165.611Y-56.830
X165.631Y-80.790
X172.890Y-78.791
X174.320Y-77.790
X183.139Y-57.120
X183.139Y-59.660
X183.139Y-64.719
X183.139Y-67.290
X183.139Y-69.860
X206.850Y-78.219
X208.719Y-78.791
X215.389Y-56.810
X215.529Y-80.790
X232.669Y-80.790
X243.611Y-87.361
T2
X189.311Y-43.160
X189.311Y-45.700
X189.311Y-48.240
X189.311Y-50.780
X189.311Y-53.320
X189.311Y-55.860
X189.311Y-58.400
X189.311Y-60.940
X189.311Y-63.480
X189.311Y-66.020
X189.311Y-68.560
X189.311Y-71.100
X189.311Y-73.640
X189.311Y-76.180
X189.311Y-78.720
X189.311Y-81.260
X189.311Y-83.800
X189.311Y-86.340
X189.311Y-88.880
X189.311Y-91.420
X191.851Y-43.160
X191.851Y-45.700
X191.851Y-48.240
X191.851Y-50.780
X191.851Y-53.320
X191.851Y-55.860
X191.851Y-58.400
X191.851Y-60.940
X191.851Y-63.480
X191.851Y-66.020
X191.851Y-68.560
X191.851Y-71.100
X191.851Y-73.640
X191.851Y-76.180
X191.851Y-78.720
X191.851Y-81.260
X191.851Y-83.800
X191.851Y-86.340
X191.851Y-88.880
X191.851Y-91.420
X247.310Y-43.160
X247.310Y-45.700
X247.310Y-48.240
X247.310Y-50.780
X247.310Y-53.320
X247.310Y-55.860
X247.310Y-58.400
X247.310Y-60.940
X247.310Y-63.480
X247.310Y-66.020
X247.310Y-68.560
X247.310Y-71.100
X247.310Y-73.640
X247.310Y-76.180
X247.310Y-78.720
X247.310Y-81.260
X247.310Y-83.800
X247.310Y-86.340
X247.310Y-88.880
X247.310Y-91.420
X249.850Y-43.160
X249.850Y-45.700
X249.850Y-48.240
X249.850Y-50.780
X249.850Y-53.320
X249.850Y-55.860
X249.850Y-58.400
X249.850Y-60.940
X249.850Y-63.480
X249.850Y-66.020
X249.850Y-68.560
X249.850Y-71.100
X249.850Y-73.640
X249.850Y-76.180
X249.850Y-78.720
X249.850Y-81.260
X249.850Y-83.800
X249.850Y-86.340
X249.850Y-88.880
X249.850Y-91.420
T3
X151.079Y-21.039
X201.079Y-21.039
X251.079Y-21.039
T0
M30
