G04 (created by PCBNEW-RS274X (2012-01-19 BZR 3256)-stable) date 5/23/2012 10:37:18 AM*
G01*
G70*
G90*
%MOIN*%
G04 Gerber Fmt 3.4, Leading zero omitted, Abs format*
%FSLAX34Y34*%
G04 APERTURE LIST*
%ADD10C,0.006000*%
%ADD11R,0.080000X0.080000*%
%ADD12C,0.080000*%
%ADD13R,0.094000X0.044000*%
%ADD14C,0.180000*%
G04 APERTURE END LIST*
G54D10*
G54D11*
X98366Y-16992D03*
G54D12*
X97366Y-16992D03*
X98366Y-21992D03*
X97366Y-17992D03*
X98366Y-22992D03*
X97366Y-18992D03*
X98366Y-23992D03*
X97366Y-19992D03*
X98366Y-24992D03*
X97366Y-20992D03*
X98366Y-25992D03*
X97366Y-21992D03*
X98366Y-26992D03*
X97366Y-22992D03*
X98366Y-27992D03*
X97366Y-23992D03*
X98366Y-28992D03*
X97366Y-24992D03*
X98366Y-29992D03*
X97366Y-25992D03*
X98366Y-30992D03*
X97366Y-26992D03*
X98366Y-31992D03*
X97366Y-27992D03*
X97366Y-28992D03*
X98366Y-32992D03*
X97366Y-29992D03*
X97366Y-31992D03*
X97366Y-32992D03*
X97366Y-33992D03*
X97366Y-34992D03*
X98366Y-33992D03*
X98366Y-34992D03*
X98366Y-17992D03*
X98366Y-18992D03*
X98366Y-19992D03*
X98366Y-20992D03*
X98366Y-35992D03*
X97366Y-35992D03*
X97366Y-30992D03*
G54D11*
X75532Y-16992D03*
G54D12*
X74532Y-16992D03*
X75532Y-21992D03*
X74532Y-17992D03*
X75532Y-22992D03*
X74532Y-18992D03*
X75532Y-23992D03*
X74532Y-19992D03*
X75532Y-24992D03*
X74532Y-20992D03*
X75532Y-25992D03*
X74532Y-21992D03*
X75532Y-26992D03*
X74532Y-22992D03*
X75532Y-27992D03*
X74532Y-23992D03*
X75532Y-28992D03*
X74532Y-24992D03*
X75532Y-29992D03*
X74532Y-25992D03*
X75532Y-30992D03*
X74532Y-26992D03*
X75532Y-31992D03*
X74532Y-27992D03*
X74532Y-28992D03*
X75532Y-32992D03*
X74532Y-29992D03*
X74532Y-31992D03*
X74532Y-32992D03*
X74532Y-33992D03*
X74532Y-34992D03*
X75532Y-33992D03*
X75532Y-34992D03*
X75532Y-17992D03*
X75532Y-18992D03*
X75532Y-19992D03*
X75532Y-20992D03*
X75532Y-35992D03*
X74532Y-35992D03*
X74532Y-30992D03*
G54D13*
X57110Y-34169D03*
X57110Y-33776D03*
X57110Y-33382D03*
X57110Y-32988D03*
X57110Y-32595D03*
X57110Y-32201D03*
X57110Y-31807D03*
X57110Y-31413D03*
X57110Y-31020D03*
X57110Y-30626D03*
X57110Y-30232D03*
X57110Y-29839D03*
X57110Y-29445D03*
X57110Y-29051D03*
X57110Y-28658D03*
X57110Y-28264D03*
X57110Y-27870D03*
X57110Y-27476D03*
X57110Y-27083D03*
X57110Y-26689D03*
X57110Y-26295D03*
X57110Y-25902D03*
X57110Y-25508D03*
X57110Y-25114D03*
X57110Y-24327D03*
X57110Y-23933D03*
X57110Y-23539D03*
X57110Y-23146D03*
X57110Y-22752D03*
X57110Y-22358D03*
X57110Y-21965D03*
X57110Y-21571D03*
X57110Y-21177D03*
X57110Y-20783D03*
X57110Y-20390D03*
X57110Y-19996D03*
X57110Y-19602D03*
X57110Y-19209D03*
X57110Y-18815D03*
X59886Y-18815D03*
X59886Y-19209D03*
X59886Y-19602D03*
X59886Y-19996D03*
X59886Y-20390D03*
X59886Y-20783D03*
X59886Y-21177D03*
X59886Y-21571D03*
X59886Y-21965D03*
X59886Y-22358D03*
X59886Y-22752D03*
X59886Y-23146D03*
X59886Y-23539D03*
X59886Y-23933D03*
X59886Y-24327D03*
X59886Y-25114D03*
X59886Y-25508D03*
X59886Y-25902D03*
X59886Y-26295D03*
X59886Y-26689D03*
X59886Y-27083D03*
X59886Y-27476D03*
X59886Y-27870D03*
X59886Y-28264D03*
X59886Y-28658D03*
X59886Y-29051D03*
X59886Y-29445D03*
X59886Y-29839D03*
X59886Y-30232D03*
X59886Y-30626D03*
X59886Y-31020D03*
X59886Y-31413D03*
X59886Y-31807D03*
X59886Y-32201D03*
X59886Y-32595D03*
X59886Y-32988D03*
X59886Y-33382D03*
X59886Y-33776D03*
X59886Y-34169D03*
X83488Y-34169D03*
X83488Y-33776D03*
X83488Y-33382D03*
X83488Y-32988D03*
X83488Y-32595D03*
X83488Y-32201D03*
X83488Y-31807D03*
X83488Y-31413D03*
X83488Y-31020D03*
X83488Y-30626D03*
X83488Y-30232D03*
X83488Y-29839D03*
X83488Y-29445D03*
X83488Y-29051D03*
X83488Y-28658D03*
X83488Y-28264D03*
X83488Y-27870D03*
X83488Y-27476D03*
X83488Y-27083D03*
X83488Y-26689D03*
X83488Y-26295D03*
X83488Y-25902D03*
X83488Y-25508D03*
X83488Y-25114D03*
X83488Y-24327D03*
X83488Y-23933D03*
X83488Y-23539D03*
X83488Y-23146D03*
X83488Y-22752D03*
X83488Y-22358D03*
X83488Y-21965D03*
X83488Y-21571D03*
X83488Y-21177D03*
X83488Y-20783D03*
X83488Y-20390D03*
X83488Y-19996D03*
X83488Y-19602D03*
X83488Y-19209D03*
X83488Y-18815D03*
X86264Y-18815D03*
X86264Y-19209D03*
X86264Y-19602D03*
X86264Y-19996D03*
X86264Y-20390D03*
X86264Y-20783D03*
X86264Y-21177D03*
X86264Y-21571D03*
X86264Y-21965D03*
X86264Y-22358D03*
X86264Y-22752D03*
X86264Y-23146D03*
X86264Y-23539D03*
X86264Y-23933D03*
X86264Y-24327D03*
X86264Y-25114D03*
X86264Y-25508D03*
X86264Y-25902D03*
X86264Y-26295D03*
X86264Y-26689D03*
X86264Y-27083D03*
X86264Y-27476D03*
X86264Y-27870D03*
X86264Y-28264D03*
X86264Y-28658D03*
X86264Y-29051D03*
X86264Y-29445D03*
X86264Y-29839D03*
X86264Y-30232D03*
X86264Y-30626D03*
X86264Y-31020D03*
X86264Y-31413D03*
X86264Y-31807D03*
X86264Y-32201D03*
X86264Y-32595D03*
X86264Y-32988D03*
X86264Y-33382D03*
X86264Y-33776D03*
X86264Y-34169D03*
X63803Y-34169D03*
X63803Y-33776D03*
X63803Y-33382D03*
X63803Y-32988D03*
X63803Y-32595D03*
X63803Y-32201D03*
X63803Y-31807D03*
X63803Y-31413D03*
X63803Y-31020D03*
X63803Y-30626D03*
X63803Y-30232D03*
X63803Y-29839D03*
X63803Y-29445D03*
X63803Y-29051D03*
X63803Y-28658D03*
X63803Y-28264D03*
X63803Y-27870D03*
X63803Y-27476D03*
X63803Y-27083D03*
X63803Y-26689D03*
X63803Y-26295D03*
X63803Y-25902D03*
X63803Y-25508D03*
X63803Y-25114D03*
X63803Y-24327D03*
X63803Y-23933D03*
X63803Y-23539D03*
X63803Y-23146D03*
X63803Y-22752D03*
X63803Y-22358D03*
X63803Y-21965D03*
X63803Y-21571D03*
X63803Y-21177D03*
X63803Y-20783D03*
X63803Y-20390D03*
X63803Y-19996D03*
X63803Y-19602D03*
X63803Y-19209D03*
X63803Y-18815D03*
X66579Y-18815D03*
X66579Y-19209D03*
X66579Y-19602D03*
X66579Y-19996D03*
X66579Y-20390D03*
X66579Y-20783D03*
X66579Y-21177D03*
X66579Y-21571D03*
X66579Y-21965D03*
X66579Y-22358D03*
X66579Y-22752D03*
X66579Y-23146D03*
X66579Y-23539D03*
X66579Y-23933D03*
X66579Y-24327D03*
X66579Y-25114D03*
X66579Y-25508D03*
X66579Y-25902D03*
X66579Y-26295D03*
X66579Y-26689D03*
X66579Y-27083D03*
X66579Y-27476D03*
X66579Y-27870D03*
X66579Y-28264D03*
X66579Y-28658D03*
X66579Y-29051D03*
X66579Y-29445D03*
X66579Y-29839D03*
X66579Y-30232D03*
X66579Y-30626D03*
X66579Y-31020D03*
X66579Y-31413D03*
X66579Y-31807D03*
X66579Y-32201D03*
X66579Y-32595D03*
X66579Y-32988D03*
X66579Y-33382D03*
X66579Y-33776D03*
X66579Y-34169D03*
X90181Y-34169D03*
X90181Y-33776D03*
X90181Y-33382D03*
X90181Y-32988D03*
X90181Y-32595D03*
X90181Y-32201D03*
X90181Y-31807D03*
X90181Y-31413D03*
X90181Y-31020D03*
X90181Y-30626D03*
X90181Y-30232D03*
X90181Y-29839D03*
X90181Y-29445D03*
X90181Y-29051D03*
X90181Y-28658D03*
X90181Y-28264D03*
X90181Y-27870D03*
X90181Y-27476D03*
X90181Y-27083D03*
X90181Y-26689D03*
X90181Y-26295D03*
X90181Y-25902D03*
X90181Y-25508D03*
X90181Y-25114D03*
X90181Y-24327D03*
X90181Y-23933D03*
X90181Y-23539D03*
X90181Y-23146D03*
X90181Y-22752D03*
X90181Y-22358D03*
X90181Y-21965D03*
X90181Y-21571D03*
X90181Y-21177D03*
X90181Y-20783D03*
X90181Y-20390D03*
X90181Y-19996D03*
X90181Y-19602D03*
X90181Y-19209D03*
X90181Y-18815D03*
X92957Y-18815D03*
X92957Y-19209D03*
X92957Y-19602D03*
X92957Y-19996D03*
X92957Y-20390D03*
X92957Y-20783D03*
X92957Y-21177D03*
X92957Y-21571D03*
X92957Y-21965D03*
X92957Y-22358D03*
X92957Y-22752D03*
X92957Y-23146D03*
X92957Y-23539D03*
X92957Y-23933D03*
X92957Y-24327D03*
X92957Y-25114D03*
X92957Y-25508D03*
X92957Y-25902D03*
X92957Y-26295D03*
X92957Y-26689D03*
X92957Y-27083D03*
X92957Y-27476D03*
X92957Y-27870D03*
X92957Y-28264D03*
X92957Y-28658D03*
X92957Y-29051D03*
X92957Y-29445D03*
X92957Y-29839D03*
X92957Y-30232D03*
X92957Y-30626D03*
X92957Y-31020D03*
X92957Y-31413D03*
X92957Y-31807D03*
X92957Y-32201D03*
X92957Y-32595D03*
X92957Y-32988D03*
X92957Y-33382D03*
X92957Y-33776D03*
X92957Y-34169D03*
G54D14*
X98850Y-08283D03*
X79165Y-08283D03*
X59480Y-08283D03*
M02*
