G04 (created by PCBNEW-RS274X (2012-01-19 BZR 3256)-stable) date 5/23/2012 10:37:18 AM*
G01*
G70*
G90*
%MOIN*%
G04 Gerber Fmt 3.4, Leading zero omitted, Abs format*
%FSLAX34Y34*%
G04 APERTURE LIST*
%ADD10C,0.006000*%
%ADD11R,0.080000X0.080000*%
%ADD12C,0.080000*%
%ADD13C,0.180000*%
G04 APERTURE END LIST*
G54D10*
G54D11*
X98366Y-16992D03*
G54D12*
X97366Y-16992D03*
X98366Y-21992D03*
X97366Y-17992D03*
X98366Y-22992D03*
X97366Y-18992D03*
X98366Y-23992D03*
X97366Y-19992D03*
X98366Y-24992D03*
X97366Y-20992D03*
X98366Y-25992D03*
X97366Y-21992D03*
X98366Y-26992D03*
X97366Y-22992D03*
X98366Y-27992D03*
X97366Y-23992D03*
X98366Y-28992D03*
X97366Y-24992D03*
X98366Y-29992D03*
X97366Y-25992D03*
X98366Y-30992D03*
X97366Y-26992D03*
X98366Y-31992D03*
X97366Y-27992D03*
X97366Y-28992D03*
X98366Y-32992D03*
X97366Y-29992D03*
X97366Y-31992D03*
X97366Y-32992D03*
X97366Y-33992D03*
X97366Y-34992D03*
X98366Y-33992D03*
X98366Y-34992D03*
X98366Y-17992D03*
X98366Y-18992D03*
X98366Y-19992D03*
X98366Y-20992D03*
X98366Y-35992D03*
X97366Y-35992D03*
X97366Y-30992D03*
G54D11*
X75532Y-16992D03*
G54D12*
X74532Y-16992D03*
X75532Y-21992D03*
X74532Y-17992D03*
X75532Y-22992D03*
X74532Y-18992D03*
X75532Y-23992D03*
X74532Y-19992D03*
X75532Y-24992D03*
X74532Y-20992D03*
X75532Y-25992D03*
X74532Y-21992D03*
X75532Y-26992D03*
X74532Y-22992D03*
X75532Y-27992D03*
X74532Y-23992D03*
X75532Y-28992D03*
X74532Y-24992D03*
X75532Y-29992D03*
X74532Y-25992D03*
X75532Y-30992D03*
X74532Y-26992D03*
X75532Y-31992D03*
X74532Y-27992D03*
X74532Y-28992D03*
X75532Y-32992D03*
X74532Y-29992D03*
X74532Y-31992D03*
X74532Y-32992D03*
X74532Y-33992D03*
X74532Y-34992D03*
X75532Y-33992D03*
X75532Y-34992D03*
X75532Y-17992D03*
X75532Y-18992D03*
X75532Y-19992D03*
X75532Y-20992D03*
X75532Y-35992D03*
X74532Y-35992D03*
X74532Y-30992D03*
G54D13*
X98850Y-08283D03*
X79165Y-08283D03*
X59480Y-08283D03*
M02*
