G04 (created by PCBNEW-RS274X (2012-01-19 BZR 3256)-stable) date 5/23/2012 10:45:28 AM*
G01*
G70*
G90*
%MOIN*%
G04 Gerber Fmt 3.4, Leading zero omitted, Abs format*
%FSLAX34Y34*%
G04 APERTURE LIST*
%ADD10C,0.006000*%
%ADD11C,0.180000*%
%ADD12R,0.080000X0.080000*%
%ADD13C,0.080000*%
%ADD14R,0.094000X0.044000*%
G04 APERTURE END LIST*
G54D10*
G54D11*
X31362Y-08283D03*
X11677Y-08283D03*
G54D12*
X35997Y-16992D03*
G54D13*
X34997Y-16992D03*
X35997Y-21992D03*
X34997Y-17992D03*
X35997Y-22992D03*
X34997Y-18992D03*
X35997Y-23992D03*
X34997Y-19992D03*
X35997Y-24992D03*
X34997Y-20992D03*
X35997Y-25992D03*
X34997Y-21992D03*
X35997Y-26992D03*
X34997Y-22992D03*
X35997Y-27992D03*
X34997Y-23992D03*
X35997Y-28992D03*
X34997Y-24992D03*
X35997Y-29992D03*
X34997Y-25992D03*
X35997Y-30992D03*
X34997Y-26992D03*
X35997Y-31992D03*
X34997Y-27992D03*
X34997Y-28992D03*
X35997Y-32992D03*
X34997Y-29992D03*
X34997Y-31992D03*
X34997Y-32992D03*
X34997Y-33992D03*
X34997Y-34992D03*
X35997Y-33992D03*
X35997Y-34992D03*
X35997Y-17992D03*
X35997Y-18992D03*
X35997Y-19992D03*
X35997Y-20992D03*
X35997Y-35992D03*
X34997Y-35992D03*
X34997Y-30992D03*
G54D14*
X17576Y-34169D03*
X17576Y-33776D03*
X17576Y-33382D03*
X17576Y-32988D03*
X17576Y-32595D03*
X17576Y-32201D03*
X17576Y-31807D03*
X17576Y-31413D03*
X17576Y-31020D03*
X17576Y-30626D03*
X17576Y-30232D03*
X17576Y-29839D03*
X17576Y-29445D03*
X17576Y-29051D03*
X17576Y-28658D03*
X17576Y-28264D03*
X17576Y-27870D03*
X17576Y-27476D03*
X17576Y-27083D03*
X17576Y-26689D03*
X17576Y-26295D03*
X17576Y-25902D03*
X17576Y-25508D03*
X17576Y-25114D03*
X17576Y-24327D03*
X17576Y-23933D03*
X17576Y-23539D03*
X17576Y-23146D03*
X17576Y-22752D03*
X17576Y-22358D03*
X17576Y-21965D03*
X17576Y-21571D03*
X17576Y-21177D03*
X17576Y-20783D03*
X17576Y-20390D03*
X17576Y-19996D03*
X17576Y-19602D03*
X17576Y-19209D03*
X17576Y-18815D03*
X20352Y-18815D03*
X20352Y-19209D03*
X20352Y-19602D03*
X20352Y-19996D03*
X20352Y-20390D03*
X20352Y-20783D03*
X20352Y-21177D03*
X20352Y-21571D03*
X20352Y-21965D03*
X20352Y-22358D03*
X20352Y-22752D03*
X20352Y-23146D03*
X20352Y-23539D03*
X20352Y-23933D03*
X20352Y-24327D03*
X20352Y-25114D03*
X20352Y-25508D03*
X20352Y-25902D03*
X20352Y-26295D03*
X20352Y-26689D03*
X20352Y-27083D03*
X20352Y-27476D03*
X20352Y-27870D03*
X20352Y-28264D03*
X20352Y-28658D03*
X20352Y-29051D03*
X20352Y-29445D03*
X20352Y-29839D03*
X20352Y-30232D03*
X20352Y-30626D03*
X20352Y-31020D03*
X20352Y-31413D03*
X20352Y-31807D03*
X20352Y-32201D03*
X20352Y-32595D03*
X20352Y-32988D03*
X20352Y-33382D03*
X20352Y-33776D03*
X20352Y-34169D03*
X43953Y-34169D03*
X43953Y-33776D03*
X43953Y-33382D03*
X43953Y-32988D03*
X43953Y-32595D03*
X43953Y-32201D03*
X43953Y-31807D03*
X43953Y-31413D03*
X43953Y-31020D03*
X43953Y-30626D03*
X43953Y-30232D03*
X43953Y-29839D03*
X43953Y-29445D03*
X43953Y-29051D03*
X43953Y-28658D03*
X43953Y-28264D03*
X43953Y-27870D03*
X43953Y-27476D03*
X43953Y-27083D03*
X43953Y-26689D03*
X43953Y-26295D03*
X43953Y-25902D03*
X43953Y-25508D03*
X43953Y-25114D03*
X43953Y-24327D03*
X43953Y-23933D03*
X43953Y-23539D03*
X43953Y-23146D03*
X43953Y-22752D03*
X43953Y-22358D03*
X43953Y-21965D03*
X43953Y-21571D03*
X43953Y-21177D03*
X43953Y-20783D03*
X43953Y-20390D03*
X43953Y-19996D03*
X43953Y-19602D03*
X43953Y-19209D03*
X43953Y-18815D03*
X46729Y-18815D03*
X46729Y-19209D03*
X46729Y-19602D03*
X46729Y-19996D03*
X46729Y-20390D03*
X46729Y-20783D03*
X46729Y-21177D03*
X46729Y-21571D03*
X46729Y-21965D03*
X46729Y-22358D03*
X46729Y-22752D03*
X46729Y-23146D03*
X46729Y-23539D03*
X46729Y-23933D03*
X46729Y-24327D03*
X46729Y-25114D03*
X46729Y-25508D03*
X46729Y-25902D03*
X46729Y-26295D03*
X46729Y-26689D03*
X46729Y-27083D03*
X46729Y-27476D03*
X46729Y-27870D03*
X46729Y-28264D03*
X46729Y-28658D03*
X46729Y-29051D03*
X46729Y-29445D03*
X46729Y-29839D03*
X46729Y-30232D03*
X46729Y-30626D03*
X46729Y-31020D03*
X46729Y-31413D03*
X46729Y-31807D03*
X46729Y-32201D03*
X46729Y-32595D03*
X46729Y-32988D03*
X46729Y-33382D03*
X46729Y-33776D03*
X46729Y-34169D03*
X24268Y-34169D03*
X24268Y-33776D03*
X24268Y-33382D03*
X24268Y-32988D03*
X24268Y-32595D03*
X24268Y-32201D03*
X24268Y-31807D03*
X24268Y-31413D03*
X24268Y-31020D03*
X24268Y-30626D03*
X24268Y-30232D03*
X24268Y-29839D03*
X24268Y-29445D03*
X24268Y-29051D03*
X24268Y-28658D03*
X24268Y-28264D03*
X24268Y-27870D03*
X24268Y-27476D03*
X24268Y-27083D03*
X24268Y-26689D03*
X24268Y-26295D03*
X24268Y-25902D03*
X24268Y-25508D03*
X24268Y-25114D03*
X24268Y-24327D03*
X24268Y-23933D03*
X24268Y-23539D03*
X24268Y-23146D03*
X24268Y-22752D03*
X24268Y-22358D03*
X24268Y-21965D03*
X24268Y-21571D03*
X24268Y-21177D03*
X24268Y-20783D03*
X24268Y-20390D03*
X24268Y-19996D03*
X24268Y-19602D03*
X24268Y-19209D03*
X24268Y-18815D03*
X27044Y-18815D03*
X27044Y-19209D03*
X27044Y-19602D03*
X27044Y-19996D03*
X27044Y-20390D03*
X27044Y-20783D03*
X27044Y-21177D03*
X27044Y-21571D03*
X27044Y-21965D03*
X27044Y-22358D03*
X27044Y-22752D03*
X27044Y-23146D03*
X27044Y-23539D03*
X27044Y-23933D03*
X27044Y-24327D03*
X27044Y-25114D03*
X27044Y-25508D03*
X27044Y-25902D03*
X27044Y-26295D03*
X27044Y-26689D03*
X27044Y-27083D03*
X27044Y-27476D03*
X27044Y-27870D03*
X27044Y-28264D03*
X27044Y-28658D03*
X27044Y-29051D03*
X27044Y-29445D03*
X27044Y-29839D03*
X27044Y-30232D03*
X27044Y-30626D03*
X27044Y-31020D03*
X27044Y-31413D03*
X27044Y-31807D03*
X27044Y-32201D03*
X27044Y-32595D03*
X27044Y-32988D03*
X27044Y-33382D03*
X27044Y-33776D03*
X27044Y-34169D03*
X50646Y-34169D03*
X50646Y-33776D03*
X50646Y-33382D03*
X50646Y-32988D03*
X50646Y-32595D03*
X50646Y-32201D03*
X50646Y-31807D03*
X50646Y-31413D03*
X50646Y-31020D03*
X50646Y-30626D03*
X50646Y-30232D03*
X50646Y-29839D03*
X50646Y-29445D03*
X50646Y-29051D03*
X50646Y-28658D03*
X50646Y-28264D03*
X50646Y-27870D03*
X50646Y-27476D03*
X50646Y-27083D03*
X50646Y-26689D03*
X50646Y-26295D03*
X50646Y-25902D03*
X50646Y-25508D03*
X50646Y-25114D03*
X50646Y-24327D03*
X50646Y-23933D03*
X50646Y-23539D03*
X50646Y-23146D03*
X50646Y-22752D03*
X50646Y-22358D03*
X50646Y-21965D03*
X50646Y-21571D03*
X50646Y-21177D03*
X50646Y-20783D03*
X50646Y-20390D03*
X50646Y-19996D03*
X50646Y-19602D03*
X50646Y-19209D03*
X50646Y-18815D03*
X53422Y-18815D03*
X53422Y-19209D03*
X53422Y-19602D03*
X53422Y-19996D03*
X53422Y-20390D03*
X53422Y-20783D03*
X53422Y-21177D03*
X53422Y-21571D03*
X53422Y-21965D03*
X53422Y-22358D03*
X53422Y-22752D03*
X53422Y-23146D03*
X53422Y-23539D03*
X53422Y-23933D03*
X53422Y-24327D03*
X53422Y-25114D03*
X53422Y-25508D03*
X53422Y-25902D03*
X53422Y-26295D03*
X53422Y-26689D03*
X53422Y-27083D03*
X53422Y-27476D03*
X53422Y-27870D03*
X53422Y-28264D03*
X53422Y-28658D03*
X53422Y-29051D03*
X53422Y-29445D03*
X53422Y-29839D03*
X53422Y-30232D03*
X53422Y-30626D03*
X53422Y-31020D03*
X53422Y-31413D03*
X53422Y-31807D03*
X53422Y-32201D03*
X53422Y-32595D03*
X53422Y-32988D03*
X53422Y-33382D03*
X53422Y-33776D03*
X53422Y-34169D03*
G54D11*
X51047Y-08283D03*
M02*
