G04 (created by PCBNEW-RS274X (2012-01-19 BZR 3256)-stable) date 5/23/2012 10:45:28 AM*
G01*
G70*
G90*
%MOIN*%
G04 Gerber Fmt 3.4, Leading zero omitted, Abs format*
%FSLAX34Y34*%
G04 APERTURE LIST*
%ADD10C,0.006000*%
%ADD11C,0.012000*%
%ADD12C,0.160000*%
%ADD13R,0.060000X0.060000*%
%ADD14C,0.060000*%
%ADD15C,0.050000*%
%ADD16C,0.008000*%
%ADD17C,0.010000*%
G04 APERTURE END LIST*
G54D10*
G54D11*
X37413Y-30416D02*
X37413Y-30073D01*
X38213Y-30244D02*
X37413Y-30244D01*
X38213Y-29787D02*
X38175Y-29845D01*
X38137Y-29873D01*
X38060Y-29902D01*
X37832Y-29902D01*
X37756Y-29873D01*
X37718Y-29845D01*
X37679Y-29787D01*
X37679Y-29702D01*
X37718Y-29645D01*
X37756Y-29616D01*
X37832Y-29587D01*
X38060Y-29587D01*
X38137Y-29616D01*
X38175Y-29645D01*
X38213Y-29702D01*
X38213Y-29787D01*
X38213Y-28873D02*
X37413Y-28873D01*
X37413Y-28645D01*
X37451Y-28587D01*
X37489Y-28559D01*
X37565Y-28530D01*
X37679Y-28530D01*
X37756Y-28559D01*
X37794Y-28587D01*
X37832Y-28645D01*
X37832Y-28873D01*
X38213Y-28273D02*
X37679Y-28273D01*
X37832Y-28273D02*
X37756Y-28245D01*
X37718Y-28216D01*
X37679Y-28159D01*
X37679Y-28102D01*
X38213Y-27902D02*
X37679Y-27902D01*
X37413Y-27902D02*
X37451Y-27931D01*
X37489Y-27902D01*
X37451Y-27874D01*
X37413Y-27902D01*
X37489Y-27902D01*
X38213Y-27616D02*
X37679Y-27616D01*
X37756Y-27616D02*
X37718Y-27588D01*
X37679Y-27530D01*
X37679Y-27445D01*
X37718Y-27388D01*
X37794Y-27359D01*
X38213Y-27359D01*
X37794Y-27359D02*
X37718Y-27330D01*
X37679Y-27273D01*
X37679Y-27188D01*
X37718Y-27130D01*
X37794Y-27102D01*
X38213Y-27102D01*
X38213Y-26559D02*
X37794Y-26559D01*
X37718Y-26588D01*
X37679Y-26645D01*
X37679Y-26759D01*
X37718Y-26816D01*
X38175Y-26559D02*
X38213Y-26616D01*
X38213Y-26759D01*
X38175Y-26816D01*
X38099Y-26845D01*
X38022Y-26845D01*
X37946Y-26816D01*
X37908Y-26759D01*
X37908Y-26616D01*
X37870Y-26559D01*
X38213Y-26273D02*
X37679Y-26273D01*
X37832Y-26273D02*
X37756Y-26245D01*
X37718Y-26216D01*
X37679Y-26159D01*
X37679Y-26102D01*
X37679Y-25959D02*
X38213Y-25816D01*
X37679Y-25674D02*
X38213Y-25816D01*
X38403Y-25874D01*
X38441Y-25902D01*
X38479Y-25959D01*
X37794Y-24788D02*
X37832Y-24702D01*
X37870Y-24674D01*
X37946Y-24645D01*
X38060Y-24645D01*
X38137Y-24674D01*
X38175Y-24702D01*
X38213Y-24760D01*
X38213Y-24988D01*
X37413Y-24988D01*
X37413Y-24788D01*
X37451Y-24731D01*
X37489Y-24702D01*
X37565Y-24674D01*
X37641Y-24674D01*
X37718Y-24702D01*
X37756Y-24731D01*
X37794Y-24788D01*
X37794Y-24988D01*
X38213Y-24302D02*
X38175Y-24360D01*
X38137Y-24388D01*
X38060Y-24417D01*
X37832Y-24417D01*
X37756Y-24388D01*
X37718Y-24360D01*
X37679Y-24302D01*
X37679Y-24217D01*
X37718Y-24160D01*
X37756Y-24131D01*
X37832Y-24102D01*
X38060Y-24102D01*
X38137Y-24131D01*
X38175Y-24160D01*
X38213Y-24217D01*
X38213Y-24302D01*
X38213Y-23588D02*
X37794Y-23588D01*
X37718Y-23617D01*
X37679Y-23674D01*
X37679Y-23788D01*
X37718Y-23845D01*
X38175Y-23588D02*
X38213Y-23645D01*
X38213Y-23788D01*
X38175Y-23845D01*
X38099Y-23874D01*
X38022Y-23874D01*
X37946Y-23845D01*
X37908Y-23788D01*
X37908Y-23645D01*
X37870Y-23588D01*
X38213Y-23302D02*
X37679Y-23302D01*
X37832Y-23302D02*
X37756Y-23274D01*
X37718Y-23245D01*
X37679Y-23188D01*
X37679Y-23131D01*
X38213Y-22674D02*
X37413Y-22674D01*
X38175Y-22674D02*
X38213Y-22731D01*
X38213Y-22845D01*
X38175Y-22903D01*
X38137Y-22931D01*
X38060Y-22960D01*
X37832Y-22960D01*
X37756Y-22931D01*
X37718Y-22903D01*
X37679Y-22845D01*
X37679Y-22731D01*
X37718Y-22674D01*
X17641Y-12426D02*
X17641Y-11626D01*
X17869Y-11626D01*
X17927Y-11664D01*
X17955Y-11702D01*
X17984Y-11778D01*
X17984Y-11892D01*
X17955Y-11969D01*
X17927Y-12007D01*
X17869Y-12045D01*
X17641Y-12045D01*
X18498Y-12426D02*
X18498Y-12007D01*
X18469Y-11931D01*
X18412Y-11892D01*
X18298Y-11892D01*
X18241Y-11931D01*
X18498Y-12388D02*
X18441Y-12426D01*
X18298Y-12426D01*
X18241Y-12388D01*
X18212Y-12312D01*
X18212Y-12235D01*
X18241Y-12159D01*
X18298Y-12121D01*
X18441Y-12121D01*
X18498Y-12083D01*
X19041Y-11892D02*
X19041Y-12426D01*
X18784Y-11892D02*
X18784Y-12312D01*
X18812Y-12388D01*
X18870Y-12426D01*
X18955Y-12426D01*
X19012Y-12388D01*
X19041Y-12350D01*
X19413Y-12426D02*
X19355Y-12388D01*
X19327Y-12312D01*
X19327Y-11626D01*
X20069Y-12388D02*
X20155Y-12426D01*
X20298Y-12426D01*
X20355Y-12388D01*
X20384Y-12350D01*
X20412Y-12273D01*
X20412Y-12197D01*
X20384Y-12121D01*
X20355Y-12083D01*
X20298Y-12045D01*
X20184Y-12007D01*
X20126Y-11969D01*
X20098Y-11931D01*
X20069Y-11854D01*
X20069Y-11778D01*
X20098Y-11702D01*
X20126Y-11664D01*
X20184Y-11626D01*
X20326Y-11626D01*
X20412Y-11664D01*
X20926Y-12388D02*
X20869Y-12426D01*
X20755Y-12426D01*
X20697Y-12388D01*
X20669Y-12350D01*
X20640Y-12273D01*
X20640Y-12045D01*
X20669Y-11969D01*
X20697Y-11931D01*
X20755Y-11892D01*
X20869Y-11892D01*
X20926Y-11931D01*
X21183Y-12426D02*
X21183Y-11626D01*
X21440Y-12426D02*
X21440Y-12007D01*
X21411Y-11931D01*
X21354Y-11892D01*
X21269Y-11892D01*
X21211Y-11931D01*
X21183Y-11969D01*
X21954Y-12388D02*
X21897Y-12426D01*
X21783Y-12426D01*
X21726Y-12388D01*
X21697Y-12312D01*
X21697Y-12007D01*
X21726Y-11931D01*
X21783Y-11892D01*
X21897Y-11892D01*
X21954Y-11931D01*
X21983Y-12007D01*
X21983Y-12083D01*
X21697Y-12159D01*
X22240Y-12426D02*
X22240Y-11892D01*
X22240Y-12045D02*
X22268Y-11969D01*
X22297Y-11931D01*
X22354Y-11892D01*
X22411Y-11892D01*
X22611Y-12426D02*
X22611Y-11892D01*
X22611Y-12045D02*
X22639Y-11969D01*
X22668Y-11931D01*
X22725Y-11892D01*
X22782Y-11892D01*
X23210Y-12388D02*
X23153Y-12426D01*
X23039Y-12426D01*
X22982Y-12388D01*
X22953Y-12312D01*
X22953Y-12007D01*
X22982Y-11931D01*
X23039Y-11892D01*
X23153Y-11892D01*
X23210Y-11931D01*
X23239Y-12007D01*
X23239Y-12083D01*
X22953Y-12159D01*
X23496Y-12426D02*
X23496Y-11892D01*
X23496Y-12045D02*
X23524Y-11969D01*
X23553Y-11931D01*
X23610Y-11892D01*
X23667Y-11892D01*
X24324Y-12426D02*
X24324Y-11626D01*
X24610Y-11892D02*
X24610Y-12426D01*
X24610Y-11969D02*
X24638Y-11931D01*
X24696Y-11892D01*
X24781Y-11892D01*
X24838Y-11931D01*
X24867Y-12007D01*
X24867Y-12426D01*
X25124Y-12388D02*
X25181Y-12426D01*
X25296Y-12426D01*
X25353Y-12388D01*
X25381Y-12312D01*
X25381Y-12273D01*
X25353Y-12197D01*
X25296Y-12159D01*
X25210Y-12159D01*
X25153Y-12121D01*
X25124Y-12045D01*
X25124Y-12007D01*
X25153Y-11931D01*
X25210Y-11892D01*
X25296Y-11892D01*
X25353Y-11931D01*
X25553Y-11892D02*
X25782Y-11892D01*
X25639Y-11626D02*
X25639Y-12312D01*
X25667Y-12388D01*
X25725Y-12426D01*
X25782Y-12426D01*
X25982Y-12426D02*
X25982Y-11892D01*
X25982Y-11626D02*
X25953Y-11664D01*
X25982Y-11702D01*
X26010Y-11664D01*
X25982Y-11626D01*
X25982Y-11702D01*
X26182Y-11892D02*
X26411Y-11892D01*
X26268Y-11626D02*
X26268Y-12312D01*
X26296Y-12388D01*
X26354Y-12426D01*
X26411Y-12426D01*
X26868Y-11892D02*
X26868Y-12426D01*
X26611Y-11892D02*
X26611Y-12312D01*
X26639Y-12388D01*
X26697Y-12426D01*
X26782Y-12426D01*
X26839Y-12388D01*
X26868Y-12350D01*
X27068Y-11892D02*
X27297Y-11892D01*
X27154Y-11626D02*
X27154Y-12312D01*
X27182Y-12388D01*
X27240Y-12426D01*
X27297Y-12426D01*
X14985Y-13666D02*
X14985Y-12866D01*
X15213Y-12866D01*
X15271Y-12904D01*
X15299Y-12942D01*
X15328Y-13018D01*
X15328Y-13132D01*
X15299Y-13209D01*
X15271Y-13247D01*
X15213Y-13285D01*
X14985Y-13285D01*
X15585Y-13666D02*
X15585Y-13132D01*
X15585Y-12866D02*
X15556Y-12904D01*
X15585Y-12942D01*
X15613Y-12904D01*
X15585Y-12866D01*
X15585Y-12942D01*
X15814Y-13666D02*
X16128Y-13132D01*
X15814Y-13132D02*
X16128Y-13666D01*
X16585Y-13628D02*
X16528Y-13666D01*
X16414Y-13666D01*
X16357Y-13628D01*
X16328Y-13552D01*
X16328Y-13247D01*
X16357Y-13171D01*
X16414Y-13132D01*
X16528Y-13132D01*
X16585Y-13171D01*
X16614Y-13247D01*
X16614Y-13323D01*
X16328Y-13399D01*
X16957Y-13666D02*
X16899Y-13628D01*
X16871Y-13552D01*
X16871Y-12866D01*
X17556Y-12866D02*
X17899Y-12866D01*
X17728Y-13666D02*
X17728Y-12866D01*
X18327Y-13628D02*
X18270Y-13666D01*
X18156Y-13666D01*
X18099Y-13628D01*
X18070Y-13552D01*
X18070Y-13247D01*
X18099Y-13171D01*
X18156Y-13132D01*
X18270Y-13132D01*
X18327Y-13171D01*
X18356Y-13247D01*
X18356Y-13323D01*
X18070Y-13399D01*
X18699Y-13666D02*
X18641Y-13628D01*
X18613Y-13552D01*
X18613Y-12866D01*
X19155Y-13628D02*
X19098Y-13666D01*
X18984Y-13666D01*
X18927Y-13628D01*
X18898Y-13552D01*
X18898Y-13247D01*
X18927Y-13171D01*
X18984Y-13132D01*
X19098Y-13132D01*
X19155Y-13171D01*
X19184Y-13247D01*
X19184Y-13323D01*
X18898Y-13399D01*
X19412Y-13628D02*
X19469Y-13666D01*
X19584Y-13666D01*
X19641Y-13628D01*
X19669Y-13552D01*
X19669Y-13513D01*
X19641Y-13437D01*
X19584Y-13399D01*
X19498Y-13399D01*
X19441Y-13361D01*
X19412Y-13285D01*
X19412Y-13247D01*
X19441Y-13171D01*
X19498Y-13132D01*
X19584Y-13132D01*
X19641Y-13171D01*
X20184Y-13628D02*
X20127Y-13666D01*
X20013Y-13666D01*
X19955Y-13628D01*
X19927Y-13590D01*
X19898Y-13513D01*
X19898Y-13285D01*
X19927Y-13209D01*
X19955Y-13171D01*
X20013Y-13132D01*
X20127Y-13132D01*
X20184Y-13171D01*
X20527Y-13666D02*
X20469Y-13628D01*
X20441Y-13590D01*
X20412Y-13513D01*
X20412Y-13285D01*
X20441Y-13209D01*
X20469Y-13171D01*
X20527Y-13132D01*
X20612Y-13132D01*
X20669Y-13171D01*
X20698Y-13209D01*
X20727Y-13285D01*
X20727Y-13513D01*
X20698Y-13590D01*
X20669Y-13628D01*
X20612Y-13666D01*
X20527Y-13666D01*
X20984Y-13132D02*
X20984Y-13932D01*
X20984Y-13171D02*
X21041Y-13132D01*
X21155Y-13132D01*
X21212Y-13171D01*
X21241Y-13209D01*
X21270Y-13285D01*
X21270Y-13513D01*
X21241Y-13590D01*
X21212Y-13628D01*
X21155Y-13666D01*
X21041Y-13666D01*
X20984Y-13628D01*
X21755Y-13628D02*
X21698Y-13666D01*
X21584Y-13666D01*
X21527Y-13628D01*
X21498Y-13552D01*
X21498Y-13247D01*
X21527Y-13171D01*
X21584Y-13132D01*
X21698Y-13132D01*
X21755Y-13171D01*
X21784Y-13247D01*
X21784Y-13323D01*
X21498Y-13399D01*
X22469Y-13628D02*
X22555Y-13666D01*
X22698Y-13666D01*
X22755Y-13628D01*
X22784Y-13590D01*
X22812Y-13513D01*
X22812Y-13437D01*
X22784Y-13361D01*
X22755Y-13323D01*
X22698Y-13285D01*
X22584Y-13247D01*
X22526Y-13209D01*
X22498Y-13171D01*
X22469Y-13094D01*
X22469Y-13018D01*
X22498Y-12942D01*
X22526Y-12904D01*
X22584Y-12866D01*
X22726Y-12866D01*
X22812Y-12904D01*
X23297Y-13628D02*
X23240Y-13666D01*
X23126Y-13666D01*
X23069Y-13628D01*
X23040Y-13552D01*
X23040Y-13247D01*
X23069Y-13171D01*
X23126Y-13132D01*
X23240Y-13132D01*
X23297Y-13171D01*
X23326Y-13247D01*
X23326Y-13323D01*
X23040Y-13399D01*
X23840Y-13628D02*
X23783Y-13666D01*
X23669Y-13666D01*
X23611Y-13628D01*
X23583Y-13590D01*
X23554Y-13513D01*
X23554Y-13285D01*
X23583Y-13209D01*
X23611Y-13171D01*
X23669Y-13132D01*
X23783Y-13132D01*
X23840Y-13171D01*
X24183Y-13666D02*
X24125Y-13628D01*
X24097Y-13590D01*
X24068Y-13513D01*
X24068Y-13285D01*
X24097Y-13209D01*
X24125Y-13171D01*
X24183Y-13132D01*
X24268Y-13132D01*
X24325Y-13171D01*
X24354Y-13209D01*
X24383Y-13285D01*
X24383Y-13513D01*
X24354Y-13590D01*
X24325Y-13628D01*
X24268Y-13666D01*
X24183Y-13666D01*
X24640Y-13132D02*
X24640Y-13666D01*
X24640Y-13209D02*
X24668Y-13171D01*
X24726Y-13132D01*
X24811Y-13132D01*
X24868Y-13171D01*
X24897Y-13247D01*
X24897Y-13666D01*
X25440Y-13666D02*
X25440Y-12866D01*
X25440Y-13628D02*
X25383Y-13666D01*
X25269Y-13666D01*
X25211Y-13628D01*
X25183Y-13590D01*
X25154Y-13513D01*
X25154Y-13285D01*
X25183Y-13209D01*
X25211Y-13171D01*
X25269Y-13132D01*
X25383Y-13132D01*
X25440Y-13171D01*
X25983Y-13666D02*
X25983Y-13247D01*
X25954Y-13171D01*
X25897Y-13132D01*
X25783Y-13132D01*
X25726Y-13171D01*
X25983Y-13628D02*
X25926Y-13666D01*
X25783Y-13666D01*
X25726Y-13628D01*
X25697Y-13552D01*
X25697Y-13475D01*
X25726Y-13399D01*
X25783Y-13361D01*
X25926Y-13361D01*
X25983Y-13323D01*
X26269Y-13666D02*
X26269Y-13132D01*
X26269Y-13285D02*
X26297Y-13209D01*
X26326Y-13171D01*
X26383Y-13132D01*
X26440Y-13132D01*
X26583Y-13132D02*
X26726Y-13666D01*
X26868Y-13132D02*
X26726Y-13666D01*
X26668Y-13856D01*
X26640Y-13894D01*
X26583Y-13932D01*
X27754Y-13247D02*
X27840Y-13285D01*
X27868Y-13323D01*
X27897Y-13399D01*
X27897Y-13513D01*
X27868Y-13590D01*
X27840Y-13628D01*
X27782Y-13666D01*
X27554Y-13666D01*
X27554Y-12866D01*
X27754Y-12866D01*
X27811Y-12904D01*
X27840Y-12942D01*
X27868Y-13018D01*
X27868Y-13094D01*
X27840Y-13171D01*
X27811Y-13209D01*
X27754Y-13247D01*
X27554Y-13247D01*
X28240Y-13666D02*
X28182Y-13628D01*
X28154Y-13590D01*
X28125Y-13513D01*
X28125Y-13285D01*
X28154Y-13209D01*
X28182Y-13171D01*
X28240Y-13132D01*
X28325Y-13132D01*
X28382Y-13171D01*
X28411Y-13209D01*
X28440Y-13285D01*
X28440Y-13513D01*
X28411Y-13590D01*
X28382Y-13628D01*
X28325Y-13666D01*
X28240Y-13666D01*
X28954Y-13666D02*
X28954Y-13247D01*
X28925Y-13171D01*
X28868Y-13132D01*
X28754Y-13132D01*
X28697Y-13171D01*
X28954Y-13628D02*
X28897Y-13666D01*
X28754Y-13666D01*
X28697Y-13628D01*
X28668Y-13552D01*
X28668Y-13475D01*
X28697Y-13399D01*
X28754Y-13361D01*
X28897Y-13361D01*
X28954Y-13323D01*
X29240Y-13666D02*
X29240Y-13132D01*
X29240Y-13285D02*
X29268Y-13209D01*
X29297Y-13171D01*
X29354Y-13132D01*
X29411Y-13132D01*
X29868Y-13666D02*
X29868Y-12866D01*
X29868Y-13628D02*
X29811Y-13666D01*
X29697Y-13666D01*
X29639Y-13628D01*
X29611Y-13590D01*
X29582Y-13513D01*
X29582Y-13285D01*
X29611Y-13209D01*
X29639Y-13171D01*
X29697Y-13132D01*
X29811Y-13132D01*
X29868Y-13171D01*
X17299Y-14906D02*
X16956Y-14906D01*
X17128Y-14906D02*
X17128Y-14106D01*
X17071Y-14220D01*
X17013Y-14296D01*
X16956Y-14334D01*
X17842Y-14106D02*
X17556Y-14106D01*
X17527Y-14487D01*
X17556Y-14449D01*
X17613Y-14411D01*
X17756Y-14411D01*
X17813Y-14449D01*
X17842Y-14487D01*
X17870Y-14563D01*
X17870Y-14753D01*
X17842Y-14830D01*
X17813Y-14868D01*
X17756Y-14906D01*
X17613Y-14906D01*
X17556Y-14868D01*
X17527Y-14830D01*
X18127Y-14601D02*
X18584Y-14601D01*
X19156Y-14106D02*
X18870Y-14106D01*
X18841Y-14487D01*
X18870Y-14449D01*
X18927Y-14411D01*
X19070Y-14411D01*
X19127Y-14449D01*
X19156Y-14487D01*
X19184Y-14563D01*
X19184Y-14753D01*
X19156Y-14830D01*
X19127Y-14868D01*
X19070Y-14906D01*
X18927Y-14906D01*
X18870Y-14868D01*
X18841Y-14830D01*
X19441Y-14601D02*
X19898Y-14601D01*
X20155Y-14182D02*
X20184Y-14144D01*
X20241Y-14106D01*
X20384Y-14106D01*
X20441Y-14144D01*
X20470Y-14182D01*
X20498Y-14258D01*
X20498Y-14334D01*
X20470Y-14449D01*
X20127Y-14906D01*
X20498Y-14906D01*
X20869Y-14106D02*
X20926Y-14106D01*
X20983Y-14144D01*
X21012Y-14182D01*
X21041Y-14258D01*
X21069Y-14411D01*
X21069Y-14601D01*
X21041Y-14753D01*
X21012Y-14830D01*
X20983Y-14868D01*
X20926Y-14906D01*
X20869Y-14906D01*
X20812Y-14868D01*
X20783Y-14830D01*
X20755Y-14753D01*
X20726Y-14601D01*
X20726Y-14411D01*
X20755Y-14258D01*
X20783Y-14182D01*
X20812Y-14144D01*
X20869Y-14106D01*
X21640Y-14906D02*
X21297Y-14906D01*
X21469Y-14906D02*
X21469Y-14106D01*
X21412Y-14220D01*
X21354Y-14296D01*
X21297Y-14334D01*
X21868Y-14182D02*
X21897Y-14144D01*
X21954Y-14106D01*
X22097Y-14106D01*
X22154Y-14144D01*
X22183Y-14182D01*
X22211Y-14258D01*
X22211Y-14334D01*
X22183Y-14449D01*
X21840Y-14906D01*
X22211Y-14906D01*
X23353Y-14068D02*
X22839Y-15096D01*
X24011Y-14906D02*
X24011Y-14106D01*
X24239Y-14106D01*
X24297Y-14144D01*
X24325Y-14182D01*
X24354Y-14258D01*
X24354Y-14372D01*
X24325Y-14449D01*
X24297Y-14487D01*
X24239Y-14525D01*
X24011Y-14525D01*
X24611Y-14830D02*
X24639Y-14868D01*
X24611Y-14906D01*
X24582Y-14868D01*
X24611Y-14830D01*
X24611Y-14906D01*
X25268Y-14106D02*
X25611Y-14106D01*
X25440Y-14906D02*
X25440Y-14106D01*
X26068Y-14372D02*
X26068Y-14906D01*
X25811Y-14372D02*
X25811Y-14792D01*
X25839Y-14868D01*
X25897Y-14906D01*
X25982Y-14906D01*
X26039Y-14868D01*
X26068Y-14830D01*
X26354Y-14906D02*
X26354Y-14372D01*
X26354Y-14525D02*
X26382Y-14449D01*
X26411Y-14411D01*
X26468Y-14372D01*
X26525Y-14372D01*
X26725Y-14372D02*
X26725Y-14906D01*
X26725Y-14449D02*
X26753Y-14411D01*
X26811Y-14372D01*
X26896Y-14372D01*
X26953Y-14411D01*
X26982Y-14487D01*
X26982Y-14906D01*
X27496Y-14868D02*
X27439Y-14906D01*
X27325Y-14906D01*
X27268Y-14868D01*
X27239Y-14792D01*
X27239Y-14487D01*
X27268Y-14411D01*
X27325Y-14372D01*
X27439Y-14372D01*
X27496Y-14411D01*
X27525Y-14487D01*
X27525Y-14563D01*
X27239Y-14639D01*
X27782Y-14906D02*
X27782Y-14372D01*
X27782Y-14525D02*
X27810Y-14449D01*
X27839Y-14411D01*
X27896Y-14372D01*
X27953Y-14372D01*
G54D12*
X31362Y-08283D03*
X11677Y-08283D03*
G54D13*
X35997Y-16992D03*
G54D14*
X34997Y-16992D03*
X35997Y-21992D03*
X34997Y-17992D03*
X35997Y-22992D03*
X34997Y-18992D03*
X35997Y-23992D03*
X34997Y-19992D03*
X35997Y-24992D03*
X34997Y-20992D03*
X35997Y-25992D03*
X34997Y-21992D03*
X35997Y-26992D03*
X34997Y-22992D03*
X35997Y-27992D03*
X34997Y-23992D03*
X35997Y-28992D03*
X34997Y-24992D03*
X35997Y-29992D03*
X34997Y-25992D03*
X35997Y-30992D03*
X34997Y-26992D03*
X35997Y-31992D03*
X34997Y-27992D03*
X34997Y-28992D03*
X35997Y-32992D03*
X34997Y-29992D03*
X34997Y-31992D03*
X34997Y-32992D03*
X34997Y-33992D03*
X34997Y-34992D03*
X35997Y-33992D03*
X35997Y-34992D03*
X35997Y-17992D03*
X35997Y-18992D03*
X35997Y-19992D03*
X35997Y-20992D03*
X35997Y-35992D03*
X34997Y-35992D03*
X34997Y-30992D03*
G54D12*
X51047Y-08283D03*
G54D15*
X28843Y-30626D03*
X41334Y-30655D03*
X42673Y-31047D03*
X28154Y-31020D03*
X32347Y-22486D03*
X32347Y-23490D03*
X32377Y-25488D03*
X32357Y-26492D03*
X19449Y-35047D03*
X18925Y-31807D03*
X52150Y-31807D03*
X45320Y-22358D03*
X25546Y-22358D03*
X45438Y-31807D03*
X18952Y-22358D03*
X25841Y-31807D03*
X32357Y-27486D03*
G54D16*
X35997Y-35992D02*
X35493Y-35488D01*
X33705Y-35488D02*
X28843Y-30626D01*
X35493Y-35488D02*
X33705Y-35488D01*
X35997Y-35992D02*
X41334Y-30655D01*
X36688Y-36620D02*
X42288Y-31020D01*
X35625Y-36620D02*
X34997Y-35992D01*
X35625Y-36620D02*
X36688Y-36620D01*
X42646Y-31020D02*
X42288Y-31020D01*
X42673Y-31047D02*
X42646Y-31020D01*
X33126Y-35992D02*
X28154Y-31020D01*
X34997Y-35992D02*
X33126Y-35992D01*
X35997Y-22992D02*
X35491Y-22486D01*
X35491Y-22486D02*
X32347Y-22486D01*
X35495Y-23490D02*
X32347Y-23490D01*
X35997Y-23992D02*
X35495Y-23490D01*
X35493Y-25488D02*
X32377Y-25488D01*
X35997Y-25992D02*
X35493Y-25488D01*
X35997Y-26992D02*
X35497Y-26492D01*
X35497Y-26492D02*
X32357Y-26492D01*
X18925Y-31807D02*
X18925Y-34523D01*
X18925Y-34523D02*
X19449Y-35047D01*
X52150Y-31807D02*
X52150Y-29188D01*
X52150Y-29188D02*
X51973Y-29011D01*
X51973Y-29011D02*
X45320Y-22358D01*
X45438Y-31807D02*
X40290Y-36955D01*
X40290Y-36955D02*
X30320Y-36955D01*
X27052Y-23864D02*
X25546Y-22358D01*
X27052Y-33687D02*
X27052Y-23864D01*
X30320Y-36955D02*
X27052Y-33687D01*
X18952Y-24918D02*
X18952Y-22358D01*
X25841Y-31807D02*
X18952Y-24918D01*
X35997Y-27992D02*
X35491Y-27486D01*
X35491Y-27486D02*
X32357Y-27486D01*
G54D10*
G36*
X54660Y-38864D02*
X52649Y-38864D01*
X52649Y-31906D01*
X52649Y-31708D01*
X52573Y-31525D01*
X52440Y-31391D01*
X52440Y-29188D01*
X52418Y-29077D01*
X52355Y-28983D01*
X52179Y-28807D01*
X52178Y-28806D01*
X52178Y-28805D01*
X52097Y-28724D01*
X52097Y-08493D01*
X52097Y-08075D01*
X51937Y-07689D01*
X51642Y-07393D01*
X51257Y-07233D01*
X50839Y-07233D01*
X50453Y-07393D01*
X50157Y-07688D01*
X49997Y-08073D01*
X49997Y-08491D01*
X50157Y-08877D01*
X50452Y-09173D01*
X50837Y-09333D01*
X51255Y-09333D01*
X51641Y-09173D01*
X51937Y-08878D01*
X52097Y-08493D01*
X52097Y-28724D01*
X45819Y-22446D01*
X45819Y-22259D01*
X45743Y-22076D01*
X45603Y-21935D01*
X45419Y-21859D01*
X45221Y-21859D01*
X45038Y-21935D01*
X44897Y-22075D01*
X44821Y-22259D01*
X44821Y-22457D01*
X44897Y-22640D01*
X45037Y-22781D01*
X45221Y-22857D01*
X45408Y-22857D01*
X51767Y-29216D01*
X51768Y-29216D01*
X51769Y-29217D01*
X51860Y-29308D01*
X51860Y-31391D01*
X51727Y-31524D01*
X51651Y-31708D01*
X51651Y-31906D01*
X51727Y-32089D01*
X51867Y-32230D01*
X52051Y-32306D01*
X52249Y-32306D01*
X52432Y-32230D01*
X52573Y-32090D01*
X52649Y-31906D01*
X52649Y-38864D01*
X45937Y-38864D01*
X45937Y-31906D01*
X45937Y-31708D01*
X45861Y-31525D01*
X45721Y-31384D01*
X45537Y-31308D01*
X45339Y-31308D01*
X45156Y-31384D01*
X45015Y-31524D01*
X44939Y-31708D01*
X44939Y-31896D01*
X40170Y-36665D01*
X37053Y-36665D01*
X42319Y-31398D01*
X42390Y-31470D01*
X42574Y-31546D01*
X42772Y-31546D01*
X42955Y-31470D01*
X43096Y-31330D01*
X43172Y-31146D01*
X43172Y-30948D01*
X43096Y-30765D01*
X42956Y-30624D01*
X42772Y-30548D01*
X42574Y-30548D01*
X42391Y-30624D01*
X42283Y-30730D01*
X42177Y-30752D01*
X42083Y-30815D01*
X36568Y-36330D01*
X36435Y-36330D01*
X36462Y-36303D01*
X36546Y-36101D01*
X36546Y-35883D01*
X36537Y-35861D01*
X41245Y-31154D01*
X41433Y-31154D01*
X41616Y-31078D01*
X41757Y-30938D01*
X41833Y-30754D01*
X41833Y-30556D01*
X41757Y-30373D01*
X41617Y-30232D01*
X41433Y-30156D01*
X41235Y-30156D01*
X41052Y-30232D01*
X40911Y-30372D01*
X40835Y-30556D01*
X40835Y-30743D01*
X38759Y-32819D01*
X38759Y-30783D01*
X38759Y-22221D01*
X36899Y-22221D01*
X36899Y-30783D01*
X38759Y-30783D01*
X38759Y-32819D01*
X36546Y-35032D01*
X36546Y-34883D01*
X36540Y-34868D01*
X36540Y-34071D01*
X36529Y-33858D01*
X36469Y-33711D01*
X36375Y-33684D01*
X36068Y-33992D01*
X36375Y-34300D01*
X36469Y-34273D01*
X36540Y-34071D01*
X36540Y-34868D01*
X36462Y-34681D01*
X36308Y-34527D01*
X36216Y-34489D01*
X36278Y-34464D01*
X36305Y-34370D01*
X35997Y-34063D01*
X35689Y-34370D01*
X35716Y-34464D01*
X35781Y-34487D01*
X35686Y-34527D01*
X35532Y-34681D01*
X35497Y-34765D01*
X35462Y-34681D01*
X35308Y-34527D01*
X35223Y-34492D01*
X35308Y-34457D01*
X35462Y-34303D01*
X35499Y-34211D01*
X35525Y-34273D01*
X35619Y-34300D01*
X35926Y-33992D01*
X35619Y-33684D01*
X35525Y-33711D01*
X35501Y-33776D01*
X35462Y-33681D01*
X35308Y-33527D01*
X35223Y-33492D01*
X35308Y-33457D01*
X35462Y-33303D01*
X35497Y-33218D01*
X35532Y-33303D01*
X35686Y-33457D01*
X35777Y-33494D01*
X35716Y-33520D01*
X35689Y-33614D01*
X35997Y-33921D01*
X36305Y-33614D01*
X36278Y-33520D01*
X36212Y-33496D01*
X36308Y-33457D01*
X36462Y-33303D01*
X36546Y-33101D01*
X36546Y-32883D01*
X36462Y-32681D01*
X36308Y-32527D01*
X36223Y-32492D01*
X36308Y-32457D01*
X36462Y-32303D01*
X36546Y-32101D01*
X36546Y-31883D01*
X36462Y-31681D01*
X36308Y-31527D01*
X36223Y-31492D01*
X36308Y-31457D01*
X36462Y-31303D01*
X36546Y-31101D01*
X36546Y-30883D01*
X36462Y-30681D01*
X36308Y-30527D01*
X36223Y-30492D01*
X36308Y-30457D01*
X36462Y-30303D01*
X36546Y-30101D01*
X36546Y-29883D01*
X36462Y-29681D01*
X36308Y-29527D01*
X36223Y-29492D01*
X36308Y-29457D01*
X36462Y-29303D01*
X36546Y-29101D01*
X36546Y-28883D01*
X36462Y-28681D01*
X36308Y-28527D01*
X36223Y-28492D01*
X36308Y-28457D01*
X36462Y-28303D01*
X36546Y-28101D01*
X36546Y-27883D01*
X36462Y-27681D01*
X36308Y-27527D01*
X36223Y-27492D01*
X36308Y-27457D01*
X36462Y-27303D01*
X36546Y-27101D01*
X36546Y-26883D01*
X36462Y-26681D01*
X36308Y-26527D01*
X36223Y-26492D01*
X36308Y-26457D01*
X36462Y-26303D01*
X36546Y-26101D01*
X36546Y-25883D01*
X36462Y-25681D01*
X36308Y-25527D01*
X36223Y-25492D01*
X36308Y-25457D01*
X36462Y-25303D01*
X36546Y-25101D01*
X36546Y-24883D01*
X36462Y-24681D01*
X36308Y-24527D01*
X36223Y-24492D01*
X36308Y-24457D01*
X36462Y-24303D01*
X36546Y-24101D01*
X36546Y-23883D01*
X36462Y-23681D01*
X36308Y-23527D01*
X36223Y-23492D01*
X36308Y-23457D01*
X36462Y-23303D01*
X36546Y-23101D01*
X36546Y-22883D01*
X36462Y-22681D01*
X36308Y-22527D01*
X36223Y-22492D01*
X36308Y-22457D01*
X36462Y-22303D01*
X36546Y-22101D01*
X36546Y-21883D01*
X36462Y-21681D01*
X36308Y-21527D01*
X36223Y-21492D01*
X36308Y-21457D01*
X36462Y-21303D01*
X36546Y-21101D01*
X36546Y-20883D01*
X36462Y-20681D01*
X36308Y-20527D01*
X36223Y-20492D01*
X36308Y-20457D01*
X36462Y-20303D01*
X36546Y-20101D01*
X36546Y-19883D01*
X36462Y-19681D01*
X36308Y-19527D01*
X36223Y-19492D01*
X36308Y-19457D01*
X36462Y-19303D01*
X36546Y-19101D01*
X36546Y-18883D01*
X36462Y-18681D01*
X36308Y-18527D01*
X36223Y-18492D01*
X36308Y-18457D01*
X36462Y-18303D01*
X36546Y-18101D01*
X36546Y-17883D01*
X36462Y-17681D01*
X36322Y-17541D01*
X36346Y-17541D01*
X36438Y-17503D01*
X36508Y-17433D01*
X36546Y-17342D01*
X36546Y-17243D01*
X36546Y-16643D01*
X36508Y-16551D01*
X36438Y-16481D01*
X36347Y-16443D01*
X36248Y-16443D01*
X35648Y-16443D01*
X35556Y-16481D01*
X35486Y-16551D01*
X35448Y-16642D01*
X35448Y-16667D01*
X35308Y-16527D01*
X35106Y-16443D01*
X34888Y-16443D01*
X34686Y-16527D01*
X34532Y-16681D01*
X34448Y-16883D01*
X34448Y-17101D01*
X34532Y-17303D01*
X34686Y-17457D01*
X34770Y-17492D01*
X34686Y-17527D01*
X34532Y-17681D01*
X34448Y-17883D01*
X34448Y-18101D01*
X34532Y-18303D01*
X34686Y-18457D01*
X34770Y-18492D01*
X34686Y-18527D01*
X34532Y-18681D01*
X34448Y-18883D01*
X34448Y-19101D01*
X34532Y-19303D01*
X34686Y-19457D01*
X34770Y-19492D01*
X34686Y-19527D01*
X34532Y-19681D01*
X34448Y-19883D01*
X34448Y-20101D01*
X34532Y-20303D01*
X34686Y-20457D01*
X34770Y-20492D01*
X34686Y-20527D01*
X34532Y-20681D01*
X34448Y-20883D01*
X34448Y-21101D01*
X34532Y-21303D01*
X34686Y-21457D01*
X34770Y-21492D01*
X34686Y-21527D01*
X34532Y-21681D01*
X34448Y-21883D01*
X34448Y-22101D01*
X34487Y-22196D01*
X32762Y-22196D01*
X32630Y-22063D01*
X32446Y-21987D01*
X32412Y-21987D01*
X32412Y-08493D01*
X32412Y-08075D01*
X32252Y-07689D01*
X31957Y-07393D01*
X31572Y-07233D01*
X31154Y-07233D01*
X30768Y-07393D01*
X30472Y-07688D01*
X30312Y-08073D01*
X30312Y-08491D01*
X30472Y-08877D01*
X30767Y-09173D01*
X31152Y-09333D01*
X31570Y-09333D01*
X31956Y-09173D01*
X32252Y-08878D01*
X32412Y-08493D01*
X32412Y-21987D01*
X32248Y-21987D01*
X32065Y-22063D01*
X31924Y-22203D01*
X31848Y-22387D01*
X31848Y-22585D01*
X31924Y-22768D01*
X32064Y-22909D01*
X32248Y-22985D01*
X32446Y-22985D01*
X32629Y-22909D01*
X32762Y-22776D01*
X34492Y-22776D01*
X34448Y-22883D01*
X34448Y-23101D01*
X34489Y-23200D01*
X32762Y-23200D01*
X32630Y-23067D01*
X32446Y-22991D01*
X32248Y-22991D01*
X32065Y-23067D01*
X31924Y-23207D01*
X31848Y-23391D01*
X31848Y-23589D01*
X31924Y-23772D01*
X32064Y-23913D01*
X32248Y-23989D01*
X32446Y-23989D01*
X32629Y-23913D01*
X32762Y-23780D01*
X34490Y-23780D01*
X34448Y-23883D01*
X34448Y-24101D01*
X34532Y-24303D01*
X34686Y-24457D01*
X34770Y-24492D01*
X34686Y-24527D01*
X34532Y-24681D01*
X34448Y-24883D01*
X34448Y-25101D01*
X34488Y-25198D01*
X32792Y-25198D01*
X32660Y-25065D01*
X32476Y-24989D01*
X32278Y-24989D01*
X32095Y-25065D01*
X31954Y-25205D01*
X31878Y-25389D01*
X31878Y-25587D01*
X31954Y-25770D01*
X32094Y-25911D01*
X32278Y-25987D01*
X32476Y-25987D01*
X32659Y-25911D01*
X32792Y-25778D01*
X34491Y-25778D01*
X34448Y-25883D01*
X34448Y-26101D01*
X34490Y-26202D01*
X32772Y-26202D01*
X32640Y-26069D01*
X32456Y-25993D01*
X32258Y-25993D01*
X32075Y-26069D01*
X31934Y-26209D01*
X31858Y-26393D01*
X31858Y-26591D01*
X31934Y-26774D01*
X32074Y-26915D01*
X32253Y-26989D01*
X32075Y-27063D01*
X31934Y-27203D01*
X31858Y-27387D01*
X31858Y-27585D01*
X31934Y-27768D01*
X32074Y-27909D01*
X32258Y-27985D01*
X32456Y-27985D01*
X32639Y-27909D01*
X32772Y-27776D01*
X34492Y-27776D01*
X34448Y-27883D01*
X34448Y-28101D01*
X34532Y-28303D01*
X34686Y-28457D01*
X34770Y-28492D01*
X34686Y-28527D01*
X34532Y-28681D01*
X34448Y-28883D01*
X34448Y-29101D01*
X34532Y-29303D01*
X34686Y-29457D01*
X34770Y-29492D01*
X34686Y-29527D01*
X34532Y-29681D01*
X34448Y-29883D01*
X34448Y-30101D01*
X34532Y-30303D01*
X34686Y-30457D01*
X34770Y-30492D01*
X34686Y-30527D01*
X34532Y-30681D01*
X34448Y-30883D01*
X34448Y-31101D01*
X34532Y-31303D01*
X34686Y-31457D01*
X34770Y-31492D01*
X34686Y-31527D01*
X34532Y-31681D01*
X34448Y-31883D01*
X34448Y-32101D01*
X34532Y-32303D01*
X34686Y-32457D01*
X34770Y-32492D01*
X34686Y-32527D01*
X34532Y-32681D01*
X34448Y-32883D01*
X34448Y-33101D01*
X34532Y-33303D01*
X34686Y-33457D01*
X34770Y-33492D01*
X34686Y-33527D01*
X34532Y-33681D01*
X34448Y-33883D01*
X34448Y-34101D01*
X34532Y-34303D01*
X34686Y-34457D01*
X34770Y-34492D01*
X34686Y-34527D01*
X34532Y-34681D01*
X34448Y-34883D01*
X34448Y-35101D01*
X34488Y-35198D01*
X33825Y-35198D01*
X30321Y-31694D01*
X30321Y-15452D01*
X30321Y-11112D01*
X14532Y-11112D01*
X14532Y-15452D01*
X30321Y-15452D01*
X30321Y-31694D01*
X29342Y-30715D01*
X29342Y-30527D01*
X29266Y-30344D01*
X29126Y-30203D01*
X28942Y-30127D01*
X28744Y-30127D01*
X28561Y-30203D01*
X28420Y-30343D01*
X28344Y-30527D01*
X28344Y-30558D01*
X28253Y-30521D01*
X28055Y-30521D01*
X27872Y-30597D01*
X27731Y-30737D01*
X27655Y-30921D01*
X27655Y-31119D01*
X27731Y-31302D01*
X27871Y-31443D01*
X28055Y-31519D01*
X28243Y-31519D01*
X32921Y-36197D01*
X33015Y-36260D01*
X33126Y-36282D01*
X34523Y-36282D01*
X34532Y-36303D01*
X34686Y-36457D01*
X34888Y-36541D01*
X35106Y-36541D01*
X35127Y-36532D01*
X35260Y-36665D01*
X30440Y-36665D01*
X27342Y-33566D01*
X27342Y-23864D01*
X27341Y-23863D01*
X27320Y-23753D01*
X27319Y-23752D01*
X27257Y-23659D01*
X27256Y-23658D01*
X26045Y-22447D01*
X26045Y-22259D01*
X25969Y-22076D01*
X25829Y-21935D01*
X25645Y-21859D01*
X25447Y-21859D01*
X25264Y-21935D01*
X25123Y-22075D01*
X25047Y-22259D01*
X25047Y-22457D01*
X25123Y-22640D01*
X25263Y-22781D01*
X25447Y-22857D01*
X25635Y-22857D01*
X26762Y-23984D01*
X26762Y-33687D01*
X26784Y-33798D01*
X26847Y-33892D01*
X30114Y-37160D01*
X30115Y-37160D01*
X30209Y-37223D01*
X30320Y-37245D01*
X40290Y-37245D01*
X40401Y-37223D01*
X40495Y-37160D01*
X45349Y-32306D01*
X45537Y-32306D01*
X45720Y-32230D01*
X45861Y-32090D01*
X45937Y-31906D01*
X45937Y-38864D01*
X26340Y-38864D01*
X26340Y-31906D01*
X26340Y-31708D01*
X26264Y-31525D01*
X26124Y-31384D01*
X25940Y-31308D01*
X25752Y-31308D01*
X19242Y-24798D01*
X19242Y-22773D01*
X19375Y-22641D01*
X19451Y-22457D01*
X19451Y-22259D01*
X19375Y-22076D01*
X19235Y-21935D01*
X19051Y-21859D01*
X18853Y-21859D01*
X18670Y-21935D01*
X18529Y-22075D01*
X18453Y-22259D01*
X18453Y-22457D01*
X18529Y-22640D01*
X18662Y-22773D01*
X18662Y-24918D01*
X18684Y-25029D01*
X18747Y-25123D01*
X25342Y-31718D01*
X25342Y-31906D01*
X25418Y-32089D01*
X25558Y-32230D01*
X25742Y-32306D01*
X25940Y-32306D01*
X26123Y-32230D01*
X26264Y-32090D01*
X26340Y-31906D01*
X26340Y-38864D01*
X19948Y-38864D01*
X19948Y-35146D01*
X19948Y-34948D01*
X19872Y-34765D01*
X19732Y-34624D01*
X19548Y-34548D01*
X19360Y-34548D01*
X19215Y-34403D01*
X19215Y-32222D01*
X19348Y-32090D01*
X19424Y-31906D01*
X19424Y-31708D01*
X19348Y-31525D01*
X19208Y-31384D01*
X19024Y-31308D01*
X18826Y-31308D01*
X18643Y-31384D01*
X18502Y-31524D01*
X18426Y-31708D01*
X18426Y-31906D01*
X18502Y-32089D01*
X18635Y-32222D01*
X18635Y-34523D01*
X18657Y-34634D01*
X18720Y-34728D01*
X18950Y-34958D01*
X18950Y-35146D01*
X19026Y-35329D01*
X19166Y-35470D01*
X19350Y-35546D01*
X19548Y-35546D01*
X19731Y-35470D01*
X19872Y-35330D01*
X19948Y-35146D01*
X19948Y-38864D01*
X12727Y-38864D01*
X12727Y-08493D01*
X12727Y-08075D01*
X12567Y-07689D01*
X12272Y-07393D01*
X11887Y-07233D01*
X11469Y-07233D01*
X11083Y-07393D01*
X10787Y-07688D01*
X10627Y-08073D01*
X10627Y-08491D01*
X10787Y-08877D01*
X11082Y-09173D01*
X11467Y-09333D01*
X11885Y-09333D01*
X12271Y-09173D01*
X12567Y-08878D01*
X12727Y-08493D01*
X12727Y-38864D01*
X08066Y-38864D01*
X08066Y-07034D01*
X54660Y-07034D01*
X54660Y-38864D01*
X54660Y-38864D01*
G37*
G54D17*
X54660Y-38864D02*
X52649Y-38864D01*
X52649Y-31906D01*
X52649Y-31708D01*
X52573Y-31525D01*
X52440Y-31391D01*
X52440Y-29188D01*
X52418Y-29077D01*
X52355Y-28983D01*
X52179Y-28807D01*
X52178Y-28806D01*
X52178Y-28805D01*
X52097Y-28724D01*
X52097Y-08493D01*
X52097Y-08075D01*
X51937Y-07689D01*
X51642Y-07393D01*
X51257Y-07233D01*
X50839Y-07233D01*
X50453Y-07393D01*
X50157Y-07688D01*
X49997Y-08073D01*
X49997Y-08491D01*
X50157Y-08877D01*
X50452Y-09173D01*
X50837Y-09333D01*
X51255Y-09333D01*
X51641Y-09173D01*
X51937Y-08878D01*
X52097Y-08493D01*
X52097Y-28724D01*
X45819Y-22446D01*
X45819Y-22259D01*
X45743Y-22076D01*
X45603Y-21935D01*
X45419Y-21859D01*
X45221Y-21859D01*
X45038Y-21935D01*
X44897Y-22075D01*
X44821Y-22259D01*
X44821Y-22457D01*
X44897Y-22640D01*
X45037Y-22781D01*
X45221Y-22857D01*
X45408Y-22857D01*
X51767Y-29216D01*
X51768Y-29216D01*
X51769Y-29217D01*
X51860Y-29308D01*
X51860Y-31391D01*
X51727Y-31524D01*
X51651Y-31708D01*
X51651Y-31906D01*
X51727Y-32089D01*
X51867Y-32230D01*
X52051Y-32306D01*
X52249Y-32306D01*
X52432Y-32230D01*
X52573Y-32090D01*
X52649Y-31906D01*
X52649Y-38864D01*
X45937Y-38864D01*
X45937Y-31906D01*
X45937Y-31708D01*
X45861Y-31525D01*
X45721Y-31384D01*
X45537Y-31308D01*
X45339Y-31308D01*
X45156Y-31384D01*
X45015Y-31524D01*
X44939Y-31708D01*
X44939Y-31896D01*
X40170Y-36665D01*
X37053Y-36665D01*
X42319Y-31398D01*
X42390Y-31470D01*
X42574Y-31546D01*
X42772Y-31546D01*
X42955Y-31470D01*
X43096Y-31330D01*
X43172Y-31146D01*
X43172Y-30948D01*
X43096Y-30765D01*
X42956Y-30624D01*
X42772Y-30548D01*
X42574Y-30548D01*
X42391Y-30624D01*
X42283Y-30730D01*
X42177Y-30752D01*
X42083Y-30815D01*
X36568Y-36330D01*
X36435Y-36330D01*
X36462Y-36303D01*
X36546Y-36101D01*
X36546Y-35883D01*
X36537Y-35861D01*
X41245Y-31154D01*
X41433Y-31154D01*
X41616Y-31078D01*
X41757Y-30938D01*
X41833Y-30754D01*
X41833Y-30556D01*
X41757Y-30373D01*
X41617Y-30232D01*
X41433Y-30156D01*
X41235Y-30156D01*
X41052Y-30232D01*
X40911Y-30372D01*
X40835Y-30556D01*
X40835Y-30743D01*
X38759Y-32819D01*
X38759Y-30783D01*
X38759Y-22221D01*
X36899Y-22221D01*
X36899Y-30783D01*
X38759Y-30783D01*
X38759Y-32819D01*
X36546Y-35032D01*
X36546Y-34883D01*
X36540Y-34868D01*
X36540Y-34071D01*
X36529Y-33858D01*
X36469Y-33711D01*
X36375Y-33684D01*
X36068Y-33992D01*
X36375Y-34300D01*
X36469Y-34273D01*
X36540Y-34071D01*
X36540Y-34868D01*
X36462Y-34681D01*
X36308Y-34527D01*
X36216Y-34489D01*
X36278Y-34464D01*
X36305Y-34370D01*
X35997Y-34063D01*
X35689Y-34370D01*
X35716Y-34464D01*
X35781Y-34487D01*
X35686Y-34527D01*
X35532Y-34681D01*
X35497Y-34765D01*
X35462Y-34681D01*
X35308Y-34527D01*
X35223Y-34492D01*
X35308Y-34457D01*
X35462Y-34303D01*
X35499Y-34211D01*
X35525Y-34273D01*
X35619Y-34300D01*
X35926Y-33992D01*
X35619Y-33684D01*
X35525Y-33711D01*
X35501Y-33776D01*
X35462Y-33681D01*
X35308Y-33527D01*
X35223Y-33492D01*
X35308Y-33457D01*
X35462Y-33303D01*
X35497Y-33218D01*
X35532Y-33303D01*
X35686Y-33457D01*
X35777Y-33494D01*
X35716Y-33520D01*
X35689Y-33614D01*
X35997Y-33921D01*
X36305Y-33614D01*
X36278Y-33520D01*
X36212Y-33496D01*
X36308Y-33457D01*
X36462Y-33303D01*
X36546Y-33101D01*
X36546Y-32883D01*
X36462Y-32681D01*
X36308Y-32527D01*
X36223Y-32492D01*
X36308Y-32457D01*
X36462Y-32303D01*
X36546Y-32101D01*
X36546Y-31883D01*
X36462Y-31681D01*
X36308Y-31527D01*
X36223Y-31492D01*
X36308Y-31457D01*
X36462Y-31303D01*
X36546Y-31101D01*
X36546Y-30883D01*
X36462Y-30681D01*
X36308Y-30527D01*
X36223Y-30492D01*
X36308Y-30457D01*
X36462Y-30303D01*
X36546Y-30101D01*
X36546Y-29883D01*
X36462Y-29681D01*
X36308Y-29527D01*
X36223Y-29492D01*
X36308Y-29457D01*
X36462Y-29303D01*
X36546Y-29101D01*
X36546Y-28883D01*
X36462Y-28681D01*
X36308Y-28527D01*
X36223Y-28492D01*
X36308Y-28457D01*
X36462Y-28303D01*
X36546Y-28101D01*
X36546Y-27883D01*
X36462Y-27681D01*
X36308Y-27527D01*
X36223Y-27492D01*
X36308Y-27457D01*
X36462Y-27303D01*
X36546Y-27101D01*
X36546Y-26883D01*
X36462Y-26681D01*
X36308Y-26527D01*
X36223Y-26492D01*
X36308Y-26457D01*
X36462Y-26303D01*
X36546Y-26101D01*
X36546Y-25883D01*
X36462Y-25681D01*
X36308Y-25527D01*
X36223Y-25492D01*
X36308Y-25457D01*
X36462Y-25303D01*
X36546Y-25101D01*
X36546Y-24883D01*
X36462Y-24681D01*
X36308Y-24527D01*
X36223Y-24492D01*
X36308Y-24457D01*
X36462Y-24303D01*
X36546Y-24101D01*
X36546Y-23883D01*
X36462Y-23681D01*
X36308Y-23527D01*
X36223Y-23492D01*
X36308Y-23457D01*
X36462Y-23303D01*
X36546Y-23101D01*
X36546Y-22883D01*
X36462Y-22681D01*
X36308Y-22527D01*
X36223Y-22492D01*
X36308Y-22457D01*
X36462Y-22303D01*
X36546Y-22101D01*
X36546Y-21883D01*
X36462Y-21681D01*
X36308Y-21527D01*
X36223Y-21492D01*
X36308Y-21457D01*
X36462Y-21303D01*
X36546Y-21101D01*
X36546Y-20883D01*
X36462Y-20681D01*
X36308Y-20527D01*
X36223Y-20492D01*
X36308Y-20457D01*
X36462Y-20303D01*
X36546Y-20101D01*
X36546Y-19883D01*
X36462Y-19681D01*
X36308Y-19527D01*
X36223Y-19492D01*
X36308Y-19457D01*
X36462Y-19303D01*
X36546Y-19101D01*
X36546Y-18883D01*
X36462Y-18681D01*
X36308Y-18527D01*
X36223Y-18492D01*
X36308Y-18457D01*
X36462Y-18303D01*
X36546Y-18101D01*
X36546Y-17883D01*
X36462Y-17681D01*
X36322Y-17541D01*
X36346Y-17541D01*
X36438Y-17503D01*
X36508Y-17433D01*
X36546Y-17342D01*
X36546Y-17243D01*
X36546Y-16643D01*
X36508Y-16551D01*
X36438Y-16481D01*
X36347Y-16443D01*
X36248Y-16443D01*
X35648Y-16443D01*
X35556Y-16481D01*
X35486Y-16551D01*
X35448Y-16642D01*
X35448Y-16667D01*
X35308Y-16527D01*
X35106Y-16443D01*
X34888Y-16443D01*
X34686Y-16527D01*
X34532Y-16681D01*
X34448Y-16883D01*
X34448Y-17101D01*
X34532Y-17303D01*
X34686Y-17457D01*
X34770Y-17492D01*
X34686Y-17527D01*
X34532Y-17681D01*
X34448Y-17883D01*
X34448Y-18101D01*
X34532Y-18303D01*
X34686Y-18457D01*
X34770Y-18492D01*
X34686Y-18527D01*
X34532Y-18681D01*
X34448Y-18883D01*
X34448Y-19101D01*
X34532Y-19303D01*
X34686Y-19457D01*
X34770Y-19492D01*
X34686Y-19527D01*
X34532Y-19681D01*
X34448Y-19883D01*
X34448Y-20101D01*
X34532Y-20303D01*
X34686Y-20457D01*
X34770Y-20492D01*
X34686Y-20527D01*
X34532Y-20681D01*
X34448Y-20883D01*
X34448Y-21101D01*
X34532Y-21303D01*
X34686Y-21457D01*
X34770Y-21492D01*
X34686Y-21527D01*
X34532Y-21681D01*
X34448Y-21883D01*
X34448Y-22101D01*
X34487Y-22196D01*
X32762Y-22196D01*
X32630Y-22063D01*
X32446Y-21987D01*
X32412Y-21987D01*
X32412Y-08493D01*
X32412Y-08075D01*
X32252Y-07689D01*
X31957Y-07393D01*
X31572Y-07233D01*
X31154Y-07233D01*
X30768Y-07393D01*
X30472Y-07688D01*
X30312Y-08073D01*
X30312Y-08491D01*
X30472Y-08877D01*
X30767Y-09173D01*
X31152Y-09333D01*
X31570Y-09333D01*
X31956Y-09173D01*
X32252Y-08878D01*
X32412Y-08493D01*
X32412Y-21987D01*
X32248Y-21987D01*
X32065Y-22063D01*
X31924Y-22203D01*
X31848Y-22387D01*
X31848Y-22585D01*
X31924Y-22768D01*
X32064Y-22909D01*
X32248Y-22985D01*
X32446Y-22985D01*
X32629Y-22909D01*
X32762Y-22776D01*
X34492Y-22776D01*
X34448Y-22883D01*
X34448Y-23101D01*
X34489Y-23200D01*
X32762Y-23200D01*
X32630Y-23067D01*
X32446Y-22991D01*
X32248Y-22991D01*
X32065Y-23067D01*
X31924Y-23207D01*
X31848Y-23391D01*
X31848Y-23589D01*
X31924Y-23772D01*
X32064Y-23913D01*
X32248Y-23989D01*
X32446Y-23989D01*
X32629Y-23913D01*
X32762Y-23780D01*
X34490Y-23780D01*
X34448Y-23883D01*
X34448Y-24101D01*
X34532Y-24303D01*
X34686Y-24457D01*
X34770Y-24492D01*
X34686Y-24527D01*
X34532Y-24681D01*
X34448Y-24883D01*
X34448Y-25101D01*
X34488Y-25198D01*
X32792Y-25198D01*
X32660Y-25065D01*
X32476Y-24989D01*
X32278Y-24989D01*
X32095Y-25065D01*
X31954Y-25205D01*
X31878Y-25389D01*
X31878Y-25587D01*
X31954Y-25770D01*
X32094Y-25911D01*
X32278Y-25987D01*
X32476Y-25987D01*
X32659Y-25911D01*
X32792Y-25778D01*
X34491Y-25778D01*
X34448Y-25883D01*
X34448Y-26101D01*
X34490Y-26202D01*
X32772Y-26202D01*
X32640Y-26069D01*
X32456Y-25993D01*
X32258Y-25993D01*
X32075Y-26069D01*
X31934Y-26209D01*
X31858Y-26393D01*
X31858Y-26591D01*
X31934Y-26774D01*
X32074Y-26915D01*
X32253Y-26989D01*
X32075Y-27063D01*
X31934Y-27203D01*
X31858Y-27387D01*
X31858Y-27585D01*
X31934Y-27768D01*
X32074Y-27909D01*
X32258Y-27985D01*
X32456Y-27985D01*
X32639Y-27909D01*
X32772Y-27776D01*
X34492Y-27776D01*
X34448Y-27883D01*
X34448Y-28101D01*
X34532Y-28303D01*
X34686Y-28457D01*
X34770Y-28492D01*
X34686Y-28527D01*
X34532Y-28681D01*
X34448Y-28883D01*
X34448Y-29101D01*
X34532Y-29303D01*
X34686Y-29457D01*
X34770Y-29492D01*
X34686Y-29527D01*
X34532Y-29681D01*
X34448Y-29883D01*
X34448Y-30101D01*
X34532Y-30303D01*
X34686Y-30457D01*
X34770Y-30492D01*
X34686Y-30527D01*
X34532Y-30681D01*
X34448Y-30883D01*
X34448Y-31101D01*
X34532Y-31303D01*
X34686Y-31457D01*
X34770Y-31492D01*
X34686Y-31527D01*
X34532Y-31681D01*
X34448Y-31883D01*
X34448Y-32101D01*
X34532Y-32303D01*
X34686Y-32457D01*
X34770Y-32492D01*
X34686Y-32527D01*
X34532Y-32681D01*
X34448Y-32883D01*
X34448Y-33101D01*
X34532Y-33303D01*
X34686Y-33457D01*
X34770Y-33492D01*
X34686Y-33527D01*
X34532Y-33681D01*
X34448Y-33883D01*
X34448Y-34101D01*
X34532Y-34303D01*
X34686Y-34457D01*
X34770Y-34492D01*
X34686Y-34527D01*
X34532Y-34681D01*
X34448Y-34883D01*
X34448Y-35101D01*
X34488Y-35198D01*
X33825Y-35198D01*
X30321Y-31694D01*
X30321Y-15452D01*
X30321Y-11112D01*
X14532Y-11112D01*
X14532Y-15452D01*
X30321Y-15452D01*
X30321Y-31694D01*
X29342Y-30715D01*
X29342Y-30527D01*
X29266Y-30344D01*
X29126Y-30203D01*
X28942Y-30127D01*
X28744Y-30127D01*
X28561Y-30203D01*
X28420Y-30343D01*
X28344Y-30527D01*
X28344Y-30558D01*
X28253Y-30521D01*
X28055Y-30521D01*
X27872Y-30597D01*
X27731Y-30737D01*
X27655Y-30921D01*
X27655Y-31119D01*
X27731Y-31302D01*
X27871Y-31443D01*
X28055Y-31519D01*
X28243Y-31519D01*
X32921Y-36197D01*
X33015Y-36260D01*
X33126Y-36282D01*
X34523Y-36282D01*
X34532Y-36303D01*
X34686Y-36457D01*
X34888Y-36541D01*
X35106Y-36541D01*
X35127Y-36532D01*
X35260Y-36665D01*
X30440Y-36665D01*
X27342Y-33566D01*
X27342Y-23864D01*
X27341Y-23863D01*
X27320Y-23753D01*
X27319Y-23752D01*
X27257Y-23659D01*
X27256Y-23658D01*
X26045Y-22447D01*
X26045Y-22259D01*
X25969Y-22076D01*
X25829Y-21935D01*
X25645Y-21859D01*
X25447Y-21859D01*
X25264Y-21935D01*
X25123Y-22075D01*
X25047Y-22259D01*
X25047Y-22457D01*
X25123Y-22640D01*
X25263Y-22781D01*
X25447Y-22857D01*
X25635Y-22857D01*
X26762Y-23984D01*
X26762Y-33687D01*
X26784Y-33798D01*
X26847Y-33892D01*
X30114Y-37160D01*
X30115Y-37160D01*
X30209Y-37223D01*
X30320Y-37245D01*
X40290Y-37245D01*
X40401Y-37223D01*
X40495Y-37160D01*
X45349Y-32306D01*
X45537Y-32306D01*
X45720Y-32230D01*
X45861Y-32090D01*
X45937Y-31906D01*
X45937Y-38864D01*
X26340Y-38864D01*
X26340Y-31906D01*
X26340Y-31708D01*
X26264Y-31525D01*
X26124Y-31384D01*
X25940Y-31308D01*
X25752Y-31308D01*
X19242Y-24798D01*
X19242Y-22773D01*
X19375Y-22641D01*
X19451Y-22457D01*
X19451Y-22259D01*
X19375Y-22076D01*
X19235Y-21935D01*
X19051Y-21859D01*
X18853Y-21859D01*
X18670Y-21935D01*
X18529Y-22075D01*
X18453Y-22259D01*
X18453Y-22457D01*
X18529Y-22640D01*
X18662Y-22773D01*
X18662Y-24918D01*
X18684Y-25029D01*
X18747Y-25123D01*
X25342Y-31718D01*
X25342Y-31906D01*
X25418Y-32089D01*
X25558Y-32230D01*
X25742Y-32306D01*
X25940Y-32306D01*
X26123Y-32230D01*
X26264Y-32090D01*
X26340Y-31906D01*
X26340Y-38864D01*
X19948Y-38864D01*
X19948Y-35146D01*
X19948Y-34948D01*
X19872Y-34765D01*
X19732Y-34624D01*
X19548Y-34548D01*
X19360Y-34548D01*
X19215Y-34403D01*
X19215Y-32222D01*
X19348Y-32090D01*
X19424Y-31906D01*
X19424Y-31708D01*
X19348Y-31525D01*
X19208Y-31384D01*
X19024Y-31308D01*
X18826Y-31308D01*
X18643Y-31384D01*
X18502Y-31524D01*
X18426Y-31708D01*
X18426Y-31906D01*
X18502Y-32089D01*
X18635Y-32222D01*
X18635Y-34523D01*
X18657Y-34634D01*
X18720Y-34728D01*
X18950Y-34958D01*
X18950Y-35146D01*
X19026Y-35329D01*
X19166Y-35470D01*
X19350Y-35546D01*
X19548Y-35546D01*
X19731Y-35470D01*
X19872Y-35330D01*
X19948Y-35146D01*
X19948Y-38864D01*
X12727Y-38864D01*
X12727Y-08493D01*
X12727Y-08075D01*
X12567Y-07689D01*
X12272Y-07393D01*
X11887Y-07233D01*
X11469Y-07233D01*
X11083Y-07393D01*
X10787Y-07688D01*
X10627Y-08073D01*
X10627Y-08491D01*
X10787Y-08877D01*
X11082Y-09173D01*
X11467Y-09333D01*
X11885Y-09333D01*
X12271Y-09173D01*
X12567Y-08878D01*
X12727Y-08493D01*
X12727Y-38864D01*
X08066Y-38864D01*
X08066Y-07034D01*
X54660Y-07034D01*
X54660Y-38864D01*
M02*
