G04 (created by PCBNEW (2013-03-19 BZR 4004)-stable) date 17.12.2013 14:30:56*
%MOIN*%
G04 Gerber Fmt 3.4, Leading zero omitted, Abs format*
%FSLAX34Y34*%
G01*
G70*
G90*
G04 APERTURE LIST*
%ADD10C,2.3622e-006*%
%ADD11R,0.079X0.0712*%
%ADD12C,0.08*%
%ADD13R,0.08X0.08*%
%ADD14C,0.12*%
G04 APERTURE END LIST*
G54D10*
G54D11*
X61515Y-23837D03*
X61515Y-24587D03*
G54D12*
X83874Y-26279D03*
X81874Y-26279D03*
X82874Y-26279D03*
X54527Y-20094D03*
X54527Y-19094D03*
X54527Y-18094D03*
X73425Y-26098D03*
X73425Y-25098D03*
X73425Y-24098D03*
G54D13*
X41051Y-13334D03*
G54D12*
X41051Y-12334D03*
X46051Y-13334D03*
X42051Y-12334D03*
X47051Y-13334D03*
X43051Y-12334D03*
X48051Y-13334D03*
X44051Y-12334D03*
X49051Y-13334D03*
X45051Y-12334D03*
X50051Y-13334D03*
X46051Y-12334D03*
X51051Y-13334D03*
X47051Y-12334D03*
X52051Y-13334D03*
X48051Y-12334D03*
X53051Y-13334D03*
X49051Y-12334D03*
X54051Y-13334D03*
X50051Y-12334D03*
X55051Y-13334D03*
X51051Y-12334D03*
X56051Y-13334D03*
X52051Y-12334D03*
X53051Y-12334D03*
X57051Y-13334D03*
X54051Y-12334D03*
X56051Y-12334D03*
X57051Y-12334D03*
X58051Y-12334D03*
X59051Y-12334D03*
X58051Y-13334D03*
X59051Y-13334D03*
X42051Y-13334D03*
X43051Y-13334D03*
X44051Y-13334D03*
X45051Y-13334D03*
X60051Y-13334D03*
X60051Y-12334D03*
X55051Y-12334D03*
G54D13*
X67051Y-13334D03*
G54D12*
X67051Y-12334D03*
X68051Y-13334D03*
X68051Y-12334D03*
X69051Y-13334D03*
X69051Y-12334D03*
X70051Y-13334D03*
X70051Y-12334D03*
X71051Y-13334D03*
X71051Y-12334D03*
X72051Y-13334D03*
X72051Y-12334D03*
X73051Y-13334D03*
X73051Y-12334D03*
X74051Y-13334D03*
X74051Y-12334D03*
X75051Y-13334D03*
X75051Y-12334D03*
X76051Y-13334D03*
X76051Y-12334D03*
X77051Y-13334D03*
X77051Y-12334D03*
X78051Y-13334D03*
X78051Y-12334D03*
X79051Y-13334D03*
X79051Y-12334D03*
X87598Y-13877D03*
X88598Y-12877D03*
X86598Y-12877D03*
X86598Y-14877D03*
X88598Y-14877D03*
G54D11*
X51870Y-30333D03*
X51870Y-31083D03*
X57381Y-30333D03*
X57381Y-31083D03*
X56003Y-23837D03*
X56003Y-24587D03*
X56003Y-30333D03*
X56003Y-31083D03*
X54625Y-23837D03*
X54625Y-24587D03*
X54625Y-30333D03*
X54625Y-31083D03*
X53248Y-23837D03*
X53248Y-24587D03*
X53248Y-30333D03*
X53248Y-31083D03*
X50492Y-23837D03*
X50492Y-24587D03*
X50492Y-30333D03*
X50492Y-31083D03*
X51870Y-23837D03*
X51870Y-24587D03*
X60137Y-30333D03*
X60137Y-31083D03*
X49114Y-23837D03*
X49114Y-24587D03*
X49114Y-30333D03*
X49114Y-31083D03*
X47637Y-23837D03*
X47637Y-24587D03*
X57381Y-23837D03*
X57381Y-24587D03*
X58759Y-30333D03*
X58759Y-31083D03*
X58759Y-23837D03*
X58759Y-24587D03*
X60137Y-23837D03*
X60137Y-24587D03*
X62893Y-30333D03*
X62893Y-31083D03*
X62893Y-23837D03*
X62893Y-24587D03*
X64271Y-30333D03*
X64271Y-31083D03*
X64271Y-23837D03*
X64271Y-24587D03*
X61515Y-30333D03*
X61515Y-31083D03*
X47736Y-30333D03*
X47736Y-31083D03*
G54D12*
X68208Y-30200D03*
X68208Y-31200D03*
X68208Y-32200D03*
X66240Y-30200D03*
X66240Y-31200D03*
X66240Y-32200D03*
X70177Y-30200D03*
X70177Y-31200D03*
X70177Y-32200D03*
X72145Y-30200D03*
X72145Y-31200D03*
X72145Y-32200D03*
X70177Y-36137D03*
X70177Y-34137D03*
X81200Y-28921D03*
X81200Y-30921D03*
X72145Y-36137D03*
X72145Y-34137D03*
X66240Y-36137D03*
X66240Y-34137D03*
X68208Y-36137D03*
X68208Y-34137D03*
X75590Y-24000D03*
X75590Y-25000D03*
X75590Y-26000D03*
X56003Y-20094D03*
X56003Y-19094D03*
X56003Y-18094D03*
X77952Y-24000D03*
X77952Y-25000D03*
X77952Y-26000D03*
X41338Y-23114D03*
X41338Y-24114D03*
X41338Y-25114D03*
X43700Y-23114D03*
X43700Y-24114D03*
X43700Y-25114D03*
X57480Y-20094D03*
X57480Y-19094D03*
X57480Y-18094D03*
X75590Y-28011D03*
X75590Y-33011D03*
X77952Y-28011D03*
X77952Y-33011D03*
X41338Y-27125D03*
X41338Y-32125D03*
X43700Y-27125D03*
X43700Y-32125D03*
G54D13*
X69929Y-45578D03*
G54D12*
X69929Y-44578D03*
X74929Y-45578D03*
X70929Y-44578D03*
X75929Y-45578D03*
X71929Y-44578D03*
X76929Y-45578D03*
X72929Y-44578D03*
X77929Y-45578D03*
X73929Y-44578D03*
X78929Y-45578D03*
X74929Y-44578D03*
X79929Y-45578D03*
X75929Y-44578D03*
X80929Y-45578D03*
X76929Y-44578D03*
X81929Y-45578D03*
X77929Y-44578D03*
X82929Y-45578D03*
X78929Y-44578D03*
X83929Y-45578D03*
X79929Y-44578D03*
X84929Y-45578D03*
X80929Y-44578D03*
X81929Y-44578D03*
X85929Y-45578D03*
X82929Y-44578D03*
X84929Y-44578D03*
X85929Y-44578D03*
X86929Y-44578D03*
X87929Y-44578D03*
X86929Y-45578D03*
X87929Y-45578D03*
X70929Y-45578D03*
X71929Y-45578D03*
X72929Y-45578D03*
X73929Y-45578D03*
X88929Y-45578D03*
X88929Y-44578D03*
X83929Y-44578D03*
G54D13*
X31271Y-16996D03*
G54D12*
X32271Y-16996D03*
X31271Y-21996D03*
X32271Y-17996D03*
X31271Y-22996D03*
X32271Y-18996D03*
X31271Y-23996D03*
X32271Y-19996D03*
X31271Y-24996D03*
X32271Y-20996D03*
X31271Y-25996D03*
X32271Y-21996D03*
X31271Y-26996D03*
X32271Y-22996D03*
X31271Y-27996D03*
X32271Y-23996D03*
X31271Y-28996D03*
X32271Y-24996D03*
X31271Y-29996D03*
X32271Y-25996D03*
X31271Y-30996D03*
X32271Y-26996D03*
X31271Y-31996D03*
X32271Y-27996D03*
X32271Y-28996D03*
X31271Y-32996D03*
X32271Y-29996D03*
X32271Y-31996D03*
X32271Y-32996D03*
X32271Y-33996D03*
X32271Y-34996D03*
X31271Y-33996D03*
X31271Y-34996D03*
X31271Y-17996D03*
X31271Y-18996D03*
X31271Y-19996D03*
X31271Y-20996D03*
X31271Y-35996D03*
X32271Y-35996D03*
X32271Y-30996D03*
G54D13*
X38925Y-45578D03*
G54D12*
X38925Y-44578D03*
X43925Y-45578D03*
X39925Y-44578D03*
X44925Y-45578D03*
X40925Y-44578D03*
X45925Y-45578D03*
X41925Y-44578D03*
X46925Y-45578D03*
X42925Y-44578D03*
X47925Y-45578D03*
X43925Y-44578D03*
X48925Y-45578D03*
X44925Y-44578D03*
X49925Y-45578D03*
X45925Y-44578D03*
X50925Y-45578D03*
X46925Y-44578D03*
X51925Y-45578D03*
X47925Y-44578D03*
X52925Y-45578D03*
X48925Y-44578D03*
X53925Y-45578D03*
X49925Y-44578D03*
X50925Y-44578D03*
X54925Y-45578D03*
X51925Y-44578D03*
X53925Y-44578D03*
X54925Y-44578D03*
X55925Y-44578D03*
X56925Y-44578D03*
X55925Y-45578D03*
X56925Y-45578D03*
X39925Y-45578D03*
X40925Y-45578D03*
X41925Y-45578D03*
X42925Y-45578D03*
X57925Y-45578D03*
X57925Y-44578D03*
X52925Y-44578D03*
G54D11*
X46161Y-30333D03*
X46161Y-31083D03*
X46161Y-23837D03*
X46161Y-24587D03*
G54D14*
X82381Y-19389D03*
X89381Y-19389D03*
G54D12*
X50590Y-28362D03*
X50590Y-26362D03*
X47637Y-26362D03*
X47637Y-28362D03*
X53346Y-26362D03*
X53346Y-28362D03*
X58759Y-26362D03*
X58759Y-28362D03*
X57381Y-28362D03*
X57381Y-26362D03*
X56102Y-26362D03*
X56102Y-28362D03*
X54724Y-28362D03*
X54724Y-26362D03*
X46161Y-26362D03*
X46161Y-28362D03*
X61515Y-26362D03*
X61515Y-28362D03*
X64370Y-28362D03*
X64370Y-26362D03*
X62992Y-28362D03*
X62992Y-26362D03*
X60137Y-26362D03*
X60137Y-28362D03*
X51968Y-28362D03*
X51968Y-26362D03*
X49114Y-28362D03*
X49114Y-26362D03*
X69799Y-27657D03*
X67799Y-27657D03*
X38681Y-27771D03*
X38681Y-25771D03*
X51476Y-20192D03*
X51476Y-18192D03*
X67799Y-39074D03*
X69799Y-39074D03*
X75590Y-36531D03*
X75590Y-34531D03*
X77755Y-36531D03*
X77755Y-34531D03*
X41141Y-36236D03*
X41141Y-34236D03*
X43799Y-36236D03*
X43799Y-34236D03*
G54D14*
X81850Y-35708D03*
X88850Y-35708D03*
X81811Y-38937D03*
X88811Y-38937D03*
X82401Y-23031D03*
X89401Y-23031D03*
M02*
