G04 (created by PCBNEW-RS274X (2011-04-29 BZR 2986)-stable) date 6/8/2011 10:42:55 AM*
G01*
G70*
G90*
%MOIN*%
G04 Gerber Fmt 3.4, Leading zero omitted, Abs format*
%FSLAX34Y34*%
G04 APERTURE LIST*
%ADD10C,0.006000*%
%ADD11C,0.023600*%
%ADD12C,0.035000*%
%ADD13C,0.010000*%
G04 APERTURE END LIST*
G54D10*
G54D11*
X67224Y-18012D03*
X67224Y-22480D03*
X48524Y-20453D03*
X48524Y-18209D03*
X67224Y-20295D03*
X66831Y-17618D03*
X66831Y-22874D03*
X48917Y-17815D03*
X48917Y-20453D03*
X66831Y-20295D03*
X67618Y-22087D03*
X67618Y-20295D03*
X48130Y-20453D03*
X48130Y-18602D03*
X66437Y-17618D03*
X66437Y-22874D03*
X49311Y-17815D03*
X49311Y-20453D03*
X66437Y-20295D03*
X65846Y-17894D03*
X65846Y-20571D03*
X49902Y-20177D03*
X49902Y-22835D03*
X65059Y-17894D03*
X65059Y-20571D03*
X50689Y-20177D03*
X50689Y-22835D03*
X53878Y-17756D03*
X53858Y-20433D03*
X61909Y-22854D03*
X61929Y-20295D03*
G54D12*
X47559Y-19252D03*
X57343Y-29528D03*
X68583Y-21476D03*
X68445Y-22657D03*
X58169Y-10059D03*
X55748Y-10295D03*
G54D11*
X63878Y-17894D03*
X63878Y-20571D03*
X51870Y-20177D03*
X51870Y-22835D03*
X64272Y-17894D03*
X64272Y-20571D03*
X51476Y-20177D03*
X51476Y-22835D03*
X63287Y-17618D03*
X63287Y-20295D03*
X63287Y-22874D03*
X52461Y-20453D03*
X52461Y-17815D03*
X63091Y-17894D03*
X63091Y-20531D03*
X52657Y-22835D03*
X52657Y-20217D03*
X65453Y-17894D03*
X65453Y-20571D03*
X50295Y-20177D03*
X50295Y-22835D03*
X48720Y-22835D03*
X66634Y-17894D03*
X49114Y-20177D03*
X49114Y-22835D03*
X66634Y-20571D03*
X68012Y-21693D03*
X53858Y-19232D03*
X53858Y-21535D03*
X61909Y-21516D03*
X61929Y-19193D03*
X48327Y-20177D03*
X48327Y-22441D03*
X67028Y-20571D03*
X67028Y-18287D03*
X47933Y-20177D03*
X47933Y-22047D03*
X67421Y-20571D03*
X67421Y-18681D03*
X63484Y-17894D03*
X63484Y-20571D03*
X52264Y-20177D03*
X52264Y-22835D03*
X65256Y-17618D03*
X65256Y-20295D03*
X65256Y-22874D03*
X50492Y-17815D03*
X50492Y-20453D03*
X65650Y-17618D03*
X65650Y-20295D03*
X65650Y-22874D03*
X50098Y-20453D03*
X50098Y-17815D03*
X66043Y-17618D03*
X66043Y-20295D03*
X66043Y-22874D03*
X49705Y-17815D03*
X49705Y-20453D03*
X64469Y-17618D03*
X64469Y-20295D03*
X64469Y-22874D03*
X51280Y-17815D03*
X51280Y-20453D03*
X64862Y-17618D03*
X64862Y-20295D03*
X64862Y-22874D03*
X50886Y-20453D03*
X50886Y-17815D03*
X63681Y-17618D03*
X63681Y-20295D03*
X63681Y-22874D03*
X52067Y-17815D03*
X52067Y-20453D03*
X64075Y-17618D03*
X64075Y-20295D03*
X64075Y-22874D03*
X51673Y-17815D03*
X51673Y-20453D03*
X64665Y-17894D03*
X64665Y-20571D03*
X51083Y-20177D03*
X51083Y-22835D03*
X54331Y-20157D03*
X61417Y-20630D03*
X61476Y-17461D03*
G54D12*
X46437Y-19272D03*
X47421Y-21535D03*
X59016Y-31850D03*
G54D11*
X54331Y-22835D03*
G54D12*
X53583Y-23189D03*
X50295Y-25492D03*
X55906Y-25492D03*
G54D11*
X53248Y-20079D03*
X62539Y-20728D03*
X62480Y-18209D03*
G54D12*
X59961Y-30689D03*
X47579Y-17972D03*
X68386Y-19370D03*
X59724Y-11457D03*
G54D11*
X53248Y-22638D03*
X66240Y-17894D03*
X66240Y-20571D03*
X49508Y-20177D03*
X49508Y-22835D03*
G54D10*
G36*
X68710Y-19911D02*
X62942Y-19911D01*
X62942Y-20166D01*
X62927Y-20200D01*
X62883Y-20219D01*
X62779Y-20322D01*
X62723Y-20458D01*
X62723Y-20604D01*
X62779Y-20739D01*
X62882Y-20843D01*
X62942Y-20867D01*
X62942Y-22745D01*
X62919Y-22801D01*
X62919Y-22947D01*
X62942Y-23002D01*
X62942Y-25383D01*
X56320Y-25383D01*
X56267Y-25252D01*
X56147Y-25132D01*
X55991Y-25067D01*
X55822Y-25067D01*
X55666Y-25131D01*
X55546Y-25251D01*
X55481Y-25407D01*
X55481Y-25576D01*
X55545Y-25732D01*
X55665Y-25852D01*
X55821Y-25917D01*
X55990Y-25917D01*
X56055Y-25890D01*
X60913Y-30748D01*
X60177Y-31484D01*
X54087Y-25394D01*
X54923Y-24558D01*
X62137Y-24558D01*
X62137Y-23146D01*
X62221Y-23063D01*
X62277Y-22927D01*
X62277Y-22781D01*
X62221Y-22646D01*
X62137Y-22561D01*
X62137Y-21808D01*
X62221Y-21725D01*
X62277Y-21589D01*
X62277Y-21443D01*
X62221Y-21308D01*
X62137Y-21223D01*
X62137Y-20607D01*
X62241Y-20504D01*
X62297Y-20368D01*
X62297Y-20222D01*
X62241Y-20087D01*
X62138Y-19983D01*
X62137Y-19982D01*
X62137Y-19505D01*
X62241Y-19402D01*
X62297Y-19266D01*
X62297Y-19120D01*
X62241Y-18985D01*
X62138Y-18881D01*
X62137Y-18880D01*
X62137Y-16328D01*
X53670Y-16328D01*
X53670Y-17444D01*
X53566Y-17547D01*
X53510Y-17683D01*
X53510Y-17829D01*
X53566Y-17964D01*
X53669Y-18068D01*
X53670Y-18068D01*
X53670Y-18911D01*
X53650Y-18920D01*
X53546Y-19023D01*
X53490Y-19159D01*
X53490Y-19305D01*
X53546Y-19440D01*
X53649Y-19544D01*
X53670Y-19552D01*
X53670Y-20112D01*
X53650Y-20121D01*
X53546Y-20224D01*
X53490Y-20360D01*
X53490Y-20506D01*
X53546Y-20641D01*
X53649Y-20745D01*
X53670Y-20753D01*
X53670Y-21214D01*
X53650Y-21223D01*
X53546Y-21326D01*
X53490Y-21462D01*
X53490Y-21608D01*
X53546Y-21743D01*
X53649Y-21847D01*
X53670Y-21855D01*
X53670Y-22764D01*
X53668Y-22764D01*
X53499Y-22764D01*
X53343Y-22828D01*
X53223Y-22948D01*
X53158Y-23104D01*
X53158Y-23273D01*
X53208Y-23395D01*
X52806Y-23395D01*
X52806Y-23171D01*
X52865Y-23147D01*
X52969Y-23044D01*
X53025Y-22908D01*
X53025Y-22762D01*
X52969Y-22627D01*
X52866Y-22523D01*
X52806Y-22498D01*
X52806Y-20581D01*
X52820Y-20547D01*
X52865Y-20529D01*
X52969Y-20426D01*
X53025Y-20290D01*
X53025Y-20144D01*
X52969Y-20009D01*
X52866Y-19905D01*
X52806Y-19880D01*
X52806Y-17943D01*
X52829Y-17888D01*
X52829Y-17742D01*
X52806Y-17686D01*
X52806Y-17647D01*
X52789Y-17647D01*
X52773Y-17607D01*
X52670Y-17503D01*
X52534Y-17447D01*
X52388Y-17447D01*
X52264Y-17498D01*
X52140Y-17447D01*
X51994Y-17447D01*
X51870Y-17498D01*
X51746Y-17447D01*
X51600Y-17447D01*
X51476Y-17498D01*
X51353Y-17447D01*
X51207Y-17447D01*
X51083Y-17498D01*
X50959Y-17447D01*
X50813Y-17447D01*
X50689Y-17498D01*
X50565Y-17447D01*
X50419Y-17447D01*
X50295Y-17498D01*
X50171Y-17447D01*
X50025Y-17447D01*
X49901Y-17498D01*
X49778Y-17447D01*
X49632Y-17447D01*
X49508Y-17498D01*
X49384Y-17447D01*
X49238Y-17447D01*
X49114Y-17498D01*
X48990Y-17447D01*
X48844Y-17447D01*
X48709Y-17503D01*
X48605Y-17606D01*
X48549Y-17742D01*
X48549Y-17841D01*
X48451Y-17841D01*
X48316Y-17897D01*
X48212Y-18000D01*
X48156Y-18136D01*
X48156Y-18234D01*
X48057Y-18234D01*
X47922Y-18290D01*
X47818Y-18393D01*
X47762Y-18529D01*
X47762Y-18675D01*
X47787Y-18736D01*
X47697Y-18827D01*
X46941Y-18071D01*
X49529Y-15483D01*
X49722Y-15483D01*
X50294Y-16055D01*
X50298Y-16058D01*
X50330Y-16089D01*
X50390Y-16128D01*
X50391Y-16128D01*
X50393Y-16130D01*
X50442Y-16149D01*
X50480Y-16165D01*
X50481Y-16164D01*
X50484Y-16166D01*
X50556Y-16179D01*
X50558Y-16178D01*
X50559Y-16179D01*
X50654Y-16177D01*
X50656Y-16177D01*
X50722Y-16162D01*
X50724Y-16162D01*
X50725Y-16161D01*
X50727Y-16161D01*
X50745Y-16152D01*
X50814Y-16123D01*
X50816Y-16121D01*
X50873Y-16083D01*
X50873Y-16082D01*
X50874Y-16082D01*
X50942Y-16013D01*
X50943Y-16012D01*
X50982Y-15952D01*
X50982Y-15950D01*
X50984Y-15949D01*
X51003Y-15899D01*
X51019Y-15862D01*
X51018Y-15860D01*
X51020Y-15858D01*
X51033Y-15786D01*
X51032Y-15783D01*
X51033Y-15783D01*
X51031Y-15688D01*
X51031Y-15685D01*
X51015Y-15617D01*
X51015Y-15615D01*
X50998Y-15577D01*
X50977Y-15527D01*
X50975Y-15525D01*
X50946Y-15483D01*
X59223Y-15483D01*
X59223Y-11093D01*
X60383Y-11093D01*
X60383Y-15483D01*
X62942Y-15483D01*
X62942Y-17489D01*
X62919Y-17545D01*
X62919Y-17567D01*
X62883Y-17582D01*
X62779Y-17685D01*
X62723Y-17821D01*
X62723Y-17967D01*
X62779Y-18102D01*
X62882Y-18206D01*
X62942Y-18230D01*
X62942Y-18849D01*
X67092Y-18849D01*
X67109Y-18889D01*
X67212Y-18993D01*
X67348Y-19049D01*
X67494Y-19049D01*
X67629Y-18993D01*
X67733Y-18890D01*
X67749Y-18849D01*
X68710Y-18849D01*
X68710Y-19911D01*
X68710Y-19911D01*
G37*
G54D13*
X68710Y-19911D02*
X62942Y-19911D01*
X62942Y-20166D01*
X62927Y-20200D01*
X62883Y-20219D01*
X62779Y-20322D01*
X62723Y-20458D01*
X62723Y-20604D01*
X62779Y-20739D01*
X62882Y-20843D01*
X62942Y-20867D01*
X62942Y-22745D01*
X62919Y-22801D01*
X62919Y-22947D01*
X62942Y-23002D01*
X62942Y-25383D01*
X56320Y-25383D01*
X56267Y-25252D01*
X56147Y-25132D01*
X55991Y-25067D01*
X55822Y-25067D01*
X55666Y-25131D01*
X55546Y-25251D01*
X55481Y-25407D01*
X55481Y-25576D01*
X55545Y-25732D01*
X55665Y-25852D01*
X55821Y-25917D01*
X55990Y-25917D01*
X56055Y-25890D01*
X60913Y-30748D01*
X60177Y-31484D01*
X54087Y-25394D01*
X54923Y-24558D01*
X62137Y-24558D01*
X62137Y-23146D01*
X62221Y-23063D01*
X62277Y-22927D01*
X62277Y-22781D01*
X62221Y-22646D01*
X62137Y-22561D01*
X62137Y-21808D01*
X62221Y-21725D01*
X62277Y-21589D01*
X62277Y-21443D01*
X62221Y-21308D01*
X62137Y-21223D01*
X62137Y-20607D01*
X62241Y-20504D01*
X62297Y-20368D01*
X62297Y-20222D01*
X62241Y-20087D01*
X62138Y-19983D01*
X62137Y-19982D01*
X62137Y-19505D01*
X62241Y-19402D01*
X62297Y-19266D01*
X62297Y-19120D01*
X62241Y-18985D01*
X62138Y-18881D01*
X62137Y-18880D01*
X62137Y-16328D01*
X53670Y-16328D01*
X53670Y-17444D01*
X53566Y-17547D01*
X53510Y-17683D01*
X53510Y-17829D01*
X53566Y-17964D01*
X53669Y-18068D01*
X53670Y-18068D01*
X53670Y-18911D01*
X53650Y-18920D01*
X53546Y-19023D01*
X53490Y-19159D01*
X53490Y-19305D01*
X53546Y-19440D01*
X53649Y-19544D01*
X53670Y-19552D01*
X53670Y-20112D01*
X53650Y-20121D01*
X53546Y-20224D01*
X53490Y-20360D01*
X53490Y-20506D01*
X53546Y-20641D01*
X53649Y-20745D01*
X53670Y-20753D01*
X53670Y-21214D01*
X53650Y-21223D01*
X53546Y-21326D01*
X53490Y-21462D01*
X53490Y-21608D01*
X53546Y-21743D01*
X53649Y-21847D01*
X53670Y-21855D01*
X53670Y-22764D01*
X53668Y-22764D01*
X53499Y-22764D01*
X53343Y-22828D01*
X53223Y-22948D01*
X53158Y-23104D01*
X53158Y-23273D01*
X53208Y-23395D01*
X52806Y-23395D01*
X52806Y-23171D01*
X52865Y-23147D01*
X52969Y-23044D01*
X53025Y-22908D01*
X53025Y-22762D01*
X52969Y-22627D01*
X52866Y-22523D01*
X52806Y-22498D01*
X52806Y-20581D01*
X52820Y-20547D01*
X52865Y-20529D01*
X52969Y-20426D01*
X53025Y-20290D01*
X53025Y-20144D01*
X52969Y-20009D01*
X52866Y-19905D01*
X52806Y-19880D01*
X52806Y-17943D01*
X52829Y-17888D01*
X52829Y-17742D01*
X52806Y-17686D01*
X52806Y-17647D01*
X52789Y-17647D01*
X52773Y-17607D01*
X52670Y-17503D01*
X52534Y-17447D01*
X52388Y-17447D01*
X52264Y-17498D01*
X52140Y-17447D01*
X51994Y-17447D01*
X51870Y-17498D01*
X51746Y-17447D01*
X51600Y-17447D01*
X51476Y-17498D01*
X51353Y-17447D01*
X51207Y-17447D01*
X51083Y-17498D01*
X50959Y-17447D01*
X50813Y-17447D01*
X50689Y-17498D01*
X50565Y-17447D01*
X50419Y-17447D01*
X50295Y-17498D01*
X50171Y-17447D01*
X50025Y-17447D01*
X49901Y-17498D01*
X49778Y-17447D01*
X49632Y-17447D01*
X49508Y-17498D01*
X49384Y-17447D01*
X49238Y-17447D01*
X49114Y-17498D01*
X48990Y-17447D01*
X48844Y-17447D01*
X48709Y-17503D01*
X48605Y-17606D01*
X48549Y-17742D01*
X48549Y-17841D01*
X48451Y-17841D01*
X48316Y-17897D01*
X48212Y-18000D01*
X48156Y-18136D01*
X48156Y-18234D01*
X48057Y-18234D01*
X47922Y-18290D01*
X47818Y-18393D01*
X47762Y-18529D01*
X47762Y-18675D01*
X47787Y-18736D01*
X47697Y-18827D01*
X46941Y-18071D01*
X49529Y-15483D01*
X49722Y-15483D01*
X50294Y-16055D01*
X50298Y-16058D01*
X50330Y-16089D01*
X50390Y-16128D01*
X50391Y-16128D01*
X50393Y-16130D01*
X50442Y-16149D01*
X50480Y-16165D01*
X50481Y-16164D01*
X50484Y-16166D01*
X50556Y-16179D01*
X50558Y-16178D01*
X50559Y-16179D01*
X50654Y-16177D01*
X50656Y-16177D01*
X50722Y-16162D01*
X50724Y-16162D01*
X50725Y-16161D01*
X50727Y-16161D01*
X50745Y-16152D01*
X50814Y-16123D01*
X50816Y-16121D01*
X50873Y-16083D01*
X50873Y-16082D01*
X50874Y-16082D01*
X50942Y-16013D01*
X50943Y-16012D01*
X50982Y-15952D01*
X50982Y-15950D01*
X50984Y-15949D01*
X51003Y-15899D01*
X51019Y-15862D01*
X51018Y-15860D01*
X51020Y-15858D01*
X51033Y-15786D01*
X51032Y-15783D01*
X51033Y-15783D01*
X51031Y-15688D01*
X51031Y-15685D01*
X51015Y-15617D01*
X51015Y-15615D01*
X50998Y-15577D01*
X50977Y-15527D01*
X50975Y-15525D01*
X50946Y-15483D01*
X59223Y-15483D01*
X59223Y-11093D01*
X60383Y-11093D01*
X60383Y-15483D01*
X62942Y-15483D01*
X62942Y-17489D01*
X62919Y-17545D01*
X62919Y-17567D01*
X62883Y-17582D01*
X62779Y-17685D01*
X62723Y-17821D01*
X62723Y-17967D01*
X62779Y-18102D01*
X62882Y-18206D01*
X62942Y-18230D01*
X62942Y-18849D01*
X67092Y-18849D01*
X67109Y-18889D01*
X67212Y-18993D01*
X67348Y-19049D01*
X67494Y-19049D01*
X67629Y-18993D01*
X67733Y-18890D01*
X67749Y-18849D01*
X68710Y-18849D01*
X68710Y-19911D01*
G54D10*
G36*
X61702Y-24143D02*
X60846Y-24142D01*
X60846Y-22902D01*
X60846Y-17980D01*
X60841Y-17954D01*
X60841Y-17931D01*
X60831Y-17880D01*
X60831Y-17879D01*
X60806Y-17818D01*
X60795Y-17790D01*
X60794Y-17789D01*
X60794Y-17788D01*
X60764Y-17743D01*
X60763Y-17742D01*
X60695Y-17674D01*
X60694Y-17673D01*
X60649Y-17643D01*
X60646Y-17642D01*
X60597Y-17622D01*
X60558Y-17606D01*
X60556Y-17605D01*
X60505Y-17596D01*
X60482Y-17596D01*
X60457Y-17591D01*
X55299Y-17591D01*
X55280Y-17594D01*
X55248Y-17595D01*
X55195Y-17606D01*
X55158Y-17621D01*
X55109Y-17641D01*
X55064Y-17670D01*
X55058Y-17675D01*
X55057Y-17676D01*
X55043Y-17690D01*
X54994Y-17738D01*
X54991Y-17743D01*
X54989Y-17746D01*
X54960Y-17790D01*
X54940Y-17839D01*
X54925Y-17876D01*
X54914Y-17929D01*
X54913Y-17956D01*
X54909Y-17980D01*
X54909Y-22902D01*
X54915Y-22932D01*
X54915Y-22950D01*
X54924Y-23001D01*
X54925Y-23003D01*
X54941Y-23042D01*
X54961Y-23091D01*
X54962Y-23094D01*
X54992Y-23139D01*
X54993Y-23140D01*
X55061Y-23208D01*
X55062Y-23209D01*
X55107Y-23239D01*
X55108Y-23239D01*
X55109Y-23240D01*
X55137Y-23251D01*
X55198Y-23276D01*
X55199Y-23276D01*
X55250Y-23286D01*
X55273Y-23286D01*
X55299Y-23291D01*
X60457Y-23291D01*
X60482Y-23286D01*
X60505Y-23286D01*
X60556Y-23277D01*
X60558Y-23276D01*
X60597Y-23260D01*
X60646Y-23240D01*
X60649Y-23239D01*
X60694Y-23209D01*
X60695Y-23208D01*
X60763Y-23140D01*
X60764Y-23139D01*
X60794Y-23094D01*
X60794Y-23092D01*
X60795Y-23092D01*
X60806Y-23063D01*
X60831Y-23003D01*
X60831Y-23002D01*
X60841Y-22951D01*
X60841Y-22927D01*
X60846Y-22902D01*
X60846Y-24142D01*
X54701Y-24142D01*
X53311Y-25533D01*
X57012Y-29257D01*
X56983Y-29287D01*
X56918Y-29443D01*
X56918Y-29612D01*
X56982Y-29768D01*
X57102Y-29888D01*
X57258Y-29953D01*
X57427Y-29953D01*
X57583Y-29889D01*
X57612Y-29859D01*
X58804Y-31059D01*
X59693Y-31949D01*
X58867Y-32774D01*
X58214Y-32122D01*
X58213Y-32120D01*
X58165Y-32072D01*
X58135Y-32051D01*
X58105Y-32026D01*
X57971Y-31953D01*
X57941Y-31943D01*
X57877Y-31923D01*
X57725Y-31907D01*
X57723Y-31907D01*
X57713Y-31905D01*
X56913Y-31905D01*
X56567Y-31905D01*
X56258Y-31905D01*
X50270Y-25917D01*
X50379Y-25917D01*
X50535Y-25853D01*
X50655Y-25733D01*
X50720Y-25577D01*
X50720Y-25408D01*
X50656Y-25252D01*
X50536Y-25132D01*
X50380Y-25067D01*
X50211Y-25067D01*
X50055Y-25131D01*
X49935Y-25251D01*
X49870Y-25407D01*
X49870Y-25516D01*
X46421Y-22067D01*
X46421Y-21756D01*
X46421Y-21413D01*
X46421Y-20626D01*
X46421Y-20610D01*
X46421Y-20557D01*
X46414Y-20524D01*
X46411Y-20486D01*
X46368Y-20339D01*
X46323Y-20252D01*
X46320Y-20249D01*
X46227Y-20132D01*
X46223Y-20129D01*
X46217Y-20119D01*
X45455Y-19358D01*
X46298Y-18516D01*
X47145Y-19363D01*
X47198Y-19492D01*
X47318Y-19612D01*
X47448Y-19666D01*
X47685Y-19903D01*
X47621Y-19968D01*
X47565Y-20104D01*
X47565Y-20250D01*
X47621Y-20385D01*
X47724Y-20489D01*
X47762Y-20504D01*
X47762Y-20526D01*
X47818Y-20661D01*
X47921Y-20765D01*
X48057Y-20821D01*
X48203Y-20821D01*
X48326Y-20769D01*
X48451Y-20821D01*
X48597Y-20821D01*
X48601Y-20819D01*
X50249Y-22467D01*
X50222Y-22467D01*
X50098Y-22518D01*
X49975Y-22467D01*
X49829Y-22467D01*
X49705Y-22518D01*
X49581Y-22467D01*
X49435Y-22467D01*
X49311Y-22518D01*
X49187Y-22467D01*
X49041Y-22467D01*
X48917Y-22518D01*
X48793Y-22467D01*
X48695Y-22467D01*
X48695Y-22368D01*
X48639Y-22233D01*
X48536Y-22129D01*
X48400Y-22073D01*
X48301Y-22073D01*
X48301Y-21974D01*
X48245Y-21839D01*
X48142Y-21735D01*
X48006Y-21679D01*
X47860Y-21679D01*
X47725Y-21735D01*
X47621Y-21838D01*
X47565Y-21974D01*
X47565Y-22120D01*
X47621Y-22255D01*
X47724Y-22359D01*
X47860Y-22415D01*
X47959Y-22415D01*
X47959Y-22514D01*
X48015Y-22649D01*
X48118Y-22753D01*
X48254Y-22809D01*
X48352Y-22809D01*
X48352Y-22908D01*
X48408Y-23043D01*
X48511Y-23147D01*
X48647Y-23203D01*
X48793Y-23203D01*
X48916Y-23151D01*
X49041Y-23203D01*
X49187Y-23203D01*
X49310Y-23151D01*
X49435Y-23203D01*
X49581Y-23203D01*
X49704Y-23151D01*
X49829Y-23203D01*
X49975Y-23203D01*
X50098Y-23151D01*
X50222Y-23203D01*
X50368Y-23203D01*
X50491Y-23151D01*
X50616Y-23203D01*
X50762Y-23203D01*
X50885Y-23151D01*
X50967Y-23185D01*
X52656Y-24874D01*
X54046Y-23484D01*
X54046Y-21855D01*
X54066Y-21847D01*
X54170Y-21744D01*
X54226Y-21608D01*
X54226Y-21462D01*
X54170Y-21327D01*
X54067Y-21223D01*
X54046Y-21214D01*
X54046Y-20753D01*
X54066Y-20745D01*
X54170Y-20642D01*
X54226Y-20506D01*
X54226Y-20360D01*
X54170Y-20225D01*
X54067Y-20121D01*
X54046Y-20112D01*
X54046Y-19552D01*
X54066Y-19544D01*
X54170Y-19441D01*
X54226Y-19305D01*
X54226Y-19159D01*
X54170Y-19024D01*
X54067Y-18920D01*
X54046Y-18911D01*
X54046Y-18084D01*
X54086Y-18068D01*
X54190Y-17965D01*
X54246Y-17829D01*
X54246Y-17683D01*
X54190Y-17548D01*
X54087Y-17444D01*
X54046Y-17427D01*
X54046Y-16723D01*
X61702Y-16723D01*
X61702Y-18899D01*
X61617Y-18984D01*
X61561Y-19120D01*
X61561Y-19266D01*
X61617Y-19401D01*
X61702Y-19486D01*
X61702Y-20001D01*
X61617Y-20086D01*
X61561Y-20222D01*
X61561Y-20368D01*
X61617Y-20503D01*
X61702Y-20588D01*
X61702Y-21203D01*
X61701Y-21204D01*
X61597Y-21307D01*
X61541Y-21443D01*
X61541Y-21589D01*
X61597Y-21724D01*
X61700Y-21828D01*
X61702Y-21828D01*
X61702Y-22541D01*
X61701Y-22542D01*
X61597Y-22645D01*
X61541Y-22781D01*
X61541Y-22927D01*
X61597Y-23062D01*
X61700Y-23166D01*
X61702Y-23166D01*
X61702Y-24143D01*
X61702Y-24143D01*
G37*
G54D13*
X61702Y-24143D02*
X60846Y-24142D01*
X60846Y-22902D01*
X60846Y-17980D01*
X60841Y-17954D01*
X60841Y-17931D01*
X60831Y-17880D01*
X60831Y-17879D01*
X60806Y-17818D01*
X60795Y-17790D01*
X60794Y-17789D01*
X60794Y-17788D01*
X60764Y-17743D01*
X60763Y-17742D01*
X60695Y-17674D01*
X60694Y-17673D01*
X60649Y-17643D01*
X60646Y-17642D01*
X60597Y-17622D01*
X60558Y-17606D01*
X60556Y-17605D01*
X60505Y-17596D01*
X60482Y-17596D01*
X60457Y-17591D01*
X55299Y-17591D01*
X55280Y-17594D01*
X55248Y-17595D01*
X55195Y-17606D01*
X55158Y-17621D01*
X55109Y-17641D01*
X55064Y-17670D01*
X55058Y-17675D01*
X55057Y-17676D01*
X55043Y-17690D01*
X54994Y-17738D01*
X54991Y-17743D01*
X54989Y-17746D01*
X54960Y-17790D01*
X54940Y-17839D01*
X54925Y-17876D01*
X54914Y-17929D01*
X54913Y-17956D01*
X54909Y-17980D01*
X54909Y-22902D01*
X54915Y-22932D01*
X54915Y-22950D01*
X54924Y-23001D01*
X54925Y-23003D01*
X54941Y-23042D01*
X54961Y-23091D01*
X54962Y-23094D01*
X54992Y-23139D01*
X54993Y-23140D01*
X55061Y-23208D01*
X55062Y-23209D01*
X55107Y-23239D01*
X55108Y-23239D01*
X55109Y-23240D01*
X55137Y-23251D01*
X55198Y-23276D01*
X55199Y-23276D01*
X55250Y-23286D01*
X55273Y-23286D01*
X55299Y-23291D01*
X60457Y-23291D01*
X60482Y-23286D01*
X60505Y-23286D01*
X60556Y-23277D01*
X60558Y-23276D01*
X60597Y-23260D01*
X60646Y-23240D01*
X60649Y-23239D01*
X60694Y-23209D01*
X60695Y-23208D01*
X60763Y-23140D01*
X60764Y-23139D01*
X60794Y-23094D01*
X60794Y-23092D01*
X60795Y-23092D01*
X60806Y-23063D01*
X60831Y-23003D01*
X60831Y-23002D01*
X60841Y-22951D01*
X60841Y-22927D01*
X60846Y-22902D01*
X60846Y-24142D01*
X54701Y-24142D01*
X53311Y-25533D01*
X57012Y-29257D01*
X56983Y-29287D01*
X56918Y-29443D01*
X56918Y-29612D01*
X56982Y-29768D01*
X57102Y-29888D01*
X57258Y-29953D01*
X57427Y-29953D01*
X57583Y-29889D01*
X57612Y-29859D01*
X58804Y-31059D01*
X59693Y-31949D01*
X58867Y-32774D01*
X58214Y-32122D01*
X58213Y-32120D01*
X58165Y-32072D01*
X58135Y-32051D01*
X58105Y-32026D01*
X57971Y-31953D01*
X57941Y-31943D01*
X57877Y-31923D01*
X57725Y-31907D01*
X57723Y-31907D01*
X57713Y-31905D01*
X56913Y-31905D01*
X56567Y-31905D01*
X56258Y-31905D01*
X50270Y-25917D01*
X50379Y-25917D01*
X50535Y-25853D01*
X50655Y-25733D01*
X50720Y-25577D01*
X50720Y-25408D01*
X50656Y-25252D01*
X50536Y-25132D01*
X50380Y-25067D01*
X50211Y-25067D01*
X50055Y-25131D01*
X49935Y-25251D01*
X49870Y-25407D01*
X49870Y-25516D01*
X46421Y-22067D01*
X46421Y-21756D01*
X46421Y-21413D01*
X46421Y-20626D01*
X46421Y-20610D01*
X46421Y-20557D01*
X46414Y-20524D01*
X46411Y-20486D01*
X46368Y-20339D01*
X46323Y-20252D01*
X46320Y-20249D01*
X46227Y-20132D01*
X46223Y-20129D01*
X46217Y-20119D01*
X45455Y-19358D01*
X46298Y-18516D01*
X47145Y-19363D01*
X47198Y-19492D01*
X47318Y-19612D01*
X47448Y-19666D01*
X47685Y-19903D01*
X47621Y-19968D01*
X47565Y-20104D01*
X47565Y-20250D01*
X47621Y-20385D01*
X47724Y-20489D01*
X47762Y-20504D01*
X47762Y-20526D01*
X47818Y-20661D01*
X47921Y-20765D01*
X48057Y-20821D01*
X48203Y-20821D01*
X48326Y-20769D01*
X48451Y-20821D01*
X48597Y-20821D01*
X48601Y-20819D01*
X50249Y-22467D01*
X50222Y-22467D01*
X50098Y-22518D01*
X49975Y-22467D01*
X49829Y-22467D01*
X49705Y-22518D01*
X49581Y-22467D01*
X49435Y-22467D01*
X49311Y-22518D01*
X49187Y-22467D01*
X49041Y-22467D01*
X48917Y-22518D01*
X48793Y-22467D01*
X48695Y-22467D01*
X48695Y-22368D01*
X48639Y-22233D01*
X48536Y-22129D01*
X48400Y-22073D01*
X48301Y-22073D01*
X48301Y-21974D01*
X48245Y-21839D01*
X48142Y-21735D01*
X48006Y-21679D01*
X47860Y-21679D01*
X47725Y-21735D01*
X47621Y-21838D01*
X47565Y-21974D01*
X47565Y-22120D01*
X47621Y-22255D01*
X47724Y-22359D01*
X47860Y-22415D01*
X47959Y-22415D01*
X47959Y-22514D01*
X48015Y-22649D01*
X48118Y-22753D01*
X48254Y-22809D01*
X48352Y-22809D01*
X48352Y-22908D01*
X48408Y-23043D01*
X48511Y-23147D01*
X48647Y-23203D01*
X48793Y-23203D01*
X48916Y-23151D01*
X49041Y-23203D01*
X49187Y-23203D01*
X49310Y-23151D01*
X49435Y-23203D01*
X49581Y-23203D01*
X49704Y-23151D01*
X49829Y-23203D01*
X49975Y-23203D01*
X50098Y-23151D01*
X50222Y-23203D01*
X50368Y-23203D01*
X50491Y-23151D01*
X50616Y-23203D01*
X50762Y-23203D01*
X50885Y-23151D01*
X50967Y-23185D01*
X52656Y-24874D01*
X54046Y-23484D01*
X54046Y-21855D01*
X54066Y-21847D01*
X54170Y-21744D01*
X54226Y-21608D01*
X54226Y-21462D01*
X54170Y-21327D01*
X54067Y-21223D01*
X54046Y-21214D01*
X54046Y-20753D01*
X54066Y-20745D01*
X54170Y-20642D01*
X54226Y-20506D01*
X54226Y-20360D01*
X54170Y-20225D01*
X54067Y-20121D01*
X54046Y-20112D01*
X54046Y-19552D01*
X54066Y-19544D01*
X54170Y-19441D01*
X54226Y-19305D01*
X54226Y-19159D01*
X54170Y-19024D01*
X54067Y-18920D01*
X54046Y-18911D01*
X54046Y-18084D01*
X54086Y-18068D01*
X54190Y-17965D01*
X54246Y-17829D01*
X54246Y-17683D01*
X54190Y-17548D01*
X54087Y-17444D01*
X54046Y-17427D01*
X54046Y-16723D01*
X61702Y-16723D01*
X61702Y-18899D01*
X61617Y-18984D01*
X61561Y-19120D01*
X61561Y-19266D01*
X61617Y-19401D01*
X61702Y-19486D01*
X61702Y-20001D01*
X61617Y-20086D01*
X61561Y-20222D01*
X61561Y-20368D01*
X61617Y-20503D01*
X61702Y-20588D01*
X61702Y-21203D01*
X61701Y-21204D01*
X61597Y-21307D01*
X61541Y-21443D01*
X61541Y-21589D01*
X61597Y-21724D01*
X61700Y-21828D01*
X61702Y-21828D01*
X61702Y-22541D01*
X61701Y-22542D01*
X61597Y-22645D01*
X61541Y-22781D01*
X61541Y-22927D01*
X61597Y-23062D01*
X61700Y-23166D01*
X61702Y-23166D01*
X61702Y-24143D01*
M02*
