G04 (created by PCBNEW-RS274X (2011-04-29 BZR 2986)-stable) date 6/8/2011 10:42:55 AM*
G01*
G70*
G90*
%MOIN*%
G04 Gerber Fmt 3.4, Leading zero omitted, Abs format*
%FSLAX34Y34*%
G04 APERTURE LIST*
%ADD10C,0.006000*%
%ADD11C,0.000400*%
G04 APERTURE END LIST*
G54D10*
G54D11*
X58776Y-08807D02*
X57976Y-08807D01*
X55531Y-06543D02*
X57661Y-08673D01*
X57657Y-08667D02*
X57681Y-08692D01*
X57706Y-08716D01*
X57733Y-08736D01*
X57762Y-08755D01*
X57792Y-08771D01*
X57824Y-08784D01*
X57857Y-08794D01*
X57890Y-08802D01*
X57924Y-08806D01*
X57958Y-08808D01*
X57992Y-08806D01*
X43906Y-18165D02*
X46039Y-20298D01*
X46169Y-21413D02*
X46169Y-20610D01*
X46168Y-20626D02*
X46170Y-20592D01*
X46168Y-20558D01*
X46164Y-20524D01*
X46156Y-20491D01*
X46146Y-20458D01*
X46133Y-20426D01*
X46117Y-20396D01*
X46098Y-20367D01*
X46078Y-20340D01*
X46054Y-20315D01*
X46029Y-20291D01*
X56913Y-32157D02*
X57713Y-32157D01*
X60157Y-34421D02*
X58031Y-32295D01*
X58033Y-32298D02*
X58010Y-32272D01*
X57984Y-32249D01*
X57957Y-32228D01*
X57928Y-32210D01*
X57898Y-32194D01*
X57866Y-32180D01*
X57833Y-32170D01*
X57800Y-32163D01*
X57766Y-32158D01*
X57731Y-32157D01*
X57698Y-32158D01*
X71780Y-22795D02*
X69658Y-20673D01*
X69520Y-19551D02*
X69520Y-20339D01*
X69521Y-20339D02*
X69519Y-20373D01*
X69521Y-20407D01*
X69525Y-20441D01*
X69533Y-20474D01*
X69543Y-20507D01*
X69556Y-20539D01*
X69572Y-20569D01*
X69591Y-20598D01*
X69611Y-20625D01*
X69635Y-20650D01*
X69660Y-20674D01*
X56154Y-32157D02*
X46170Y-22173D01*
X56567Y-32157D02*
X56154Y-32157D01*
X46169Y-21756D02*
X46169Y-22173D01*
X69520Y-19020D02*
X59307Y-08807D01*
X69520Y-19551D02*
X69520Y-19020D01*
X58776Y-08807D02*
X59307Y-08807D01*
X46169Y-21413D02*
X46169Y-21756D01*
X56913Y-32157D02*
X56567Y-32157D01*
X62705Y-27594D02*
X64846Y-29735D01*
X62453Y-27850D02*
X64591Y-29988D01*
X62704Y-27595D02*
X62693Y-27584D01*
X62680Y-27575D01*
X62667Y-27566D01*
X62652Y-27559D01*
X62638Y-27553D01*
X62623Y-27549D01*
X62607Y-27546D01*
X62591Y-27544D01*
X62577Y-27544D01*
X62561Y-27544D01*
X62545Y-27547D01*
X62530Y-27550D01*
X62515Y-27555D01*
X62500Y-27562D01*
X62487Y-27569D01*
X62473Y-27578D01*
X62461Y-27588D01*
X62450Y-27599D01*
X62439Y-27610D01*
X62430Y-27623D01*
X62421Y-27636D01*
X62414Y-27651D01*
X62408Y-27665D01*
X62404Y-27680D01*
X62401Y-27696D01*
X62399Y-27712D01*
X62399Y-27726D01*
X62399Y-27742D01*
X62402Y-27758D01*
X62405Y-27773D01*
X62410Y-27788D01*
X62417Y-27803D01*
X62424Y-27816D01*
X62433Y-27830D01*
X62443Y-27842D01*
X62454Y-27853D01*
X48335Y-13740D02*
X50472Y-15877D01*
X48594Y-13480D02*
X50728Y-15614D01*
X50469Y-15877D02*
X50481Y-15888D01*
X50494Y-15898D01*
X50508Y-15906D01*
X50523Y-15913D01*
X50538Y-15919D01*
X50553Y-15924D01*
X50569Y-15927D01*
X50585Y-15929D01*
X50600Y-15929D01*
X50617Y-15929D01*
X50633Y-15926D01*
X50648Y-15922D01*
X50664Y-15917D01*
X50679Y-15911D01*
X50693Y-15903D01*
X50707Y-15894D01*
X50719Y-15884D01*
X50731Y-15873D01*
X50742Y-15861D01*
X50752Y-15848D01*
X50760Y-15834D01*
X50767Y-15819D01*
X50773Y-15804D01*
X50778Y-15789D01*
X50781Y-15773D01*
X50783Y-15757D01*
X50783Y-15742D01*
X50783Y-15725D01*
X50780Y-15709D01*
X50776Y-15694D01*
X50771Y-15678D01*
X50765Y-15663D01*
X50757Y-15649D01*
X50748Y-15635D01*
X50738Y-15623D01*
X50727Y-15611D01*
X60594Y-22902D02*
X60594Y-17980D01*
X55299Y-23039D02*
X60457Y-23039D01*
X55161Y-17980D02*
X55161Y-22902D01*
X60457Y-17843D02*
X55299Y-17843D01*
X60594Y-17980D02*
X60593Y-17969D01*
X60591Y-17957D01*
X60589Y-17945D01*
X60585Y-17934D01*
X60581Y-17923D01*
X60575Y-17912D01*
X60569Y-17902D01*
X60561Y-17892D01*
X60553Y-17884D01*
X60545Y-17876D01*
X60535Y-17868D01*
X60525Y-17862D01*
X60514Y-17856D01*
X60503Y-17852D01*
X60492Y-17848D01*
X60480Y-17846D01*
X60468Y-17844D01*
X60457Y-17843D01*
X60457Y-23039D02*
X60468Y-23038D01*
X60480Y-23036D01*
X60492Y-23034D01*
X60503Y-23030D01*
X60514Y-23026D01*
X60525Y-23020D01*
X60535Y-23014D01*
X60545Y-23006D01*
X60553Y-22998D01*
X60561Y-22990D01*
X60569Y-22980D01*
X60575Y-22970D01*
X60581Y-22959D01*
X60585Y-22948D01*
X60589Y-22937D01*
X60591Y-22925D01*
X60593Y-22913D01*
X60594Y-22902D01*
X55162Y-22902D02*
X55163Y-22913D01*
X55165Y-22925D01*
X55167Y-22937D01*
X55171Y-22948D01*
X55175Y-22959D01*
X55181Y-22970D01*
X55187Y-22980D01*
X55195Y-22990D01*
X55203Y-22998D01*
X55211Y-23006D01*
X55221Y-23014D01*
X55231Y-23020D01*
X55242Y-23026D01*
X55253Y-23030D01*
X55264Y-23034D01*
X55276Y-23036D01*
X55288Y-23038D01*
X55299Y-23039D01*
X55299Y-17842D02*
X55287Y-17843D01*
X55276Y-17845D01*
X55264Y-17847D01*
X55252Y-17851D01*
X55241Y-17855D01*
X55231Y-17861D01*
X55220Y-17867D01*
X55211Y-17875D01*
X55202Y-17883D01*
X55194Y-17892D01*
X55186Y-17901D01*
X55180Y-17912D01*
X55174Y-17922D01*
X55170Y-17933D01*
X55166Y-17945D01*
X55164Y-17957D01*
X55162Y-17968D01*
X55161Y-17980D01*
X43905Y-17743D02*
X43905Y-18165D01*
X47909Y-13740D02*
X43905Y-17744D01*
X48335Y-13740D02*
X47909Y-13740D01*
X48594Y-13055D02*
X48594Y-13481D01*
X55105Y-06545D02*
X48594Y-13056D01*
X55531Y-06543D02*
X55105Y-06543D01*
X71780Y-23224D02*
X71780Y-22795D01*
X65268Y-29737D02*
X71780Y-23225D01*
X64842Y-29736D02*
X65268Y-29736D01*
X60583Y-34421D02*
X60158Y-34421D01*
X64591Y-30414D02*
X60583Y-34422D01*
X64591Y-29990D02*
X64591Y-30416D01*
M02*
