G04 (created by PCBNEW (2011-04-29 BZR 2986)-stable) date 6/8/2011 10:43:12 AM*
G01*
G70*
G90*
%MOIN*%
G04 Gerber Fmt 3.4, Leading zero omitted, Abs format*
%FSLAX34Y34*%
G04 APERTURE LIST*
%ADD10C,0.001000*%
%ADD11C,0.000400*%
%ADD12C,0.008000*%
G04 APERTURE END LIST*
G54D10*
G54D11*
X58776Y-08807D02*
X57976Y-08807D01*
X55531Y-06543D02*
X57661Y-08673D01*
X57657Y-08667D02*
X57681Y-08692D01*
X57706Y-08716D01*
X57733Y-08736D01*
X57762Y-08755D01*
X57792Y-08771D01*
X57824Y-08784D01*
X57857Y-08794D01*
X57890Y-08802D01*
X57924Y-08806D01*
X57958Y-08808D01*
X57992Y-08806D01*
X43906Y-18165D02*
X46039Y-20298D01*
X46169Y-21413D02*
X46169Y-20610D01*
X46168Y-20626D02*
X46170Y-20592D01*
X46168Y-20558D01*
X46164Y-20524D01*
X46156Y-20491D01*
X46146Y-20458D01*
X46133Y-20426D01*
X46117Y-20396D01*
X46098Y-20367D01*
X46078Y-20340D01*
X46054Y-20315D01*
X46029Y-20291D01*
X56913Y-32157D02*
X57713Y-32157D01*
X60157Y-34421D02*
X58031Y-32295D01*
X58033Y-32298D02*
X58010Y-32272D01*
X57984Y-32249D01*
X57957Y-32228D01*
X57928Y-32210D01*
X57898Y-32194D01*
X57866Y-32180D01*
X57833Y-32170D01*
X57800Y-32163D01*
X57766Y-32158D01*
X57731Y-32157D01*
X57698Y-32158D01*
X71780Y-22795D02*
X69658Y-20673D01*
X69520Y-19551D02*
X69520Y-20339D01*
X69521Y-20339D02*
X69519Y-20373D01*
X69521Y-20407D01*
X69525Y-20441D01*
X69533Y-20474D01*
X69543Y-20507D01*
X69556Y-20539D01*
X69572Y-20569D01*
X69591Y-20598D01*
X69611Y-20625D01*
X69635Y-20650D01*
X69660Y-20674D01*
X56154Y-32157D02*
X46170Y-22173D01*
X56567Y-32157D02*
X56154Y-32157D01*
X46169Y-21756D02*
X46169Y-22173D01*
X69520Y-19020D02*
X59307Y-08807D01*
X69520Y-19551D02*
X69520Y-19020D01*
X58776Y-08807D02*
X59307Y-08807D01*
X46169Y-21413D02*
X46169Y-21756D01*
X56913Y-32157D02*
X56567Y-32157D01*
X62705Y-27594D02*
X64846Y-29735D01*
X62453Y-27850D02*
X64591Y-29988D01*
X62704Y-27595D02*
X62693Y-27584D01*
X62680Y-27575D01*
X62667Y-27566D01*
X62652Y-27559D01*
X62638Y-27553D01*
X62623Y-27549D01*
X62607Y-27546D01*
X62591Y-27544D01*
X62577Y-27544D01*
X62561Y-27544D01*
X62545Y-27547D01*
X62530Y-27550D01*
X62515Y-27555D01*
X62500Y-27562D01*
X62487Y-27569D01*
X62473Y-27578D01*
X62461Y-27588D01*
X62450Y-27599D01*
X62439Y-27610D01*
X62430Y-27623D01*
X62421Y-27636D01*
X62414Y-27651D01*
X62408Y-27665D01*
X62404Y-27680D01*
X62401Y-27696D01*
X62399Y-27712D01*
X62399Y-27726D01*
X62399Y-27742D01*
X62402Y-27758D01*
X62405Y-27773D01*
X62410Y-27788D01*
X62417Y-27803D01*
X62424Y-27816D01*
X62433Y-27830D01*
X62443Y-27842D01*
X62454Y-27853D01*
X48335Y-13740D02*
X50472Y-15877D01*
X48594Y-13480D02*
X50728Y-15614D01*
X50469Y-15877D02*
X50481Y-15888D01*
X50494Y-15898D01*
X50508Y-15906D01*
X50523Y-15913D01*
X50538Y-15919D01*
X50553Y-15924D01*
X50569Y-15927D01*
X50585Y-15929D01*
X50600Y-15929D01*
X50617Y-15929D01*
X50633Y-15926D01*
X50648Y-15922D01*
X50664Y-15917D01*
X50679Y-15911D01*
X50693Y-15903D01*
X50707Y-15894D01*
X50719Y-15884D01*
X50731Y-15873D01*
X50742Y-15861D01*
X50752Y-15848D01*
X50760Y-15834D01*
X50767Y-15819D01*
X50773Y-15804D01*
X50778Y-15789D01*
X50781Y-15773D01*
X50783Y-15757D01*
X50783Y-15742D01*
X50783Y-15725D01*
X50780Y-15709D01*
X50776Y-15694D01*
X50771Y-15678D01*
X50765Y-15663D01*
X50757Y-15649D01*
X50748Y-15635D01*
X50738Y-15623D01*
X50727Y-15611D01*
X60594Y-22902D02*
X60594Y-17980D01*
X55299Y-23039D02*
X60457Y-23039D01*
X55161Y-17980D02*
X55161Y-22902D01*
X60457Y-17843D02*
X55299Y-17843D01*
X60594Y-17980D02*
X60593Y-17969D01*
X60591Y-17957D01*
X60589Y-17945D01*
X60585Y-17934D01*
X60581Y-17923D01*
X60575Y-17912D01*
X60569Y-17902D01*
X60561Y-17892D01*
X60553Y-17884D01*
X60545Y-17876D01*
X60535Y-17868D01*
X60525Y-17862D01*
X60514Y-17856D01*
X60503Y-17852D01*
X60492Y-17848D01*
X60480Y-17846D01*
X60468Y-17844D01*
X60457Y-17843D01*
X60457Y-23039D02*
X60468Y-23038D01*
X60480Y-23036D01*
X60492Y-23034D01*
X60503Y-23030D01*
X60514Y-23026D01*
X60525Y-23020D01*
X60535Y-23014D01*
X60545Y-23006D01*
X60553Y-22998D01*
X60561Y-22990D01*
X60569Y-22980D01*
X60575Y-22970D01*
X60581Y-22959D01*
X60585Y-22948D01*
X60589Y-22937D01*
X60591Y-22925D01*
X60593Y-22913D01*
X60594Y-22902D01*
X55162Y-22902D02*
X55163Y-22913D01*
X55165Y-22925D01*
X55167Y-22937D01*
X55171Y-22948D01*
X55175Y-22959D01*
X55181Y-22970D01*
X55187Y-22980D01*
X55195Y-22990D01*
X55203Y-22998D01*
X55211Y-23006D01*
X55221Y-23014D01*
X55231Y-23020D01*
X55242Y-23026D01*
X55253Y-23030D01*
X55264Y-23034D01*
X55276Y-23036D01*
X55288Y-23038D01*
X55299Y-23039D01*
X55299Y-17842D02*
X55287Y-17843D01*
X55276Y-17845D01*
X55264Y-17847D01*
X55252Y-17851D01*
X55241Y-17855D01*
X55231Y-17861D01*
X55220Y-17867D01*
X55211Y-17875D01*
X55202Y-17883D01*
X55194Y-17892D01*
X55186Y-17901D01*
X55180Y-17912D01*
X55174Y-17922D01*
X55170Y-17933D01*
X55166Y-17945D01*
X55164Y-17957D01*
X55162Y-17968D01*
X55161Y-17980D01*
X43905Y-17743D02*
X43905Y-18165D01*
X47909Y-13740D02*
X43905Y-17744D01*
X48335Y-13740D02*
X47909Y-13740D01*
X48594Y-13055D02*
X48594Y-13481D01*
X55105Y-06545D02*
X48594Y-13056D01*
X55531Y-06543D02*
X55105Y-06543D01*
X71780Y-23224D02*
X71780Y-22795D01*
X65268Y-29737D02*
X71780Y-23225D01*
X64842Y-29736D02*
X65268Y-29736D01*
X60583Y-34421D02*
X60158Y-34421D01*
X64591Y-30414D02*
X60583Y-34422D01*
X64591Y-29990D02*
X64591Y-30416D01*
G54D10*
X47874Y-20118D02*
X47992Y-20236D01*
X47992Y-20118D02*
X47874Y-20236D01*
X47874Y-21988D02*
X47992Y-22106D01*
X47992Y-21988D02*
X47874Y-22106D01*
X48071Y-18543D02*
X48189Y-18661D01*
X48189Y-18543D02*
X48071Y-18661D01*
X48071Y-20394D02*
X48189Y-20512D01*
X48189Y-20394D02*
X48071Y-20512D01*
X48268Y-20118D02*
X48386Y-20236D01*
X48386Y-20118D02*
X48268Y-20236D01*
X48268Y-22382D02*
X48386Y-22500D01*
X48386Y-22382D02*
X48268Y-22500D01*
X48465Y-18150D02*
X48583Y-18268D01*
X48583Y-18150D02*
X48465Y-18268D01*
X48465Y-20394D02*
X48583Y-20512D01*
X48583Y-20394D02*
X48465Y-20512D01*
X48661Y-22776D02*
X48779Y-22894D01*
X48779Y-22776D02*
X48661Y-22894D01*
X48858Y-17756D02*
X48976Y-17874D01*
X48976Y-17756D02*
X48858Y-17874D01*
X48858Y-20394D02*
X48976Y-20512D01*
X48976Y-20394D02*
X48858Y-20512D01*
X49055Y-20118D02*
X49173Y-20236D01*
X49173Y-20118D02*
X49055Y-20236D01*
X49055Y-22776D02*
X49173Y-22894D01*
X49173Y-22776D02*
X49055Y-22894D01*
X49252Y-17756D02*
X49370Y-17874D01*
X49370Y-17756D02*
X49252Y-17874D01*
X49252Y-20394D02*
X49370Y-20512D01*
X49370Y-20394D02*
X49252Y-20512D01*
X49449Y-20118D02*
X49567Y-20236D01*
X49567Y-20118D02*
X49449Y-20236D01*
X49449Y-22776D02*
X49567Y-22894D01*
X49567Y-22776D02*
X49449Y-22894D01*
X49646Y-17756D02*
X49764Y-17874D01*
X49764Y-17756D02*
X49646Y-17874D01*
X49646Y-20394D02*
X49764Y-20512D01*
X49764Y-20394D02*
X49646Y-20512D01*
X49843Y-20118D02*
X49961Y-20236D01*
X49961Y-20118D02*
X49843Y-20236D01*
X49843Y-22776D02*
X49961Y-22894D01*
X49961Y-22776D02*
X49843Y-22894D01*
X50039Y-17756D02*
X50157Y-17874D01*
X50157Y-17756D02*
X50039Y-17874D01*
X50039Y-20394D02*
X50157Y-20512D01*
X50157Y-20394D02*
X50039Y-20512D01*
X50236Y-20118D02*
X50354Y-20236D01*
X50354Y-20118D02*
X50236Y-20236D01*
X50236Y-22776D02*
X50354Y-22894D01*
X50354Y-22776D02*
X50236Y-22894D01*
X50433Y-17756D02*
X50551Y-17874D01*
X50551Y-17756D02*
X50433Y-17874D01*
X50433Y-20394D02*
X50551Y-20512D01*
X50551Y-20394D02*
X50433Y-20512D01*
X50630Y-20118D02*
X50748Y-20236D01*
X50748Y-20118D02*
X50630Y-20236D01*
X50630Y-22776D02*
X50748Y-22894D01*
X50748Y-22776D02*
X50630Y-22894D01*
X50827Y-17756D02*
X50945Y-17874D01*
X50945Y-17756D02*
X50827Y-17874D01*
X50827Y-20394D02*
X50945Y-20512D01*
X50945Y-20394D02*
X50827Y-20512D01*
X51024Y-20118D02*
X51142Y-20236D01*
X51142Y-20118D02*
X51024Y-20236D01*
X51024Y-22776D02*
X51142Y-22894D01*
X51142Y-22776D02*
X51024Y-22894D01*
X51221Y-17756D02*
X51339Y-17874D01*
X51339Y-17756D02*
X51221Y-17874D01*
X51221Y-20394D02*
X51339Y-20512D01*
X51339Y-20394D02*
X51221Y-20512D01*
X51417Y-20118D02*
X51535Y-20236D01*
X51535Y-20118D02*
X51417Y-20236D01*
X51417Y-22776D02*
X51535Y-22894D01*
X51535Y-22776D02*
X51417Y-22894D01*
X51614Y-17756D02*
X51732Y-17874D01*
X51732Y-17756D02*
X51614Y-17874D01*
X51614Y-20394D02*
X51732Y-20512D01*
X51732Y-20394D02*
X51614Y-20512D01*
X51811Y-20118D02*
X51929Y-20236D01*
X51929Y-20118D02*
X51811Y-20236D01*
X51811Y-22776D02*
X51929Y-22894D01*
X51929Y-22776D02*
X51811Y-22894D01*
X52008Y-17756D02*
X52126Y-17874D01*
X52126Y-17756D02*
X52008Y-17874D01*
X52008Y-20394D02*
X52126Y-20512D01*
X52126Y-20394D02*
X52008Y-20512D01*
X52205Y-20118D02*
X52323Y-20236D01*
X52323Y-20118D02*
X52205Y-20236D01*
X52205Y-22776D02*
X52323Y-22894D01*
X52323Y-22776D02*
X52205Y-22894D01*
X52402Y-17756D02*
X52520Y-17874D01*
X52520Y-17756D02*
X52402Y-17874D01*
X52402Y-20394D02*
X52520Y-20512D01*
X52520Y-20394D02*
X52402Y-20512D01*
X52598Y-20158D02*
X52716Y-20276D01*
X52716Y-20158D02*
X52598Y-20276D01*
X52598Y-22776D02*
X52716Y-22894D01*
X52716Y-22776D02*
X52598Y-22894D01*
X53189Y-20020D02*
X53307Y-20138D01*
X53307Y-20020D02*
X53189Y-20138D01*
X53189Y-22579D02*
X53307Y-22697D01*
X53307Y-22579D02*
X53189Y-22697D01*
X53799Y-19173D02*
X53917Y-19291D01*
X53917Y-19173D02*
X53799Y-19291D01*
X53799Y-20374D02*
X53917Y-20492D01*
X53917Y-20374D02*
X53799Y-20492D01*
X53799Y-21476D02*
X53917Y-21594D01*
X53917Y-21476D02*
X53799Y-21594D01*
X53819Y-17697D02*
X53937Y-17815D01*
X53937Y-17697D02*
X53819Y-17815D01*
X54272Y-20098D02*
X54390Y-20216D01*
X54390Y-20098D02*
X54272Y-20216D01*
X54272Y-22776D02*
X54390Y-22894D01*
X54390Y-22776D02*
X54272Y-22894D01*
X61358Y-20571D02*
X61476Y-20689D01*
X61476Y-20571D02*
X61358Y-20689D01*
X61417Y-17402D02*
X61535Y-17520D01*
X61535Y-17402D02*
X61417Y-17520D01*
X61850Y-21457D02*
X61968Y-21575D01*
X61968Y-21457D02*
X61850Y-21575D01*
X61850Y-22795D02*
X61968Y-22913D01*
X61968Y-22795D02*
X61850Y-22913D01*
X61870Y-19134D02*
X61988Y-19252D01*
X61988Y-19134D02*
X61870Y-19252D01*
X61870Y-20236D02*
X61988Y-20354D01*
X61988Y-20236D02*
X61870Y-20354D01*
X62421Y-18150D02*
X62539Y-18268D01*
X62539Y-18150D02*
X62421Y-18268D01*
X62480Y-20669D02*
X62598Y-20787D01*
X62598Y-20669D02*
X62480Y-20787D01*
X63032Y-17835D02*
X63150Y-17953D01*
X63150Y-17835D02*
X63032Y-17953D01*
X63032Y-20472D02*
X63150Y-20590D01*
X63150Y-20472D02*
X63032Y-20590D01*
X63228Y-17559D02*
X63346Y-17677D01*
X63346Y-17559D02*
X63228Y-17677D01*
X63228Y-20236D02*
X63346Y-20354D01*
X63346Y-20236D02*
X63228Y-20354D01*
X63228Y-22815D02*
X63346Y-22933D01*
X63346Y-22815D02*
X63228Y-22933D01*
X63425Y-17835D02*
X63543Y-17953D01*
X63543Y-17835D02*
X63425Y-17953D01*
X63425Y-20512D02*
X63543Y-20630D01*
X63543Y-20512D02*
X63425Y-20630D01*
X63622Y-17559D02*
X63740Y-17677D01*
X63740Y-17559D02*
X63622Y-17677D01*
X63622Y-20236D02*
X63740Y-20354D01*
X63740Y-20236D02*
X63622Y-20354D01*
X63622Y-22815D02*
X63740Y-22933D01*
X63740Y-22815D02*
X63622Y-22933D01*
X63819Y-17835D02*
X63937Y-17953D01*
X63937Y-17835D02*
X63819Y-17953D01*
X63819Y-20512D02*
X63937Y-20630D01*
X63937Y-20512D02*
X63819Y-20630D01*
X64016Y-17559D02*
X64134Y-17677D01*
X64134Y-17559D02*
X64016Y-17677D01*
X64016Y-20236D02*
X64134Y-20354D01*
X64134Y-20236D02*
X64016Y-20354D01*
X64016Y-22815D02*
X64134Y-22933D01*
X64134Y-22815D02*
X64016Y-22933D01*
X64213Y-17835D02*
X64331Y-17953D01*
X64331Y-17835D02*
X64213Y-17953D01*
X64213Y-20512D02*
X64331Y-20630D01*
X64331Y-20512D02*
X64213Y-20630D01*
X64410Y-17559D02*
X64528Y-17677D01*
X64528Y-17559D02*
X64410Y-17677D01*
X64410Y-20236D02*
X64528Y-20354D01*
X64528Y-20236D02*
X64410Y-20354D01*
X64410Y-22815D02*
X64528Y-22933D01*
X64528Y-22815D02*
X64410Y-22933D01*
X64606Y-17835D02*
X64724Y-17953D01*
X64724Y-17835D02*
X64606Y-17953D01*
X64606Y-20512D02*
X64724Y-20630D01*
X64724Y-20512D02*
X64606Y-20630D01*
X64803Y-17559D02*
X64921Y-17677D01*
X64921Y-17559D02*
X64803Y-17677D01*
X64803Y-20236D02*
X64921Y-20354D01*
X64921Y-20236D02*
X64803Y-20354D01*
X64803Y-22815D02*
X64921Y-22933D01*
X64921Y-22815D02*
X64803Y-22933D01*
X65000Y-17835D02*
X65118Y-17953D01*
X65118Y-17835D02*
X65000Y-17953D01*
X65000Y-20512D02*
X65118Y-20630D01*
X65118Y-20512D02*
X65000Y-20630D01*
X65197Y-17559D02*
X65315Y-17677D01*
X65315Y-17559D02*
X65197Y-17677D01*
X65197Y-20236D02*
X65315Y-20354D01*
X65315Y-20236D02*
X65197Y-20354D01*
X65197Y-22815D02*
X65315Y-22933D01*
X65315Y-22815D02*
X65197Y-22933D01*
X65394Y-17835D02*
X65512Y-17953D01*
X65512Y-17835D02*
X65394Y-17953D01*
X65394Y-20512D02*
X65512Y-20630D01*
X65512Y-20512D02*
X65394Y-20630D01*
X65591Y-17559D02*
X65709Y-17677D01*
X65709Y-17559D02*
X65591Y-17677D01*
X65591Y-20236D02*
X65709Y-20354D01*
X65709Y-20236D02*
X65591Y-20354D01*
X65591Y-22815D02*
X65709Y-22933D01*
X65709Y-22815D02*
X65591Y-22933D01*
X65787Y-17835D02*
X65905Y-17953D01*
X65905Y-17835D02*
X65787Y-17953D01*
X65787Y-20512D02*
X65905Y-20630D01*
X65905Y-20512D02*
X65787Y-20630D01*
X65984Y-17559D02*
X66102Y-17677D01*
X66102Y-17559D02*
X65984Y-17677D01*
X65984Y-20236D02*
X66102Y-20354D01*
X66102Y-20236D02*
X65984Y-20354D01*
X65984Y-22815D02*
X66102Y-22933D01*
X66102Y-22815D02*
X65984Y-22933D01*
X66181Y-17835D02*
X66299Y-17953D01*
X66299Y-17835D02*
X66181Y-17953D01*
X66181Y-20512D02*
X66299Y-20630D01*
X66299Y-20512D02*
X66181Y-20630D01*
X66378Y-17559D02*
X66496Y-17677D01*
X66496Y-17559D02*
X66378Y-17677D01*
X66378Y-20236D02*
X66496Y-20354D01*
X66496Y-20236D02*
X66378Y-20354D01*
X66378Y-22815D02*
X66496Y-22933D01*
X66496Y-22815D02*
X66378Y-22933D01*
X66575Y-17835D02*
X66693Y-17953D01*
X66693Y-17835D02*
X66575Y-17953D01*
X66575Y-20512D02*
X66693Y-20630D01*
X66693Y-20512D02*
X66575Y-20630D01*
X66772Y-17559D02*
X66890Y-17677D01*
X66890Y-17559D02*
X66772Y-17677D01*
X66772Y-20236D02*
X66890Y-20354D01*
X66890Y-20236D02*
X66772Y-20354D01*
X66772Y-22815D02*
X66890Y-22933D01*
X66890Y-22815D02*
X66772Y-22933D01*
X66969Y-18228D02*
X67087Y-18346D01*
X67087Y-18228D02*
X66969Y-18346D01*
X66969Y-20512D02*
X67087Y-20630D01*
X67087Y-20512D02*
X66969Y-20630D01*
X67165Y-17953D02*
X67283Y-18071D01*
X67283Y-17953D02*
X67165Y-18071D01*
X67165Y-20236D02*
X67283Y-20354D01*
X67283Y-20236D02*
X67165Y-20354D01*
X67165Y-22421D02*
X67283Y-22539D01*
X67283Y-22421D02*
X67165Y-22539D01*
X67362Y-18622D02*
X67480Y-18740D01*
X67480Y-18622D02*
X67362Y-18740D01*
X67362Y-20512D02*
X67480Y-20630D01*
X67480Y-20512D02*
X67362Y-20630D01*
X67559Y-20236D02*
X67677Y-20354D01*
X67677Y-20236D02*
X67559Y-20354D01*
X67559Y-22028D02*
X67677Y-22146D01*
X67677Y-22028D02*
X67559Y-22146D01*
X67953Y-21634D02*
X68071Y-21752D01*
X68071Y-21634D02*
X67953Y-21752D01*
X46562Y-19272D02*
X46559Y-19296D01*
X46552Y-19319D01*
X46541Y-19341D01*
X46525Y-19360D01*
X46506Y-19375D01*
X46485Y-19387D01*
X46462Y-19394D01*
X46437Y-19396D01*
X46414Y-19394D01*
X46391Y-19387D01*
X46369Y-19376D01*
X46350Y-19361D01*
X46334Y-19342D01*
X46323Y-19321D01*
X46315Y-19297D01*
X46313Y-19273D01*
X46315Y-19250D01*
X46321Y-19226D01*
X46332Y-19205D01*
X46348Y-19186D01*
X46366Y-19170D01*
X46387Y-19158D01*
X46411Y-19150D01*
X46435Y-19148D01*
X46458Y-19149D01*
X46482Y-19156D01*
X46503Y-19167D01*
X46523Y-19182D01*
X46539Y-19200D01*
X46551Y-19222D01*
X46558Y-19245D01*
X46561Y-19269D01*
X46562Y-19272D01*
X47546Y-21535D02*
X47543Y-21559D01*
X47536Y-21582D01*
X47525Y-21604D01*
X47509Y-21623D01*
X47490Y-21638D01*
X47469Y-21650D01*
X47446Y-21657D01*
X47421Y-21659D01*
X47398Y-21657D01*
X47375Y-21650D01*
X47353Y-21639D01*
X47334Y-21624D01*
X47318Y-21605D01*
X47307Y-21584D01*
X47299Y-21560D01*
X47297Y-21536D01*
X47299Y-21513D01*
X47305Y-21489D01*
X47316Y-21468D01*
X47332Y-21449D01*
X47350Y-21433D01*
X47371Y-21421D01*
X47395Y-21413D01*
X47419Y-21411D01*
X47442Y-21412D01*
X47466Y-21419D01*
X47487Y-21430D01*
X47507Y-21445D01*
X47523Y-21463D01*
X47535Y-21485D01*
X47542Y-21508D01*
X47545Y-21532D01*
X47546Y-21535D01*
X47684Y-19252D02*
X47681Y-19276D01*
X47674Y-19299D01*
X47663Y-19321D01*
X47647Y-19340D01*
X47628Y-19355D01*
X47607Y-19367D01*
X47584Y-19374D01*
X47559Y-19376D01*
X47536Y-19374D01*
X47513Y-19367D01*
X47491Y-19356D01*
X47472Y-19341D01*
X47456Y-19322D01*
X47445Y-19301D01*
X47437Y-19277D01*
X47435Y-19253D01*
X47437Y-19230D01*
X47443Y-19206D01*
X47454Y-19185D01*
X47470Y-19166D01*
X47488Y-19150D01*
X47509Y-19138D01*
X47533Y-19130D01*
X47557Y-19128D01*
X47580Y-19129D01*
X47604Y-19136D01*
X47625Y-19147D01*
X47645Y-19162D01*
X47661Y-19180D01*
X47673Y-19202D01*
X47680Y-19225D01*
X47683Y-19249D01*
X47684Y-19252D01*
X47704Y-17972D02*
X47701Y-17996D01*
X47694Y-18019D01*
X47683Y-18041D01*
X47667Y-18060D01*
X47648Y-18075D01*
X47627Y-18087D01*
X47604Y-18094D01*
X47579Y-18096D01*
X47556Y-18094D01*
X47533Y-18087D01*
X47511Y-18076D01*
X47492Y-18061D01*
X47476Y-18042D01*
X47465Y-18021D01*
X47457Y-17997D01*
X47455Y-17973D01*
X47457Y-17950D01*
X47463Y-17926D01*
X47474Y-17905D01*
X47490Y-17886D01*
X47508Y-17870D01*
X47529Y-17858D01*
X47553Y-17850D01*
X47577Y-17848D01*
X47600Y-17849D01*
X47624Y-17856D01*
X47645Y-17867D01*
X47665Y-17882D01*
X47681Y-17900D01*
X47693Y-17922D01*
X47700Y-17945D01*
X47703Y-17969D01*
X47704Y-17972D01*
X50420Y-25492D02*
X50417Y-25516D01*
X50410Y-25539D01*
X50399Y-25561D01*
X50383Y-25580D01*
X50364Y-25595D01*
X50343Y-25607D01*
X50320Y-25614D01*
X50295Y-25616D01*
X50272Y-25614D01*
X50249Y-25607D01*
X50227Y-25596D01*
X50208Y-25581D01*
X50192Y-25562D01*
X50181Y-25541D01*
X50173Y-25517D01*
X50171Y-25493D01*
X50173Y-25470D01*
X50179Y-25446D01*
X50190Y-25425D01*
X50206Y-25406D01*
X50224Y-25390D01*
X50245Y-25378D01*
X50269Y-25370D01*
X50293Y-25368D01*
X50316Y-25369D01*
X50340Y-25376D01*
X50361Y-25387D01*
X50381Y-25402D01*
X50397Y-25420D01*
X50409Y-25442D01*
X50416Y-25465D01*
X50419Y-25489D01*
X50420Y-25492D01*
X53708Y-23189D02*
X53705Y-23213D01*
X53698Y-23236D01*
X53687Y-23258D01*
X53671Y-23277D01*
X53652Y-23292D01*
X53631Y-23304D01*
X53608Y-23311D01*
X53583Y-23313D01*
X53560Y-23311D01*
X53537Y-23304D01*
X53515Y-23293D01*
X53496Y-23278D01*
X53480Y-23259D01*
X53469Y-23238D01*
X53461Y-23214D01*
X53459Y-23190D01*
X53461Y-23167D01*
X53467Y-23143D01*
X53478Y-23122D01*
X53494Y-23103D01*
X53512Y-23087D01*
X53533Y-23075D01*
X53557Y-23067D01*
X53581Y-23065D01*
X53604Y-23066D01*
X53628Y-23073D01*
X53649Y-23084D01*
X53669Y-23099D01*
X53685Y-23117D01*
X53697Y-23139D01*
X53704Y-23162D01*
X53707Y-23186D01*
X53708Y-23189D01*
X55873Y-10295D02*
X55870Y-10319D01*
X55863Y-10342D01*
X55852Y-10364D01*
X55836Y-10383D01*
X55817Y-10398D01*
X55796Y-10410D01*
X55773Y-10417D01*
X55748Y-10419D01*
X55725Y-10417D01*
X55702Y-10410D01*
X55680Y-10399D01*
X55661Y-10384D01*
X55645Y-10365D01*
X55634Y-10344D01*
X55626Y-10320D01*
X55624Y-10296D01*
X55626Y-10273D01*
X55632Y-10249D01*
X55643Y-10228D01*
X55659Y-10209D01*
X55677Y-10193D01*
X55698Y-10181D01*
X55722Y-10173D01*
X55746Y-10171D01*
X55769Y-10172D01*
X55793Y-10179D01*
X55814Y-10190D01*
X55834Y-10205D01*
X55850Y-10223D01*
X55862Y-10245D01*
X55869Y-10268D01*
X55872Y-10292D01*
X55873Y-10295D01*
X56031Y-25492D02*
X56028Y-25516D01*
X56021Y-25539D01*
X56010Y-25561D01*
X55994Y-25580D01*
X55975Y-25595D01*
X55954Y-25607D01*
X55931Y-25614D01*
X55906Y-25616D01*
X55883Y-25614D01*
X55860Y-25607D01*
X55838Y-25596D01*
X55819Y-25581D01*
X55803Y-25562D01*
X55792Y-25541D01*
X55784Y-25517D01*
X55782Y-25493D01*
X55784Y-25470D01*
X55790Y-25446D01*
X55801Y-25425D01*
X55817Y-25406D01*
X55835Y-25390D01*
X55856Y-25378D01*
X55880Y-25370D01*
X55904Y-25368D01*
X55927Y-25369D01*
X55951Y-25376D01*
X55972Y-25387D01*
X55992Y-25402D01*
X56008Y-25420D01*
X56020Y-25442D01*
X56027Y-25465D01*
X56030Y-25489D01*
X56031Y-25492D01*
X57468Y-29528D02*
X57465Y-29552D01*
X57458Y-29575D01*
X57447Y-29597D01*
X57431Y-29616D01*
X57412Y-29631D01*
X57391Y-29643D01*
X57368Y-29650D01*
X57343Y-29652D01*
X57320Y-29650D01*
X57297Y-29643D01*
X57275Y-29632D01*
X57256Y-29617D01*
X57240Y-29598D01*
X57229Y-29577D01*
X57221Y-29553D01*
X57219Y-29529D01*
X57221Y-29506D01*
X57227Y-29482D01*
X57238Y-29461D01*
X57254Y-29442D01*
X57272Y-29426D01*
X57293Y-29414D01*
X57317Y-29406D01*
X57341Y-29404D01*
X57364Y-29405D01*
X57388Y-29412D01*
X57409Y-29423D01*
X57429Y-29438D01*
X57445Y-29456D01*
X57457Y-29478D01*
X57464Y-29501D01*
X57467Y-29525D01*
X57468Y-29528D01*
X58294Y-10059D02*
X58291Y-10083D01*
X58284Y-10106D01*
X58273Y-10128D01*
X58257Y-10147D01*
X58238Y-10162D01*
X58217Y-10174D01*
X58194Y-10181D01*
X58169Y-10183D01*
X58146Y-10181D01*
X58123Y-10174D01*
X58101Y-10163D01*
X58082Y-10148D01*
X58066Y-10129D01*
X58055Y-10108D01*
X58047Y-10084D01*
X58045Y-10060D01*
X58047Y-10037D01*
X58053Y-10013D01*
X58064Y-09992D01*
X58080Y-09973D01*
X58098Y-09957D01*
X58119Y-09945D01*
X58143Y-09937D01*
X58167Y-09935D01*
X58190Y-09936D01*
X58214Y-09943D01*
X58235Y-09954D01*
X58255Y-09969D01*
X58271Y-09987D01*
X58283Y-10009D01*
X58290Y-10032D01*
X58293Y-10056D01*
X58294Y-10059D01*
X59141Y-31850D02*
X59138Y-31874D01*
X59131Y-31897D01*
X59120Y-31919D01*
X59104Y-31938D01*
X59085Y-31953D01*
X59064Y-31965D01*
X59041Y-31972D01*
X59016Y-31974D01*
X58993Y-31972D01*
X58970Y-31965D01*
X58948Y-31954D01*
X58929Y-31939D01*
X58913Y-31920D01*
X58902Y-31899D01*
X58894Y-31875D01*
X58892Y-31851D01*
X58894Y-31828D01*
X58900Y-31804D01*
X58911Y-31783D01*
X58927Y-31764D01*
X58945Y-31748D01*
X58966Y-31736D01*
X58990Y-31728D01*
X59014Y-31726D01*
X59037Y-31727D01*
X59061Y-31734D01*
X59082Y-31745D01*
X59102Y-31760D01*
X59118Y-31778D01*
X59130Y-31800D01*
X59137Y-31823D01*
X59140Y-31847D01*
X59141Y-31850D01*
X59849Y-11457D02*
X59846Y-11481D01*
X59839Y-11504D01*
X59828Y-11526D01*
X59812Y-11545D01*
X59793Y-11560D01*
X59772Y-11572D01*
X59749Y-11579D01*
X59724Y-11581D01*
X59701Y-11579D01*
X59678Y-11572D01*
X59656Y-11561D01*
X59637Y-11546D01*
X59621Y-11527D01*
X59610Y-11506D01*
X59602Y-11482D01*
X59600Y-11458D01*
X59602Y-11435D01*
X59608Y-11411D01*
X59619Y-11390D01*
X59635Y-11371D01*
X59653Y-11355D01*
X59674Y-11343D01*
X59698Y-11335D01*
X59722Y-11333D01*
X59745Y-11334D01*
X59769Y-11341D01*
X59790Y-11352D01*
X59810Y-11367D01*
X59826Y-11385D01*
X59838Y-11407D01*
X59845Y-11430D01*
X59848Y-11454D01*
X59849Y-11457D01*
X60086Y-30689D02*
X60083Y-30713D01*
X60076Y-30736D01*
X60065Y-30758D01*
X60049Y-30777D01*
X60030Y-30792D01*
X60009Y-30804D01*
X59986Y-30811D01*
X59961Y-30813D01*
X59938Y-30811D01*
X59915Y-30804D01*
X59893Y-30793D01*
X59874Y-30778D01*
X59858Y-30759D01*
X59847Y-30738D01*
X59839Y-30714D01*
X59837Y-30690D01*
X59839Y-30667D01*
X59845Y-30643D01*
X59856Y-30622D01*
X59872Y-30603D01*
X59890Y-30587D01*
X59911Y-30575D01*
X59935Y-30567D01*
X59959Y-30565D01*
X59982Y-30566D01*
X60006Y-30573D01*
X60027Y-30584D01*
X60047Y-30599D01*
X60063Y-30617D01*
X60075Y-30639D01*
X60082Y-30662D01*
X60085Y-30686D01*
X60086Y-30689D01*
X68511Y-19370D02*
X68508Y-19394D01*
X68501Y-19417D01*
X68490Y-19439D01*
X68474Y-19458D01*
X68455Y-19473D01*
X68434Y-19485D01*
X68411Y-19492D01*
X68386Y-19494D01*
X68363Y-19492D01*
X68340Y-19485D01*
X68318Y-19474D01*
X68299Y-19459D01*
X68283Y-19440D01*
X68272Y-19419D01*
X68264Y-19395D01*
X68262Y-19371D01*
X68264Y-19348D01*
X68270Y-19324D01*
X68281Y-19303D01*
X68297Y-19284D01*
X68315Y-19268D01*
X68336Y-19256D01*
X68360Y-19248D01*
X68384Y-19246D01*
X68407Y-19247D01*
X68431Y-19254D01*
X68452Y-19265D01*
X68472Y-19280D01*
X68488Y-19298D01*
X68500Y-19320D01*
X68507Y-19343D01*
X68510Y-19367D01*
X68511Y-19370D01*
X68570Y-22657D02*
X68567Y-22681D01*
X68560Y-22704D01*
X68549Y-22726D01*
X68533Y-22745D01*
X68514Y-22760D01*
X68493Y-22772D01*
X68470Y-22779D01*
X68445Y-22781D01*
X68422Y-22779D01*
X68399Y-22772D01*
X68377Y-22761D01*
X68358Y-22746D01*
X68342Y-22727D01*
X68331Y-22706D01*
X68323Y-22682D01*
X68321Y-22658D01*
X68323Y-22635D01*
X68329Y-22611D01*
X68340Y-22590D01*
X68356Y-22571D01*
X68374Y-22555D01*
X68395Y-22543D01*
X68419Y-22535D01*
X68443Y-22533D01*
X68466Y-22534D01*
X68490Y-22541D01*
X68511Y-22552D01*
X68531Y-22567D01*
X68547Y-22585D01*
X68559Y-22607D01*
X68566Y-22630D01*
X68569Y-22654D01*
X68570Y-22657D01*
X68708Y-21476D02*
X68705Y-21500D01*
X68698Y-21523D01*
X68687Y-21545D01*
X68671Y-21564D01*
X68652Y-21579D01*
X68631Y-21591D01*
X68608Y-21598D01*
X68583Y-21600D01*
X68560Y-21598D01*
X68537Y-21591D01*
X68515Y-21580D01*
X68496Y-21565D01*
X68480Y-21546D01*
X68469Y-21525D01*
X68461Y-21501D01*
X68459Y-21477D01*
X68461Y-21454D01*
X68467Y-21430D01*
X68478Y-21409D01*
X68494Y-21390D01*
X68512Y-21374D01*
X68533Y-21362D01*
X68557Y-21354D01*
X68581Y-21352D01*
X68604Y-21353D01*
X68628Y-21360D01*
X68649Y-21371D01*
X68669Y-21386D01*
X68685Y-21404D01*
X68697Y-21426D01*
X68704Y-21449D01*
X68707Y-21473D01*
X68708Y-21476D01*
G54D12*
X41741Y-40757D02*
X41741Y-39957D01*
X41932Y-39957D01*
X42046Y-39995D01*
X42122Y-40071D01*
X42161Y-40147D01*
X42199Y-40300D01*
X42199Y-40414D01*
X42161Y-40566D01*
X42122Y-40643D01*
X42046Y-40719D01*
X41932Y-40757D01*
X41741Y-40757D01*
X42541Y-40757D02*
X42541Y-40223D01*
X42541Y-40376D02*
X42580Y-40300D01*
X42618Y-40262D01*
X42694Y-40223D01*
X42770Y-40223D01*
X43036Y-40757D02*
X43036Y-40223D01*
X43036Y-39957D02*
X42998Y-39995D01*
X43036Y-40033D01*
X43075Y-39995D01*
X43036Y-39957D01*
X43036Y-40033D01*
X43532Y-40757D02*
X43456Y-40719D01*
X43417Y-40643D01*
X43417Y-39957D01*
X43951Y-40757D02*
X43875Y-40719D01*
X43836Y-40643D01*
X43836Y-39957D01*
X44865Y-40757D02*
X44865Y-39957D01*
X45132Y-40528D01*
X45399Y-39957D01*
X45399Y-40757D01*
X46122Y-40757D02*
X46122Y-40338D01*
X46084Y-40262D01*
X46008Y-40223D01*
X45856Y-40223D01*
X45779Y-40262D01*
X46122Y-40719D02*
X46046Y-40757D01*
X45856Y-40757D01*
X45779Y-40719D01*
X45741Y-40643D01*
X45741Y-40566D01*
X45779Y-40490D01*
X45856Y-40452D01*
X46046Y-40452D01*
X46122Y-40414D01*
X46503Y-40223D02*
X46503Y-41023D01*
X46503Y-40262D02*
X46580Y-40223D01*
X46732Y-40223D01*
X46808Y-40262D01*
X46846Y-40300D01*
X46884Y-40376D01*
X46884Y-40604D01*
X46846Y-40681D01*
X46808Y-40719D01*
X46732Y-40757D01*
X46580Y-40757D01*
X46503Y-40719D01*
X47227Y-40681D02*
X47266Y-40719D01*
X47227Y-40757D01*
X47189Y-40719D01*
X47227Y-40681D01*
X47227Y-40757D01*
X47227Y-40262D02*
X47266Y-40300D01*
X47227Y-40338D01*
X47189Y-40300D01*
X47227Y-40262D01*
X47227Y-40338D01*
X41233Y-42054D02*
X41351Y-42172D01*
X41351Y-42054D02*
X41233Y-42172D01*
X41894Y-41637D02*
X41970Y-41637D01*
X42046Y-41675D01*
X42084Y-41713D01*
X42122Y-41789D01*
X42161Y-41942D01*
X42161Y-42132D01*
X42122Y-42284D01*
X42084Y-42361D01*
X42046Y-42399D01*
X41970Y-42437D01*
X41894Y-42437D01*
X41818Y-42399D01*
X41780Y-42361D01*
X41741Y-42284D01*
X41703Y-42132D01*
X41703Y-41942D01*
X41741Y-41789D01*
X41780Y-41713D01*
X41818Y-41675D01*
X41894Y-41637D01*
X42503Y-42361D02*
X42542Y-42399D01*
X42503Y-42437D01*
X42465Y-42399D01*
X42503Y-42361D01*
X42503Y-42437D01*
X42808Y-41637D02*
X43304Y-41637D01*
X43037Y-41942D01*
X43151Y-41942D01*
X43227Y-41980D01*
X43265Y-42018D01*
X43304Y-42094D01*
X43304Y-42284D01*
X43265Y-42361D01*
X43227Y-42399D01*
X43151Y-42437D01*
X42923Y-42437D01*
X42846Y-42399D01*
X42808Y-42361D01*
X43799Y-41637D02*
X43875Y-41637D01*
X43951Y-41675D01*
X43989Y-41713D01*
X44027Y-41789D01*
X44066Y-41942D01*
X44066Y-42132D01*
X44027Y-42284D01*
X43989Y-42361D01*
X43951Y-42399D01*
X43875Y-42437D01*
X43799Y-42437D01*
X43723Y-42399D01*
X43685Y-42361D01*
X43646Y-42284D01*
X43608Y-42132D01*
X43608Y-41942D01*
X43646Y-41789D01*
X43685Y-41713D01*
X43723Y-41675D01*
X43799Y-41637D01*
X44408Y-42437D02*
X44408Y-41903D01*
X44408Y-41980D02*
X44447Y-41942D01*
X44523Y-41903D01*
X44637Y-41903D01*
X44713Y-41942D01*
X44751Y-42018D01*
X44751Y-42437D01*
X44751Y-42018D02*
X44789Y-41942D01*
X44866Y-41903D01*
X44980Y-41903D01*
X45056Y-41942D01*
X45094Y-42018D01*
X45094Y-42437D01*
X45475Y-42437D02*
X45475Y-41903D01*
X45475Y-41980D02*
X45514Y-41942D01*
X45590Y-41903D01*
X45704Y-41903D01*
X45780Y-41942D01*
X45818Y-42018D01*
X45818Y-42437D01*
X45818Y-42018D02*
X45856Y-41942D01*
X45933Y-41903D01*
X46047Y-41903D01*
X46123Y-41942D01*
X46161Y-42018D01*
X46161Y-42437D01*
X47724Y-41599D02*
X47038Y-42627D01*
X48753Y-41637D02*
X48829Y-41637D01*
X48905Y-41675D01*
X48943Y-41713D01*
X48981Y-41789D01*
X49020Y-41942D01*
X49020Y-42132D01*
X48981Y-42284D01*
X48943Y-42361D01*
X48905Y-42399D01*
X48829Y-42437D01*
X48753Y-42437D01*
X48677Y-42399D01*
X48639Y-42361D01*
X48600Y-42284D01*
X48562Y-42132D01*
X48562Y-41942D01*
X48600Y-41789D01*
X48639Y-41713D01*
X48677Y-41675D01*
X48753Y-41637D01*
X49362Y-42361D02*
X49401Y-42399D01*
X49362Y-42437D01*
X49324Y-42399D01*
X49362Y-42361D01*
X49362Y-42437D01*
X49896Y-41637D02*
X49972Y-41637D01*
X50048Y-41675D01*
X50086Y-41713D01*
X50124Y-41789D01*
X50163Y-41942D01*
X50163Y-42132D01*
X50124Y-42284D01*
X50086Y-42361D01*
X50048Y-42399D01*
X49972Y-42437D01*
X49896Y-42437D01*
X49820Y-42399D01*
X49782Y-42361D01*
X49743Y-42284D01*
X49705Y-42132D01*
X49705Y-41942D01*
X49743Y-41789D01*
X49782Y-41713D01*
X49820Y-41675D01*
X49896Y-41637D01*
X50925Y-42437D02*
X50467Y-42437D01*
X50696Y-42437D02*
X50696Y-41637D01*
X50620Y-41751D01*
X50544Y-41827D01*
X50467Y-41865D01*
X51229Y-41713D02*
X51267Y-41675D01*
X51344Y-41637D01*
X51534Y-41637D01*
X51610Y-41675D01*
X51648Y-41713D01*
X51687Y-41789D01*
X51687Y-41865D01*
X51648Y-41980D01*
X51191Y-42437D01*
X51687Y-42437D01*
X51991Y-41637D02*
X51991Y-41789D01*
X52296Y-41637D02*
X52296Y-41789D01*
X53478Y-42742D02*
X53440Y-42703D01*
X53364Y-42589D01*
X53326Y-42513D01*
X53288Y-42399D01*
X53249Y-42208D01*
X53249Y-42056D01*
X53288Y-41865D01*
X53326Y-41751D01*
X53364Y-41675D01*
X53440Y-41561D01*
X53478Y-41523D01*
X54202Y-42437D02*
X53744Y-42437D01*
X53973Y-42437D02*
X53973Y-41637D01*
X53897Y-41751D01*
X53821Y-41827D01*
X53744Y-41865D01*
X54506Y-41713D02*
X54544Y-41675D01*
X54621Y-41637D01*
X54811Y-41637D01*
X54887Y-41675D01*
X54925Y-41713D01*
X54964Y-41789D01*
X54964Y-41865D01*
X54925Y-41980D01*
X54468Y-42437D01*
X54964Y-42437D01*
X55687Y-41637D02*
X55306Y-41637D01*
X55268Y-42018D01*
X55306Y-41980D01*
X55383Y-41942D01*
X55573Y-41942D01*
X55649Y-41980D01*
X55687Y-42018D01*
X55726Y-42094D01*
X55726Y-42284D01*
X55687Y-42361D01*
X55649Y-42399D01*
X55573Y-42437D01*
X55383Y-42437D01*
X55306Y-42399D01*
X55268Y-42361D01*
X56678Y-42437D02*
X56678Y-41637D01*
X57021Y-42437D02*
X57021Y-42018D01*
X56983Y-41942D01*
X56907Y-41903D01*
X56793Y-41903D01*
X56717Y-41942D01*
X56678Y-41980D01*
X57517Y-42437D02*
X57441Y-42399D01*
X57402Y-42361D01*
X57364Y-42284D01*
X57364Y-42056D01*
X57402Y-41980D01*
X57441Y-41942D01*
X57517Y-41903D01*
X57631Y-41903D01*
X57707Y-41942D01*
X57745Y-41980D01*
X57783Y-42056D01*
X57783Y-42284D01*
X57745Y-42361D01*
X57707Y-42399D01*
X57631Y-42437D01*
X57517Y-42437D01*
X58241Y-42437D02*
X58165Y-42399D01*
X58126Y-42323D01*
X58126Y-41637D01*
X58850Y-42399D02*
X58774Y-42437D01*
X58622Y-42437D01*
X58545Y-42399D01*
X58507Y-42323D01*
X58507Y-42018D01*
X58545Y-41942D01*
X58622Y-41903D01*
X58774Y-41903D01*
X58850Y-41942D01*
X58888Y-42018D01*
X58888Y-42094D01*
X58507Y-42170D01*
X59193Y-42399D02*
X59270Y-42437D01*
X59422Y-42437D01*
X59498Y-42399D01*
X59536Y-42323D01*
X59536Y-42284D01*
X59498Y-42208D01*
X59422Y-42170D01*
X59308Y-42170D01*
X59231Y-42132D01*
X59193Y-42056D01*
X59193Y-42018D01*
X59231Y-41942D01*
X59308Y-41903D01*
X59422Y-41903D01*
X59498Y-41942D01*
X59803Y-42742D02*
X59841Y-42703D01*
X59918Y-42589D01*
X59956Y-42513D01*
X59994Y-42399D01*
X60032Y-42208D01*
X60032Y-42056D01*
X59994Y-41865D01*
X59956Y-41751D01*
X59918Y-41675D01*
X59841Y-41561D01*
X59803Y-41523D01*
G54D10*
X41351Y-43168D02*
X41348Y-43192D01*
X41341Y-43215D01*
X41330Y-43237D01*
X41314Y-43256D01*
X41295Y-43271D01*
X41274Y-43283D01*
X41251Y-43290D01*
X41226Y-43292D01*
X41203Y-43290D01*
X41180Y-43283D01*
X41158Y-43272D01*
X41139Y-43257D01*
X41123Y-43238D01*
X41112Y-43217D01*
X41104Y-43193D01*
X41102Y-43169D01*
X41104Y-43146D01*
X41110Y-43122D01*
X41121Y-43101D01*
X41137Y-43082D01*
X41155Y-43066D01*
X41176Y-43054D01*
X41200Y-43046D01*
X41224Y-43044D01*
X41247Y-43045D01*
X41271Y-43052D01*
X41292Y-43063D01*
X41312Y-43078D01*
X41328Y-43096D01*
X41340Y-43118D01*
X41347Y-43141D01*
X41350Y-43165D01*
X41351Y-43168D01*
G54D12*
X41894Y-42692D02*
X41970Y-42692D01*
X42046Y-42730D01*
X42084Y-42768D01*
X42122Y-42844D01*
X42161Y-42997D01*
X42161Y-43187D01*
X42122Y-43339D01*
X42084Y-43416D01*
X42046Y-43454D01*
X41970Y-43492D01*
X41894Y-43492D01*
X41818Y-43454D01*
X41780Y-43416D01*
X41741Y-43339D01*
X41703Y-43187D01*
X41703Y-42997D01*
X41741Y-42844D01*
X41780Y-42768D01*
X41818Y-42730D01*
X41894Y-42692D01*
X42503Y-43416D02*
X42542Y-43454D01*
X42503Y-43492D01*
X42465Y-43454D01*
X42503Y-43416D01*
X42503Y-43492D01*
X43227Y-42692D02*
X43075Y-42692D01*
X42999Y-42730D01*
X42961Y-42768D01*
X42884Y-42882D01*
X42846Y-43035D01*
X42846Y-43339D01*
X42884Y-43416D01*
X42923Y-43454D01*
X42999Y-43492D01*
X43151Y-43492D01*
X43227Y-43454D01*
X43265Y-43416D01*
X43304Y-43339D01*
X43304Y-43149D01*
X43265Y-43073D01*
X43227Y-43035D01*
X43151Y-42997D01*
X42999Y-42997D01*
X42923Y-43035D01*
X42884Y-43073D01*
X42846Y-43149D01*
X43989Y-42958D02*
X43989Y-43492D01*
X43799Y-42654D02*
X43608Y-43225D01*
X44104Y-43225D01*
X44408Y-43492D02*
X44408Y-42958D01*
X44408Y-43035D02*
X44447Y-42997D01*
X44523Y-42958D01*
X44637Y-42958D01*
X44713Y-42997D01*
X44751Y-43073D01*
X44751Y-43492D01*
X44751Y-43073D02*
X44789Y-42997D01*
X44866Y-42958D01*
X44980Y-42958D01*
X45056Y-42997D01*
X45094Y-43073D01*
X45094Y-43492D01*
X45475Y-43492D02*
X45475Y-42958D01*
X45475Y-43035D02*
X45514Y-42997D01*
X45590Y-42958D01*
X45704Y-42958D01*
X45780Y-42997D01*
X45818Y-43073D01*
X45818Y-43492D01*
X45818Y-43073D02*
X45856Y-42997D01*
X45933Y-42958D01*
X46047Y-42958D01*
X46123Y-42997D01*
X46161Y-43073D01*
X46161Y-43492D01*
X47724Y-42654D02*
X47038Y-43682D01*
X48753Y-42692D02*
X48829Y-42692D01*
X48905Y-42730D01*
X48943Y-42768D01*
X48981Y-42844D01*
X49020Y-42997D01*
X49020Y-43187D01*
X48981Y-43339D01*
X48943Y-43416D01*
X48905Y-43454D01*
X48829Y-43492D01*
X48753Y-43492D01*
X48677Y-43454D01*
X48639Y-43416D01*
X48600Y-43339D01*
X48562Y-43187D01*
X48562Y-42997D01*
X48600Y-42844D01*
X48639Y-42768D01*
X48677Y-42730D01*
X48753Y-42692D01*
X49362Y-43416D02*
X49401Y-43454D01*
X49362Y-43492D01*
X49324Y-43454D01*
X49362Y-43416D01*
X49362Y-43492D01*
X49896Y-42692D02*
X49972Y-42692D01*
X50048Y-42730D01*
X50086Y-42768D01*
X50124Y-42844D01*
X50163Y-42997D01*
X50163Y-43187D01*
X50124Y-43339D01*
X50086Y-43416D01*
X50048Y-43454D01*
X49972Y-43492D01*
X49896Y-43492D01*
X49820Y-43454D01*
X49782Y-43416D01*
X49743Y-43339D01*
X49705Y-43187D01*
X49705Y-42997D01*
X49743Y-42844D01*
X49782Y-42768D01*
X49820Y-42730D01*
X49896Y-42692D01*
X50467Y-42768D02*
X50505Y-42730D01*
X50582Y-42692D01*
X50772Y-42692D01*
X50848Y-42730D01*
X50886Y-42768D01*
X50925Y-42844D01*
X50925Y-42920D01*
X50886Y-43035D01*
X50429Y-43492D01*
X50925Y-43492D01*
X51648Y-42692D02*
X51267Y-42692D01*
X51229Y-43073D01*
X51267Y-43035D01*
X51344Y-42997D01*
X51534Y-42997D01*
X51610Y-43035D01*
X51648Y-43073D01*
X51687Y-43149D01*
X51687Y-43339D01*
X51648Y-43416D01*
X51610Y-43454D01*
X51534Y-43492D01*
X51344Y-43492D01*
X51267Y-43454D01*
X51229Y-43416D01*
X51991Y-42692D02*
X51991Y-42844D01*
X52296Y-42692D02*
X52296Y-42844D01*
X53478Y-43797D02*
X53440Y-43758D01*
X53364Y-43644D01*
X53326Y-43568D01*
X53288Y-43454D01*
X53249Y-43263D01*
X53249Y-43111D01*
X53288Y-42920D01*
X53326Y-42806D01*
X53364Y-42730D01*
X53440Y-42616D01*
X53478Y-42578D01*
X54202Y-43492D02*
X53744Y-43492D01*
X53973Y-43492D02*
X53973Y-42692D01*
X53897Y-42806D01*
X53821Y-42882D01*
X53744Y-42920D01*
X54887Y-42692D02*
X54735Y-42692D01*
X54659Y-42730D01*
X54621Y-42768D01*
X54544Y-42882D01*
X54506Y-43035D01*
X54506Y-43339D01*
X54544Y-43416D01*
X54583Y-43454D01*
X54659Y-43492D01*
X54811Y-43492D01*
X54887Y-43454D01*
X54925Y-43416D01*
X54964Y-43339D01*
X54964Y-43149D01*
X54925Y-43073D01*
X54887Y-43035D01*
X54811Y-42997D01*
X54659Y-42997D01*
X54583Y-43035D01*
X54544Y-43073D01*
X54506Y-43149D01*
X55916Y-43492D02*
X55916Y-42692D01*
X56259Y-43492D02*
X56259Y-43073D01*
X56221Y-42997D01*
X56145Y-42958D01*
X56031Y-42958D01*
X55955Y-42997D01*
X55916Y-43035D01*
X56755Y-43492D02*
X56679Y-43454D01*
X56640Y-43416D01*
X56602Y-43339D01*
X56602Y-43111D01*
X56640Y-43035D01*
X56679Y-42997D01*
X56755Y-42958D01*
X56869Y-42958D01*
X56945Y-42997D01*
X56983Y-43035D01*
X57021Y-43111D01*
X57021Y-43339D01*
X56983Y-43416D01*
X56945Y-43454D01*
X56869Y-43492D01*
X56755Y-43492D01*
X57479Y-43492D02*
X57403Y-43454D01*
X57364Y-43378D01*
X57364Y-42692D01*
X58088Y-43454D02*
X58012Y-43492D01*
X57860Y-43492D01*
X57783Y-43454D01*
X57745Y-43378D01*
X57745Y-43073D01*
X57783Y-42997D01*
X57860Y-42958D01*
X58012Y-42958D01*
X58088Y-42997D01*
X58126Y-43073D01*
X58126Y-43149D01*
X57745Y-43225D01*
X58431Y-43454D02*
X58508Y-43492D01*
X58660Y-43492D01*
X58736Y-43454D01*
X58774Y-43378D01*
X58774Y-43339D01*
X58736Y-43263D01*
X58660Y-43225D01*
X58546Y-43225D01*
X58469Y-43187D01*
X58431Y-43111D01*
X58431Y-43073D01*
X58469Y-42997D01*
X58546Y-42958D01*
X58660Y-42958D01*
X58736Y-42997D01*
X59041Y-43797D02*
X59079Y-43758D01*
X59156Y-43644D01*
X59194Y-43568D01*
X59232Y-43454D01*
X59270Y-43263D01*
X59270Y-43111D01*
X59232Y-42920D01*
X59194Y-42806D01*
X59156Y-42730D01*
X59079Y-42616D01*
X59041Y-42578D01*
M02*
