G04 (created by PCBNEW (2013-03-19 BZR 4004)-stable) date 17.12.2013 14:30:56*
%MOIN*%
G04 Gerber Fmt 3.4, Leading zero omitted, Abs format*
%FSLAX34Y34*%
G01*
G70*
G90*
G04 APERTURE LIST*
%ADD10C,2.3622e-006*%
%ADD11C,0.015*%
%ADD12C,0.012*%
%ADD13C,0.008*%
%ADD14C,0.005*%
%ADD15C,0.01*%
%ADD16C,0.0024*%
%ADD17C,0.0108*%
G04 APERTURE END LIST*
G54D10*
G54D11*
X84474Y-26879D02*
X81274Y-26879D01*
X81274Y-26879D02*
X81274Y-25679D01*
X81274Y-25679D02*
X84474Y-25679D01*
X84474Y-25679D02*
X84474Y-26879D01*
X54035Y-21063D02*
X54035Y-17125D01*
X54035Y-17125D02*
X55019Y-17125D01*
X55019Y-17125D02*
X55019Y-21063D01*
X55019Y-21063D02*
X54035Y-21063D01*
X72933Y-27067D02*
X72933Y-23129D01*
X72933Y-23129D02*
X73917Y-23129D01*
X73917Y-23129D02*
X73917Y-27067D01*
X73917Y-27067D02*
X72933Y-27067D01*
G54D12*
X60551Y-13834D02*
X40551Y-13834D01*
X60551Y-11834D02*
X40551Y-11834D01*
X60551Y-11834D02*
X60551Y-13834D01*
X40551Y-11834D02*
X40551Y-13834D01*
G54D13*
X66551Y-13834D02*
X79551Y-13834D01*
X79551Y-11834D02*
X66551Y-11834D01*
X66551Y-11834D02*
X66551Y-13834D01*
X79551Y-13834D02*
X79551Y-11834D01*
G54D14*
X81757Y-25368D02*
X81757Y-24868D01*
X82257Y-25368D02*
X82257Y-24878D01*
X82407Y-25368D02*
X81607Y-25368D01*
X81607Y-25368D02*
X81607Y-24868D01*
X81607Y-24868D02*
X82407Y-24868D01*
X82407Y-24868D02*
X82407Y-25368D01*
G54D11*
X67617Y-32775D02*
X67421Y-32775D01*
X67421Y-32775D02*
X67421Y-29625D01*
X67421Y-29625D02*
X67617Y-29625D01*
X68995Y-29625D02*
X68995Y-32775D01*
X68995Y-32775D02*
X67617Y-32775D01*
X67421Y-32775D02*
X67421Y-29625D01*
X67617Y-29625D02*
X68995Y-29625D01*
X65649Y-32775D02*
X65453Y-32775D01*
X65453Y-32775D02*
X65453Y-29625D01*
X65453Y-29625D02*
X65649Y-29625D01*
X67027Y-29625D02*
X67027Y-32775D01*
X67027Y-32775D02*
X65649Y-32775D01*
X65453Y-32775D02*
X65453Y-29625D01*
X65649Y-29625D02*
X67027Y-29625D01*
X69586Y-32775D02*
X69390Y-32775D01*
X69390Y-32775D02*
X69390Y-29625D01*
X69390Y-29625D02*
X69586Y-29625D01*
X70964Y-29625D02*
X70964Y-32775D01*
X70964Y-32775D02*
X69586Y-32775D01*
X69390Y-32775D02*
X69390Y-29625D01*
X69586Y-29625D02*
X70964Y-29625D01*
X71554Y-32775D02*
X71358Y-32775D01*
X71358Y-32775D02*
X71358Y-29625D01*
X71358Y-29625D02*
X71554Y-29625D01*
X72932Y-29625D02*
X72932Y-32775D01*
X72932Y-32775D02*
X71554Y-32775D01*
X71358Y-32775D02*
X71358Y-29625D01*
X71554Y-29625D02*
X72932Y-29625D01*
X69577Y-36837D02*
X69577Y-33437D01*
X69577Y-33437D02*
X70777Y-33437D01*
X70777Y-33437D02*
X70777Y-36837D01*
X70777Y-36837D02*
X69577Y-36837D01*
X81800Y-28221D02*
X81800Y-31621D01*
X81800Y-31621D02*
X80600Y-31621D01*
X80600Y-31621D02*
X80600Y-28221D01*
X80600Y-28221D02*
X81800Y-28221D01*
X71545Y-36837D02*
X71545Y-33437D01*
X71545Y-33437D02*
X72745Y-33437D01*
X72745Y-33437D02*
X72745Y-36837D01*
X72745Y-36837D02*
X71545Y-36837D01*
X65640Y-36837D02*
X65640Y-33437D01*
X65640Y-33437D02*
X66840Y-33437D01*
X66840Y-33437D02*
X66840Y-36837D01*
X66840Y-36837D02*
X65640Y-36837D01*
X67608Y-36837D02*
X67608Y-33437D01*
X67608Y-33437D02*
X68808Y-33437D01*
X68808Y-33437D02*
X68808Y-36837D01*
X68808Y-36837D02*
X67608Y-36837D01*
X76082Y-23031D02*
X76082Y-26969D01*
X76082Y-26969D02*
X75098Y-26969D01*
X75098Y-26969D02*
X75098Y-23031D01*
X75098Y-23031D02*
X76082Y-23031D01*
X55511Y-21063D02*
X55511Y-17125D01*
X55511Y-17125D02*
X56495Y-17125D01*
X56495Y-17125D02*
X56495Y-21063D01*
X56495Y-21063D02*
X55511Y-21063D01*
X78444Y-23031D02*
X78444Y-26969D01*
X78444Y-26969D02*
X77460Y-26969D01*
X77460Y-26969D02*
X77460Y-23031D01*
X77460Y-23031D02*
X78444Y-23031D01*
X41830Y-22145D02*
X41830Y-26083D01*
X41830Y-26083D02*
X40846Y-26083D01*
X40846Y-26083D02*
X40846Y-22145D01*
X40846Y-22145D02*
X41830Y-22145D01*
X44192Y-22145D02*
X44192Y-26083D01*
X44192Y-26083D02*
X43208Y-26083D01*
X43208Y-26083D02*
X43208Y-22145D01*
X43208Y-22145D02*
X44192Y-22145D01*
X56988Y-21063D02*
X56988Y-17125D01*
X56988Y-17125D02*
X57972Y-17125D01*
X57972Y-17125D02*
X57972Y-21063D01*
X57972Y-21063D02*
X56988Y-21063D01*
G54D12*
X75590Y-28011D02*
X75590Y-28411D01*
X75590Y-33011D02*
X75590Y-32611D01*
X76090Y-32611D02*
X75090Y-32611D01*
X75090Y-32611D02*
X75090Y-28411D01*
X75090Y-28411D02*
X76090Y-28411D01*
X76090Y-28411D02*
X76090Y-32611D01*
X75890Y-28411D02*
X76090Y-28611D01*
X77952Y-28011D02*
X77952Y-28411D01*
X77952Y-33011D02*
X77952Y-32611D01*
X78452Y-32611D02*
X77452Y-32611D01*
X77452Y-32611D02*
X77452Y-28411D01*
X77452Y-28411D02*
X78452Y-28411D01*
X78452Y-28411D02*
X78452Y-32611D01*
X78252Y-28411D02*
X78452Y-28611D01*
X41338Y-27125D02*
X41338Y-27525D01*
X41338Y-32125D02*
X41338Y-31725D01*
X41838Y-31725D02*
X40838Y-31725D01*
X40838Y-31725D02*
X40838Y-27525D01*
X40838Y-27525D02*
X41838Y-27525D01*
X41838Y-27525D02*
X41838Y-31725D01*
X41638Y-27525D02*
X41838Y-27725D01*
X43700Y-27125D02*
X43700Y-27525D01*
X43700Y-32125D02*
X43700Y-31725D01*
X44200Y-31725D02*
X43200Y-31725D01*
X43200Y-31725D02*
X43200Y-27525D01*
X43200Y-27525D02*
X44200Y-27525D01*
X44200Y-27525D02*
X44200Y-31725D01*
X44000Y-27525D02*
X44200Y-27725D01*
X89429Y-46078D02*
X69429Y-46078D01*
X89429Y-44078D02*
X69429Y-44078D01*
X89429Y-44078D02*
X89429Y-46078D01*
X69429Y-44078D02*
X69429Y-46078D01*
X30771Y-36496D02*
X30771Y-16496D01*
X32771Y-36496D02*
X32771Y-16496D01*
X32771Y-36496D02*
X30771Y-36496D01*
X32771Y-16496D02*
X30771Y-16496D01*
X58425Y-46078D02*
X38425Y-46078D01*
X58425Y-44078D02*
X38425Y-44078D01*
X58425Y-44078D02*
X58425Y-46078D01*
X38425Y-44078D02*
X38425Y-46078D01*
G54D14*
X39907Y-29375D02*
X40407Y-29375D01*
X39907Y-29875D02*
X40397Y-29875D01*
X39907Y-30025D02*
X39907Y-29225D01*
X39907Y-29225D02*
X40407Y-29225D01*
X40407Y-29225D02*
X40407Y-30025D01*
X40407Y-30025D02*
X39907Y-30025D01*
X76521Y-30261D02*
X77021Y-30261D01*
X76521Y-30761D02*
X77011Y-30761D01*
X76521Y-30911D02*
X76521Y-30111D01*
X76521Y-30111D02*
X77021Y-30111D01*
X77021Y-30111D02*
X77021Y-30911D01*
X77021Y-30911D02*
X76521Y-30911D01*
X74159Y-30261D02*
X74659Y-30261D01*
X74159Y-30761D02*
X74649Y-30761D01*
X74159Y-30911D02*
X74159Y-30111D01*
X74159Y-30111D02*
X74659Y-30111D01*
X74659Y-30111D02*
X74659Y-30911D01*
X74659Y-30911D02*
X74159Y-30911D01*
X42269Y-29375D02*
X42769Y-29375D01*
X42269Y-29875D02*
X42759Y-29875D01*
X42269Y-30025D02*
X42269Y-29225D01*
X42269Y-29225D02*
X42769Y-29225D01*
X42769Y-29225D02*
X42769Y-30025D01*
X42769Y-30025D02*
X42269Y-30025D01*
G54D11*
X90881Y-18389D02*
X91381Y-18389D01*
X91381Y-18389D02*
X91381Y-20389D01*
X91381Y-20389D02*
X90881Y-20389D01*
X81881Y-17889D02*
X81881Y-20889D01*
X81881Y-20889D02*
X90881Y-20889D01*
X90881Y-20889D02*
X90881Y-17889D01*
X90881Y-17889D02*
X81881Y-17889D01*
X49990Y-29062D02*
X49990Y-25662D01*
X49990Y-25662D02*
X51190Y-25662D01*
X51190Y-25662D02*
X51190Y-29062D01*
X51190Y-29062D02*
X49990Y-29062D01*
X48237Y-25662D02*
X48237Y-29062D01*
X48237Y-29062D02*
X47037Y-29062D01*
X47037Y-29062D02*
X47037Y-25662D01*
X47037Y-25662D02*
X48237Y-25662D01*
X53946Y-25662D02*
X53946Y-29062D01*
X53946Y-29062D02*
X52746Y-29062D01*
X52746Y-29062D02*
X52746Y-25662D01*
X52746Y-25662D02*
X53946Y-25662D01*
X59359Y-25662D02*
X59359Y-29062D01*
X59359Y-29062D02*
X58159Y-29062D01*
X58159Y-29062D02*
X58159Y-25662D01*
X58159Y-25662D02*
X59359Y-25662D01*
X56781Y-29062D02*
X56781Y-25662D01*
X56781Y-25662D02*
X57981Y-25662D01*
X57981Y-25662D02*
X57981Y-29062D01*
X57981Y-29062D02*
X56781Y-29062D01*
X56702Y-25662D02*
X56702Y-29062D01*
X56702Y-29062D02*
X55502Y-29062D01*
X55502Y-29062D02*
X55502Y-25662D01*
X55502Y-25662D02*
X56702Y-25662D01*
X54124Y-29062D02*
X54124Y-25662D01*
X54124Y-25662D02*
X55324Y-25662D01*
X55324Y-25662D02*
X55324Y-29062D01*
X55324Y-29062D02*
X54124Y-29062D01*
X46761Y-25662D02*
X46761Y-29062D01*
X46761Y-29062D02*
X45561Y-29062D01*
X45561Y-29062D02*
X45561Y-25662D01*
X45561Y-25662D02*
X46761Y-25662D01*
X62115Y-25662D02*
X62115Y-29062D01*
X62115Y-29062D02*
X60915Y-29062D01*
X60915Y-29062D02*
X60915Y-25662D01*
X60915Y-25662D02*
X62115Y-25662D01*
X63770Y-29062D02*
X63770Y-25662D01*
X63770Y-25662D02*
X64970Y-25662D01*
X64970Y-25662D02*
X64970Y-29062D01*
X64970Y-29062D02*
X63770Y-29062D01*
X62392Y-29062D02*
X62392Y-25662D01*
X62392Y-25662D02*
X63592Y-25662D01*
X63592Y-25662D02*
X63592Y-29062D01*
X63592Y-29062D02*
X62392Y-29062D01*
X60737Y-25662D02*
X60737Y-29062D01*
X60737Y-29062D02*
X59537Y-29062D01*
X59537Y-29062D02*
X59537Y-25662D01*
X59537Y-25662D02*
X60737Y-25662D01*
X51368Y-29062D02*
X51368Y-25662D01*
X51368Y-25662D02*
X52568Y-25662D01*
X52568Y-25662D02*
X52568Y-29062D01*
X52568Y-29062D02*
X51368Y-29062D01*
X48514Y-29062D02*
X48514Y-25662D01*
X48514Y-25662D02*
X49714Y-25662D01*
X49714Y-25662D02*
X49714Y-29062D01*
X49714Y-29062D02*
X48514Y-29062D01*
X70499Y-28257D02*
X67099Y-28257D01*
X67099Y-28257D02*
X67099Y-27057D01*
X67099Y-27057D02*
X70499Y-27057D01*
X70499Y-27057D02*
X70499Y-28257D01*
X38081Y-28471D02*
X38081Y-25071D01*
X38081Y-25071D02*
X39281Y-25071D01*
X39281Y-25071D02*
X39281Y-28471D01*
X39281Y-28471D02*
X38081Y-28471D01*
X50876Y-20892D02*
X50876Y-17492D01*
X50876Y-17492D02*
X52076Y-17492D01*
X52076Y-17492D02*
X52076Y-20892D01*
X52076Y-20892D02*
X50876Y-20892D01*
X67099Y-38474D02*
X70499Y-38474D01*
X70499Y-38474D02*
X70499Y-39674D01*
X70499Y-39674D02*
X67099Y-39674D01*
X67099Y-39674D02*
X67099Y-38474D01*
X74990Y-37231D02*
X74990Y-33831D01*
X74990Y-33831D02*
X76190Y-33831D01*
X76190Y-33831D02*
X76190Y-37231D01*
X76190Y-37231D02*
X74990Y-37231D01*
X77155Y-37231D02*
X77155Y-33831D01*
X77155Y-33831D02*
X78355Y-33831D01*
X78355Y-33831D02*
X78355Y-37231D01*
X78355Y-37231D02*
X77155Y-37231D01*
X40541Y-36936D02*
X40541Y-33536D01*
X40541Y-33536D02*
X41741Y-33536D01*
X41741Y-33536D02*
X41741Y-36936D01*
X41741Y-36936D02*
X40541Y-36936D01*
X43199Y-36936D02*
X43199Y-33536D01*
X43199Y-33536D02*
X44399Y-33536D01*
X44399Y-33536D02*
X44399Y-36936D01*
X44399Y-36936D02*
X43199Y-36936D01*
X90350Y-34708D02*
X90850Y-34708D01*
X90850Y-34708D02*
X90850Y-36708D01*
X90850Y-36708D02*
X90350Y-36708D01*
X81350Y-34208D02*
X81350Y-37208D01*
X81350Y-37208D02*
X90350Y-37208D01*
X90350Y-37208D02*
X90350Y-34208D01*
X90350Y-34208D02*
X81350Y-34208D01*
X90311Y-37937D02*
X90811Y-37937D01*
X90811Y-37937D02*
X90811Y-39937D01*
X90811Y-39937D02*
X90311Y-39937D01*
X81311Y-37437D02*
X81311Y-40437D01*
X81311Y-40437D02*
X90311Y-40437D01*
X90311Y-40437D02*
X90311Y-37437D01*
X90311Y-37437D02*
X81311Y-37437D01*
X90901Y-22031D02*
X91401Y-22031D01*
X91401Y-22031D02*
X91401Y-24031D01*
X91401Y-24031D02*
X90901Y-24031D01*
X81901Y-21531D02*
X81901Y-24531D01*
X81901Y-24531D02*
X90901Y-24531D01*
X90901Y-24531D02*
X90901Y-21531D01*
X90901Y-21531D02*
X81901Y-21531D01*
G54D12*
X84941Y-26502D02*
X84941Y-25902D01*
X85284Y-26502D01*
X85284Y-25902D01*
X85827Y-26102D02*
X85827Y-26502D01*
X85569Y-26102D02*
X85569Y-26416D01*
X85598Y-26474D01*
X85655Y-26502D01*
X85741Y-26502D01*
X85798Y-26474D01*
X85827Y-26445D01*
X86198Y-26502D02*
X86141Y-26474D01*
X86112Y-26416D01*
X86112Y-25902D01*
X86512Y-26502D02*
X86455Y-26474D01*
X86427Y-26416D01*
X86427Y-25902D01*
X87055Y-26502D02*
X86712Y-26502D01*
X86884Y-26502D02*
X86884Y-25902D01*
X86827Y-25988D01*
X86769Y-26045D01*
X86712Y-26074D01*
X53509Y-21355D02*
X53009Y-21355D01*
X53485Y-21097D02*
X53509Y-21012D01*
X53509Y-20869D01*
X53485Y-20812D01*
X53461Y-20783D01*
X53414Y-20755D01*
X53366Y-20755D01*
X53318Y-20783D01*
X53295Y-20812D01*
X53271Y-20869D01*
X53247Y-20983D01*
X53223Y-21040D01*
X53199Y-21069D01*
X53152Y-21097D01*
X53104Y-21097D01*
X53057Y-21069D01*
X53033Y-21040D01*
X53009Y-20983D01*
X53009Y-20840D01*
X53033Y-20755D01*
X53057Y-20526D02*
X53033Y-20497D01*
X53009Y-20440D01*
X53009Y-20297D01*
X53033Y-20240D01*
X53057Y-20212D01*
X53104Y-20183D01*
X53152Y-20183D01*
X53223Y-20212D01*
X53509Y-20555D01*
X53509Y-20183D01*
X53485Y-19955D02*
X53509Y-19869D01*
X53509Y-19726D01*
X53485Y-19669D01*
X53461Y-19640D01*
X53414Y-19612D01*
X53366Y-19612D01*
X53318Y-19640D01*
X53295Y-19669D01*
X53271Y-19726D01*
X53247Y-19840D01*
X53223Y-19897D01*
X53199Y-19926D01*
X53152Y-19955D01*
X53104Y-19955D01*
X53057Y-19926D01*
X53033Y-19897D01*
X53009Y-19840D01*
X53009Y-19697D01*
X53033Y-19612D01*
X53176Y-19412D02*
X53509Y-19297D01*
X53271Y-19183D01*
X53509Y-19069D01*
X53176Y-18955D01*
X53509Y-18726D02*
X53176Y-18726D01*
X53009Y-18726D02*
X53033Y-18755D01*
X53057Y-18726D01*
X53033Y-18697D01*
X53009Y-18726D01*
X53057Y-18726D01*
X53176Y-18526D02*
X53176Y-18297D01*
X53009Y-18440D02*
X53438Y-18440D01*
X53485Y-18412D01*
X53509Y-18355D01*
X53509Y-18297D01*
X53485Y-17840D02*
X53509Y-17897D01*
X53509Y-18012D01*
X53485Y-18069D01*
X53461Y-18097D01*
X53414Y-18126D01*
X53271Y-18126D01*
X53223Y-18097D01*
X53199Y-18069D01*
X53176Y-18012D01*
X53176Y-17897D01*
X53199Y-17840D01*
X53509Y-17583D02*
X53009Y-17583D01*
X53509Y-17326D02*
X53247Y-17326D01*
X53199Y-17355D01*
X53176Y-17412D01*
X53176Y-17497D01*
X53199Y-17555D01*
X53223Y-17583D01*
X53509Y-16726D02*
X53509Y-17069D01*
X53509Y-16897D02*
X53009Y-16897D01*
X53080Y-16955D01*
X53128Y-17012D01*
X53152Y-17069D01*
X72564Y-27353D02*
X72326Y-27553D01*
X72564Y-27696D02*
X72064Y-27696D01*
X72064Y-27468D01*
X72088Y-27411D01*
X72112Y-27382D01*
X72159Y-27353D01*
X72231Y-27353D01*
X72278Y-27382D01*
X72302Y-27411D01*
X72326Y-27468D01*
X72326Y-27696D01*
X72302Y-26896D02*
X72326Y-26811D01*
X72350Y-26782D01*
X72397Y-26753D01*
X72469Y-26753D01*
X72516Y-26782D01*
X72540Y-26811D01*
X72564Y-26868D01*
X72564Y-27096D01*
X72064Y-27096D01*
X72064Y-26896D01*
X72088Y-26839D01*
X72112Y-26811D01*
X72159Y-26782D01*
X72207Y-26782D01*
X72255Y-26811D01*
X72278Y-26839D01*
X72302Y-26896D01*
X72302Y-27096D01*
X72064Y-26382D02*
X72064Y-26268D01*
X72088Y-26211D01*
X72136Y-26153D01*
X72231Y-26125D01*
X72397Y-26125D01*
X72493Y-26153D01*
X72540Y-26211D01*
X72564Y-26268D01*
X72564Y-26382D01*
X72540Y-26439D01*
X72493Y-26496D01*
X72397Y-26525D01*
X72231Y-26525D01*
X72136Y-26496D01*
X72088Y-26439D01*
X72064Y-26382D01*
X72540Y-25896D02*
X72564Y-25811D01*
X72564Y-25668D01*
X72540Y-25611D01*
X72516Y-25582D01*
X72469Y-25553D01*
X72421Y-25553D01*
X72374Y-25582D01*
X72350Y-25611D01*
X72326Y-25668D01*
X72302Y-25782D01*
X72278Y-25839D01*
X72255Y-25868D01*
X72207Y-25896D01*
X72159Y-25896D01*
X72112Y-25868D01*
X72088Y-25839D01*
X72064Y-25782D01*
X72064Y-25639D01*
X72088Y-25553D01*
X72231Y-25353D02*
X72564Y-25239D01*
X72326Y-25125D01*
X72564Y-25011D01*
X72231Y-24896D01*
X72564Y-24668D02*
X72231Y-24668D01*
X72064Y-24668D02*
X72088Y-24696D01*
X72112Y-24668D01*
X72088Y-24639D01*
X72064Y-24668D01*
X72112Y-24668D01*
X72231Y-24468D02*
X72231Y-24239D01*
X72064Y-24382D02*
X72493Y-24382D01*
X72540Y-24353D01*
X72564Y-24296D01*
X72564Y-24239D01*
X72540Y-23782D02*
X72564Y-23839D01*
X72564Y-23953D01*
X72540Y-24011D01*
X72516Y-24039D01*
X72469Y-24068D01*
X72326Y-24068D01*
X72278Y-24039D01*
X72255Y-24011D01*
X72231Y-23953D01*
X72231Y-23839D01*
X72255Y-23782D01*
X72564Y-23525D02*
X72064Y-23525D01*
X72564Y-23268D02*
X72302Y-23268D01*
X72255Y-23296D01*
X72231Y-23353D01*
X72231Y-23439D01*
X72255Y-23496D01*
X72278Y-23525D01*
X72564Y-22668D02*
X72564Y-23011D01*
X72564Y-22839D02*
X72064Y-22839D01*
X72136Y-22896D01*
X72183Y-22953D01*
X72207Y-23011D01*
G54D15*
X48451Y-11096D02*
X48679Y-11096D01*
X48565Y-11496D02*
X48565Y-11096D01*
X48965Y-11477D02*
X48927Y-11496D01*
X48851Y-11496D01*
X48813Y-11477D01*
X48794Y-11439D01*
X48794Y-11287D01*
X48813Y-11248D01*
X48851Y-11229D01*
X48927Y-11229D01*
X48965Y-11248D01*
X48984Y-11287D01*
X48984Y-11325D01*
X48794Y-11363D01*
X49136Y-11477D02*
X49174Y-11496D01*
X49251Y-11496D01*
X49289Y-11477D01*
X49308Y-11439D01*
X49308Y-11420D01*
X49289Y-11382D01*
X49251Y-11363D01*
X49194Y-11363D01*
X49155Y-11344D01*
X49136Y-11306D01*
X49136Y-11287D01*
X49155Y-11248D01*
X49194Y-11229D01*
X49251Y-11229D01*
X49289Y-11248D01*
X49422Y-11229D02*
X49574Y-11229D01*
X49479Y-11096D02*
X49479Y-11439D01*
X49498Y-11477D01*
X49536Y-11496D01*
X49574Y-11496D01*
X49708Y-11496D02*
X49708Y-11096D01*
X49708Y-11248D02*
X49746Y-11229D01*
X49822Y-11229D01*
X49860Y-11248D01*
X49879Y-11267D01*
X49898Y-11306D01*
X49898Y-11420D01*
X49879Y-11458D01*
X49860Y-11477D01*
X49822Y-11496D01*
X49746Y-11496D01*
X49708Y-11477D01*
X50127Y-11496D02*
X50089Y-11477D01*
X50070Y-11458D01*
X50051Y-11420D01*
X50051Y-11306D01*
X50070Y-11267D01*
X50089Y-11248D01*
X50127Y-11229D01*
X50184Y-11229D01*
X50222Y-11248D01*
X50241Y-11267D01*
X50260Y-11306D01*
X50260Y-11420D01*
X50241Y-11458D01*
X50222Y-11477D01*
X50184Y-11496D01*
X50127Y-11496D01*
X50603Y-11496D02*
X50603Y-11287D01*
X50584Y-11248D01*
X50546Y-11229D01*
X50470Y-11229D01*
X50432Y-11248D01*
X50603Y-11477D02*
X50565Y-11496D01*
X50470Y-11496D01*
X50432Y-11477D01*
X50413Y-11439D01*
X50413Y-11401D01*
X50432Y-11363D01*
X50470Y-11344D01*
X50565Y-11344D01*
X50603Y-11325D01*
X50794Y-11496D02*
X50794Y-11229D01*
X50794Y-11306D02*
X50813Y-11267D01*
X50832Y-11248D01*
X50870Y-11229D01*
X50908Y-11229D01*
X51213Y-11496D02*
X51213Y-11096D01*
X51213Y-11477D02*
X51174Y-11496D01*
X51098Y-11496D01*
X51060Y-11477D01*
X51041Y-11458D01*
X51022Y-11420D01*
X51022Y-11306D01*
X51041Y-11267D01*
X51060Y-11248D01*
X51098Y-11229D01*
X51174Y-11229D01*
X51213Y-11248D01*
X51613Y-11496D02*
X51384Y-11496D01*
X51498Y-11496D02*
X51498Y-11096D01*
X51460Y-11153D01*
X51422Y-11191D01*
X51384Y-11210D01*
G54D13*
X48632Y-14458D02*
X48613Y-14477D01*
X48555Y-14496D01*
X48517Y-14496D01*
X48460Y-14477D01*
X48422Y-14439D01*
X48403Y-14401D01*
X48384Y-14325D01*
X48384Y-14267D01*
X48403Y-14191D01*
X48422Y-14153D01*
X48460Y-14115D01*
X48517Y-14096D01*
X48555Y-14096D01*
X48613Y-14115D01*
X48632Y-14134D01*
X48879Y-14096D02*
X48955Y-14096D01*
X48994Y-14115D01*
X49032Y-14153D01*
X49051Y-14229D01*
X49051Y-14363D01*
X49032Y-14439D01*
X48994Y-14477D01*
X48955Y-14496D01*
X48879Y-14496D01*
X48841Y-14477D01*
X48803Y-14439D01*
X48784Y-14363D01*
X48784Y-14229D01*
X48803Y-14153D01*
X48841Y-14115D01*
X48879Y-14096D01*
X49222Y-14496D02*
X49222Y-14096D01*
X49451Y-14496D01*
X49451Y-14096D01*
X49641Y-14496D02*
X49641Y-14096D01*
X49870Y-14496D01*
X49870Y-14096D01*
X49965Y-14534D02*
X50270Y-14534D01*
X50346Y-14134D02*
X50365Y-14115D01*
X50403Y-14096D01*
X50498Y-14096D01*
X50536Y-14115D01*
X50555Y-14134D01*
X50574Y-14172D01*
X50574Y-14210D01*
X50555Y-14267D01*
X50327Y-14496D01*
X50574Y-14496D01*
X50822Y-14096D02*
X50860Y-14096D01*
X50898Y-14115D01*
X50917Y-14134D01*
X50936Y-14172D01*
X50955Y-14248D01*
X50955Y-14344D01*
X50936Y-14420D01*
X50917Y-14458D01*
X50898Y-14477D01*
X50860Y-14496D01*
X50822Y-14496D01*
X50784Y-14477D01*
X50765Y-14458D01*
X50746Y-14420D01*
X50727Y-14344D01*
X50727Y-14248D01*
X50746Y-14172D01*
X50765Y-14134D01*
X50784Y-14115D01*
X50822Y-14096D01*
X51089Y-14096D02*
X51355Y-14496D01*
X51355Y-14096D02*
X51089Y-14496D01*
X51489Y-14134D02*
X51508Y-14115D01*
X51546Y-14096D01*
X51641Y-14096D01*
X51679Y-14115D01*
X51698Y-14134D01*
X51717Y-14172D01*
X51717Y-14210D01*
X51698Y-14267D01*
X51470Y-14496D01*
X51717Y-14496D01*
X71451Y-11096D02*
X71679Y-11096D01*
X71565Y-11496D02*
X71565Y-11096D01*
X71965Y-11477D02*
X71927Y-11496D01*
X71851Y-11496D01*
X71813Y-11477D01*
X71794Y-11439D01*
X71794Y-11287D01*
X71813Y-11248D01*
X71851Y-11229D01*
X71927Y-11229D01*
X71965Y-11248D01*
X71984Y-11287D01*
X71984Y-11325D01*
X71794Y-11363D01*
X72136Y-11477D02*
X72174Y-11496D01*
X72251Y-11496D01*
X72289Y-11477D01*
X72308Y-11439D01*
X72308Y-11420D01*
X72289Y-11382D01*
X72251Y-11363D01*
X72194Y-11363D01*
X72155Y-11344D01*
X72136Y-11306D01*
X72136Y-11287D01*
X72155Y-11248D01*
X72194Y-11229D01*
X72251Y-11229D01*
X72289Y-11248D01*
X72422Y-11229D02*
X72574Y-11229D01*
X72479Y-11096D02*
X72479Y-11439D01*
X72498Y-11477D01*
X72536Y-11496D01*
X72574Y-11496D01*
X72708Y-11496D02*
X72708Y-11096D01*
X72708Y-11248D02*
X72746Y-11229D01*
X72822Y-11229D01*
X72860Y-11248D01*
X72879Y-11267D01*
X72898Y-11306D01*
X72898Y-11420D01*
X72879Y-11458D01*
X72860Y-11477D01*
X72822Y-11496D01*
X72746Y-11496D01*
X72708Y-11477D01*
X73127Y-11496D02*
X73089Y-11477D01*
X73070Y-11458D01*
X73051Y-11420D01*
X73051Y-11306D01*
X73070Y-11267D01*
X73089Y-11248D01*
X73127Y-11229D01*
X73184Y-11229D01*
X73222Y-11248D01*
X73241Y-11267D01*
X73260Y-11306D01*
X73260Y-11420D01*
X73241Y-11458D01*
X73222Y-11477D01*
X73184Y-11496D01*
X73127Y-11496D01*
X73603Y-11496D02*
X73603Y-11287D01*
X73584Y-11248D01*
X73546Y-11229D01*
X73470Y-11229D01*
X73432Y-11248D01*
X73603Y-11477D02*
X73565Y-11496D01*
X73470Y-11496D01*
X73432Y-11477D01*
X73413Y-11439D01*
X73413Y-11401D01*
X73432Y-11363D01*
X73470Y-11344D01*
X73565Y-11344D01*
X73603Y-11325D01*
X73794Y-11496D02*
X73794Y-11229D01*
X73794Y-11306D02*
X73813Y-11267D01*
X73832Y-11248D01*
X73870Y-11229D01*
X73908Y-11229D01*
X74213Y-11496D02*
X74213Y-11096D01*
X74213Y-11477D02*
X74174Y-11496D01*
X74098Y-11496D01*
X74060Y-11477D01*
X74041Y-11458D01*
X74022Y-11420D01*
X74022Y-11306D01*
X74041Y-11267D01*
X74060Y-11248D01*
X74098Y-11229D01*
X74174Y-11229D01*
X74213Y-11248D01*
X74384Y-11134D02*
X74403Y-11115D01*
X74441Y-11096D01*
X74536Y-11096D01*
X74574Y-11115D01*
X74594Y-11134D01*
X74613Y-11172D01*
X74613Y-11210D01*
X74594Y-11267D01*
X74365Y-11496D01*
X74613Y-11496D01*
X71632Y-14458D02*
X71613Y-14477D01*
X71555Y-14496D01*
X71517Y-14496D01*
X71460Y-14477D01*
X71422Y-14439D01*
X71403Y-14401D01*
X71384Y-14325D01*
X71384Y-14267D01*
X71403Y-14191D01*
X71422Y-14153D01*
X71460Y-14115D01*
X71517Y-14096D01*
X71555Y-14096D01*
X71613Y-14115D01*
X71632Y-14134D01*
X71879Y-14096D02*
X71955Y-14096D01*
X71994Y-14115D01*
X72032Y-14153D01*
X72051Y-14229D01*
X72051Y-14363D01*
X72032Y-14439D01*
X71994Y-14477D01*
X71955Y-14496D01*
X71879Y-14496D01*
X71841Y-14477D01*
X71803Y-14439D01*
X71784Y-14363D01*
X71784Y-14229D01*
X71803Y-14153D01*
X71841Y-14115D01*
X71879Y-14096D01*
X72222Y-14496D02*
X72222Y-14096D01*
X72451Y-14496D01*
X72451Y-14096D01*
X72641Y-14496D02*
X72641Y-14096D01*
X72870Y-14496D01*
X72870Y-14096D01*
X72965Y-14534D02*
X73270Y-14534D01*
X73574Y-14496D02*
X73346Y-14496D01*
X73460Y-14496D02*
X73460Y-14096D01*
X73422Y-14153D01*
X73384Y-14191D01*
X73346Y-14210D01*
X73708Y-14096D02*
X73955Y-14096D01*
X73822Y-14248D01*
X73879Y-14248D01*
X73917Y-14267D01*
X73936Y-14287D01*
X73955Y-14325D01*
X73955Y-14420D01*
X73936Y-14458D01*
X73917Y-14477D01*
X73879Y-14496D01*
X73765Y-14496D01*
X73727Y-14477D01*
X73708Y-14458D01*
X74089Y-14096D02*
X74355Y-14496D01*
X74355Y-14096D02*
X74089Y-14496D01*
X74489Y-14134D02*
X74508Y-14115D01*
X74546Y-14096D01*
X74641Y-14096D01*
X74679Y-14115D01*
X74698Y-14134D01*
X74717Y-14172D01*
X74717Y-14210D01*
X74698Y-14267D01*
X74470Y-14496D01*
X74717Y-14496D01*
G54D15*
X86846Y-12070D02*
X86846Y-11670D01*
X86846Y-11861D02*
X87074Y-11861D01*
X87074Y-12070D02*
X87074Y-11670D01*
X87207Y-11670D02*
X87341Y-12070D01*
X87474Y-11670D01*
X87607Y-12070D02*
X87607Y-11804D01*
X87607Y-11670D02*
X87588Y-11689D01*
X87607Y-11708D01*
X87626Y-11689D01*
X87607Y-11670D01*
X87607Y-11708D01*
X87798Y-11804D02*
X87798Y-12070D01*
X87798Y-11842D02*
X87817Y-11823D01*
X87855Y-11804D01*
X87912Y-11804D01*
X87950Y-11823D01*
X87969Y-11861D01*
X87969Y-12070D01*
X88369Y-12070D02*
X88141Y-12070D01*
X88255Y-12070D02*
X88255Y-11670D01*
X88217Y-11728D01*
X88179Y-11766D01*
X88141Y-11785D01*
G54D16*
X81637Y-25555D02*
X81637Y-25437D01*
X81704Y-25555D01*
X81704Y-25437D01*
X81811Y-25477D02*
X81811Y-25555D01*
X81760Y-25477D02*
X81760Y-25539D01*
X81766Y-25550D01*
X81777Y-25555D01*
X81794Y-25555D01*
X81805Y-25550D01*
X81811Y-25544D01*
X81884Y-25555D02*
X81873Y-25550D01*
X81867Y-25539D01*
X81867Y-25437D01*
X81946Y-25555D02*
X81934Y-25550D01*
X81929Y-25539D01*
X81929Y-25437D01*
X82058Y-25544D02*
X82052Y-25550D01*
X82035Y-25555D01*
X82024Y-25555D01*
X82007Y-25550D01*
X81996Y-25539D01*
X81991Y-25527D01*
X81985Y-25505D01*
X81985Y-25488D01*
X81991Y-25465D01*
X81996Y-25454D01*
X82007Y-25443D01*
X82024Y-25437D01*
X82035Y-25437D01*
X82052Y-25443D01*
X82058Y-25449D01*
X82159Y-25555D02*
X82159Y-25494D01*
X82153Y-25482D01*
X82142Y-25477D01*
X82120Y-25477D01*
X82109Y-25482D01*
X82159Y-25550D02*
X82148Y-25555D01*
X82120Y-25555D01*
X82109Y-25550D01*
X82103Y-25539D01*
X82103Y-25527D01*
X82109Y-25516D01*
X82120Y-25510D01*
X82148Y-25510D01*
X82159Y-25505D01*
X82215Y-25477D02*
X82215Y-25595D01*
X82215Y-25482D02*
X82227Y-25477D01*
X82249Y-25477D01*
X82260Y-25482D01*
X82266Y-25488D01*
X82271Y-25499D01*
X82271Y-25533D01*
X82266Y-25544D01*
X82260Y-25550D01*
X82249Y-25555D01*
X82227Y-25555D01*
X82215Y-25550D01*
X82384Y-25555D02*
X82316Y-25555D01*
X82350Y-25555D02*
X82350Y-25437D01*
X82339Y-25454D01*
X82328Y-25465D01*
X82316Y-25471D01*
G54D14*
X69211Y-32143D02*
X69511Y-32043D01*
X69211Y-31943D01*
X69311Y-31886D02*
X69311Y-31772D01*
X69211Y-31843D02*
X69468Y-31843D01*
X69496Y-31829D01*
X69511Y-31800D01*
X69511Y-31772D01*
X69511Y-31672D02*
X69211Y-31672D01*
X69511Y-31543D02*
X69353Y-31543D01*
X69325Y-31557D01*
X69311Y-31586D01*
X69311Y-31629D01*
X69325Y-31657D01*
X69339Y-31672D01*
X69511Y-31400D02*
X69311Y-31400D01*
X69368Y-31400D02*
X69339Y-31386D01*
X69325Y-31372D01*
X69311Y-31343D01*
X69311Y-31315D01*
X69496Y-31100D02*
X69511Y-31129D01*
X69511Y-31186D01*
X69496Y-31215D01*
X69468Y-31229D01*
X69353Y-31229D01*
X69325Y-31215D01*
X69311Y-31186D01*
X69311Y-31129D01*
X69325Y-31100D01*
X69353Y-31086D01*
X69382Y-31086D01*
X69411Y-31229D01*
X69496Y-30972D02*
X69511Y-30943D01*
X69511Y-30886D01*
X69496Y-30857D01*
X69468Y-30843D01*
X69453Y-30843D01*
X69425Y-30857D01*
X69411Y-30886D01*
X69411Y-30929D01*
X69396Y-30957D01*
X69368Y-30972D01*
X69353Y-30972D01*
X69325Y-30957D01*
X69311Y-30929D01*
X69311Y-30886D01*
X69325Y-30857D01*
X69511Y-30715D02*
X69211Y-30715D01*
X69511Y-30586D02*
X69353Y-30586D01*
X69325Y-30600D01*
X69311Y-30629D01*
X69311Y-30672D01*
X69325Y-30700D01*
X69339Y-30715D01*
X69511Y-30286D02*
X69511Y-30457D01*
X69511Y-30372D02*
X69211Y-30372D01*
X69253Y-30400D01*
X69282Y-30429D01*
X69296Y-30457D01*
X69503Y-32664D02*
X69203Y-32664D01*
X69203Y-32550D01*
X69217Y-32521D01*
X69231Y-32507D01*
X69260Y-32493D01*
X69303Y-32493D01*
X69331Y-32507D01*
X69345Y-32521D01*
X69360Y-32550D01*
X69360Y-32664D01*
X69203Y-32307D02*
X69203Y-32250D01*
X69217Y-32221D01*
X69245Y-32193D01*
X69303Y-32179D01*
X69403Y-32179D01*
X69460Y-32193D01*
X69488Y-32221D01*
X69503Y-32250D01*
X69503Y-32307D01*
X69488Y-32336D01*
X69460Y-32364D01*
X69403Y-32379D01*
X69303Y-32379D01*
X69245Y-32364D01*
X69217Y-32336D01*
X69203Y-32307D01*
X69203Y-32093D02*
X69203Y-31921D01*
X69503Y-32007D02*
X69203Y-32007D01*
X67542Y-31400D02*
X67399Y-31500D01*
X67542Y-31572D02*
X67242Y-31572D01*
X67242Y-31457D01*
X67256Y-31429D01*
X67271Y-31415D01*
X67299Y-31400D01*
X67342Y-31400D01*
X67371Y-31415D01*
X67385Y-31429D01*
X67399Y-31457D01*
X67399Y-31572D01*
X67256Y-31115D02*
X67242Y-31143D01*
X67242Y-31186D01*
X67256Y-31229D01*
X67285Y-31257D01*
X67314Y-31272D01*
X67371Y-31286D01*
X67414Y-31286D01*
X67471Y-31272D01*
X67499Y-31257D01*
X67528Y-31229D01*
X67542Y-31186D01*
X67542Y-31157D01*
X67528Y-31115D01*
X67514Y-31100D01*
X67414Y-31100D01*
X67414Y-31157D01*
X67542Y-30815D02*
X67542Y-30986D01*
X67542Y-30900D02*
X67242Y-30900D01*
X67285Y-30929D01*
X67314Y-30957D01*
X67328Y-30986D01*
X67534Y-32664D02*
X67234Y-32664D01*
X67234Y-32550D01*
X67248Y-32521D01*
X67263Y-32507D01*
X67291Y-32493D01*
X67334Y-32493D01*
X67363Y-32507D01*
X67377Y-32521D01*
X67391Y-32550D01*
X67391Y-32664D01*
X67234Y-32307D02*
X67234Y-32250D01*
X67248Y-32221D01*
X67277Y-32193D01*
X67334Y-32179D01*
X67434Y-32179D01*
X67491Y-32193D01*
X67520Y-32221D01*
X67534Y-32250D01*
X67534Y-32307D01*
X67520Y-32336D01*
X67491Y-32364D01*
X67434Y-32379D01*
X67334Y-32379D01*
X67277Y-32364D01*
X67248Y-32336D01*
X67234Y-32307D01*
X67234Y-32093D02*
X67234Y-31921D01*
X67534Y-32007D02*
X67234Y-32007D01*
X71393Y-31722D02*
X71393Y-31579D01*
X71479Y-31750D02*
X71179Y-31650D01*
X71479Y-31550D01*
X71479Y-31450D02*
X71279Y-31450D01*
X71336Y-31450D02*
X71308Y-31436D01*
X71293Y-31422D01*
X71279Y-31393D01*
X71279Y-31365D01*
X71465Y-31150D02*
X71479Y-31179D01*
X71479Y-31236D01*
X71465Y-31265D01*
X71436Y-31279D01*
X71322Y-31279D01*
X71293Y-31265D01*
X71279Y-31236D01*
X71279Y-31179D01*
X71293Y-31150D01*
X71322Y-31136D01*
X71351Y-31136D01*
X71379Y-31279D01*
X71279Y-31050D02*
X71279Y-30936D01*
X71479Y-31007D02*
X71222Y-31007D01*
X71193Y-30993D01*
X71179Y-30965D01*
X71179Y-30936D01*
X71479Y-30679D02*
X71479Y-30850D01*
X71479Y-30765D02*
X71179Y-30765D01*
X71222Y-30793D01*
X71251Y-30822D01*
X71265Y-30850D01*
X71471Y-32664D02*
X71171Y-32664D01*
X71171Y-32550D01*
X71185Y-32521D01*
X71200Y-32507D01*
X71228Y-32493D01*
X71271Y-32493D01*
X71300Y-32507D01*
X71314Y-32521D01*
X71328Y-32550D01*
X71328Y-32664D01*
X71171Y-32307D02*
X71171Y-32250D01*
X71185Y-32221D01*
X71214Y-32193D01*
X71271Y-32179D01*
X71371Y-32179D01*
X71428Y-32193D01*
X71457Y-32221D01*
X71471Y-32250D01*
X71471Y-32307D01*
X71457Y-32336D01*
X71428Y-32364D01*
X71371Y-32379D01*
X71271Y-32379D01*
X71214Y-32364D01*
X71185Y-32336D01*
X71171Y-32307D01*
X71171Y-32093D02*
X71171Y-31921D01*
X71471Y-32007D02*
X71171Y-32007D01*
X73419Y-31465D02*
X73433Y-31479D01*
X73448Y-31522D01*
X73448Y-31550D01*
X73433Y-31593D01*
X73405Y-31622D01*
X73376Y-31636D01*
X73319Y-31650D01*
X73276Y-31650D01*
X73219Y-31636D01*
X73190Y-31622D01*
X73162Y-31593D01*
X73148Y-31550D01*
X73148Y-31522D01*
X73162Y-31479D01*
X73176Y-31465D01*
X73448Y-31207D02*
X73290Y-31207D01*
X73262Y-31222D01*
X73248Y-31250D01*
X73248Y-31307D01*
X73262Y-31336D01*
X73433Y-31207D02*
X73448Y-31236D01*
X73448Y-31307D01*
X73433Y-31336D01*
X73405Y-31350D01*
X73376Y-31350D01*
X73348Y-31336D01*
X73333Y-31307D01*
X73333Y-31236D01*
X73319Y-31207D01*
X73448Y-31022D02*
X73433Y-31050D01*
X73405Y-31065D01*
X73148Y-31065D01*
X73448Y-30750D02*
X73448Y-30922D01*
X73448Y-30836D02*
X73148Y-30836D01*
X73190Y-30865D01*
X73219Y-30893D01*
X73233Y-30922D01*
X73440Y-32664D02*
X73140Y-32664D01*
X73140Y-32550D01*
X73154Y-32521D01*
X73168Y-32507D01*
X73197Y-32493D01*
X73240Y-32493D01*
X73268Y-32507D01*
X73282Y-32521D01*
X73297Y-32550D01*
X73297Y-32664D01*
X73140Y-32307D02*
X73140Y-32250D01*
X73154Y-32221D01*
X73182Y-32193D01*
X73240Y-32179D01*
X73340Y-32179D01*
X73397Y-32193D01*
X73425Y-32221D01*
X73440Y-32250D01*
X73440Y-32307D01*
X73425Y-32336D01*
X73397Y-32364D01*
X73340Y-32379D01*
X73240Y-32379D01*
X73182Y-32364D01*
X73154Y-32336D01*
X73140Y-32307D01*
X73140Y-32093D02*
X73140Y-31921D01*
X73440Y-32007D02*
X73140Y-32007D01*
G54D12*
X70479Y-35560D02*
X69879Y-35560D01*
X69879Y-35332D01*
X69907Y-35275D01*
X69936Y-35246D01*
X69993Y-35218D01*
X70079Y-35218D01*
X70136Y-35246D01*
X70164Y-35275D01*
X70193Y-35332D01*
X70193Y-35560D01*
X69879Y-35018D02*
X69879Y-34646D01*
X70107Y-34846D01*
X70107Y-34760D01*
X70136Y-34703D01*
X70164Y-34675D01*
X70221Y-34646D01*
X70364Y-34646D01*
X70421Y-34675D01*
X70450Y-34703D01*
X70479Y-34760D01*
X70479Y-34932D01*
X70450Y-34989D01*
X70421Y-35018D01*
X69284Y-36168D02*
X69284Y-35882D01*
X69455Y-36225D02*
X68855Y-36025D01*
X69455Y-35825D01*
X69455Y-35282D02*
X69169Y-35482D01*
X69455Y-35625D02*
X68855Y-35625D01*
X68855Y-35396D01*
X68884Y-35339D01*
X68912Y-35311D01*
X68969Y-35282D01*
X69055Y-35282D01*
X69112Y-35311D01*
X69141Y-35339D01*
X69169Y-35396D01*
X69169Y-35625D01*
X69141Y-35025D02*
X69141Y-34825D01*
X69455Y-34739D02*
X69455Y-35025D01*
X68855Y-35025D01*
X68855Y-34739D01*
X69141Y-34282D02*
X69141Y-34482D01*
X69455Y-34482D02*
X68855Y-34482D01*
X68855Y-34196D01*
X81502Y-30324D02*
X80902Y-30324D01*
X80902Y-30096D01*
X80931Y-30039D01*
X80959Y-30010D01*
X81016Y-29981D01*
X81102Y-29981D01*
X81159Y-30010D01*
X81188Y-30039D01*
X81216Y-30096D01*
X81216Y-30324D01*
X81502Y-29410D02*
X81502Y-29753D01*
X81502Y-29581D02*
X80902Y-29581D01*
X80988Y-29639D01*
X81045Y-29696D01*
X81074Y-29753D01*
X81972Y-30278D02*
X81943Y-30335D01*
X81943Y-30421D01*
X81972Y-30506D01*
X82029Y-30564D01*
X82086Y-30592D01*
X82200Y-30621D01*
X82286Y-30621D01*
X82400Y-30592D01*
X82457Y-30564D01*
X82515Y-30506D01*
X82543Y-30421D01*
X82543Y-30364D01*
X82515Y-30278D01*
X82486Y-30249D01*
X82286Y-30249D01*
X82286Y-30364D01*
X82543Y-29992D02*
X81943Y-29992D01*
X82543Y-29649D01*
X81943Y-29649D01*
X82543Y-29364D02*
X81943Y-29364D01*
X81943Y-29221D01*
X81972Y-29135D01*
X82029Y-29078D01*
X82086Y-29049D01*
X82200Y-29021D01*
X82286Y-29021D01*
X82400Y-29049D01*
X82457Y-29078D01*
X82515Y-29135D01*
X82543Y-29221D01*
X82543Y-29364D01*
X72368Y-35521D02*
X71768Y-35521D01*
X71768Y-35293D01*
X71797Y-35235D01*
X71825Y-35207D01*
X71883Y-35178D01*
X71968Y-35178D01*
X72025Y-35207D01*
X72054Y-35235D01*
X72083Y-35293D01*
X72083Y-35521D01*
X71825Y-34950D02*
X71797Y-34921D01*
X71768Y-34864D01*
X71768Y-34721D01*
X71797Y-34664D01*
X71825Y-34635D01*
X71883Y-34607D01*
X71940Y-34607D01*
X72025Y-34635D01*
X72368Y-34978D01*
X72368Y-34607D01*
X71327Y-35432D02*
X71356Y-35460D01*
X71384Y-35546D01*
X71384Y-35603D01*
X71356Y-35689D01*
X71298Y-35746D01*
X71241Y-35775D01*
X71127Y-35803D01*
X71041Y-35803D01*
X70927Y-35775D01*
X70870Y-35746D01*
X70813Y-35689D01*
X70784Y-35603D01*
X70784Y-35546D01*
X70813Y-35460D01*
X70841Y-35432D01*
X71213Y-35203D02*
X71213Y-34918D01*
X71384Y-35260D02*
X70784Y-35060D01*
X71384Y-34860D01*
X71384Y-34375D02*
X71384Y-34660D01*
X70784Y-34660D01*
X66542Y-35600D02*
X65942Y-35600D01*
X65942Y-35371D01*
X65970Y-35314D01*
X65999Y-35286D01*
X66056Y-35257D01*
X66142Y-35257D01*
X66199Y-35286D01*
X66227Y-35314D01*
X66256Y-35371D01*
X66256Y-35600D01*
X65942Y-34714D02*
X65942Y-35000D01*
X66227Y-35028D01*
X66199Y-35000D01*
X66170Y-34943D01*
X66170Y-34800D01*
X66199Y-34743D01*
X66227Y-34714D01*
X66284Y-34686D01*
X66427Y-34686D01*
X66484Y-34714D01*
X66513Y-34743D01*
X66542Y-34800D01*
X66542Y-34943D01*
X66513Y-35000D01*
X66484Y-35028D01*
X65282Y-35271D02*
X64996Y-35471D01*
X65282Y-35614D02*
X64682Y-35614D01*
X64682Y-35386D01*
X64710Y-35328D01*
X64739Y-35300D01*
X64796Y-35271D01*
X64882Y-35271D01*
X64939Y-35300D01*
X64967Y-35328D01*
X64996Y-35386D01*
X64996Y-35614D01*
X64710Y-34700D02*
X64682Y-34757D01*
X64682Y-34843D01*
X64710Y-34928D01*
X64767Y-34986D01*
X64825Y-35014D01*
X64939Y-35043D01*
X65025Y-35043D01*
X65139Y-35014D01*
X65196Y-34986D01*
X65253Y-34928D01*
X65282Y-34843D01*
X65282Y-34786D01*
X65253Y-34700D01*
X65225Y-34671D01*
X65025Y-34671D01*
X65025Y-34786D01*
X68431Y-35600D02*
X67831Y-35600D01*
X67831Y-35371D01*
X67860Y-35314D01*
X67888Y-35286D01*
X67946Y-35257D01*
X68031Y-35257D01*
X68088Y-35286D01*
X68117Y-35314D01*
X68146Y-35371D01*
X68146Y-35600D01*
X68031Y-34743D02*
X68431Y-34743D01*
X67803Y-34886D02*
X68231Y-35028D01*
X68231Y-34657D01*
X66847Y-35907D02*
X67447Y-35707D01*
X66847Y-35507D01*
X67047Y-35393D02*
X67047Y-35164D01*
X66847Y-35307D02*
X67361Y-35307D01*
X67419Y-35278D01*
X67447Y-35221D01*
X67447Y-35164D01*
X67447Y-34964D02*
X66847Y-34964D01*
X67447Y-34707D02*
X67133Y-34707D01*
X67076Y-34735D01*
X67047Y-34793D01*
X67047Y-34878D01*
X67076Y-34935D01*
X67104Y-34964D01*
X67447Y-34421D02*
X67047Y-34421D01*
X67161Y-34421D02*
X67104Y-34393D01*
X67076Y-34364D01*
X67047Y-34307D01*
X67047Y-34250D01*
X75714Y-22490D02*
X75214Y-22490D01*
X75714Y-22147D02*
X75428Y-22404D01*
X75214Y-22147D02*
X75499Y-22490D01*
X75714Y-21575D02*
X75714Y-21918D01*
X75714Y-21747D02*
X75214Y-21747D01*
X75285Y-21804D01*
X75333Y-21861D01*
X75357Y-21918D01*
X74269Y-27821D02*
X74769Y-27621D01*
X74269Y-27421D01*
X74745Y-26992D02*
X74769Y-27049D01*
X74769Y-27164D01*
X74745Y-27221D01*
X74697Y-27249D01*
X74507Y-27249D01*
X74459Y-27221D01*
X74435Y-27164D01*
X74435Y-27049D01*
X74459Y-26992D01*
X74507Y-26964D01*
X74555Y-26964D01*
X74602Y-27249D01*
X74769Y-26764D02*
X74435Y-26449D01*
X74435Y-26764D02*
X74769Y-26449D01*
X74435Y-26306D02*
X74435Y-26078D01*
X74269Y-26221D02*
X74697Y-26221D01*
X74745Y-26192D01*
X74769Y-26135D01*
X74769Y-26078D01*
X74245Y-25449D02*
X74888Y-25964D01*
X74578Y-25249D02*
X74578Y-24792D01*
X74769Y-25021D02*
X74388Y-25021D01*
X74269Y-24221D02*
X74269Y-24506D01*
X74507Y-24535D01*
X74483Y-24506D01*
X74459Y-24449D01*
X74459Y-24306D01*
X74483Y-24249D01*
X74507Y-24221D01*
X74555Y-24192D01*
X74674Y-24192D01*
X74721Y-24221D01*
X74745Y-24249D01*
X74769Y-24306D01*
X74769Y-24449D01*
X74745Y-24506D01*
X74721Y-24535D01*
X74816Y-24078D02*
X74816Y-23621D01*
X74626Y-23506D02*
X74626Y-23221D01*
X74769Y-23564D02*
X74269Y-23364D01*
X74769Y-23164D01*
X74769Y-22964D02*
X74269Y-22964D01*
X74769Y-22621D01*
X74269Y-22621D01*
X74626Y-22364D02*
X74626Y-22078D01*
X74769Y-22421D02*
X74269Y-22221D01*
X74769Y-22021D01*
X54296Y-22028D02*
X54381Y-22052D01*
X54524Y-22052D01*
X54581Y-22028D01*
X54610Y-22005D01*
X54638Y-21957D01*
X54638Y-21909D01*
X54610Y-21862D01*
X54581Y-21838D01*
X54524Y-21814D01*
X54410Y-21790D01*
X54353Y-21767D01*
X54324Y-21743D01*
X54296Y-21695D01*
X54296Y-21648D01*
X54324Y-21600D01*
X54353Y-21576D01*
X54410Y-21552D01*
X54553Y-21552D01*
X54638Y-21576D01*
X55238Y-22052D02*
X55038Y-21814D01*
X54896Y-22052D02*
X54896Y-21552D01*
X55124Y-21552D01*
X55181Y-21576D01*
X55210Y-21600D01*
X55238Y-21648D01*
X55238Y-21719D01*
X55210Y-21767D01*
X55181Y-21790D01*
X55124Y-21814D01*
X54896Y-21814D01*
X55467Y-22028D02*
X55553Y-22052D01*
X55696Y-22052D01*
X55753Y-22028D01*
X55781Y-22005D01*
X55810Y-21957D01*
X55810Y-21909D01*
X55781Y-21862D01*
X55753Y-21838D01*
X55696Y-21814D01*
X55581Y-21790D01*
X55524Y-21767D01*
X55496Y-21743D01*
X55467Y-21695D01*
X55467Y-21648D01*
X55496Y-21600D01*
X55524Y-21576D01*
X55581Y-21552D01*
X55724Y-21552D01*
X55810Y-21576D01*
X56010Y-21719D02*
X56124Y-22052D01*
X56238Y-21814D01*
X56353Y-22052D01*
X56467Y-21719D01*
X56696Y-22052D02*
X56696Y-21719D01*
X56696Y-21552D02*
X56667Y-21576D01*
X56696Y-21600D01*
X56724Y-21576D01*
X56696Y-21552D01*
X56696Y-21600D01*
X56896Y-21719D02*
X57124Y-21719D01*
X56981Y-21552D02*
X56981Y-21981D01*
X57010Y-22028D01*
X57067Y-22052D01*
X57124Y-22052D01*
X57581Y-22028D02*
X57524Y-22052D01*
X57410Y-22052D01*
X57353Y-22028D01*
X57324Y-22005D01*
X57296Y-21957D01*
X57296Y-21814D01*
X57324Y-21767D01*
X57353Y-21743D01*
X57410Y-21719D01*
X57524Y-21719D01*
X57581Y-21743D01*
X57838Y-22052D02*
X57838Y-21552D01*
X58096Y-22052D02*
X58096Y-21790D01*
X58067Y-21743D01*
X58010Y-21719D01*
X57924Y-21719D01*
X57867Y-21743D01*
X57838Y-21767D01*
X58696Y-22052D02*
X58353Y-22052D01*
X58524Y-22052D02*
X58524Y-21552D01*
X58467Y-21624D01*
X58410Y-21671D01*
X58353Y-21695D01*
X78155Y-22647D02*
X77655Y-22647D01*
X78155Y-22304D02*
X77869Y-22561D01*
X77655Y-22304D02*
X77940Y-22647D01*
X77702Y-22076D02*
X77678Y-22047D01*
X77655Y-21990D01*
X77655Y-21847D01*
X77678Y-21790D01*
X77702Y-21761D01*
X77750Y-21733D01*
X77797Y-21733D01*
X77869Y-21761D01*
X78155Y-22104D01*
X78155Y-21733D01*
X76592Y-27703D02*
X77092Y-27503D01*
X76592Y-27303D01*
X77068Y-26874D02*
X77092Y-26931D01*
X77092Y-27046D01*
X77068Y-27103D01*
X77020Y-27131D01*
X76830Y-27131D01*
X76782Y-27103D01*
X76758Y-27046D01*
X76758Y-26931D01*
X76782Y-26874D01*
X76830Y-26846D01*
X76877Y-26846D01*
X76925Y-27131D01*
X77092Y-26646D02*
X76758Y-26331D01*
X76758Y-26646D02*
X77092Y-26331D01*
X76758Y-26188D02*
X76758Y-25960D01*
X76592Y-26103D02*
X77020Y-26103D01*
X77068Y-26074D01*
X77092Y-26017D01*
X77092Y-25960D01*
X76568Y-25331D02*
X77211Y-25846D01*
X76901Y-25131D02*
X76901Y-24674D01*
X77092Y-24903D02*
X76711Y-24903D01*
X76592Y-24103D02*
X76592Y-24388D01*
X76830Y-24417D01*
X76806Y-24388D01*
X76782Y-24331D01*
X76782Y-24188D01*
X76806Y-24131D01*
X76830Y-24103D01*
X76877Y-24074D01*
X76996Y-24074D01*
X77044Y-24103D01*
X77068Y-24131D01*
X77092Y-24188D01*
X77092Y-24331D01*
X77068Y-24388D01*
X77044Y-24417D01*
X77139Y-23960D02*
X77139Y-23503D01*
X76949Y-23388D02*
X76949Y-23103D01*
X77092Y-23446D02*
X76592Y-23246D01*
X77092Y-23046D01*
X77092Y-22846D02*
X76592Y-22846D01*
X77092Y-22503D01*
X76592Y-22503D01*
X76949Y-22246D02*
X76949Y-21960D01*
X77092Y-22303D02*
X76592Y-22103D01*
X77092Y-21903D01*
X40457Y-24557D02*
X39957Y-24557D01*
X40457Y-24214D02*
X40172Y-24471D01*
X39957Y-24214D02*
X40243Y-24557D01*
X39957Y-24014D02*
X39957Y-23642D01*
X40148Y-23842D01*
X40148Y-23757D01*
X40172Y-23699D01*
X40196Y-23671D01*
X40243Y-23642D01*
X40362Y-23642D01*
X40410Y-23671D01*
X40434Y-23699D01*
X40457Y-23757D01*
X40457Y-23928D01*
X40434Y-23985D01*
X40410Y-24014D01*
X42820Y-24557D02*
X42320Y-24557D01*
X42820Y-24214D02*
X42534Y-24471D01*
X42320Y-24214D02*
X42605Y-24557D01*
X42486Y-23699D02*
X42820Y-23699D01*
X42296Y-23842D02*
X42653Y-23985D01*
X42653Y-23614D01*
X58666Y-20618D02*
X58428Y-20818D01*
X58666Y-20961D02*
X58166Y-20961D01*
X58166Y-20732D01*
X58190Y-20675D01*
X58214Y-20646D01*
X58262Y-20618D01*
X58333Y-20618D01*
X58381Y-20646D01*
X58405Y-20675D01*
X58428Y-20732D01*
X58428Y-20961D01*
X58666Y-20046D02*
X58666Y-20389D01*
X58666Y-20218D02*
X58166Y-20218D01*
X58238Y-20275D01*
X58285Y-20332D01*
X58309Y-20389D01*
X58214Y-19818D02*
X58190Y-19789D01*
X58166Y-19732D01*
X58166Y-19589D01*
X58190Y-19532D01*
X58214Y-19503D01*
X58262Y-19475D01*
X58309Y-19475D01*
X58381Y-19503D01*
X58666Y-19846D01*
X58666Y-19475D01*
X58643Y-19246D02*
X58666Y-19161D01*
X58666Y-19018D01*
X58643Y-18961D01*
X58619Y-18932D01*
X58571Y-18903D01*
X58524Y-18903D01*
X58476Y-18932D01*
X58452Y-18961D01*
X58428Y-19018D01*
X58405Y-19132D01*
X58381Y-19189D01*
X58357Y-19218D01*
X58309Y-19246D01*
X58262Y-19246D01*
X58214Y-19218D01*
X58190Y-19189D01*
X58166Y-19132D01*
X58166Y-18989D01*
X58190Y-18903D01*
X58333Y-18703D02*
X58666Y-18589D01*
X58428Y-18475D01*
X58666Y-18361D01*
X58333Y-18246D01*
X58666Y-18018D02*
X58333Y-18018D01*
X58166Y-18018D02*
X58190Y-18046D01*
X58214Y-18018D01*
X58190Y-17989D01*
X58166Y-18018D01*
X58214Y-18018D01*
X58333Y-17818D02*
X58333Y-17589D01*
X58166Y-17732D02*
X58595Y-17732D01*
X58643Y-17703D01*
X58666Y-17646D01*
X58666Y-17589D01*
X58643Y-17132D02*
X58666Y-17189D01*
X58666Y-17303D01*
X58643Y-17361D01*
X58619Y-17389D01*
X58571Y-17418D01*
X58428Y-17418D01*
X58381Y-17389D01*
X58357Y-17361D01*
X58333Y-17303D01*
X58333Y-17189D01*
X58357Y-17132D01*
X58666Y-16875D02*
X58166Y-16875D01*
X58666Y-16618D02*
X58405Y-16618D01*
X58357Y-16646D01*
X58333Y-16703D01*
X58333Y-16789D01*
X58357Y-16846D01*
X58381Y-16875D01*
X58666Y-16018D02*
X58666Y-16361D01*
X58666Y-16189D02*
X58166Y-16189D01*
X58238Y-16246D01*
X58285Y-16303D01*
X58309Y-16361D01*
G54D13*
X75813Y-30833D02*
X75551Y-30999D01*
X75813Y-31118D02*
X75263Y-31118D01*
X75263Y-30928D01*
X75289Y-30880D01*
X75315Y-30857D01*
X75367Y-30833D01*
X75446Y-30833D01*
X75498Y-30857D01*
X75525Y-30880D01*
X75551Y-30928D01*
X75551Y-31118D01*
X75263Y-30666D02*
X75263Y-30357D01*
X75472Y-30523D01*
X75472Y-30452D01*
X75498Y-30404D01*
X75525Y-30380D01*
X75577Y-30357D01*
X75708Y-30357D01*
X75760Y-30380D01*
X75786Y-30404D01*
X75813Y-30452D01*
X75813Y-30595D01*
X75786Y-30642D01*
X75760Y-30666D01*
X75263Y-30047D02*
X75263Y-29999D01*
X75289Y-29952D01*
X75315Y-29928D01*
X75367Y-29904D01*
X75472Y-29880D01*
X75603Y-29880D01*
X75708Y-29904D01*
X75760Y-29928D01*
X75786Y-29952D01*
X75813Y-29999D01*
X75813Y-30047D01*
X75786Y-30095D01*
X75760Y-30118D01*
X75708Y-30142D01*
X75603Y-30166D01*
X75472Y-30166D01*
X75367Y-30142D01*
X75315Y-30118D01*
X75289Y-30095D01*
X75263Y-30047D01*
X78175Y-30833D02*
X77913Y-30999D01*
X78175Y-31118D02*
X77625Y-31118D01*
X77625Y-30928D01*
X77651Y-30880D01*
X77677Y-30857D01*
X77730Y-30833D01*
X77808Y-30833D01*
X77861Y-30857D01*
X77887Y-30880D01*
X77913Y-30928D01*
X77913Y-31118D01*
X77625Y-30666D02*
X77625Y-30357D01*
X77834Y-30523D01*
X77834Y-30452D01*
X77861Y-30404D01*
X77887Y-30380D01*
X77939Y-30357D01*
X78070Y-30357D01*
X78122Y-30380D01*
X78149Y-30404D01*
X78175Y-30452D01*
X78175Y-30595D01*
X78149Y-30642D01*
X78122Y-30666D01*
X77677Y-30166D02*
X77651Y-30142D01*
X77625Y-30095D01*
X77625Y-29976D01*
X77651Y-29928D01*
X77677Y-29904D01*
X77730Y-29880D01*
X77782Y-29880D01*
X77861Y-29904D01*
X78175Y-30190D01*
X78175Y-29880D01*
X41561Y-29947D02*
X41299Y-30114D01*
X41561Y-30233D02*
X41011Y-30233D01*
X41011Y-30042D01*
X41037Y-29995D01*
X41063Y-29971D01*
X41115Y-29947D01*
X41194Y-29947D01*
X41246Y-29971D01*
X41273Y-29995D01*
X41299Y-30042D01*
X41299Y-30233D01*
X41011Y-29780D02*
X41011Y-29471D01*
X41220Y-29637D01*
X41220Y-29566D01*
X41246Y-29518D01*
X41273Y-29495D01*
X41325Y-29471D01*
X41456Y-29471D01*
X41508Y-29495D01*
X41535Y-29518D01*
X41561Y-29566D01*
X41561Y-29709D01*
X41535Y-29756D01*
X41508Y-29780D01*
X41194Y-29042D02*
X41561Y-29042D01*
X40985Y-29161D02*
X41377Y-29280D01*
X41377Y-28971D01*
X43923Y-29947D02*
X43661Y-30114D01*
X43923Y-30233D02*
X43373Y-30233D01*
X43373Y-30042D01*
X43399Y-29995D01*
X43425Y-29971D01*
X43478Y-29947D01*
X43556Y-29947D01*
X43609Y-29971D01*
X43635Y-29995D01*
X43661Y-30042D01*
X43661Y-30233D01*
X43373Y-29780D02*
X43373Y-29471D01*
X43582Y-29637D01*
X43582Y-29566D01*
X43609Y-29518D01*
X43635Y-29495D01*
X43687Y-29471D01*
X43818Y-29471D01*
X43871Y-29495D01*
X43897Y-29518D01*
X43923Y-29566D01*
X43923Y-29709D01*
X43897Y-29756D01*
X43871Y-29780D01*
X43373Y-29042D02*
X43373Y-29137D01*
X43399Y-29185D01*
X43425Y-29209D01*
X43504Y-29256D01*
X43609Y-29280D01*
X43818Y-29280D01*
X43871Y-29256D01*
X43897Y-29233D01*
X43923Y-29185D01*
X43923Y-29090D01*
X43897Y-29042D01*
X43871Y-29018D01*
X43818Y-28995D01*
X43687Y-28995D01*
X43635Y-29018D01*
X43609Y-29042D01*
X43582Y-29090D01*
X43582Y-29185D01*
X43609Y-29233D01*
X43635Y-29256D01*
X43687Y-29280D01*
G54D15*
X77657Y-43340D02*
X77886Y-43340D01*
X77771Y-43740D02*
X77771Y-43340D01*
X78171Y-43721D02*
X78133Y-43740D01*
X78057Y-43740D01*
X78019Y-43721D01*
X78000Y-43683D01*
X78000Y-43531D01*
X78019Y-43493D01*
X78057Y-43473D01*
X78133Y-43473D01*
X78171Y-43493D01*
X78191Y-43531D01*
X78191Y-43569D01*
X78000Y-43607D01*
X78419Y-43740D02*
X78381Y-43721D01*
X78362Y-43683D01*
X78362Y-43340D01*
X78724Y-43721D02*
X78686Y-43740D01*
X78610Y-43740D01*
X78571Y-43721D01*
X78552Y-43683D01*
X78552Y-43531D01*
X78571Y-43493D01*
X78610Y-43473D01*
X78686Y-43473D01*
X78724Y-43493D01*
X78743Y-43531D01*
X78743Y-43569D01*
X78552Y-43607D01*
X78895Y-43721D02*
X78933Y-43740D01*
X79010Y-43740D01*
X79048Y-43721D01*
X79067Y-43683D01*
X79067Y-43664D01*
X79048Y-43626D01*
X79010Y-43607D01*
X78952Y-43607D01*
X78914Y-43588D01*
X78895Y-43550D01*
X78895Y-43531D01*
X78914Y-43493D01*
X78952Y-43473D01*
X79010Y-43473D01*
X79048Y-43493D01*
X79410Y-43721D02*
X79371Y-43740D01*
X79295Y-43740D01*
X79257Y-43721D01*
X79238Y-43702D01*
X79219Y-43664D01*
X79219Y-43550D01*
X79238Y-43512D01*
X79257Y-43493D01*
X79295Y-43473D01*
X79371Y-43473D01*
X79410Y-43493D01*
X79638Y-43740D02*
X79600Y-43721D01*
X79581Y-43702D01*
X79562Y-43664D01*
X79562Y-43550D01*
X79581Y-43512D01*
X79600Y-43493D01*
X79638Y-43473D01*
X79695Y-43473D01*
X79733Y-43493D01*
X79752Y-43512D01*
X79771Y-43550D01*
X79771Y-43664D01*
X79752Y-43702D01*
X79733Y-43721D01*
X79695Y-43740D01*
X79638Y-43740D01*
X79943Y-43473D02*
X79943Y-43873D01*
X79943Y-43493D02*
X79981Y-43473D01*
X80057Y-43473D01*
X80095Y-43493D01*
X80114Y-43512D01*
X80133Y-43550D01*
X80133Y-43664D01*
X80114Y-43702D01*
X80095Y-43721D01*
X80057Y-43740D01*
X79981Y-43740D01*
X79943Y-43721D01*
X80457Y-43721D02*
X80419Y-43740D01*
X80343Y-43740D01*
X80305Y-43721D01*
X80286Y-43683D01*
X80286Y-43531D01*
X80305Y-43493D01*
X80343Y-43473D01*
X80419Y-43473D01*
X80457Y-43493D01*
X80476Y-43531D01*
X80476Y-43569D01*
X80286Y-43607D01*
X80552Y-43778D02*
X80857Y-43778D01*
X80933Y-43378D02*
X80952Y-43359D01*
X80991Y-43340D01*
X81086Y-43340D01*
X81124Y-43359D01*
X81143Y-43378D01*
X81162Y-43416D01*
X81162Y-43454D01*
X81143Y-43512D01*
X80914Y-43740D01*
X81162Y-43740D01*
G54D17*
G54D13*
X78010Y-46702D02*
X77991Y-46721D01*
X77933Y-46740D01*
X77895Y-46740D01*
X77838Y-46721D01*
X77800Y-46683D01*
X77781Y-46645D01*
X77762Y-46569D01*
X77762Y-46512D01*
X77781Y-46435D01*
X77800Y-46397D01*
X77838Y-46359D01*
X77895Y-46340D01*
X77933Y-46340D01*
X77991Y-46359D01*
X78010Y-46378D01*
X78257Y-46340D02*
X78333Y-46340D01*
X78371Y-46359D01*
X78410Y-46397D01*
X78429Y-46473D01*
X78429Y-46607D01*
X78410Y-46683D01*
X78371Y-46721D01*
X78333Y-46740D01*
X78257Y-46740D01*
X78219Y-46721D01*
X78181Y-46683D01*
X78162Y-46607D01*
X78162Y-46473D01*
X78181Y-46397D01*
X78219Y-46359D01*
X78257Y-46340D01*
X78600Y-46740D02*
X78600Y-46340D01*
X78829Y-46740D01*
X78829Y-46340D01*
X79019Y-46740D02*
X79019Y-46340D01*
X79248Y-46740D01*
X79248Y-46340D01*
X79343Y-46778D02*
X79648Y-46778D01*
X79724Y-46378D02*
X79743Y-46359D01*
X79781Y-46340D01*
X79876Y-46340D01*
X79914Y-46359D01*
X79933Y-46378D01*
X79952Y-46416D01*
X79952Y-46454D01*
X79933Y-46512D01*
X79705Y-46740D01*
X79952Y-46740D01*
X80200Y-46340D02*
X80238Y-46340D01*
X80276Y-46359D01*
X80295Y-46378D01*
X80314Y-46416D01*
X80333Y-46493D01*
X80333Y-46588D01*
X80314Y-46664D01*
X80295Y-46702D01*
X80276Y-46721D01*
X80238Y-46740D01*
X80200Y-46740D01*
X80162Y-46721D01*
X80143Y-46702D01*
X80124Y-46664D01*
X80105Y-46588D01*
X80105Y-46493D01*
X80124Y-46416D01*
X80143Y-46378D01*
X80162Y-46359D01*
X80200Y-46340D01*
X80467Y-46340D02*
X80733Y-46740D01*
X80733Y-46340D02*
X80467Y-46740D01*
X80867Y-46378D02*
X80886Y-46359D01*
X80924Y-46340D01*
X81019Y-46340D01*
X81057Y-46359D01*
X81076Y-46378D01*
X81095Y-46416D01*
X81095Y-46454D01*
X81076Y-46512D01*
X80848Y-46740D01*
X81095Y-46740D01*
G54D15*
X33414Y-28153D02*
X33433Y-28096D01*
X33433Y-28000D01*
X33414Y-27962D01*
X33395Y-27943D01*
X33357Y-27924D01*
X33319Y-27924D01*
X33281Y-27943D01*
X33262Y-27962D01*
X33243Y-28000D01*
X33224Y-28077D01*
X33204Y-28115D01*
X33185Y-28134D01*
X33147Y-28153D01*
X33109Y-28153D01*
X33071Y-28134D01*
X33052Y-28115D01*
X33033Y-28077D01*
X33033Y-27981D01*
X33052Y-27924D01*
X33414Y-27600D02*
X33433Y-27638D01*
X33433Y-27715D01*
X33414Y-27753D01*
X33376Y-27772D01*
X33224Y-27772D01*
X33185Y-27753D01*
X33166Y-27715D01*
X33166Y-27638D01*
X33185Y-27600D01*
X33224Y-27581D01*
X33262Y-27581D01*
X33300Y-27772D01*
X33166Y-27238D02*
X33566Y-27238D01*
X33414Y-27238D02*
X33433Y-27277D01*
X33433Y-27353D01*
X33414Y-27391D01*
X33395Y-27410D01*
X33357Y-27429D01*
X33243Y-27429D01*
X33204Y-27410D01*
X33185Y-27391D01*
X33166Y-27353D01*
X33166Y-27277D01*
X33185Y-27238D01*
X33166Y-26877D02*
X33433Y-26877D01*
X33166Y-27048D02*
X33376Y-27048D01*
X33414Y-27029D01*
X33433Y-26991D01*
X33433Y-26934D01*
X33414Y-26896D01*
X33395Y-26877D01*
X33414Y-26534D02*
X33433Y-26572D01*
X33433Y-26648D01*
X33414Y-26686D01*
X33376Y-26705D01*
X33224Y-26705D01*
X33185Y-26686D01*
X33166Y-26648D01*
X33166Y-26572D01*
X33185Y-26534D01*
X33224Y-26515D01*
X33262Y-26515D01*
X33300Y-26705D01*
X33166Y-26343D02*
X33433Y-26343D01*
X33204Y-26343D02*
X33185Y-26324D01*
X33166Y-26286D01*
X33166Y-26229D01*
X33185Y-26191D01*
X33224Y-26172D01*
X33433Y-26172D01*
X33414Y-25810D02*
X33433Y-25848D01*
X33433Y-25924D01*
X33414Y-25962D01*
X33395Y-25981D01*
X33357Y-26000D01*
X33243Y-26000D01*
X33204Y-25981D01*
X33185Y-25962D01*
X33166Y-25924D01*
X33166Y-25848D01*
X33185Y-25810D01*
X33414Y-25486D02*
X33433Y-25524D01*
X33433Y-25600D01*
X33414Y-25638D01*
X33376Y-25657D01*
X33224Y-25657D01*
X33185Y-25638D01*
X33166Y-25600D01*
X33166Y-25524D01*
X33185Y-25486D01*
X33224Y-25467D01*
X33262Y-25467D01*
X33300Y-25657D01*
X33433Y-25296D02*
X33166Y-25296D01*
X33243Y-25296D02*
X33204Y-25277D01*
X33185Y-25257D01*
X33166Y-25219D01*
X33166Y-25181D01*
X33433Y-24838D02*
X33433Y-25067D01*
X33433Y-24953D02*
X33033Y-24953D01*
X33090Y-24991D01*
X33128Y-25029D01*
X33147Y-25067D01*
G54D17*
G54D13*
X30395Y-27915D02*
X30414Y-27934D01*
X30433Y-27991D01*
X30433Y-28029D01*
X30414Y-28086D01*
X30376Y-28124D01*
X30338Y-28143D01*
X30262Y-28162D01*
X30204Y-28162D01*
X30128Y-28143D01*
X30090Y-28124D01*
X30052Y-28086D01*
X30033Y-28029D01*
X30033Y-27991D01*
X30052Y-27934D01*
X30071Y-27915D01*
X30033Y-27667D02*
X30033Y-27591D01*
X30052Y-27553D01*
X30090Y-27515D01*
X30166Y-27496D01*
X30300Y-27496D01*
X30376Y-27515D01*
X30414Y-27553D01*
X30433Y-27591D01*
X30433Y-27667D01*
X30414Y-27705D01*
X30376Y-27743D01*
X30300Y-27762D01*
X30166Y-27762D01*
X30090Y-27743D01*
X30052Y-27705D01*
X30033Y-27667D01*
X30433Y-27324D02*
X30033Y-27324D01*
X30433Y-27096D01*
X30033Y-27096D01*
X30433Y-26905D02*
X30033Y-26905D01*
X30433Y-26677D01*
X30033Y-26677D01*
X30471Y-26581D02*
X30471Y-26277D01*
X30071Y-26200D02*
X30052Y-26181D01*
X30033Y-26143D01*
X30033Y-26048D01*
X30052Y-26010D01*
X30071Y-25991D01*
X30109Y-25972D01*
X30147Y-25972D01*
X30204Y-25991D01*
X30433Y-26219D01*
X30433Y-25972D01*
X30033Y-25724D02*
X30033Y-25686D01*
X30052Y-25648D01*
X30071Y-25629D01*
X30109Y-25610D01*
X30185Y-25591D01*
X30281Y-25591D01*
X30357Y-25610D01*
X30395Y-25629D01*
X30414Y-25648D01*
X30433Y-25686D01*
X30433Y-25724D01*
X30414Y-25762D01*
X30395Y-25781D01*
X30357Y-25800D01*
X30281Y-25819D01*
X30185Y-25819D01*
X30109Y-25800D01*
X30071Y-25781D01*
X30052Y-25762D01*
X30033Y-25724D01*
X30033Y-25457D02*
X30433Y-25191D01*
X30033Y-25191D02*
X30433Y-25457D01*
X30071Y-25057D02*
X30052Y-25038D01*
X30033Y-25000D01*
X30033Y-24905D01*
X30052Y-24867D01*
X30071Y-24848D01*
X30109Y-24829D01*
X30147Y-24829D01*
X30204Y-24848D01*
X30433Y-25077D01*
X30433Y-24829D01*
G54D15*
X46653Y-43340D02*
X46882Y-43340D01*
X46768Y-43740D02*
X46768Y-43340D01*
X47168Y-43721D02*
X47129Y-43740D01*
X47053Y-43740D01*
X47015Y-43721D01*
X46996Y-43683D01*
X46996Y-43531D01*
X47015Y-43493D01*
X47053Y-43473D01*
X47129Y-43473D01*
X47168Y-43493D01*
X47187Y-43531D01*
X47187Y-43569D01*
X46996Y-43607D01*
X47415Y-43740D02*
X47377Y-43721D01*
X47358Y-43683D01*
X47358Y-43340D01*
X47720Y-43721D02*
X47682Y-43740D01*
X47606Y-43740D01*
X47568Y-43721D01*
X47549Y-43683D01*
X47549Y-43531D01*
X47568Y-43493D01*
X47606Y-43473D01*
X47682Y-43473D01*
X47720Y-43493D01*
X47739Y-43531D01*
X47739Y-43569D01*
X47549Y-43607D01*
X47891Y-43721D02*
X47929Y-43740D01*
X48006Y-43740D01*
X48044Y-43721D01*
X48063Y-43683D01*
X48063Y-43664D01*
X48044Y-43626D01*
X48006Y-43607D01*
X47949Y-43607D01*
X47910Y-43588D01*
X47891Y-43550D01*
X47891Y-43531D01*
X47910Y-43493D01*
X47949Y-43473D01*
X48006Y-43473D01*
X48044Y-43493D01*
X48406Y-43721D02*
X48368Y-43740D01*
X48291Y-43740D01*
X48253Y-43721D01*
X48234Y-43702D01*
X48215Y-43664D01*
X48215Y-43550D01*
X48234Y-43512D01*
X48253Y-43493D01*
X48291Y-43473D01*
X48368Y-43473D01*
X48406Y-43493D01*
X48634Y-43740D02*
X48596Y-43721D01*
X48577Y-43702D01*
X48558Y-43664D01*
X48558Y-43550D01*
X48577Y-43512D01*
X48596Y-43493D01*
X48634Y-43473D01*
X48691Y-43473D01*
X48729Y-43493D01*
X48749Y-43512D01*
X48768Y-43550D01*
X48768Y-43664D01*
X48749Y-43702D01*
X48729Y-43721D01*
X48691Y-43740D01*
X48634Y-43740D01*
X48939Y-43473D02*
X48939Y-43873D01*
X48939Y-43493D02*
X48977Y-43473D01*
X49053Y-43473D01*
X49091Y-43493D01*
X49110Y-43512D01*
X49129Y-43550D01*
X49129Y-43664D01*
X49110Y-43702D01*
X49091Y-43721D01*
X49053Y-43740D01*
X48977Y-43740D01*
X48939Y-43721D01*
X49453Y-43721D02*
X49415Y-43740D01*
X49339Y-43740D01*
X49301Y-43721D01*
X49282Y-43683D01*
X49282Y-43531D01*
X49301Y-43493D01*
X49339Y-43473D01*
X49415Y-43473D01*
X49453Y-43493D01*
X49472Y-43531D01*
X49472Y-43569D01*
X49282Y-43607D01*
X49549Y-43778D02*
X49853Y-43778D01*
X50158Y-43740D02*
X49929Y-43740D01*
X50044Y-43740D02*
X50044Y-43340D01*
X50006Y-43397D01*
X49968Y-43435D01*
X49929Y-43454D01*
G54D17*
G54D13*
X47006Y-46702D02*
X46987Y-46721D01*
X46929Y-46740D01*
X46891Y-46740D01*
X46834Y-46721D01*
X46796Y-46683D01*
X46777Y-46645D01*
X46758Y-46569D01*
X46758Y-46512D01*
X46777Y-46435D01*
X46796Y-46397D01*
X46834Y-46359D01*
X46891Y-46340D01*
X46929Y-46340D01*
X46987Y-46359D01*
X47006Y-46378D01*
X47253Y-46340D02*
X47329Y-46340D01*
X47368Y-46359D01*
X47406Y-46397D01*
X47425Y-46473D01*
X47425Y-46607D01*
X47406Y-46683D01*
X47368Y-46721D01*
X47329Y-46740D01*
X47253Y-46740D01*
X47215Y-46721D01*
X47177Y-46683D01*
X47158Y-46607D01*
X47158Y-46473D01*
X47177Y-46397D01*
X47215Y-46359D01*
X47253Y-46340D01*
X47596Y-46740D02*
X47596Y-46340D01*
X47825Y-46740D01*
X47825Y-46340D01*
X48015Y-46740D02*
X48015Y-46340D01*
X48244Y-46740D01*
X48244Y-46340D01*
X48339Y-46778D02*
X48644Y-46778D01*
X48720Y-46378D02*
X48739Y-46359D01*
X48777Y-46340D01*
X48872Y-46340D01*
X48910Y-46359D01*
X48929Y-46378D01*
X48949Y-46416D01*
X48949Y-46454D01*
X48929Y-46512D01*
X48701Y-46740D01*
X48949Y-46740D01*
X49196Y-46340D02*
X49234Y-46340D01*
X49272Y-46359D01*
X49291Y-46378D01*
X49310Y-46416D01*
X49329Y-46493D01*
X49329Y-46588D01*
X49310Y-46664D01*
X49291Y-46702D01*
X49272Y-46721D01*
X49234Y-46740D01*
X49196Y-46740D01*
X49158Y-46721D01*
X49139Y-46702D01*
X49120Y-46664D01*
X49101Y-46588D01*
X49101Y-46493D01*
X49120Y-46416D01*
X49139Y-46378D01*
X49158Y-46359D01*
X49196Y-46340D01*
X49463Y-46340D02*
X49729Y-46740D01*
X49729Y-46340D02*
X49463Y-46740D01*
X49863Y-46378D02*
X49882Y-46359D01*
X49920Y-46340D01*
X50015Y-46340D01*
X50053Y-46359D01*
X50072Y-46378D01*
X50091Y-46416D01*
X50091Y-46454D01*
X50072Y-46512D01*
X49844Y-46740D01*
X50091Y-46740D01*
G54D16*
X39815Y-29701D02*
X39759Y-29741D01*
X39815Y-29769D02*
X39697Y-29769D01*
X39697Y-29724D01*
X39702Y-29713D01*
X39708Y-29707D01*
X39719Y-29701D01*
X39736Y-29701D01*
X39747Y-29707D01*
X39753Y-29713D01*
X39759Y-29724D01*
X39759Y-29769D01*
X39697Y-29662D02*
X39697Y-29589D01*
X39742Y-29628D01*
X39742Y-29611D01*
X39747Y-29600D01*
X39753Y-29595D01*
X39764Y-29589D01*
X39792Y-29589D01*
X39804Y-29595D01*
X39809Y-29600D01*
X39815Y-29611D01*
X39815Y-29645D01*
X39809Y-29656D01*
X39804Y-29662D01*
X39697Y-29550D02*
X39697Y-29477D01*
X39742Y-29516D01*
X39742Y-29499D01*
X39747Y-29488D01*
X39753Y-29482D01*
X39764Y-29477D01*
X39792Y-29477D01*
X39804Y-29482D01*
X39809Y-29488D01*
X39815Y-29499D01*
X39815Y-29533D01*
X39809Y-29544D01*
X39804Y-29550D01*
X76429Y-30587D02*
X76373Y-30627D01*
X76429Y-30655D02*
X76311Y-30655D01*
X76311Y-30610D01*
X76317Y-30598D01*
X76322Y-30593D01*
X76333Y-30587D01*
X76350Y-30587D01*
X76361Y-30593D01*
X76367Y-30598D01*
X76373Y-30610D01*
X76373Y-30655D01*
X76311Y-30548D02*
X76311Y-30475D01*
X76356Y-30514D01*
X76356Y-30497D01*
X76361Y-30486D01*
X76367Y-30480D01*
X76378Y-30475D01*
X76406Y-30475D01*
X76418Y-30480D01*
X76423Y-30486D01*
X76429Y-30497D01*
X76429Y-30531D01*
X76423Y-30542D01*
X76418Y-30548D01*
X76429Y-30362D02*
X76429Y-30430D01*
X76429Y-30396D02*
X76311Y-30396D01*
X76328Y-30407D01*
X76339Y-30419D01*
X76345Y-30430D01*
X74067Y-30587D02*
X74011Y-30627D01*
X74067Y-30655D02*
X73949Y-30655D01*
X73949Y-30610D01*
X73954Y-30598D01*
X73960Y-30593D01*
X73971Y-30587D01*
X73988Y-30587D01*
X73999Y-30593D01*
X74005Y-30598D01*
X74011Y-30610D01*
X74011Y-30655D01*
X73960Y-30542D02*
X73954Y-30537D01*
X73949Y-30525D01*
X73949Y-30497D01*
X73954Y-30486D01*
X73960Y-30480D01*
X73971Y-30475D01*
X73982Y-30475D01*
X73999Y-30480D01*
X74067Y-30548D01*
X74067Y-30475D01*
X74067Y-30419D02*
X74067Y-30396D01*
X74061Y-30385D01*
X74055Y-30379D01*
X74039Y-30368D01*
X74016Y-30362D01*
X73971Y-30362D01*
X73960Y-30368D01*
X73954Y-30374D01*
X73949Y-30385D01*
X73949Y-30407D01*
X73954Y-30419D01*
X73960Y-30424D01*
X73971Y-30430D01*
X73999Y-30430D01*
X74011Y-30424D01*
X74016Y-30419D01*
X74022Y-30407D01*
X74022Y-30385D01*
X74016Y-30374D01*
X74011Y-30368D01*
X73999Y-30362D01*
X42177Y-29701D02*
X42121Y-29741D01*
X42177Y-29769D02*
X42059Y-29769D01*
X42059Y-29724D01*
X42065Y-29713D01*
X42070Y-29707D01*
X42081Y-29701D01*
X42098Y-29701D01*
X42110Y-29707D01*
X42115Y-29713D01*
X42121Y-29724D01*
X42121Y-29769D01*
X42059Y-29662D02*
X42059Y-29589D01*
X42104Y-29628D01*
X42104Y-29611D01*
X42110Y-29600D01*
X42115Y-29595D01*
X42126Y-29589D01*
X42154Y-29589D01*
X42166Y-29595D01*
X42171Y-29600D01*
X42177Y-29611D01*
X42177Y-29645D01*
X42171Y-29656D01*
X42166Y-29662D01*
X42059Y-29482D02*
X42059Y-29538D01*
X42115Y-29544D01*
X42110Y-29538D01*
X42104Y-29527D01*
X42104Y-29499D01*
X42110Y-29488D01*
X42115Y-29482D01*
X42126Y-29477D01*
X42154Y-29477D01*
X42166Y-29482D01*
X42171Y-29488D01*
X42177Y-29499D01*
X42177Y-29527D01*
X42171Y-29538D01*
X42166Y-29544D01*
G54D12*
X85439Y-18632D02*
X85439Y-18032D01*
X85667Y-18032D01*
X85724Y-18061D01*
X85753Y-18089D01*
X85781Y-18146D01*
X85781Y-18232D01*
X85753Y-18289D01*
X85724Y-18318D01*
X85667Y-18346D01*
X85439Y-18346D01*
X86296Y-18032D02*
X86181Y-18032D01*
X86124Y-18061D01*
X86096Y-18089D01*
X86039Y-18175D01*
X86010Y-18289D01*
X86010Y-18518D01*
X86039Y-18575D01*
X86067Y-18604D01*
X86124Y-18632D01*
X86239Y-18632D01*
X86296Y-18604D01*
X86324Y-18575D01*
X86353Y-18518D01*
X86353Y-18375D01*
X86324Y-18318D01*
X86296Y-18289D01*
X86239Y-18261D01*
X86124Y-18261D01*
X86067Y-18289D01*
X86039Y-18318D01*
X86010Y-18375D01*
X79758Y-18973D02*
X79958Y-19573D01*
X80158Y-18973D01*
X80587Y-19544D02*
X80529Y-19573D01*
X80415Y-19573D01*
X80358Y-19544D01*
X80329Y-19487D01*
X80329Y-19259D01*
X80358Y-19202D01*
X80415Y-19173D01*
X80529Y-19173D01*
X80587Y-19202D01*
X80615Y-19259D01*
X80615Y-19316D01*
X80329Y-19373D01*
X80815Y-19573D02*
X81129Y-19173D01*
X80815Y-19173D02*
X81129Y-19573D01*
X81272Y-19173D02*
X81501Y-19173D01*
X81358Y-18973D02*
X81358Y-19487D01*
X81387Y-19544D01*
X81444Y-19573D01*
X81501Y-19573D01*
X50872Y-28287D02*
X50272Y-28287D01*
X50272Y-28059D01*
X50301Y-28001D01*
X50329Y-27973D01*
X50387Y-27944D01*
X50472Y-27944D01*
X50529Y-27973D01*
X50558Y-28001D01*
X50587Y-28059D01*
X50587Y-28287D01*
X50872Y-27373D02*
X50872Y-27716D01*
X50872Y-27544D02*
X50272Y-27544D01*
X50358Y-27601D01*
X50415Y-27659D01*
X50444Y-27716D01*
X50272Y-26859D02*
X50272Y-26973D01*
X50301Y-27030D01*
X50329Y-27059D01*
X50415Y-27116D01*
X50529Y-27144D01*
X50758Y-27144D01*
X50815Y-27116D01*
X50844Y-27087D01*
X50872Y-27030D01*
X50872Y-26916D01*
X50844Y-26859D01*
X50815Y-26830D01*
X50758Y-26801D01*
X50615Y-26801D01*
X50558Y-26830D01*
X50529Y-26859D01*
X50501Y-26916D01*
X50501Y-27030D01*
X50529Y-27087D01*
X50558Y-27116D01*
X50615Y-27144D01*
X50883Y-31804D02*
X50912Y-31719D01*
X50912Y-31576D01*
X50883Y-31519D01*
X50855Y-31490D01*
X50797Y-31461D01*
X50740Y-31461D01*
X50683Y-31490D01*
X50655Y-31519D01*
X50626Y-31576D01*
X50597Y-31690D01*
X50569Y-31747D01*
X50540Y-31776D01*
X50483Y-31804D01*
X50426Y-31804D01*
X50369Y-31776D01*
X50340Y-31747D01*
X50312Y-31690D01*
X50312Y-31547D01*
X50340Y-31461D01*
X50912Y-31204D02*
X50312Y-31204D01*
X50312Y-30976D01*
X50340Y-30919D01*
X50369Y-30890D01*
X50426Y-30861D01*
X50512Y-30861D01*
X50569Y-30890D01*
X50597Y-30919D01*
X50626Y-30976D01*
X50626Y-31204D01*
X50912Y-30604D02*
X50312Y-30604D01*
X50597Y-30604D02*
X50597Y-30261D01*
X50912Y-30261D02*
X50312Y-30261D01*
X50912Y-29976D02*
X50312Y-29976D01*
X50912Y-29376D02*
X50912Y-29719D01*
X50912Y-29547D02*
X50312Y-29547D01*
X50397Y-29604D01*
X50455Y-29661D01*
X50483Y-29719D01*
X47920Y-28248D02*
X47320Y-28248D01*
X47320Y-28019D01*
X47348Y-27962D01*
X47377Y-27933D01*
X47434Y-27905D01*
X47520Y-27905D01*
X47577Y-27933D01*
X47605Y-27962D01*
X47634Y-28019D01*
X47634Y-28248D01*
X47920Y-27333D02*
X47920Y-27676D01*
X47920Y-27505D02*
X47320Y-27505D01*
X47405Y-27562D01*
X47462Y-27619D01*
X47491Y-27676D01*
X47920Y-27048D02*
X47920Y-26933D01*
X47891Y-26876D01*
X47862Y-26848D01*
X47777Y-26791D01*
X47662Y-26762D01*
X47434Y-26762D01*
X47377Y-26791D01*
X47348Y-26819D01*
X47320Y-26876D01*
X47320Y-26991D01*
X47348Y-27048D01*
X47377Y-27076D01*
X47434Y-27105D01*
X47577Y-27105D01*
X47634Y-27076D01*
X47662Y-27048D01*
X47691Y-26991D01*
X47691Y-26876D01*
X47662Y-26819D01*
X47634Y-26791D01*
X47577Y-26762D01*
X48048Y-31018D02*
X48077Y-30932D01*
X48077Y-30789D01*
X48048Y-30732D01*
X48020Y-30704D01*
X47963Y-30675D01*
X47906Y-30675D01*
X47848Y-30704D01*
X47820Y-30732D01*
X47791Y-30789D01*
X47763Y-30904D01*
X47734Y-30961D01*
X47706Y-30989D01*
X47648Y-31018D01*
X47591Y-31018D01*
X47534Y-30989D01*
X47506Y-30961D01*
X47477Y-30904D01*
X47477Y-30761D01*
X47506Y-30675D01*
X47763Y-30418D02*
X47763Y-30218D01*
X48077Y-30132D02*
X48077Y-30418D01*
X47477Y-30418D01*
X47477Y-30132D01*
X47763Y-29675D02*
X47791Y-29589D01*
X47820Y-29561D01*
X47877Y-29532D01*
X47963Y-29532D01*
X48020Y-29561D01*
X48048Y-29589D01*
X48077Y-29647D01*
X48077Y-29875D01*
X47477Y-29875D01*
X47477Y-29675D01*
X47506Y-29618D01*
X47534Y-29589D01*
X47591Y-29561D01*
X47648Y-29561D01*
X47706Y-29589D01*
X47734Y-29618D01*
X47763Y-29675D01*
X47763Y-29875D01*
X52250Y-28326D02*
X51650Y-28326D01*
X51650Y-28098D01*
X51679Y-28041D01*
X51707Y-28012D01*
X51765Y-27984D01*
X51850Y-27984D01*
X51907Y-28012D01*
X51936Y-28041D01*
X51965Y-28098D01*
X51965Y-28326D01*
X51707Y-27755D02*
X51679Y-27726D01*
X51650Y-27669D01*
X51650Y-27526D01*
X51679Y-27469D01*
X51707Y-27441D01*
X51765Y-27412D01*
X51822Y-27412D01*
X51907Y-27441D01*
X52250Y-27784D01*
X52250Y-27412D01*
X51650Y-27041D02*
X51650Y-26984D01*
X51679Y-26926D01*
X51707Y-26898D01*
X51765Y-26869D01*
X51879Y-26841D01*
X52022Y-26841D01*
X52136Y-26869D01*
X52193Y-26898D01*
X52222Y-26926D01*
X52250Y-26984D01*
X52250Y-27041D01*
X52222Y-27098D01*
X52193Y-27126D01*
X52136Y-27155D01*
X52022Y-27184D01*
X51879Y-27184D01*
X51765Y-27155D01*
X51707Y-27126D01*
X51679Y-27098D01*
X51650Y-27041D01*
X53510Y-30085D02*
X53510Y-30371D01*
X52910Y-30371D01*
X53196Y-29885D02*
X53196Y-29685D01*
X53510Y-29600D02*
X53510Y-29885D01*
X52910Y-29885D01*
X52910Y-29600D01*
X59022Y-28366D02*
X58422Y-28366D01*
X58422Y-28137D01*
X58450Y-28080D01*
X58479Y-28052D01*
X58536Y-28023D01*
X58622Y-28023D01*
X58679Y-28052D01*
X58708Y-28080D01*
X58736Y-28137D01*
X58736Y-28366D01*
X59022Y-27452D02*
X59022Y-27794D01*
X59022Y-27623D02*
X58422Y-27623D01*
X58508Y-27680D01*
X58565Y-27737D01*
X58593Y-27794D01*
X58479Y-27223D02*
X58450Y-27194D01*
X58422Y-27137D01*
X58422Y-26994D01*
X58450Y-26937D01*
X58479Y-26909D01*
X58536Y-26880D01*
X58593Y-26880D01*
X58679Y-26909D01*
X59022Y-27252D01*
X59022Y-26880D01*
X59022Y-30661D02*
X58736Y-30861D01*
X59022Y-31004D02*
X58422Y-31004D01*
X58422Y-30775D01*
X58450Y-30718D01*
X58479Y-30689D01*
X58536Y-30661D01*
X58622Y-30661D01*
X58679Y-30689D01*
X58708Y-30718D01*
X58736Y-30775D01*
X58736Y-31004D01*
X59022Y-30089D02*
X59022Y-30432D01*
X59022Y-30261D02*
X58422Y-30261D01*
X58508Y-30318D01*
X58565Y-30375D01*
X58593Y-30432D01*
X58479Y-29861D02*
X58450Y-29832D01*
X58422Y-29775D01*
X58422Y-29632D01*
X58450Y-29575D01*
X58479Y-29547D01*
X58536Y-29518D01*
X58593Y-29518D01*
X58679Y-29547D01*
X59022Y-29889D01*
X59022Y-29518D01*
X57723Y-28326D02*
X57123Y-28326D01*
X57123Y-28098D01*
X57151Y-28041D01*
X57180Y-28012D01*
X57237Y-27984D01*
X57323Y-27984D01*
X57380Y-28012D01*
X57408Y-28041D01*
X57437Y-28098D01*
X57437Y-28326D01*
X57723Y-27412D02*
X57723Y-27755D01*
X57723Y-27584D02*
X57123Y-27584D01*
X57208Y-27641D01*
X57266Y-27698D01*
X57294Y-27755D01*
X57123Y-27212D02*
X57123Y-26841D01*
X57351Y-27041D01*
X57351Y-26955D01*
X57380Y-26898D01*
X57408Y-26869D01*
X57466Y-26841D01*
X57608Y-26841D01*
X57666Y-26869D01*
X57694Y-26898D01*
X57723Y-26955D01*
X57723Y-27126D01*
X57694Y-27184D01*
X57666Y-27212D01*
X57694Y-30510D02*
X57723Y-30425D01*
X57723Y-30282D01*
X57694Y-30225D01*
X57666Y-30196D01*
X57608Y-30167D01*
X57551Y-30167D01*
X57494Y-30196D01*
X57466Y-30225D01*
X57437Y-30282D01*
X57408Y-30396D01*
X57380Y-30453D01*
X57351Y-30482D01*
X57294Y-30510D01*
X57237Y-30510D01*
X57180Y-30482D01*
X57151Y-30453D01*
X57123Y-30396D01*
X57123Y-30253D01*
X57151Y-30167D01*
X57723Y-29567D02*
X57437Y-29767D01*
X57723Y-29910D02*
X57123Y-29910D01*
X57123Y-29682D01*
X57151Y-29625D01*
X57180Y-29596D01*
X57237Y-29567D01*
X57323Y-29567D01*
X57380Y-29596D01*
X57408Y-29625D01*
X57437Y-29682D01*
X57437Y-29910D01*
X55006Y-28248D02*
X54406Y-28248D01*
X54406Y-28019D01*
X54435Y-27962D01*
X54463Y-27933D01*
X54520Y-27905D01*
X54606Y-27905D01*
X54663Y-27933D01*
X54692Y-27962D01*
X54720Y-28019D01*
X54720Y-28248D01*
X55006Y-27333D02*
X55006Y-27676D01*
X55006Y-27505D02*
X54406Y-27505D01*
X54492Y-27562D01*
X54549Y-27619D01*
X54578Y-27676D01*
X54606Y-26819D02*
X55006Y-26819D01*
X54378Y-26962D02*
X54806Y-27105D01*
X54806Y-26733D01*
X56227Y-30571D02*
X55627Y-30571D01*
X56198Y-30314D02*
X56227Y-30228D01*
X56227Y-30085D01*
X56198Y-30028D01*
X56169Y-30000D01*
X56112Y-29971D01*
X56055Y-29971D01*
X55998Y-30000D01*
X55969Y-30028D01*
X55941Y-30085D01*
X55912Y-30200D01*
X55884Y-30257D01*
X55855Y-30285D01*
X55798Y-30314D01*
X55741Y-30314D01*
X55684Y-30285D01*
X55655Y-30257D01*
X55627Y-30200D01*
X55627Y-30057D01*
X55655Y-29971D01*
X56227Y-29400D02*
X56227Y-29742D01*
X56227Y-29571D02*
X55627Y-29571D01*
X55712Y-29628D01*
X55769Y-29685D01*
X55798Y-29742D01*
X56345Y-28326D02*
X55745Y-28326D01*
X55745Y-28098D01*
X55773Y-28041D01*
X55802Y-28012D01*
X55859Y-27984D01*
X55945Y-27984D01*
X56002Y-28012D01*
X56030Y-28041D01*
X56059Y-28098D01*
X56059Y-28326D01*
X56345Y-27412D02*
X56345Y-27755D01*
X56345Y-27584D02*
X55745Y-27584D01*
X55830Y-27641D01*
X55888Y-27698D01*
X55916Y-27755D01*
X55745Y-26869D02*
X55745Y-27155D01*
X56030Y-27184D01*
X56002Y-27155D01*
X55973Y-27098D01*
X55973Y-26955D01*
X56002Y-26898D01*
X56030Y-26869D01*
X56088Y-26841D01*
X56230Y-26841D01*
X56288Y-26869D01*
X56316Y-26898D01*
X56345Y-26955D01*
X56345Y-27098D01*
X56316Y-27155D01*
X56288Y-27184D01*
X55006Y-31619D02*
X54720Y-31819D01*
X55006Y-31962D02*
X54406Y-31962D01*
X54406Y-31733D01*
X54435Y-31676D01*
X54463Y-31648D01*
X54520Y-31619D01*
X54606Y-31619D01*
X54663Y-31648D01*
X54692Y-31676D01*
X54720Y-31733D01*
X54720Y-31962D01*
X54692Y-31362D02*
X54692Y-31162D01*
X55006Y-31076D02*
X55006Y-31362D01*
X54406Y-31362D01*
X54406Y-31076D01*
X54978Y-30848D02*
X55006Y-30762D01*
X55006Y-30619D01*
X54978Y-30562D01*
X54949Y-30533D01*
X54892Y-30505D01*
X54835Y-30505D01*
X54778Y-30533D01*
X54749Y-30562D01*
X54720Y-30619D01*
X54692Y-30733D01*
X54663Y-30790D01*
X54635Y-30819D01*
X54578Y-30848D01*
X54520Y-30848D01*
X54463Y-30819D01*
X54435Y-30790D01*
X54406Y-30733D01*
X54406Y-30590D01*
X54435Y-30505D01*
X54692Y-30248D02*
X54692Y-30048D01*
X55006Y-29962D02*
X55006Y-30248D01*
X54406Y-30248D01*
X54406Y-29962D01*
X54406Y-29790D02*
X54406Y-29448D01*
X55006Y-29619D02*
X54406Y-29619D01*
X46502Y-27805D02*
X45902Y-27805D01*
X45902Y-27576D01*
X45931Y-27519D01*
X45959Y-27490D01*
X46016Y-27462D01*
X46102Y-27462D01*
X46159Y-27490D01*
X46188Y-27519D01*
X46216Y-27576D01*
X46216Y-27805D01*
X45902Y-27262D02*
X45902Y-26862D01*
X46502Y-27119D01*
X46463Y-30807D02*
X45863Y-30807D01*
X46434Y-30550D02*
X46463Y-30464D01*
X46463Y-30321D01*
X46434Y-30264D01*
X46406Y-30236D01*
X46349Y-30207D01*
X46291Y-30207D01*
X46234Y-30236D01*
X46206Y-30264D01*
X46177Y-30321D01*
X46149Y-30436D01*
X46120Y-30493D01*
X46091Y-30521D01*
X46034Y-30550D01*
X45977Y-30550D01*
X45920Y-30521D01*
X45891Y-30493D01*
X45863Y-30436D01*
X45863Y-30293D01*
X45891Y-30207D01*
X45920Y-29979D02*
X45891Y-29950D01*
X45863Y-29893D01*
X45863Y-29750D01*
X45891Y-29693D01*
X45920Y-29664D01*
X45977Y-29636D01*
X46034Y-29636D01*
X46120Y-29664D01*
X46463Y-30007D01*
X46463Y-29636D01*
X61935Y-27805D02*
X61335Y-27805D01*
X61335Y-27576D01*
X61364Y-27519D01*
X61392Y-27490D01*
X61450Y-27462D01*
X61535Y-27462D01*
X61592Y-27490D01*
X61621Y-27519D01*
X61650Y-27576D01*
X61650Y-27805D01*
X61592Y-27119D02*
X61564Y-27176D01*
X61535Y-27205D01*
X61478Y-27233D01*
X61450Y-27233D01*
X61392Y-27205D01*
X61364Y-27176D01*
X61335Y-27119D01*
X61335Y-27005D01*
X61364Y-26947D01*
X61392Y-26919D01*
X61450Y-26890D01*
X61478Y-26890D01*
X61535Y-26919D01*
X61564Y-26947D01*
X61592Y-27005D01*
X61592Y-27119D01*
X61621Y-27176D01*
X61650Y-27205D01*
X61707Y-27233D01*
X61821Y-27233D01*
X61878Y-27205D01*
X61907Y-27176D01*
X61935Y-27119D01*
X61935Y-27005D01*
X61907Y-26947D01*
X61878Y-26919D01*
X61821Y-26890D01*
X61707Y-26890D01*
X61650Y-26919D01*
X61621Y-26947D01*
X61592Y-27005D01*
X61817Y-31487D02*
X61531Y-31687D01*
X61817Y-31829D02*
X61217Y-31829D01*
X61217Y-31601D01*
X61246Y-31544D01*
X61274Y-31515D01*
X61331Y-31487D01*
X61417Y-31487D01*
X61474Y-31515D01*
X61503Y-31544D01*
X61531Y-31601D01*
X61531Y-31829D01*
X61817Y-31229D02*
X61217Y-31229D01*
X61217Y-31001D01*
X61246Y-30944D01*
X61274Y-30915D01*
X61331Y-30887D01*
X61417Y-30887D01*
X61474Y-30915D01*
X61503Y-30944D01*
X61531Y-31001D01*
X61531Y-31229D01*
X61817Y-30629D02*
X61217Y-30629D01*
X61503Y-30629D02*
X61503Y-30287D01*
X61817Y-30287D02*
X61217Y-30287D01*
X61817Y-30001D02*
X61217Y-30001D01*
X61817Y-29401D02*
X61817Y-29744D01*
X61817Y-29572D02*
X61217Y-29572D01*
X61303Y-29629D01*
X61360Y-29687D01*
X61389Y-29744D01*
X64691Y-27844D02*
X64091Y-27844D01*
X64091Y-27615D01*
X64120Y-27558D01*
X64148Y-27530D01*
X64205Y-27501D01*
X64291Y-27501D01*
X64348Y-27530D01*
X64377Y-27558D01*
X64405Y-27615D01*
X64405Y-27844D01*
X64691Y-27215D02*
X64691Y-27101D01*
X64663Y-27044D01*
X64634Y-27015D01*
X64548Y-26958D01*
X64434Y-26930D01*
X64205Y-26930D01*
X64148Y-26958D01*
X64120Y-26987D01*
X64091Y-27044D01*
X64091Y-27158D01*
X64120Y-27215D01*
X64148Y-27244D01*
X64205Y-27273D01*
X64348Y-27273D01*
X64405Y-27244D01*
X64434Y-27215D01*
X64463Y-27158D01*
X64463Y-27044D01*
X64434Y-26987D01*
X64405Y-26958D01*
X64348Y-26930D01*
X64652Y-31644D02*
X64366Y-31844D01*
X64652Y-31987D02*
X64052Y-31987D01*
X64052Y-31758D01*
X64080Y-31701D01*
X64109Y-31673D01*
X64166Y-31644D01*
X64252Y-31644D01*
X64309Y-31673D01*
X64338Y-31701D01*
X64366Y-31758D01*
X64366Y-31987D01*
X64652Y-31387D02*
X64052Y-31387D01*
X64052Y-31158D01*
X64080Y-31101D01*
X64109Y-31073D01*
X64166Y-31044D01*
X64252Y-31044D01*
X64309Y-31073D01*
X64338Y-31101D01*
X64366Y-31158D01*
X64366Y-31387D01*
X64652Y-30787D02*
X64052Y-30787D01*
X64338Y-30787D02*
X64338Y-30444D01*
X64652Y-30444D02*
X64052Y-30444D01*
X64652Y-30158D02*
X64052Y-30158D01*
X64109Y-29901D02*
X64080Y-29873D01*
X64052Y-29815D01*
X64052Y-29673D01*
X64080Y-29615D01*
X64109Y-29587D01*
X64166Y-29558D01*
X64223Y-29558D01*
X64309Y-29587D01*
X64652Y-29930D01*
X64652Y-29558D01*
X63313Y-28366D02*
X62713Y-28366D01*
X62713Y-28137D01*
X62742Y-28080D01*
X62770Y-28052D01*
X62828Y-28023D01*
X62913Y-28023D01*
X62970Y-28052D01*
X62999Y-28080D01*
X63028Y-28137D01*
X63028Y-28366D01*
X63313Y-27452D02*
X63313Y-27794D01*
X63313Y-27623D02*
X62713Y-27623D01*
X62799Y-27680D01*
X62856Y-27737D01*
X62885Y-27794D01*
X62713Y-27080D02*
X62713Y-27023D01*
X62742Y-26966D01*
X62770Y-26937D01*
X62828Y-26909D01*
X62942Y-26880D01*
X63085Y-26880D01*
X63199Y-26909D01*
X63256Y-26937D01*
X63285Y-26966D01*
X63313Y-27023D01*
X63313Y-27080D01*
X63285Y-27137D01*
X63256Y-27166D01*
X63199Y-27194D01*
X63085Y-27223D01*
X62942Y-27223D01*
X62828Y-27194D01*
X62770Y-27166D01*
X62742Y-27137D01*
X62713Y-27080D01*
X63392Y-30493D02*
X63106Y-30693D01*
X63392Y-30836D02*
X62792Y-30836D01*
X62792Y-30607D01*
X62821Y-30550D01*
X62849Y-30521D01*
X62906Y-30493D01*
X62992Y-30493D01*
X63049Y-30521D01*
X63078Y-30550D01*
X63106Y-30607D01*
X63106Y-30836D01*
X63078Y-30036D02*
X63106Y-29950D01*
X63135Y-29921D01*
X63192Y-29893D01*
X63278Y-29893D01*
X63335Y-29921D01*
X63363Y-29950D01*
X63392Y-30007D01*
X63392Y-30236D01*
X62792Y-30236D01*
X62792Y-30036D01*
X62821Y-29979D01*
X62849Y-29950D01*
X62906Y-29921D01*
X62963Y-29921D01*
X63021Y-29950D01*
X63049Y-29979D01*
X63078Y-30036D01*
X63078Y-30236D01*
X63392Y-29636D02*
X62792Y-29636D01*
X60518Y-28287D02*
X59918Y-28287D01*
X59918Y-28059D01*
X59947Y-28001D01*
X59975Y-27973D01*
X60032Y-27944D01*
X60118Y-27944D01*
X60175Y-27973D01*
X60204Y-28001D01*
X60232Y-28059D01*
X60232Y-28287D01*
X60518Y-27373D02*
X60518Y-27716D01*
X60518Y-27544D02*
X59918Y-27544D01*
X60004Y-27601D01*
X60061Y-27659D01*
X60089Y-27716D01*
X60518Y-26801D02*
X60518Y-27144D01*
X60518Y-26973D02*
X59918Y-26973D01*
X60004Y-27030D01*
X60061Y-27087D01*
X60089Y-27144D01*
X60382Y-30100D02*
X60411Y-30128D01*
X60439Y-30214D01*
X60439Y-30271D01*
X60411Y-30357D01*
X60353Y-30414D01*
X60296Y-30442D01*
X60182Y-30471D01*
X60096Y-30471D01*
X59982Y-30442D01*
X59925Y-30414D01*
X59868Y-30357D01*
X59839Y-30271D01*
X59839Y-30214D01*
X59868Y-30128D01*
X59896Y-30100D01*
X60411Y-29871D02*
X60439Y-29785D01*
X60439Y-29642D01*
X60411Y-29585D01*
X60382Y-29557D01*
X60325Y-29528D01*
X60268Y-29528D01*
X60211Y-29557D01*
X60182Y-29585D01*
X60153Y-29642D01*
X60125Y-29757D01*
X60096Y-29814D01*
X60068Y-29842D01*
X60011Y-29871D01*
X59953Y-29871D01*
X59896Y-29842D01*
X59868Y-29814D01*
X59839Y-29757D01*
X59839Y-29614D01*
X59868Y-29528D01*
X53628Y-28366D02*
X53028Y-28366D01*
X53028Y-28137D01*
X53057Y-28080D01*
X53085Y-28052D01*
X53142Y-28023D01*
X53228Y-28023D01*
X53285Y-28052D01*
X53314Y-28080D01*
X53342Y-28137D01*
X53342Y-28366D01*
X53628Y-27452D02*
X53628Y-27794D01*
X53628Y-27623D02*
X53028Y-27623D01*
X53114Y-27680D01*
X53171Y-27737D01*
X53200Y-27794D01*
X53028Y-27252D02*
X53028Y-26852D01*
X53628Y-27109D01*
X52261Y-31844D02*
X52290Y-31758D01*
X52290Y-31615D01*
X52261Y-31558D01*
X52232Y-31529D01*
X52175Y-31501D01*
X52118Y-31501D01*
X52061Y-31529D01*
X52032Y-31558D01*
X52004Y-31615D01*
X51975Y-31729D01*
X51947Y-31787D01*
X51918Y-31815D01*
X51861Y-31844D01*
X51804Y-31844D01*
X51747Y-31815D01*
X51718Y-31787D01*
X51690Y-31729D01*
X51690Y-31587D01*
X51718Y-31501D01*
X52290Y-31244D02*
X51690Y-31244D01*
X51690Y-31015D01*
X51718Y-30958D01*
X51747Y-30929D01*
X51804Y-30901D01*
X51890Y-30901D01*
X51947Y-30929D01*
X51975Y-30958D01*
X52004Y-31015D01*
X52004Y-31244D01*
X52290Y-30644D02*
X51690Y-30644D01*
X51975Y-30644D02*
X51975Y-30301D01*
X52290Y-30301D02*
X51690Y-30301D01*
X52290Y-30015D02*
X51690Y-30015D01*
X51747Y-29758D02*
X51718Y-29729D01*
X51690Y-29672D01*
X51690Y-29529D01*
X51718Y-29472D01*
X51747Y-29444D01*
X51804Y-29415D01*
X51861Y-29415D01*
X51947Y-29444D01*
X52290Y-29787D01*
X52290Y-29415D01*
X49337Y-28287D02*
X48737Y-28287D01*
X48737Y-28059D01*
X48765Y-28001D01*
X48794Y-27973D01*
X48851Y-27944D01*
X48937Y-27944D01*
X48994Y-27973D01*
X49023Y-28001D01*
X49051Y-28059D01*
X49051Y-28287D01*
X49337Y-27373D02*
X49337Y-27716D01*
X49337Y-27544D02*
X48737Y-27544D01*
X48823Y-27601D01*
X48880Y-27659D01*
X48908Y-27716D01*
X48994Y-27030D02*
X48965Y-27087D01*
X48937Y-27116D01*
X48880Y-27144D01*
X48851Y-27144D01*
X48794Y-27116D01*
X48765Y-27087D01*
X48737Y-27030D01*
X48737Y-26916D01*
X48765Y-26859D01*
X48794Y-26830D01*
X48851Y-26801D01*
X48880Y-26801D01*
X48937Y-26830D01*
X48965Y-26859D01*
X48994Y-26916D01*
X48994Y-27030D01*
X49023Y-27087D01*
X49051Y-27116D01*
X49108Y-27144D01*
X49223Y-27144D01*
X49280Y-27116D01*
X49308Y-27087D01*
X49337Y-27030D01*
X49337Y-26916D01*
X49308Y-26859D01*
X49280Y-26830D01*
X49223Y-26801D01*
X49108Y-26801D01*
X49051Y-26830D01*
X49023Y-26859D01*
X48994Y-26916D01*
X49466Y-30693D02*
X49494Y-30607D01*
X49494Y-30464D01*
X49466Y-30407D01*
X49437Y-30378D01*
X49380Y-30350D01*
X49323Y-30350D01*
X49266Y-30378D01*
X49237Y-30407D01*
X49209Y-30464D01*
X49180Y-30578D01*
X49151Y-30635D01*
X49123Y-30664D01*
X49066Y-30693D01*
X49009Y-30693D01*
X48951Y-30664D01*
X48923Y-30635D01*
X48894Y-30578D01*
X48894Y-30435D01*
X48923Y-30350D01*
X49180Y-29893D02*
X49209Y-29807D01*
X49237Y-29778D01*
X49294Y-29750D01*
X49380Y-29750D01*
X49437Y-29778D01*
X49466Y-29807D01*
X49494Y-29864D01*
X49494Y-30093D01*
X48894Y-30093D01*
X48894Y-29893D01*
X48923Y-29835D01*
X48951Y-29807D01*
X49009Y-29778D01*
X49066Y-29778D01*
X49123Y-29807D01*
X49151Y-29835D01*
X49180Y-29893D01*
X49180Y-30093D01*
X49494Y-29493D02*
X48894Y-29493D01*
X67854Y-27998D02*
X67854Y-27398D01*
X68082Y-27398D01*
X68139Y-27427D01*
X68168Y-27455D01*
X68196Y-27513D01*
X68196Y-27598D01*
X68168Y-27655D01*
X68139Y-27684D01*
X68082Y-27713D01*
X67854Y-27713D01*
X68425Y-27455D02*
X68454Y-27427D01*
X68511Y-27398D01*
X68654Y-27398D01*
X68711Y-27427D01*
X68739Y-27455D01*
X68768Y-27513D01*
X68768Y-27570D01*
X68739Y-27655D01*
X68396Y-27998D01*
X68768Y-27998D01*
X69339Y-27998D02*
X68996Y-27998D01*
X69168Y-27998D02*
X69168Y-27398D01*
X69111Y-27484D01*
X69054Y-27541D01*
X68996Y-27570D01*
X68440Y-26206D02*
X68383Y-26178D01*
X68297Y-26178D01*
X68211Y-26206D01*
X68154Y-26264D01*
X68126Y-26321D01*
X68097Y-26435D01*
X68097Y-26521D01*
X68126Y-26635D01*
X68154Y-26692D01*
X68211Y-26749D01*
X68297Y-26778D01*
X68354Y-26778D01*
X68440Y-26749D01*
X68469Y-26721D01*
X68469Y-26521D01*
X68354Y-26521D01*
X68726Y-26778D02*
X68726Y-26178D01*
X69069Y-26778D01*
X69069Y-26178D01*
X69354Y-26778D02*
X69354Y-26178D01*
X69497Y-26178D01*
X69583Y-26206D01*
X69640Y-26264D01*
X69669Y-26321D01*
X69697Y-26435D01*
X69697Y-26521D01*
X69669Y-26635D01*
X69640Y-26692D01*
X69583Y-26749D01*
X69497Y-26778D01*
X69354Y-26778D01*
X38904Y-27539D02*
X38304Y-27539D01*
X38304Y-27311D01*
X38332Y-27253D01*
X38361Y-27225D01*
X38418Y-27196D01*
X38504Y-27196D01*
X38561Y-27225D01*
X38589Y-27253D01*
X38618Y-27311D01*
X38618Y-27539D01*
X38361Y-26968D02*
X38332Y-26939D01*
X38304Y-26882D01*
X38304Y-26739D01*
X38332Y-26682D01*
X38361Y-26653D01*
X38418Y-26625D01*
X38475Y-26625D01*
X38561Y-26653D01*
X38904Y-26996D01*
X38904Y-26625D01*
X38361Y-26396D02*
X38332Y-26368D01*
X38304Y-26311D01*
X38304Y-26168D01*
X38332Y-26111D01*
X38361Y-26082D01*
X38418Y-26053D01*
X38475Y-26053D01*
X38561Y-26082D01*
X38904Y-26425D01*
X38904Y-26053D01*
X37252Y-27328D02*
X37223Y-27385D01*
X37223Y-27471D01*
X37252Y-27557D01*
X37309Y-27614D01*
X37366Y-27643D01*
X37481Y-27671D01*
X37566Y-27671D01*
X37681Y-27643D01*
X37738Y-27614D01*
X37795Y-27557D01*
X37823Y-27471D01*
X37823Y-27414D01*
X37795Y-27328D01*
X37766Y-27300D01*
X37566Y-27300D01*
X37566Y-27414D01*
X37823Y-27043D02*
X37223Y-27043D01*
X37823Y-26700D01*
X37223Y-26700D01*
X37823Y-26414D02*
X37223Y-26414D01*
X37223Y-26271D01*
X37252Y-26185D01*
X37309Y-26128D01*
X37366Y-26100D01*
X37481Y-26071D01*
X37566Y-26071D01*
X37681Y-26100D01*
X37738Y-26128D01*
X37795Y-26185D01*
X37823Y-26271D01*
X37823Y-26414D01*
X51896Y-19980D02*
X51296Y-19980D01*
X51296Y-19751D01*
X51324Y-19694D01*
X51353Y-19666D01*
X51410Y-19637D01*
X51496Y-19637D01*
X51553Y-19666D01*
X51582Y-19694D01*
X51610Y-19751D01*
X51610Y-19980D01*
X51353Y-19409D02*
X51324Y-19380D01*
X51296Y-19323D01*
X51296Y-19180D01*
X51324Y-19123D01*
X51353Y-19094D01*
X51410Y-19066D01*
X51467Y-19066D01*
X51553Y-19094D01*
X51896Y-19437D01*
X51896Y-19066D01*
X51296Y-18866D02*
X51296Y-18494D01*
X51524Y-18694D01*
X51524Y-18609D01*
X51553Y-18551D01*
X51582Y-18523D01*
X51639Y-18494D01*
X51782Y-18494D01*
X51839Y-18523D01*
X51867Y-18551D01*
X51896Y-18609D01*
X51896Y-18780D01*
X51867Y-18837D01*
X51839Y-18866D01*
X50047Y-19750D02*
X50019Y-19807D01*
X50019Y-19892D01*
X50047Y-19978D01*
X50104Y-20035D01*
X50162Y-20064D01*
X50276Y-20092D01*
X50362Y-20092D01*
X50476Y-20064D01*
X50533Y-20035D01*
X50590Y-19978D01*
X50619Y-19892D01*
X50619Y-19835D01*
X50590Y-19750D01*
X50562Y-19721D01*
X50362Y-19721D01*
X50362Y-19835D01*
X50619Y-19464D02*
X50019Y-19464D01*
X50619Y-19121D01*
X50019Y-19121D01*
X50619Y-18835D02*
X50019Y-18835D01*
X50019Y-18692D01*
X50047Y-18607D01*
X50104Y-18550D01*
X50162Y-18521D01*
X50276Y-18492D01*
X50362Y-18492D01*
X50476Y-18521D01*
X50533Y-18550D01*
X50590Y-18607D01*
X50619Y-18692D01*
X50619Y-18835D01*
X67735Y-39376D02*
X67735Y-38776D01*
X67964Y-38776D01*
X68021Y-38805D01*
X68050Y-38833D01*
X68078Y-38891D01*
X68078Y-38976D01*
X68050Y-39033D01*
X68021Y-39062D01*
X67964Y-39091D01*
X67735Y-39091D01*
X68307Y-38833D02*
X68335Y-38805D01*
X68393Y-38776D01*
X68535Y-38776D01*
X68593Y-38805D01*
X68621Y-38833D01*
X68650Y-38891D01*
X68650Y-38948D01*
X68621Y-39033D01*
X68278Y-39376D01*
X68650Y-39376D01*
X69164Y-38976D02*
X69164Y-39376D01*
X69021Y-38748D02*
X68878Y-39176D01*
X69250Y-39176D01*
X68479Y-40183D02*
X68422Y-40154D01*
X68337Y-40154D01*
X68251Y-40183D01*
X68194Y-40240D01*
X68165Y-40297D01*
X68137Y-40411D01*
X68137Y-40497D01*
X68165Y-40611D01*
X68194Y-40668D01*
X68251Y-40726D01*
X68337Y-40754D01*
X68394Y-40754D01*
X68479Y-40726D01*
X68508Y-40697D01*
X68508Y-40497D01*
X68394Y-40497D01*
X68765Y-40754D02*
X68765Y-40154D01*
X69108Y-40754D01*
X69108Y-40154D01*
X69394Y-40754D02*
X69394Y-40154D01*
X69537Y-40154D01*
X69622Y-40183D01*
X69679Y-40240D01*
X69708Y-40297D01*
X69737Y-40411D01*
X69737Y-40497D01*
X69708Y-40611D01*
X69679Y-40668D01*
X69622Y-40726D01*
X69537Y-40754D01*
X69394Y-40754D01*
X75912Y-36515D02*
X75312Y-36515D01*
X75312Y-36287D01*
X75340Y-36230D01*
X75369Y-36201D01*
X75426Y-36173D01*
X75512Y-36173D01*
X75569Y-36201D01*
X75597Y-36230D01*
X75626Y-36287D01*
X75626Y-36515D01*
X75369Y-35944D02*
X75340Y-35915D01*
X75312Y-35858D01*
X75312Y-35715D01*
X75340Y-35658D01*
X75369Y-35630D01*
X75426Y-35601D01*
X75483Y-35601D01*
X75569Y-35630D01*
X75912Y-35973D01*
X75912Y-35601D01*
X75312Y-35058D02*
X75312Y-35344D01*
X75597Y-35373D01*
X75569Y-35344D01*
X75540Y-35287D01*
X75540Y-35144D01*
X75569Y-35087D01*
X75597Y-35058D01*
X75655Y-35030D01*
X75797Y-35030D01*
X75855Y-35058D01*
X75883Y-35087D01*
X75912Y-35144D01*
X75912Y-35287D01*
X75883Y-35344D01*
X75855Y-35373D01*
X75604Y-39889D02*
X75604Y-39432D01*
X75833Y-39661D02*
X75376Y-39661D01*
X75661Y-39175D02*
X75661Y-38889D01*
X75833Y-39232D02*
X75233Y-39032D01*
X75833Y-38832D01*
X75833Y-38632D02*
X75233Y-38632D01*
X75833Y-38347D02*
X75233Y-38347D01*
X75833Y-38004D01*
X75233Y-38004D01*
X75833Y-37404D02*
X75833Y-37747D01*
X75833Y-37575D02*
X75233Y-37575D01*
X75319Y-37632D01*
X75376Y-37689D01*
X75404Y-37747D01*
X78116Y-36555D02*
X77516Y-36555D01*
X77516Y-36326D01*
X77545Y-36269D01*
X77574Y-36241D01*
X77631Y-36212D01*
X77716Y-36212D01*
X77774Y-36241D01*
X77802Y-36269D01*
X77831Y-36326D01*
X77831Y-36555D01*
X77574Y-35983D02*
X77545Y-35955D01*
X77516Y-35898D01*
X77516Y-35755D01*
X77545Y-35698D01*
X77574Y-35669D01*
X77631Y-35641D01*
X77688Y-35641D01*
X77774Y-35669D01*
X78116Y-36012D01*
X78116Y-35641D01*
X77516Y-35126D02*
X77516Y-35241D01*
X77545Y-35298D01*
X77574Y-35326D01*
X77659Y-35383D01*
X77774Y-35412D01*
X78002Y-35412D01*
X78059Y-35383D01*
X78088Y-35355D01*
X78116Y-35298D01*
X78116Y-35183D01*
X78088Y-35126D01*
X78059Y-35098D01*
X78002Y-35069D01*
X77859Y-35069D01*
X77802Y-35098D01*
X77774Y-35126D01*
X77745Y-35183D01*
X77745Y-35298D01*
X77774Y-35355D01*
X77802Y-35383D01*
X77859Y-35412D01*
X77258Y-39929D02*
X77258Y-39472D01*
X77315Y-39215D02*
X77315Y-38929D01*
X77486Y-39272D02*
X76886Y-39072D01*
X77486Y-38872D01*
X77486Y-38672D02*
X76886Y-38672D01*
X77486Y-38386D02*
X76886Y-38386D01*
X77486Y-38043D01*
X76886Y-38043D01*
X77486Y-37443D02*
X77486Y-37786D01*
X77486Y-37615D02*
X76886Y-37615D01*
X76972Y-37672D01*
X77029Y-37729D01*
X77058Y-37786D01*
X41384Y-36279D02*
X40784Y-36279D01*
X40784Y-36051D01*
X40813Y-35994D01*
X40841Y-35965D01*
X40898Y-35936D01*
X40984Y-35936D01*
X41041Y-35965D01*
X41070Y-35994D01*
X41098Y-36051D01*
X41098Y-36279D01*
X40841Y-35708D02*
X40813Y-35679D01*
X40784Y-35622D01*
X40784Y-35479D01*
X40813Y-35422D01*
X40841Y-35394D01*
X40898Y-35365D01*
X40956Y-35365D01*
X41041Y-35394D01*
X41384Y-35736D01*
X41384Y-35365D01*
X40784Y-35165D02*
X40784Y-34765D01*
X41384Y-35022D01*
X41195Y-39693D02*
X41195Y-39235D01*
X41423Y-39464D02*
X40966Y-39464D01*
X41252Y-38978D02*
X41252Y-38693D01*
X41423Y-39035D02*
X40823Y-38835D01*
X41423Y-38635D01*
X41423Y-38435D02*
X40823Y-38435D01*
X41423Y-38150D02*
X40823Y-38150D01*
X41423Y-37807D01*
X40823Y-37807D01*
X40881Y-37550D02*
X40852Y-37521D01*
X40823Y-37464D01*
X40823Y-37321D01*
X40852Y-37264D01*
X40881Y-37235D01*
X40938Y-37207D01*
X40995Y-37207D01*
X41081Y-37235D01*
X41423Y-37578D01*
X41423Y-37207D01*
X44101Y-36279D02*
X43501Y-36279D01*
X43501Y-36051D01*
X43529Y-35994D01*
X43558Y-35965D01*
X43615Y-35936D01*
X43701Y-35936D01*
X43758Y-35965D01*
X43786Y-35994D01*
X43815Y-36051D01*
X43815Y-36279D01*
X43558Y-35708D02*
X43529Y-35679D01*
X43501Y-35622D01*
X43501Y-35479D01*
X43529Y-35422D01*
X43558Y-35394D01*
X43615Y-35365D01*
X43672Y-35365D01*
X43758Y-35394D01*
X44101Y-35736D01*
X44101Y-35365D01*
X43758Y-35022D02*
X43729Y-35079D01*
X43701Y-35108D01*
X43643Y-35136D01*
X43615Y-35136D01*
X43558Y-35108D01*
X43529Y-35079D01*
X43501Y-35022D01*
X43501Y-34908D01*
X43529Y-34851D01*
X43558Y-34822D01*
X43615Y-34794D01*
X43643Y-34794D01*
X43701Y-34822D01*
X43729Y-34851D01*
X43758Y-34908D01*
X43758Y-35022D01*
X43786Y-35079D01*
X43815Y-35108D01*
X43872Y-35136D01*
X43986Y-35136D01*
X44043Y-35108D01*
X44072Y-35079D01*
X44101Y-35022D01*
X44101Y-34908D01*
X44072Y-34851D01*
X44043Y-34822D01*
X43986Y-34794D01*
X43872Y-34794D01*
X43815Y-34822D01*
X43786Y-34851D01*
X43758Y-34908D01*
X43833Y-39653D02*
X43833Y-39196D01*
X43890Y-38939D02*
X43890Y-38653D01*
X44061Y-38996D02*
X43461Y-38796D01*
X44061Y-38596D01*
X44061Y-38396D02*
X43461Y-38396D01*
X44061Y-38110D02*
X43461Y-38110D01*
X44061Y-37768D01*
X43461Y-37768D01*
X43518Y-37510D02*
X43490Y-37482D01*
X43461Y-37425D01*
X43461Y-37282D01*
X43490Y-37225D01*
X43518Y-37196D01*
X43576Y-37168D01*
X43633Y-37168D01*
X43718Y-37196D01*
X44061Y-37539D01*
X44061Y-37168D01*
X84621Y-34951D02*
X84621Y-34351D01*
X84850Y-34351D01*
X84907Y-34380D01*
X84936Y-34408D01*
X84964Y-34465D01*
X84964Y-34551D01*
X84936Y-34608D01*
X84907Y-34637D01*
X84850Y-34665D01*
X84621Y-34665D01*
X85193Y-34408D02*
X85221Y-34380D01*
X85278Y-34351D01*
X85421Y-34351D01*
X85478Y-34380D01*
X85507Y-34408D01*
X85536Y-34465D01*
X85536Y-34522D01*
X85507Y-34608D01*
X85164Y-34951D01*
X85536Y-34951D01*
X85821Y-34951D02*
X85936Y-34951D01*
X85993Y-34922D01*
X86021Y-34894D01*
X86078Y-34808D01*
X86107Y-34694D01*
X86107Y-34465D01*
X86078Y-34408D01*
X86050Y-34380D01*
X85993Y-34351D01*
X85878Y-34351D01*
X85821Y-34380D01*
X85793Y-34408D01*
X85764Y-34465D01*
X85764Y-34608D01*
X85793Y-34665D01*
X85821Y-34694D01*
X85878Y-34722D01*
X85993Y-34722D01*
X86050Y-34694D01*
X86078Y-34665D01*
X86107Y-34608D01*
X79486Y-35430D02*
X79686Y-36030D01*
X79886Y-35430D01*
X80057Y-35858D02*
X80343Y-35858D01*
X80000Y-36030D02*
X80200Y-35430D01*
X80400Y-36030D01*
X80600Y-35801D02*
X81057Y-35801D01*
X80829Y-36030D02*
X80829Y-35573D01*
X84582Y-38179D02*
X84582Y-37579D01*
X84811Y-37579D01*
X84868Y-37608D01*
X84896Y-37637D01*
X84925Y-37694D01*
X84925Y-37779D01*
X84896Y-37837D01*
X84868Y-37865D01*
X84811Y-37894D01*
X84582Y-37894D01*
X85125Y-37579D02*
X85496Y-37579D01*
X85296Y-37808D01*
X85382Y-37808D01*
X85439Y-37837D01*
X85468Y-37865D01*
X85496Y-37922D01*
X85496Y-38065D01*
X85468Y-38122D01*
X85439Y-38151D01*
X85382Y-38179D01*
X85211Y-38179D01*
X85153Y-38151D01*
X85125Y-38122D01*
X85868Y-37579D02*
X85925Y-37579D01*
X85982Y-37608D01*
X86011Y-37637D01*
X86039Y-37694D01*
X86068Y-37808D01*
X86068Y-37951D01*
X86039Y-38065D01*
X86011Y-38122D01*
X85982Y-38151D01*
X85925Y-38179D01*
X85868Y-38179D01*
X85811Y-38151D01*
X85782Y-38122D01*
X85753Y-38065D01*
X85725Y-37951D01*
X85725Y-37808D01*
X85753Y-37694D01*
X85782Y-37637D01*
X85811Y-37608D01*
X85868Y-37579D01*
X79522Y-38540D02*
X79722Y-39140D01*
X79922Y-38540D01*
X80122Y-39140D02*
X80122Y-38540D01*
X80265Y-38540D01*
X80350Y-38569D01*
X80407Y-38626D01*
X80436Y-38683D01*
X80465Y-38797D01*
X80465Y-38883D01*
X80436Y-38997D01*
X80407Y-39054D01*
X80350Y-39111D01*
X80265Y-39140D01*
X80122Y-39140D01*
X80722Y-38911D02*
X81179Y-38911D01*
X80950Y-39140D02*
X80950Y-38683D01*
X85173Y-22274D02*
X85173Y-21674D01*
X85401Y-21674D01*
X85458Y-21702D01*
X85487Y-21731D01*
X85515Y-21788D01*
X85515Y-21874D01*
X85487Y-21931D01*
X85458Y-21960D01*
X85401Y-21988D01*
X85173Y-21988D01*
X85715Y-21674D02*
X86087Y-21674D01*
X85887Y-21902D01*
X85973Y-21902D01*
X86030Y-21931D01*
X86058Y-21960D01*
X86087Y-22017D01*
X86087Y-22160D01*
X86058Y-22217D01*
X86030Y-22245D01*
X85973Y-22274D01*
X85801Y-22274D01*
X85744Y-22245D01*
X85715Y-22217D01*
X86658Y-22274D02*
X86315Y-22274D01*
X86487Y-22274D02*
X86487Y-21674D01*
X86430Y-21760D01*
X86373Y-21817D01*
X86315Y-21845D01*
X79025Y-22792D02*
X78739Y-22792D01*
X78711Y-23078D01*
X78739Y-23049D01*
X78796Y-23021D01*
X78939Y-23021D01*
X78996Y-23049D01*
X79025Y-23078D01*
X79053Y-23135D01*
X79053Y-23278D01*
X79025Y-23335D01*
X78996Y-23363D01*
X78939Y-23392D01*
X78796Y-23392D01*
X78739Y-23363D01*
X78711Y-23335D01*
X79225Y-22792D02*
X79425Y-23392D01*
X79625Y-22792D01*
X79682Y-23449D02*
X80139Y-23449D01*
X80253Y-23221D02*
X80539Y-23221D01*
X80196Y-23392D02*
X80396Y-22792D01*
X80596Y-23392D01*
X80796Y-23392D02*
X80796Y-22792D01*
X81139Y-23392D01*
X81139Y-22792D01*
X81396Y-23221D02*
X81682Y-23221D01*
X81339Y-23392D02*
X81539Y-22792D01*
X81739Y-23392D01*
M02*
