M48
;DRILL file {Pcbnew (2013-03-19 BZR 4004)-stable} date 17.12.2013 14:30:59
;FORMAT={-:-/ absolute / inch / decimal}
FMAT,2
INCH,TZ
T1C0.025
T2C0.032
T3C0.040
T4C0.050
%
G90
G05
M72
T1
X3.4213Y-2.5984
X3.437Y-2.5039
X3.5236Y-2.9882
X3.8858Y-2.4055
X3.9319Y-1.7212
X3.9843Y-2.3543
X4.1146Y-1.524
X4.4252Y-2.3583
X4.4745Y-3.3178
X4.4882Y-2.4173
X4.5591Y-3.0409
X4.6051Y-1.4405
X4.626Y-2.3071
X4.6306Y-3.3456
X4.6704Y-2.0759
X4.6819Y-3.114
X4.7402Y-2.0433
X4.7596Y-3.7371
X4.7775Y-2.3265
X4.8071Y-3.4409
X4.8268Y-2.8189
X4.8346Y-2.7165
X4.9331Y-3.563
X4.9528Y-4.0315
X4.9699Y-2.4368
X4.9825Y-2.269
X5.0433Y-4.0354
X5.1181Y-3.012
X5.122Y-1.6496
X5.1355Y-4.3743
X5.1464Y-2.6708
X5.1732Y-3.9016
X5.1732Y-4.7323
X5.2166Y-2.5264
X5.2244Y-4.2697
X5.2517Y-2.2682
X5.2598Y-1.6142
X5.2638Y-2.748
X5.2786Y-1.7496
X5.292Y-2.046
X5.3147Y-4.258
X5.315Y-3.9016
X5.3272Y-3.1616
X5.3543Y-1.4134
X5.374Y-3.8898
X5.4616Y-3.1616
X5.4764Y-3.5748
X5.4921Y-1.4213
X5.5827Y-3.5787
X5.5871Y-2.1476
X5.6535Y-1.4803
X5.6977Y-3.9796
X5.7559Y-3.5472
X5.8071Y-2.0591
X5.8122Y-3.9993
X5.8189Y-3.4567
X5.8622Y-3.5472
X5.881Y-3.1703
X5.8945Y-1.7212
X5.9014Y-3.9837
X5.9135Y-2.2264
X5.9486Y-2.5861
X5.9646Y-1.9646
X5.9961Y-4.4646
X6.0079Y-2.0551
X6.0295Y-3.7121
X6.0352Y-3.1703
X6.0354Y-3.4449
X6.0354Y-3.5748
X6.1339Y-3.8937
X6.1457Y-4.4173
X6.1654Y-1.9016
X6.1811Y-1.5354
X6.2283Y-3.5433
X6.252Y-1.9685
X6.2756Y-3.5354
X6.2874Y-3.8898
X6.2895Y-3.1703
X6.3425Y-1.6732
X6.3976Y-1.4094
X6.4252Y-3.4409
X6.4276Y-3.1703
X6.4331Y-3.5472
X6.4358Y-3.8866
X6.4882Y-3.9921
X6.5039Y-3.8898
X6.5709Y-4.5472
X6.5748Y-3.4606
X6.5827Y-4.4331
X6.7047Y-1.7126
X6.7126Y-4.5551
X6.8228Y-4.4134
X6.8386Y-1.5787
X6.9058Y-4.4608
X7.0472Y-3.3092
X7.1062Y-2.514
X7.1473Y-3.8183
X7.2342Y-3.6843
X7.2911Y-4.0267
X7.3066Y-3.3547
X7.415Y-3.9121
X7.4517Y-4.1628
X7.4829Y-4.1953
X7.5472Y-3.8819
X7.5551Y-4.1772
X7.6417Y-2.0748
X7.748Y-2.1614
X7.7677Y-1.9567
X7.7953Y-3.874
X7.7969Y-3.8101
X7.8342Y-4.3431
X7.8504Y-4.189
X7.8701Y-2.0551
X8.1929Y-4.6969
T2
X4.1051Y-1.3335
X4.1339Y-2.3114
X4.1339Y-2.4114
X4.1339Y-2.5114
X4.1339Y-2.7126
X4.1339Y-3.2126
X4.3701Y-2.3114
X4.3701Y-2.4114
X4.3701Y-2.5114
X4.3701Y-2.7126
X4.3701Y-3.2126
X5.4528Y-1.8094
X5.4528Y-1.9094
X5.4528Y-2.0094
X5.6004Y-1.8094
X5.6004Y-1.9094
X5.6004Y-2.0094
X5.748Y-1.8094
X5.748Y-1.9094
X5.748Y-2.0094
X6.7051Y-1.3335
X7.3425Y-2.4098
X7.3425Y-2.5098
X7.3425Y-2.6098
X7.5591Y-2.4
X7.5591Y-2.5
X7.5591Y-2.6
X7.5591Y-2.8012
X7.5591Y-3.3012
X7.7953Y-2.4
X7.7953Y-2.5
X7.7953Y-2.6
X7.7953Y-2.8012
X7.7953Y-3.3012
T3
X3.1272Y-1.6996
X3.1272Y-1.7996
X3.1272Y-1.8996
X3.1272Y-1.9996
X3.1272Y-2.0996
X3.1272Y-2.1996
X3.1272Y-2.2996
X3.1272Y-2.3996
X3.1272Y-2.4996
X3.1272Y-2.5996
X3.1272Y-2.6996
X3.1272Y-2.7996
X3.1272Y-2.8996
X3.1272Y-2.9996
X3.1272Y-3.0996
X3.1272Y-3.1996
X3.1272Y-3.2996
X3.1272Y-3.3996
X3.1272Y-3.4996
X3.1272Y-3.5996
X3.2272Y-1.6996
X3.2272Y-1.7996
X3.2272Y-1.8996
X3.2272Y-1.9996
X3.2272Y-2.0996
X3.2272Y-2.1996
X3.2272Y-2.2996
X3.2272Y-2.3996
X3.2272Y-2.4996
X3.2272Y-2.5996
X3.2272Y-2.6996
X3.2272Y-2.7996
X3.2272Y-2.8996
X3.2272Y-2.9996
X3.2272Y-3.0996
X3.2272Y-3.1996
X3.2272Y-3.2996
X3.2272Y-3.3996
X3.2272Y-3.4996
X3.2272Y-3.5996
X3.8681Y-2.5772
X3.8681Y-2.7772
X3.8925Y-4.4579
X3.8925Y-4.5579
X3.9925Y-4.4579
X3.9925Y-4.5579
X4.0925Y-4.4579
X4.0925Y-4.5579
X4.1051Y-1.2335
X4.1142Y-3.4236
X4.1142Y-3.6236
X4.1925Y-4.4579
X4.1925Y-4.5579
X4.2051Y-1.2335
X4.2051Y-1.3335
X4.2925Y-4.4579
X4.2925Y-4.5579
X4.3051Y-1.2335
X4.3051Y-1.3335
X4.3799Y-3.4236
X4.3799Y-3.6236
X4.3925Y-4.4579
X4.3925Y-4.5579
X4.4051Y-1.2335
X4.4051Y-1.3335
X4.4925Y-4.4579
X4.4925Y-4.5579
X4.5051Y-1.2335
X4.5051Y-1.3335
X4.5925Y-4.4579
X4.5925Y-4.5579
X4.6051Y-1.2335
X4.6051Y-1.3335
X4.6161Y-2.6362
X4.6161Y-2.8362
X4.6925Y-4.4579
X4.6925Y-4.5579
X4.7051Y-1.2335
X4.7051Y-1.3335
X4.7638Y-2.6362
X4.7638Y-2.8362
X4.7925Y-4.4579
X4.7925Y-4.5579
X4.8051Y-1.2335
X4.8051Y-1.3335
X4.8925Y-4.4579
X4.8925Y-4.5579
X4.9051Y-1.2335
X4.9051Y-1.3335
X4.9114Y-2.6362
X4.9114Y-2.8362
X4.9925Y-4.4579
X4.9925Y-4.5579
X5.0051Y-1.2335
X5.0051Y-1.3335
X5.0591Y-2.6362
X5.0591Y-2.8362
X5.0925Y-4.4579
X5.0925Y-4.5579
X5.1051Y-1.2335
X5.1051Y-1.3335
X5.1476Y-1.8193
X5.1476Y-2.0193
X5.1925Y-4.4579
X5.1925Y-4.5579
X5.1969Y-2.6362
X5.1969Y-2.8362
X5.2051Y-1.2335
X5.2051Y-1.3335
X5.2925Y-4.4579
X5.2925Y-4.5579
X5.3051Y-1.2335
X5.3051Y-1.3335
X5.3346Y-2.6362
X5.3346Y-2.8362
X5.3925Y-4.4579
X5.3925Y-4.5579
X5.4051Y-1.2335
X5.4051Y-1.3335
X5.4724Y-2.6362
X5.4724Y-2.8362
X5.4925Y-4.4579
X5.4925Y-4.5579
X5.5051Y-1.2335
X5.5051Y-1.3335
X5.5925Y-4.4579
X5.5925Y-4.5579
X5.6051Y-1.2335
X5.6051Y-1.3335
X5.6102Y-2.6362
X5.6102Y-2.8362
X5.6925Y-4.4579
X5.6925Y-4.5579
X5.7051Y-1.2335
X5.7051Y-1.3335
X5.7382Y-2.6362
X5.7382Y-2.8362
X5.7925Y-4.4579
X5.7925Y-4.5579
X5.8051Y-1.2335
X5.8051Y-1.3335
X5.876Y-2.6362
X5.876Y-2.8362
X5.9051Y-1.2335
X5.9051Y-1.3335
X6.0051Y-1.2335
X6.0051Y-1.3335
X6.0138Y-2.6362
X6.0138Y-2.8362
X6.1516Y-2.6362
X6.1516Y-2.8362
X6.2992Y-2.6362
X6.2992Y-2.8362
X6.437Y-2.6362
X6.437Y-2.8362
X6.624Y-3.0201
X6.624Y-3.1201
X6.624Y-3.2201
X6.624Y-3.4138
X6.624Y-3.6138
X6.7051Y-1.2335
X6.7799Y-2.7657
X6.7799Y-3.9075
X6.8051Y-1.2335
X6.8051Y-1.3335
X6.8209Y-3.0201
X6.8209Y-3.1201
X6.8209Y-3.2201
X6.8209Y-3.4138
X6.8209Y-3.6138
X6.9051Y-1.2335
X6.9051Y-1.3335
X6.9799Y-2.7657
X6.9799Y-3.9075
X6.9929Y-4.4579
X6.9929Y-4.5579
X7.0051Y-1.2335
X7.0051Y-1.3335
X7.0177Y-3.0201
X7.0177Y-3.1201
X7.0177Y-3.2201
X7.0177Y-3.4138
X7.0177Y-3.6138
X7.0929Y-4.4579
X7.0929Y-4.5579
X7.1051Y-1.2335
X7.1051Y-1.3335
X7.1929Y-4.4579
X7.1929Y-4.5579
X7.2051Y-1.2335
X7.2051Y-1.3335
X7.2146Y-3.0201
X7.2146Y-3.1201
X7.2146Y-3.2201
X7.2146Y-3.4138
X7.2146Y-3.6138
X7.2929Y-4.4579
X7.2929Y-4.5579
X7.3051Y-1.2335
X7.3051Y-1.3335
X7.3929Y-4.4579
X7.3929Y-4.5579
X7.4051Y-1.2335
X7.4051Y-1.3335
X7.4929Y-4.4579
X7.4929Y-4.5579
X7.5051Y-1.2335
X7.5051Y-1.3335
X7.5591Y-3.4531
X7.5591Y-3.6531
X7.5929Y-4.4579
X7.5929Y-4.5579
X7.6051Y-1.2335
X7.6051Y-1.3335
X7.6929Y-4.4579
X7.6929Y-4.5579
X7.7051Y-1.2335
X7.7051Y-1.3335
X7.7756Y-3.4531
X7.7756Y-3.6531
X7.7929Y-4.4579
X7.7929Y-4.5579
X7.8051Y-1.2335
X7.8051Y-1.3335
X7.8929Y-4.4579
X7.8929Y-4.5579
X7.9051Y-1.2335
X7.9051Y-1.3335
X7.9929Y-4.4579
X7.9929Y-4.5579
X8.0929Y-4.4579
X8.0929Y-4.5579
X8.1201Y-2.8921
X8.1201Y-3.0921
X8.1874Y-2.628
X8.1929Y-4.4579
X8.1929Y-4.5579
X8.2874Y-2.628
X8.2929Y-4.4579
X8.2929Y-4.5579
X8.3874Y-2.628
X8.3929Y-4.4579
X8.3929Y-4.5579
X8.4929Y-4.4579
X8.4929Y-4.5579
X8.5929Y-4.4579
X8.5929Y-4.5579
X8.6598Y-1.2878
X8.6598Y-1.4878
X8.6929Y-4.4579
X8.6929Y-4.5579
X8.7598Y-1.3878
X8.7929Y-4.4579
X8.7929Y-4.5579
X8.8598Y-1.2878
X8.8598Y-1.4878
X8.8929Y-4.4579
X8.8929Y-4.5579
T4
X8.1811Y-3.8937
X8.185Y-3.5709
X8.2382Y-1.939
X8.2402Y-2.3031
X8.8811Y-3.8937
X8.885Y-3.5709
X8.9382Y-1.939
X8.9402Y-2.3031
T0
M30
