G04 (created by PCBNEW-RS274X (2011-04-29 BZR 2986)-stable) date 6/8/2011 10:42:55 AM*
G01*
G70*
G90*
%MOIN*%
G04 Gerber Fmt 3.4, Leading zero omitted, Abs format*
%FSLAX34Y34*%
G04 APERTURE LIST*
%ADD10C,0.006000*%
%ADD11R,0.011800X0.004000*%
%ADD12R,0.070900X0.039400*%
%ADD13C,0.023600*%
%ADD14C,0.035000*%
%ADD15C,0.004000*%
%ADD16C,0.008000*%
%ADD17C,0.016000*%
G04 APERTURE END LIST*
G54D10*
G36*
X61397Y-32834D02*
X60158Y-31595D01*
X60327Y-31426D01*
X61566Y-32665D01*
X61397Y-32834D01*
X61397Y-32834D01*
G37*
G36*
X61675Y-32556D02*
X60436Y-31317D01*
X60605Y-31148D01*
X61844Y-32387D01*
X61675Y-32556D01*
X61675Y-32556D01*
G37*
G36*
X65851Y-28380D02*
X64612Y-27141D01*
X64781Y-26972D01*
X66020Y-28211D01*
X65851Y-28380D01*
X65851Y-28380D01*
G37*
G36*
X65573Y-28658D02*
X64334Y-27419D01*
X64503Y-27250D01*
X65742Y-28489D01*
X65573Y-28658D01*
X65573Y-28658D01*
G37*
G36*
X65295Y-28936D02*
X64056Y-27697D01*
X64225Y-27528D01*
X65464Y-28767D01*
X65295Y-28936D01*
X65295Y-28936D01*
G37*
G36*
X65016Y-29215D02*
X63777Y-27976D01*
X63946Y-27807D01*
X65185Y-29046D01*
X65016Y-29215D01*
X65016Y-29215D01*
G37*
G36*
X64738Y-29493D02*
X63499Y-28254D01*
X63668Y-28085D01*
X64907Y-29324D01*
X64738Y-29493D01*
X64738Y-29493D01*
G37*
G36*
X64180Y-30051D02*
X62941Y-28812D01*
X63110Y-28643D01*
X64349Y-29882D01*
X64180Y-30051D01*
X64180Y-30051D01*
G37*
G36*
X63903Y-30328D02*
X62664Y-29089D01*
X62833Y-28920D01*
X64072Y-30159D01*
X63903Y-30328D01*
X63903Y-30328D01*
G37*
G36*
X63624Y-30607D02*
X62385Y-29368D01*
X62554Y-29199D01*
X63793Y-30438D01*
X63624Y-30607D01*
X63624Y-30607D01*
G37*
G36*
X63345Y-30886D02*
X62106Y-29647D01*
X62275Y-29478D01*
X63514Y-30717D01*
X63345Y-30886D01*
X63345Y-30886D01*
G37*
G36*
X63067Y-31164D02*
X61828Y-29925D01*
X61997Y-29756D01*
X63236Y-30995D01*
X63067Y-31164D01*
X63067Y-31164D01*
G37*
G36*
X69470Y-24761D02*
X68231Y-23522D01*
X68400Y-23353D01*
X69639Y-24592D01*
X69470Y-24761D01*
X69470Y-24761D01*
G37*
G36*
X62789Y-31442D02*
X61550Y-30203D01*
X61719Y-30034D01*
X62958Y-31273D01*
X62789Y-31442D01*
X62789Y-31442D01*
G37*
G36*
X62510Y-31721D02*
X61271Y-30482D01*
X61440Y-30313D01*
X62679Y-31552D01*
X62510Y-31721D01*
X62510Y-31721D01*
G37*
G36*
X62232Y-31999D02*
X60993Y-30760D01*
X61162Y-30591D01*
X62401Y-31830D01*
X62232Y-31999D01*
X62232Y-31999D01*
G37*
G36*
X69192Y-25039D02*
X67953Y-23800D01*
X68122Y-23631D01*
X69361Y-24870D01*
X69192Y-25039D01*
X69192Y-25039D01*
G37*
G36*
X68913Y-25318D02*
X67674Y-24079D01*
X67843Y-23910D01*
X69082Y-25149D01*
X68913Y-25318D01*
X68913Y-25318D01*
G37*
G36*
X68635Y-25596D02*
X67396Y-24357D01*
X67565Y-24188D01*
X68804Y-25427D01*
X68635Y-25596D01*
X68635Y-25596D01*
G37*
G36*
X68357Y-25874D02*
X67118Y-24635D01*
X67287Y-24466D01*
X68526Y-25705D01*
X68357Y-25874D01*
X68357Y-25874D01*
G37*
G36*
X68078Y-26153D02*
X66839Y-24914D01*
X67008Y-24745D01*
X68247Y-25984D01*
X68078Y-26153D01*
X68078Y-26153D01*
G37*
G36*
X67800Y-26431D02*
X66561Y-25192D01*
X66730Y-25023D01*
X67969Y-26262D01*
X67800Y-26431D01*
X67800Y-26431D01*
G37*
G36*
X67521Y-26710D02*
X66282Y-25471D01*
X66451Y-25302D01*
X67690Y-26541D01*
X67521Y-26710D01*
X67521Y-26710D01*
G37*
G36*
X67243Y-26988D02*
X66004Y-25749D01*
X66173Y-25580D01*
X67412Y-26819D01*
X67243Y-26988D01*
X67243Y-26988D01*
G37*
G36*
X66964Y-27267D02*
X65725Y-26028D01*
X65894Y-25859D01*
X67133Y-27098D01*
X66964Y-27267D01*
X66964Y-27267D01*
G37*
G36*
X66686Y-27545D02*
X65447Y-26306D01*
X65616Y-26137D01*
X66855Y-27376D01*
X66686Y-27545D01*
X66686Y-27545D01*
G37*
G36*
X66408Y-27823D02*
X65169Y-26584D01*
X65338Y-26415D01*
X66577Y-27654D01*
X66408Y-27823D01*
X66408Y-27823D01*
G37*
G36*
X66130Y-28101D02*
X64891Y-26862D01*
X65060Y-26693D01*
X66299Y-27932D01*
X66130Y-28101D01*
X66130Y-28101D01*
G37*
G36*
X61954Y-32277D02*
X60715Y-31038D01*
X60884Y-30869D01*
X62123Y-32108D01*
X61954Y-32277D01*
X61954Y-32277D01*
G37*
G36*
X71140Y-23091D02*
X69901Y-21852D01*
X70070Y-21683D01*
X71309Y-22922D01*
X71140Y-23091D01*
X71140Y-23091D01*
G37*
G36*
X70305Y-23926D02*
X69066Y-22687D01*
X69235Y-22518D01*
X70474Y-23757D01*
X70305Y-23926D01*
X70305Y-23926D01*
G37*
G36*
X70584Y-23647D02*
X69345Y-22408D01*
X69514Y-22239D01*
X70753Y-23478D01*
X70584Y-23647D01*
X70584Y-23647D01*
G37*
G36*
X70862Y-23369D02*
X69623Y-22130D01*
X69792Y-21961D01*
X71031Y-23200D01*
X70862Y-23369D01*
X70862Y-23369D01*
G37*
G36*
X60284Y-33947D02*
X59045Y-32708D01*
X59214Y-32539D01*
X60453Y-33778D01*
X60284Y-33947D01*
X60284Y-33947D01*
G37*
G36*
X70027Y-24204D02*
X68788Y-22965D01*
X68957Y-22796D01*
X70196Y-24035D01*
X70027Y-24204D01*
X70027Y-24204D01*
G37*
G36*
X69749Y-24482D02*
X68510Y-23243D01*
X68679Y-23074D01*
X69918Y-24313D01*
X69749Y-24482D01*
X69749Y-24482D01*
G37*
G36*
X61119Y-33112D02*
X59880Y-31873D01*
X60049Y-31704D01*
X61288Y-32943D01*
X61119Y-33112D01*
X61119Y-33112D01*
G37*
G36*
X60840Y-33391D02*
X59601Y-32152D01*
X59770Y-31983D01*
X61009Y-33222D01*
X60840Y-33391D01*
X60840Y-33391D01*
G37*
G36*
X60561Y-33670D02*
X59322Y-32431D01*
X59491Y-32262D01*
X60730Y-33501D01*
X60561Y-33670D01*
X60561Y-33670D01*
G37*
G54D11*
X62845Y-20446D03*
X62845Y-20525D03*
X62845Y-20643D03*
X62845Y-20722D03*
X62845Y-20800D03*
X62845Y-20879D03*
X62846Y-20958D03*
X62845Y-21037D03*
X62845Y-21115D03*
X62845Y-21194D03*
X62845Y-21274D03*
X62845Y-21430D03*
X62845Y-21509D03*
X62845Y-21588D03*
X62845Y-21666D03*
X62845Y-21745D03*
X62845Y-21824D03*
X62845Y-21903D03*
X62845Y-21981D03*
X62845Y-22100D03*
X62845Y-22178D03*
X62845Y-22257D03*
X62846Y-22336D03*
X62845Y-22415D03*
X62845Y-22493D03*
X62845Y-22572D03*
X62845Y-22651D03*
X62845Y-22769D03*
X62845Y-22848D03*
X62845Y-17887D03*
X62845Y-17966D03*
X62845Y-18084D03*
X62845Y-18163D03*
X62845Y-18241D03*
X62845Y-18320D03*
X62845Y-18398D03*
X62845Y-18478D03*
X62845Y-18556D03*
X62845Y-18635D03*
X62845Y-18714D03*
X62845Y-18871D03*
X62845Y-18950D03*
X62845Y-19029D03*
X62845Y-19107D03*
X62845Y-19186D03*
X62845Y-19265D03*
X62845Y-19344D03*
X62845Y-19422D03*
X62845Y-19541D03*
X62845Y-19619D03*
X62845Y-19698D03*
X62846Y-19777D03*
X62845Y-19855D03*
X62845Y-19934D03*
X62845Y-20013D03*
X62845Y-20091D03*
X62845Y-20210D03*
X62845Y-20289D03*
X52910Y-22844D03*
X52910Y-22765D03*
X52910Y-22647D03*
X52910Y-22568D03*
X52910Y-22489D03*
X52910Y-22411D03*
X52910Y-22332D03*
X52910Y-22253D03*
X52910Y-22174D03*
X52910Y-22096D03*
X52910Y-22017D03*
X52910Y-21859D03*
X52910Y-21781D03*
X52910Y-21702D03*
X52910Y-21623D03*
X52910Y-21545D03*
X52910Y-21466D03*
X52910Y-21387D03*
X52910Y-21308D03*
X52910Y-21190D03*
X52910Y-21111D03*
X52910Y-21033D03*
X52910Y-20954D03*
X52910Y-20875D03*
X52910Y-20796D03*
X52910Y-20718D03*
X52910Y-20639D03*
X52910Y-20521D03*
X52910Y-20442D03*
X52910Y-20293D03*
X52910Y-20214D03*
X52910Y-20096D03*
X52910Y-20017D03*
X52910Y-19938D03*
X52910Y-19859D03*
X52910Y-19781D03*
X52910Y-19702D03*
X52910Y-19623D03*
X52910Y-19545D03*
X52910Y-19466D03*
X52910Y-19308D03*
X52910Y-19230D03*
X52910Y-19151D03*
X52910Y-19072D03*
X52910Y-18993D03*
X52910Y-18915D03*
X52910Y-18836D03*
X52910Y-18757D03*
X52910Y-18639D03*
X52910Y-18560D03*
X52910Y-18482D03*
X52910Y-18403D03*
X52910Y-18324D03*
X52910Y-18245D03*
X52910Y-18167D03*
X52910Y-18088D03*
X52910Y-17970D03*
X52910Y-17891D03*
G54D12*
X47244Y-20768D03*
X47244Y-19784D03*
G54D10*
G36*
X58415Y-30812D02*
X57914Y-31313D01*
X57635Y-31034D01*
X58136Y-30533D01*
X58415Y-30812D01*
X58415Y-30812D01*
G37*
G36*
X57719Y-30116D02*
X57218Y-30617D01*
X56939Y-30338D01*
X57440Y-29837D01*
X57719Y-30116D01*
X57719Y-30116D01*
G37*
G36*
X59766Y-10883D02*
X59265Y-11384D01*
X58986Y-11105D01*
X59487Y-10604D01*
X59766Y-10883D01*
X59766Y-10883D01*
G37*
G36*
X59070Y-10187D02*
X58569Y-10688D01*
X58290Y-10409D01*
X58791Y-09908D01*
X59070Y-10187D01*
X59070Y-10187D01*
G37*
G54D12*
X68307Y-19921D03*
X68307Y-20905D03*
G54D13*
X67224Y-18012D03*
X67224Y-22480D03*
X48524Y-20453D03*
X48524Y-18209D03*
X67224Y-20295D03*
X66831Y-17618D03*
X66831Y-22874D03*
X48917Y-17815D03*
X48917Y-20453D03*
X66831Y-20295D03*
X67618Y-22087D03*
X67618Y-20295D03*
X48130Y-20453D03*
X48130Y-18602D03*
X66437Y-17618D03*
X66437Y-22874D03*
X49311Y-17815D03*
X49311Y-20453D03*
X66437Y-20295D03*
X65846Y-17894D03*
X65846Y-20571D03*
X49902Y-20177D03*
X49902Y-22835D03*
X65059Y-17894D03*
X65059Y-20571D03*
X50689Y-20177D03*
X50689Y-22835D03*
X53878Y-17756D03*
X53858Y-20433D03*
X61909Y-22854D03*
X61929Y-20295D03*
G54D14*
X47559Y-19252D03*
X57343Y-29528D03*
X68583Y-21476D03*
X68445Y-22657D03*
X58169Y-10059D03*
X55748Y-10295D03*
G54D13*
X63878Y-17894D03*
X63878Y-20571D03*
X51870Y-20177D03*
X51870Y-22835D03*
X64272Y-17894D03*
X64272Y-20571D03*
X51476Y-20177D03*
X51476Y-22835D03*
X63287Y-17618D03*
X63287Y-20295D03*
X63287Y-22874D03*
X52461Y-20453D03*
X52461Y-17815D03*
X63091Y-17894D03*
X63091Y-20531D03*
X52657Y-22835D03*
X52657Y-20217D03*
X65453Y-17894D03*
X65453Y-20571D03*
X50295Y-20177D03*
X50295Y-22835D03*
X48720Y-22835D03*
X66634Y-17894D03*
X49114Y-20177D03*
X49114Y-22835D03*
X66634Y-20571D03*
X68012Y-21693D03*
X53858Y-19232D03*
X53858Y-21535D03*
X61909Y-21516D03*
X61929Y-19193D03*
X48327Y-20177D03*
X48327Y-22441D03*
X67028Y-20571D03*
X67028Y-18287D03*
X47933Y-20177D03*
X47933Y-22047D03*
X67421Y-20571D03*
X67421Y-18681D03*
X63484Y-17894D03*
X63484Y-20571D03*
X52264Y-20177D03*
X52264Y-22835D03*
X65256Y-17618D03*
X65256Y-20295D03*
X65256Y-22874D03*
X50492Y-17815D03*
X50492Y-20453D03*
X65650Y-17618D03*
X65650Y-20295D03*
X65650Y-22874D03*
X50098Y-20453D03*
X50098Y-17815D03*
X66043Y-17618D03*
X66043Y-20295D03*
X66043Y-22874D03*
X49705Y-17815D03*
X49705Y-20453D03*
X64469Y-17618D03*
X64469Y-20295D03*
X64469Y-22874D03*
X51280Y-17815D03*
X51280Y-20453D03*
X64862Y-17618D03*
X64862Y-20295D03*
X64862Y-22874D03*
X50886Y-20453D03*
X50886Y-17815D03*
X63681Y-17618D03*
X63681Y-20295D03*
X63681Y-22874D03*
X52067Y-17815D03*
X52067Y-20453D03*
X64075Y-17618D03*
X64075Y-20295D03*
X64075Y-22874D03*
X51673Y-17815D03*
X51673Y-20453D03*
X64665Y-17894D03*
X64665Y-20571D03*
X51083Y-20177D03*
X51083Y-22835D03*
X54331Y-20157D03*
X61417Y-20630D03*
X61476Y-17461D03*
G54D14*
X46437Y-19272D03*
X47421Y-21535D03*
X59016Y-31850D03*
G54D13*
X54331Y-22835D03*
G54D14*
X53583Y-23189D03*
X50295Y-25492D03*
X55906Y-25492D03*
G54D13*
X53248Y-20079D03*
X62539Y-20728D03*
X62480Y-18209D03*
G54D14*
X59961Y-30689D03*
X47579Y-17972D03*
X68386Y-19370D03*
X59724Y-11457D03*
G54D13*
X53248Y-22638D03*
X66240Y-17894D03*
X66240Y-20571D03*
X49508Y-20177D03*
X49508Y-22835D03*
G54D15*
X48524Y-17815D02*
X48524Y-18209D01*
X50099Y-16240D02*
X48524Y-17815D01*
X65748Y-16240D02*
X50099Y-16240D01*
X67224Y-17716D02*
X65748Y-16240D01*
X67224Y-18012D02*
X67224Y-17716D01*
X67224Y-22480D02*
X67224Y-23460D01*
X67224Y-23460D02*
X68378Y-24614D01*
X66647Y-21903D02*
X67224Y-22480D01*
X66647Y-21903D02*
X62845Y-21903D01*
X49458Y-21387D02*
X48524Y-20453D01*
X49458Y-21387D02*
X52910Y-21387D01*
X52910Y-18836D02*
X49151Y-18836D01*
X49151Y-18836D02*
X48524Y-18209D01*
X62845Y-19344D02*
X66273Y-19344D01*
X66273Y-19344D02*
X67224Y-20295D01*
X50393Y-16339D02*
X48917Y-17815D01*
X65552Y-16339D02*
X50393Y-16339D01*
X66831Y-17618D02*
X65552Y-16339D01*
X66831Y-22874D02*
X66831Y-23623D01*
X66831Y-23623D02*
X68100Y-24892D01*
X65938Y-21981D02*
X66831Y-22874D01*
X65938Y-21981D02*
X62845Y-21981D01*
X49772Y-21308D02*
X48917Y-20453D01*
X52910Y-21308D02*
X49772Y-21308D01*
X49859Y-18757D02*
X48917Y-17815D01*
X49859Y-18757D02*
X52910Y-18757D01*
X62845Y-19422D02*
X65958Y-19422D01*
X65958Y-19422D02*
X66831Y-20295D01*
X67618Y-20295D02*
X67618Y-17914D01*
X48130Y-17815D02*
X48130Y-18602D01*
X49803Y-16142D02*
X48130Y-17815D01*
X65846Y-16142D02*
X49803Y-16142D01*
X67618Y-17914D02*
X65846Y-16142D01*
X67618Y-22087D02*
X67618Y-23296D01*
X67618Y-23296D02*
X68657Y-24335D01*
X67355Y-21824D02*
X67618Y-22087D01*
X62845Y-21824D02*
X67355Y-21824D01*
X66588Y-19265D02*
X67618Y-20295D01*
X66588Y-19265D02*
X62845Y-19265D01*
X49143Y-21466D02*
X52910Y-21466D01*
X49143Y-21466D02*
X48130Y-20453D01*
X52910Y-18915D02*
X48443Y-18915D01*
X48443Y-18915D02*
X48130Y-18602D01*
X50689Y-16437D02*
X49311Y-17815D01*
X65256Y-16437D02*
X50689Y-16437D01*
X66437Y-17618D02*
X65256Y-16437D01*
X66437Y-22874D02*
X66437Y-23785D01*
X66437Y-23785D02*
X67822Y-25170D01*
X65663Y-22100D02*
X66437Y-22874D01*
X65663Y-22100D02*
X62845Y-22100D01*
X50048Y-21190D02*
X49311Y-20453D01*
X52910Y-21190D02*
X50048Y-21190D01*
X50135Y-18639D02*
X49311Y-17815D01*
X50135Y-18639D02*
X52910Y-18639D01*
X62845Y-19541D02*
X65683Y-19541D01*
X65683Y-19541D02*
X66437Y-20295D01*
X49902Y-22835D02*
X53740Y-26673D01*
X59859Y-26673D02*
X63089Y-29903D01*
X53740Y-26673D02*
X59859Y-26673D01*
X65223Y-21194D02*
X65846Y-20571D01*
X62845Y-21194D02*
X65223Y-21194D01*
X65105Y-18635D02*
X65846Y-17894D01*
X65105Y-18635D02*
X62845Y-18635D01*
X50534Y-19545D02*
X49902Y-20177D01*
X50534Y-19545D02*
X52910Y-19545D01*
X52910Y-22096D02*
X50641Y-22096D01*
X50641Y-22096D02*
X49902Y-22835D01*
X50689Y-22835D02*
X54330Y-26476D01*
X60774Y-26476D02*
X63645Y-29347D01*
X54330Y-26476D02*
X60774Y-26476D01*
X64593Y-21037D02*
X65059Y-20571D01*
X62845Y-21037D02*
X64593Y-21037D01*
X64475Y-18478D02*
X65059Y-17894D01*
X64475Y-18478D02*
X62845Y-18478D01*
X51164Y-19702D02*
X50689Y-20177D01*
X51164Y-19702D02*
X52910Y-19702D01*
X52910Y-22253D02*
X51271Y-22253D01*
X51271Y-22253D02*
X50689Y-22835D01*
X52910Y-17891D02*
X53045Y-17756D01*
G54D16*
X53045Y-17756D02*
X53878Y-17756D01*
G54D15*
X52910Y-20442D02*
X53062Y-20442D01*
X53849Y-20442D02*
X53858Y-20433D01*
G54D16*
X53062Y-20442D02*
X53849Y-20442D01*
G54D15*
X62845Y-22848D02*
X62723Y-22848D01*
X61915Y-22848D02*
X61909Y-22854D01*
G54D16*
X62723Y-22848D02*
X61915Y-22848D01*
G54D15*
X62845Y-20289D02*
X62683Y-20289D01*
X61935Y-20289D02*
X61929Y-20295D01*
G54D16*
X62683Y-20289D02*
X61935Y-20289D01*
G54D17*
X47244Y-19784D02*
X47244Y-19567D01*
X47244Y-19567D02*
X47559Y-19252D01*
X57329Y-30227D02*
X57329Y-29542D01*
X57329Y-29542D02*
X57343Y-29528D01*
X68307Y-20905D02*
X68583Y-21181D01*
X68583Y-21181D02*
X68583Y-21476D01*
X69214Y-23778D02*
X68445Y-23009D01*
X68445Y-23009D02*
X68445Y-22657D01*
X58680Y-10298D02*
X58441Y-10059D01*
X58441Y-10059D02*
X58169Y-10059D01*
G54D15*
X51870Y-22835D02*
X55216Y-26181D01*
X62709Y-26181D02*
X64760Y-28232D01*
X55216Y-26181D02*
X62709Y-26181D01*
X63649Y-20800D02*
X63878Y-20571D01*
X62845Y-20800D02*
X63649Y-20800D01*
X63531Y-18241D02*
X63878Y-17894D01*
X63531Y-18241D02*
X62845Y-18241D01*
X52109Y-19938D02*
X51870Y-20177D01*
X52109Y-19938D02*
X52910Y-19938D01*
X52910Y-22489D02*
X52216Y-22489D01*
X52216Y-22489D02*
X51870Y-22835D01*
X51476Y-22835D02*
X54921Y-26280D01*
X62250Y-26280D02*
X64481Y-28511D01*
X54921Y-26280D02*
X62250Y-26280D01*
X63964Y-20879D02*
X64272Y-20571D01*
X62845Y-20879D02*
X63964Y-20879D01*
X63846Y-18320D02*
X64272Y-17894D01*
X63846Y-18320D02*
X62845Y-18320D01*
X51794Y-19859D02*
X51476Y-20177D01*
X51794Y-19859D02*
X52910Y-19859D01*
X52910Y-22411D02*
X51900Y-22411D01*
X51900Y-22411D02*
X51476Y-22835D01*
X53052Y-17224D02*
X52461Y-17815D01*
X62893Y-17224D02*
X53052Y-17224D01*
X63287Y-17618D02*
X62893Y-17224D01*
X63287Y-22874D02*
X63287Y-25089D01*
X63287Y-25089D02*
X65595Y-27397D01*
X63202Y-20210D02*
X63287Y-20295D01*
X62845Y-20210D02*
X63202Y-20210D01*
X63182Y-22769D02*
X63287Y-22874D01*
X63182Y-22769D02*
X62845Y-22769D01*
X52529Y-20521D02*
X52910Y-20521D01*
X52529Y-20521D02*
X52461Y-20453D01*
X52910Y-17970D02*
X52616Y-17970D01*
X52616Y-17970D02*
X52461Y-17815D01*
X52657Y-22835D02*
X55806Y-25984D01*
X63624Y-25984D02*
X65316Y-27676D01*
X55806Y-25984D02*
X63624Y-25984D01*
X62901Y-18084D02*
X63091Y-17894D01*
X62901Y-18084D02*
X62845Y-18084D01*
X62940Y-20643D02*
X63091Y-20531D01*
X62845Y-20643D02*
X62940Y-20643D01*
X52910Y-22647D02*
X52845Y-22647D01*
X52845Y-22647D02*
X52657Y-22835D01*
X52778Y-20096D02*
X52657Y-20217D01*
X52778Y-20096D02*
X52910Y-20096D01*
X50295Y-22835D02*
X54035Y-26575D01*
X60319Y-26575D02*
X63368Y-29624D01*
X54035Y-26575D02*
X60319Y-26575D01*
X64909Y-21115D02*
X65453Y-20571D01*
X62845Y-21115D02*
X64909Y-21115D01*
X64791Y-18556D02*
X65453Y-17894D01*
X64791Y-18556D02*
X62845Y-18556D01*
X50849Y-19623D02*
X50295Y-20177D01*
X50849Y-19623D02*
X52910Y-19623D01*
X52910Y-22174D02*
X50956Y-22174D01*
X50956Y-22174D02*
X50295Y-22835D01*
X49774Y-21781D02*
X48720Y-22835D01*
X48720Y-22835D02*
X52854Y-26969D01*
X58485Y-26969D02*
X62254Y-30738D01*
X52854Y-26969D02*
X58485Y-26969D01*
X52910Y-21781D02*
X49774Y-21781D01*
X49114Y-22835D02*
X53149Y-26870D01*
X58942Y-26870D02*
X62532Y-30460D01*
X53149Y-26870D02*
X58942Y-26870D01*
X65657Y-18871D02*
X66634Y-17894D01*
X65657Y-18871D02*
X62845Y-18871D01*
X49983Y-19308D02*
X52910Y-19308D01*
X49983Y-19308D02*
X49114Y-20177D01*
X50090Y-21859D02*
X49114Y-22835D01*
X52910Y-21859D02*
X50090Y-21859D01*
X62845Y-21430D02*
X65775Y-21430D01*
X65775Y-21430D02*
X66634Y-20571D01*
X68012Y-21693D02*
X68012Y-23134D01*
X67960Y-21745D02*
X68012Y-21693D01*
X62845Y-21745D02*
X67960Y-21745D01*
X68012Y-23134D02*
X68935Y-24057D01*
X52910Y-21545D02*
X53848Y-21545D01*
X53856Y-19230D02*
X52910Y-19230D01*
X53858Y-19232D02*
X53856Y-19230D01*
X53848Y-21545D02*
X53858Y-21535D01*
X52910Y-18993D02*
X53448Y-18993D01*
X62198Y-18950D02*
X62845Y-18950D01*
X61201Y-17953D02*
X62198Y-18950D01*
X61201Y-17540D02*
X61201Y-17953D01*
X61004Y-17343D02*
X61201Y-17540D01*
X54803Y-17343D02*
X61004Y-17343D01*
X54469Y-17677D02*
X54803Y-17343D01*
X54469Y-17972D02*
X54469Y-17677D01*
X53448Y-18993D02*
X54469Y-17972D01*
X62845Y-19186D02*
X61936Y-19186D01*
X61916Y-21509D02*
X62845Y-21509D01*
X61909Y-21516D02*
X61916Y-21509D01*
X61936Y-19186D02*
X61929Y-19193D01*
X48327Y-22441D02*
X48327Y-22835D01*
X58025Y-27067D02*
X61975Y-31017D01*
X52559Y-27067D02*
X58025Y-27067D01*
X48327Y-22835D02*
X52559Y-27067D01*
X52910Y-19151D02*
X49353Y-19151D01*
X49353Y-19151D02*
X48327Y-20177D01*
X49066Y-21702D02*
X48327Y-22441D01*
X49066Y-21702D02*
X52910Y-21702D01*
X66011Y-21588D02*
X67028Y-20571D01*
X62845Y-21588D02*
X66011Y-21588D01*
X66286Y-19029D02*
X67028Y-18287D01*
X66286Y-19029D02*
X62845Y-19029D01*
X47933Y-22047D02*
X47933Y-22638D01*
X57567Y-27165D02*
X61697Y-31295D01*
X52460Y-27165D02*
X57567Y-27165D01*
X47933Y-22638D02*
X52460Y-27165D01*
X52910Y-19072D02*
X49038Y-19072D01*
X49038Y-19072D02*
X47933Y-20177D01*
X48357Y-21623D02*
X47933Y-22047D01*
X48357Y-21623D02*
X52910Y-21623D01*
X66326Y-21666D02*
X67421Y-20571D01*
X62845Y-21666D02*
X66326Y-21666D01*
X66995Y-19107D02*
X67421Y-18681D01*
X66995Y-19107D02*
X62845Y-19107D01*
X52264Y-22835D02*
X55512Y-26083D01*
X63167Y-26083D02*
X65038Y-27954D01*
X55512Y-26083D02*
X63167Y-26083D01*
X63215Y-18163D02*
X62845Y-18163D01*
X63215Y-18163D02*
X63484Y-17894D01*
X63333Y-20722D02*
X63484Y-20571D01*
X62845Y-20722D02*
X63333Y-20722D01*
X52424Y-20017D02*
X52264Y-20177D01*
X52424Y-20017D02*
X52910Y-20017D01*
X52910Y-22568D02*
X52531Y-22568D01*
X52531Y-22568D02*
X52264Y-22835D01*
X51575Y-16732D02*
X50492Y-17815D01*
X64370Y-16732D02*
X51575Y-16732D01*
X65256Y-17618D02*
X64370Y-16732D01*
X65256Y-22874D02*
X65256Y-24276D01*
X65256Y-24276D02*
X66986Y-26006D01*
X64738Y-19777D02*
X65256Y-20295D01*
X62846Y-19777D02*
X64738Y-19777D01*
X64718Y-22336D02*
X65256Y-22874D01*
X64718Y-22336D02*
X62846Y-22336D01*
X52910Y-20954D02*
X50993Y-20954D01*
X50993Y-20954D02*
X50492Y-20453D01*
X51080Y-18403D02*
X50492Y-17815D01*
X51080Y-18403D02*
X52910Y-18403D01*
X51279Y-16634D02*
X50098Y-17815D01*
X64666Y-16634D02*
X51279Y-16634D01*
X65650Y-17618D02*
X64666Y-16634D01*
X65650Y-22874D02*
X65650Y-24112D01*
X65650Y-24112D02*
X67265Y-25727D01*
X65053Y-19698D02*
X65650Y-20295D01*
X62845Y-19698D02*
X65053Y-19698D01*
X65033Y-22257D02*
X65650Y-22874D01*
X65033Y-22257D02*
X62845Y-22257D01*
X50678Y-21033D02*
X50098Y-20453D01*
X50678Y-21033D02*
X52910Y-21033D01*
X52910Y-18482D02*
X50765Y-18482D01*
X50765Y-18482D02*
X50098Y-17815D01*
X50985Y-16535D02*
X49705Y-17815D01*
X64960Y-16535D02*
X50985Y-16535D01*
X66043Y-17618D02*
X64960Y-16535D01*
X66043Y-22874D02*
X66043Y-23949D01*
X66043Y-23949D02*
X67543Y-25449D01*
X65367Y-19619D02*
X66043Y-20295D01*
X62845Y-19619D02*
X65367Y-19619D01*
X65347Y-22178D02*
X66043Y-22874D01*
X65347Y-22178D02*
X62845Y-22178D01*
X52910Y-21111D02*
X50363Y-21111D01*
X50363Y-21111D02*
X49705Y-20453D01*
X50450Y-18560D02*
X49705Y-17815D01*
X50450Y-18560D02*
X52910Y-18560D01*
X52166Y-16929D02*
X51280Y-17815D01*
X63780Y-16929D02*
X52166Y-16929D01*
X64469Y-17618D02*
X63780Y-16929D01*
X64469Y-22874D02*
X64469Y-24603D01*
X64469Y-24603D02*
X66429Y-26563D01*
X64108Y-19934D02*
X64469Y-20295D01*
X62845Y-19934D02*
X64108Y-19934D01*
X64088Y-22493D02*
X64469Y-22874D01*
X64088Y-22493D02*
X62845Y-22493D01*
X51280Y-20472D02*
X51280Y-20453D01*
X51604Y-20796D02*
X51280Y-20472D01*
X52910Y-20796D02*
X51604Y-20796D01*
X51710Y-18245D02*
X51280Y-17815D01*
X51710Y-18245D02*
X52910Y-18245D01*
X51870Y-16831D02*
X50886Y-17815D01*
X64075Y-16831D02*
X51870Y-16831D01*
X64862Y-17618D02*
X64075Y-16831D01*
X64862Y-22874D02*
X64862Y-24438D01*
X64862Y-24438D02*
X66708Y-26284D01*
X64422Y-19855D02*
X64862Y-20295D01*
X62845Y-19855D02*
X64422Y-19855D01*
X64403Y-22415D02*
X64862Y-22874D01*
X64403Y-22415D02*
X62845Y-22415D01*
X51308Y-20875D02*
X52910Y-20875D01*
X51308Y-20875D02*
X50886Y-20453D01*
X52910Y-18324D02*
X51395Y-18324D01*
X51395Y-18324D02*
X50886Y-17815D01*
X52756Y-17126D02*
X52067Y-17815D01*
X63189Y-17126D02*
X52756Y-17126D01*
X63681Y-17618D02*
X63189Y-17126D01*
X63681Y-22874D02*
X63681Y-24927D01*
X63681Y-24927D02*
X65873Y-27119D01*
X63477Y-20091D02*
X63681Y-20295D01*
X62845Y-20091D02*
X63477Y-20091D01*
X63458Y-22651D02*
X63681Y-22874D01*
X63458Y-22651D02*
X62845Y-22651D01*
X52253Y-20639D02*
X52067Y-20453D01*
X52910Y-20639D02*
X52253Y-20639D01*
X52340Y-18088D02*
X52067Y-17815D01*
X52340Y-18088D02*
X52910Y-18088D01*
X52460Y-17028D02*
X51673Y-17815D01*
X63485Y-17028D02*
X52460Y-17028D01*
X64075Y-17618D02*
X63485Y-17028D01*
X64075Y-22874D02*
X64075Y-24765D01*
X64075Y-24765D02*
X66151Y-26841D01*
X63793Y-20013D02*
X64075Y-20295D01*
X62845Y-20013D02*
X63793Y-20013D01*
X63773Y-22572D02*
X64075Y-22874D01*
X63773Y-22572D02*
X62845Y-22572D01*
X51938Y-20718D02*
X52910Y-20718D01*
X51938Y-20718D02*
X51673Y-20453D01*
X52910Y-18167D02*
X52025Y-18167D01*
X52025Y-18167D02*
X51673Y-17815D01*
X51083Y-22835D02*
X54626Y-26378D01*
X61792Y-26378D02*
X64203Y-28789D01*
X54626Y-26378D02*
X61792Y-26378D01*
X64278Y-20958D02*
X64665Y-20571D01*
X62846Y-20958D02*
X64278Y-20958D01*
X64161Y-18398D02*
X64665Y-17894D01*
X64161Y-18398D02*
X62845Y-18398D01*
X51479Y-19781D02*
X51083Y-20177D01*
X51479Y-19781D02*
X52910Y-19781D01*
X52910Y-22332D02*
X51586Y-22332D01*
X51586Y-22332D02*
X51083Y-22835D01*
X52910Y-20293D02*
X53388Y-20293D01*
G54D16*
X53524Y-20157D02*
X54331Y-20157D01*
X53388Y-20293D02*
X53524Y-20157D01*
G54D15*
X62845Y-20446D02*
X62467Y-20446D01*
G54D16*
X62283Y-20630D02*
X61417Y-20630D01*
X62467Y-20446D02*
X62283Y-20630D01*
G54D15*
X62845Y-17887D02*
X62611Y-17887D01*
G54D16*
X61902Y-17887D02*
X61476Y-17461D01*
X62611Y-17887D02*
X61902Y-17887D01*
G54D17*
X47244Y-20768D02*
X47244Y-21358D01*
X47244Y-21358D02*
X47421Y-21535D01*
X58025Y-30923D02*
X58089Y-30923D01*
X60110Y-31378D02*
X59488Y-31378D01*
X59488Y-31378D02*
X59016Y-31850D01*
X60110Y-31378D02*
X60862Y-32130D01*
X58089Y-30923D02*
X59016Y-31850D01*
G54D16*
X53239Y-22844D02*
X54322Y-22844D01*
G54D15*
X52910Y-22844D02*
X53239Y-22844D01*
X54322Y-22844D02*
X54331Y-22835D01*
G54D17*
X55906Y-25492D02*
X53583Y-23169D01*
X53583Y-23169D02*
X53583Y-23189D01*
X58100Y-31594D02*
X59749Y-33243D01*
X56397Y-31594D02*
X58100Y-31594D01*
X50295Y-25492D02*
X56397Y-31594D01*
X55708Y-25492D02*
X55906Y-25492D01*
G54D15*
X52910Y-20214D02*
X53113Y-20214D01*
X53113Y-20214D02*
X53248Y-20079D01*
X62845Y-20525D02*
X62742Y-20525D01*
X62742Y-20525D02*
X62539Y-20728D01*
X62845Y-17966D02*
X62723Y-17966D01*
X62723Y-17966D02*
X62480Y-18209D01*
G54D17*
X61140Y-31852D02*
X59977Y-30689D01*
X59977Y-30689D02*
X59961Y-30689D01*
X68307Y-19921D02*
X68307Y-19449D01*
X68307Y-19449D02*
X68386Y-19370D01*
X59376Y-10994D02*
X59724Y-11342D01*
X59724Y-11342D02*
X59724Y-11457D01*
G54D15*
X52910Y-22765D02*
X53121Y-22765D01*
X53121Y-22765D02*
X53248Y-22638D01*
X49508Y-22835D02*
X53445Y-26772D01*
X59400Y-26772D02*
X62810Y-30182D01*
X53445Y-26772D02*
X59400Y-26772D01*
X65537Y-21274D02*
X66240Y-20571D01*
X62845Y-21274D02*
X65537Y-21274D01*
X65420Y-18714D02*
X66240Y-17894D01*
X65420Y-18714D02*
X62845Y-18714D01*
X50219Y-19466D02*
X49508Y-20177D01*
X50219Y-19466D02*
X52910Y-19466D01*
X52910Y-22017D02*
X50326Y-22017D01*
X50326Y-22017D02*
X49508Y-22835D01*
M02*
