M48
;DRILL file {PCBnew (2011-04-29 BZR 2986)-stable} date 6/8/2011 10:43:09 AM
;FORMAT={-:-/ absolute / metric / decimal}
FMAT,2
METRIC,TZ
T1C0.300
T2C0.635
%
G90
G05
M71
T1
X121.750Y-51.250
X121.750Y-55.999
X122.250Y-47.249
X122.250Y-51.951
X122.751Y-51.250
X122.751Y-57.000
X123.251Y-46.251
X123.251Y-51.951
X123.749Y-58.001
X124.249Y-45.250
X124.249Y-51.951
X124.750Y-51.250
X124.750Y-58.001
X125.250Y-45.250
X125.250Y-51.951
X125.750Y-51.250
X125.750Y-58.001
X126.251Y-45.250
X126.251Y-51.951
X126.751Y-51.250
X126.751Y-58.001
X127.249Y-45.250
X127.249Y-51.951
X127.749Y-51.250
X127.749Y-58.001
X128.250Y-45.250
X128.250Y-51.951
X128.750Y-51.250
X128.750Y-58.001
X129.250Y-45.250
X129.250Y-51.951
X129.751Y-51.250
X129.751Y-58.001
X130.251Y-45.250
X130.251Y-51.951
X130.749Y-51.250
X130.749Y-58.001
X131.249Y-45.250
X131.249Y-51.951
X131.750Y-51.250
X131.750Y-58.001
X132.250Y-45.250
X132.250Y-51.951
X132.751Y-51.250
X132.751Y-58.001
X133.251Y-45.250
X133.251Y-51.951
X133.749Y-51.351
X133.749Y-58.001
X135.250Y-51.001
X135.250Y-57.501
X136.799Y-48.849
X136.799Y-51.900
X136.799Y-54.699
X136.850Y-45.100
X138.001Y-51.199
X138.001Y-58.001
X155.999Y-52.400
X156.149Y-44.351
X157.249Y-54.651
X157.249Y-58.049
X157.300Y-48.750
X157.300Y-51.549
X158.699Y-46.251
X158.849Y-52.649
X160.251Y-45.451
X160.251Y-52.149
X160.749Y-44.750
X160.749Y-51.549
X160.749Y-58.100
X161.249Y-45.451
X161.249Y-52.250
X161.750Y-44.750
X161.750Y-51.549
X161.750Y-58.100
X162.250Y-45.451
X162.250Y-52.250
X162.751Y-44.750
X162.751Y-51.549
X162.751Y-58.100
X163.251Y-45.451
X163.251Y-52.250
X163.751Y-44.750
X163.751Y-51.549
X163.751Y-58.100
X164.249Y-45.451
X164.249Y-52.250
X164.749Y-44.750
X164.749Y-51.549
X164.749Y-58.100
X165.250Y-45.451
X165.250Y-52.250
X165.750Y-44.750
X165.750Y-51.549
X165.750Y-58.100
X166.251Y-45.451
X166.251Y-52.250
X166.751Y-44.750
X166.751Y-51.549
X166.751Y-58.100
X167.249Y-45.451
X167.249Y-52.250
X167.749Y-44.750
X167.749Y-51.549
X167.749Y-58.100
X168.250Y-45.451
X168.250Y-52.250
X168.750Y-44.750
X168.750Y-51.549
X168.750Y-58.100
X169.250Y-45.451
X169.250Y-52.250
X169.751Y-44.750
X169.751Y-51.549
X169.751Y-58.100
X170.251Y-46.449
X170.251Y-52.250
X170.749Y-45.750
X170.749Y-51.549
X170.749Y-57.099
X171.249Y-47.450
X171.249Y-52.250
X171.750Y-51.549
X171.750Y-56.101
X172.750Y-55.100
T2
X117.950Y-48.951
X120.449Y-54.699
X120.800Y-48.900
X120.851Y-45.649
X127.749Y-64.750
X136.101Y-58.900
X141.600Y-26.149
X142.001Y-64.750
X145.651Y-75.001
X147.749Y-25.550
X149.901Y-80.899
X151.699Y-29.101
X152.301Y-77.950
X173.700Y-49.200
X173.850Y-57.549
X174.201Y-54.549
T0
M30
