G04 (created by PCBNEW-RS274X (2012-01-19 BZR 3256)-stable) date Wed Aug 28 15:53:45 2013*
G01*
G70*
G90*
%MOIN*%
G04 Gerber Fmt 3.4, Leading zero omitted, Abs format*
%FSLAX34Y34*%
G04 APERTURE LIST*
%ADD10C,0.006000*%
%ADD11C,0.004900*%
%ADD12C,0.005900*%
%ADD13C,0.012000*%
%ADD14C,0.001000*%
%ADD15C,0.002500*%
%ADD16C,0.015000*%
%ADD17C,0.005000*%
G04 APERTURE END LIST*
G54D10*
G54D11*
X58952Y-11835D02*
X59045Y-11835D01*
X58933Y-11919D02*
X58998Y-11624D01*
X59064Y-11919D01*
X59130Y-11919D02*
X59130Y-11722D01*
X59130Y-11778D02*
X59139Y-11750D01*
X59149Y-11736D01*
X59167Y-11722D01*
X59186Y-11722D01*
X59327Y-11905D02*
X59308Y-11919D01*
X59271Y-11919D01*
X59252Y-11905D01*
X59243Y-11877D01*
X59243Y-11764D01*
X59252Y-11736D01*
X59271Y-11722D01*
X59308Y-11722D01*
X59327Y-11736D01*
X59336Y-11764D01*
X59336Y-11792D01*
X59243Y-11821D01*
X59393Y-11722D02*
X59468Y-11722D01*
X59421Y-11919D02*
X59421Y-11666D01*
X59430Y-11638D01*
X59449Y-11624D01*
X59468Y-11624D01*
X59710Y-10424D02*
X59775Y-10719D01*
X59841Y-10424D01*
X59991Y-10719D02*
X59991Y-10424D01*
X59991Y-10705D02*
X59973Y-10719D01*
X59935Y-10719D01*
X59916Y-10705D01*
X59907Y-10691D01*
X59898Y-10663D01*
X59898Y-10578D01*
X59907Y-10550D01*
X59916Y-10536D01*
X59935Y-10522D01*
X59973Y-10522D01*
X59991Y-10536D01*
X60085Y-10719D02*
X60085Y-10522D01*
X60085Y-10424D02*
X60076Y-10438D01*
X60085Y-10452D01*
X60094Y-10438D01*
X60085Y-10424D01*
X60085Y-10452D01*
X60263Y-10522D02*
X60263Y-10761D01*
X60254Y-10789D01*
X60245Y-10803D01*
X60226Y-10817D01*
X60198Y-10817D01*
X60179Y-10803D01*
X60263Y-10705D02*
X60245Y-10719D01*
X60207Y-10719D01*
X60188Y-10705D01*
X60179Y-10691D01*
X60170Y-10663D01*
X60170Y-10578D01*
X60179Y-10550D01*
X60188Y-10536D01*
X60207Y-10522D01*
X60245Y-10522D01*
X60263Y-10536D01*
X68110Y-18824D02*
X68175Y-19119D01*
X68241Y-18824D01*
X68391Y-19119D02*
X68391Y-18824D01*
X68391Y-19105D02*
X68373Y-19119D01*
X68335Y-19119D01*
X68316Y-19105D01*
X68307Y-19091D01*
X68298Y-19063D01*
X68298Y-18978D01*
X68307Y-18950D01*
X68316Y-18936D01*
X68335Y-18922D01*
X68373Y-18922D01*
X68391Y-18936D01*
X68485Y-19119D02*
X68485Y-18922D01*
X68485Y-18824D02*
X68476Y-18838D01*
X68485Y-18852D01*
X68494Y-18838D01*
X68485Y-18824D01*
X68485Y-18852D01*
X68663Y-18922D02*
X68663Y-19161D01*
X68654Y-19189D01*
X68645Y-19203D01*
X68626Y-19217D01*
X68598Y-19217D01*
X68579Y-19203D01*
X68663Y-19105D02*
X68645Y-19119D01*
X68607Y-19119D01*
X68588Y-19105D01*
X68579Y-19091D01*
X68570Y-19063D01*
X68570Y-18978D01*
X68579Y-18950D01*
X68588Y-18936D01*
X68607Y-18922D01*
X68645Y-18922D01*
X68663Y-18936D01*
X59068Y-29319D02*
X59003Y-29178D01*
X58956Y-29319D02*
X58956Y-29024D01*
X59031Y-29024D01*
X59050Y-29038D01*
X59059Y-29052D01*
X59068Y-29080D01*
X59068Y-29122D01*
X59059Y-29150D01*
X59050Y-29164D01*
X59031Y-29178D01*
X58956Y-29178D01*
X59153Y-29319D02*
X59153Y-29024D01*
X59228Y-29024D01*
X59247Y-29038D01*
X59256Y-29052D01*
X59265Y-29080D01*
X59265Y-29122D01*
X59256Y-29150D01*
X59247Y-29164D01*
X59228Y-29178D01*
X59153Y-29178D01*
X59350Y-29319D02*
X59350Y-29024D01*
X59350Y-29164D02*
X59462Y-29164D01*
X59462Y-29319D02*
X59462Y-29024D01*
X59556Y-29319D02*
X59556Y-29024D01*
X59641Y-29052D02*
X59650Y-29038D01*
X59669Y-29024D01*
X59716Y-29024D01*
X59734Y-29038D01*
X59744Y-29052D01*
X59753Y-29080D01*
X59753Y-29108D01*
X59744Y-29150D01*
X59631Y-29319D01*
X59753Y-29319D01*
X58168Y-28969D02*
X58103Y-28828D01*
X58056Y-28969D02*
X58056Y-28674D01*
X58131Y-28674D01*
X58150Y-28688D01*
X58159Y-28702D01*
X58168Y-28730D01*
X58168Y-28772D01*
X58159Y-28800D01*
X58150Y-28814D01*
X58131Y-28828D01*
X58056Y-28828D01*
X58253Y-28969D02*
X58253Y-28674D01*
X58328Y-28674D01*
X58347Y-28688D01*
X58356Y-28702D01*
X58365Y-28730D01*
X58365Y-28772D01*
X58356Y-28800D01*
X58347Y-28814D01*
X58328Y-28828D01*
X58253Y-28828D01*
X58450Y-28969D02*
X58450Y-28674D01*
X58450Y-28814D02*
X58562Y-28814D01*
X58562Y-28969D02*
X58562Y-28674D01*
X58656Y-28969D02*
X58656Y-28674D01*
X58853Y-28969D02*
X58741Y-28969D01*
X58797Y-28969D02*
X58797Y-28674D01*
X58778Y-28716D01*
X58759Y-28744D01*
X58741Y-28758D01*
X59165Y-28669D02*
X59100Y-28528D01*
X59053Y-28669D02*
X59053Y-28374D01*
X59128Y-28374D01*
X59147Y-28388D01*
X59156Y-28402D01*
X59165Y-28430D01*
X59165Y-28472D01*
X59156Y-28500D01*
X59147Y-28514D01*
X59128Y-28528D01*
X59053Y-28528D01*
X59316Y-28514D02*
X59344Y-28528D01*
X59353Y-28542D01*
X59362Y-28571D01*
X59362Y-28613D01*
X59353Y-28641D01*
X59344Y-28655D01*
X59325Y-28669D01*
X59250Y-28669D01*
X59250Y-28374D01*
X59316Y-28374D01*
X59334Y-28388D01*
X59344Y-28402D01*
X59353Y-28430D01*
X59353Y-28458D01*
X59344Y-28486D01*
X59334Y-28500D01*
X59316Y-28514D01*
X59250Y-28514D01*
X59447Y-28669D02*
X59447Y-28374D01*
X58367Y-28369D02*
X58302Y-28228D01*
X58255Y-28369D02*
X58255Y-28074D01*
X58330Y-28074D01*
X58349Y-28088D01*
X58358Y-28102D01*
X58367Y-28130D01*
X58367Y-28172D01*
X58358Y-28200D01*
X58349Y-28214D01*
X58330Y-28228D01*
X58255Y-28228D01*
X58518Y-28214D02*
X58546Y-28228D01*
X58555Y-28242D01*
X58564Y-28271D01*
X58564Y-28313D01*
X58555Y-28341D01*
X58546Y-28355D01*
X58527Y-28369D01*
X58452Y-28369D01*
X58452Y-28074D01*
X58518Y-28074D01*
X58536Y-28088D01*
X58546Y-28102D01*
X58555Y-28130D01*
X58555Y-28158D01*
X58546Y-28186D01*
X58536Y-28200D01*
X58518Y-28214D01*
X58452Y-28214D01*
X58649Y-28369D02*
X58649Y-28074D01*
X58809Y-28214D02*
X58837Y-28228D01*
X58846Y-28242D01*
X58855Y-28271D01*
X58855Y-28313D01*
X58846Y-28341D01*
X58837Y-28355D01*
X58818Y-28369D01*
X58743Y-28369D01*
X58743Y-28074D01*
X58809Y-28074D01*
X58827Y-28088D01*
X58837Y-28102D01*
X58846Y-28130D01*
X58846Y-28158D01*
X58837Y-28186D01*
X58827Y-28200D01*
X58809Y-28214D01*
X58743Y-28214D01*
X59025Y-27774D02*
X59090Y-28069D01*
X59156Y-27774D01*
X59194Y-27872D02*
X59269Y-27872D01*
X59222Y-27774D02*
X59222Y-28027D01*
X59231Y-28055D01*
X59250Y-28069D01*
X59269Y-28069D01*
X59335Y-28069D02*
X59335Y-27774D01*
X59419Y-28069D02*
X59419Y-27914D01*
X59410Y-27886D01*
X59391Y-27872D01*
X59363Y-27872D01*
X59344Y-27886D01*
X59335Y-27900D01*
X59513Y-28069D02*
X59513Y-27872D01*
X59513Y-27928D02*
X59522Y-27900D01*
X59532Y-27886D01*
X59550Y-27872D01*
X59569Y-27872D01*
X59710Y-28055D02*
X59691Y-28069D01*
X59654Y-28069D01*
X59635Y-28055D01*
X59626Y-28027D01*
X59626Y-27914D01*
X59635Y-27886D01*
X59654Y-27872D01*
X59691Y-27872D01*
X59710Y-27886D01*
X59719Y-27914D01*
X59719Y-27942D01*
X59626Y-27971D01*
X59795Y-28055D02*
X59813Y-28069D01*
X59851Y-28069D01*
X59870Y-28055D01*
X59879Y-28027D01*
X59879Y-28013D01*
X59870Y-27985D01*
X59851Y-27971D01*
X59823Y-27971D01*
X59804Y-27957D01*
X59795Y-27928D01*
X59795Y-27914D01*
X59804Y-27886D01*
X59823Y-27872D01*
X59851Y-27872D01*
X59870Y-27886D01*
X59963Y-28069D02*
X59963Y-27774D01*
X60047Y-28069D02*
X60047Y-27914D01*
X60038Y-27886D01*
X60019Y-27872D01*
X59991Y-27872D01*
X59972Y-27886D01*
X59963Y-27900D01*
X60467Y-27741D02*
X60458Y-27755D01*
X60430Y-27769D01*
X60411Y-27769D01*
X60383Y-27755D01*
X60364Y-27727D01*
X60355Y-27699D01*
X60346Y-27642D01*
X60346Y-27600D01*
X60355Y-27544D01*
X60364Y-27516D01*
X60383Y-27488D01*
X60411Y-27474D01*
X60430Y-27474D01*
X60458Y-27488D01*
X60467Y-27502D01*
X60543Y-27755D02*
X60571Y-27769D01*
X60618Y-27769D01*
X60636Y-27755D01*
X60646Y-27741D01*
X60655Y-27713D01*
X60655Y-27685D01*
X60646Y-27657D01*
X60636Y-27642D01*
X60618Y-27628D01*
X60580Y-27614D01*
X60561Y-27600D01*
X60552Y-27586D01*
X60543Y-27558D01*
X60543Y-27530D01*
X60552Y-27502D01*
X60561Y-27488D01*
X60580Y-27474D01*
X60627Y-27474D01*
X60655Y-27488D01*
X59673Y-27469D02*
X59608Y-27328D01*
X59561Y-27469D02*
X59561Y-27174D01*
X59636Y-27174D01*
X59655Y-27188D01*
X59664Y-27202D01*
X59673Y-27230D01*
X59673Y-27272D01*
X59664Y-27300D01*
X59655Y-27314D01*
X59636Y-27328D01*
X59561Y-27328D01*
X59861Y-27469D02*
X59749Y-27469D01*
X59805Y-27469D02*
X59805Y-27174D01*
X59786Y-27216D01*
X59767Y-27244D01*
X59749Y-27258D01*
X59937Y-27202D02*
X59946Y-27188D01*
X59965Y-27174D01*
X60012Y-27174D01*
X60030Y-27188D01*
X60040Y-27202D01*
X60049Y-27230D01*
X60049Y-27258D01*
X60040Y-27300D01*
X59927Y-27469D01*
X60049Y-27469D01*
X60473Y-27141D02*
X60464Y-27155D01*
X60436Y-27169D01*
X60417Y-27169D01*
X60389Y-27155D01*
X60370Y-27127D01*
X60361Y-27099D01*
X60352Y-27042D01*
X60352Y-27000D01*
X60361Y-26944D01*
X60370Y-26916D01*
X60389Y-26888D01*
X60417Y-26874D01*
X60436Y-26874D01*
X60464Y-26888D01*
X60473Y-26902D01*
X60549Y-27155D02*
X60577Y-27169D01*
X60624Y-27169D01*
X60642Y-27155D01*
X60652Y-27141D01*
X60661Y-27113D01*
X60661Y-27085D01*
X60652Y-27057D01*
X60642Y-27042D01*
X60624Y-27028D01*
X60586Y-27014D01*
X60567Y-27000D01*
X60558Y-26986D01*
X60549Y-26958D01*
X60549Y-26930D01*
X60558Y-26902D01*
X60567Y-26888D01*
X60586Y-26874D01*
X60633Y-26874D01*
X60661Y-26888D01*
X60737Y-26902D02*
X60746Y-26888D01*
X60765Y-26874D01*
X60812Y-26874D01*
X60830Y-26888D01*
X60840Y-26902D01*
X60849Y-26930D01*
X60849Y-26958D01*
X60840Y-27000D01*
X60727Y-27169D01*
X60849Y-27169D01*
X60946Y-26855D02*
X60974Y-26869D01*
X61021Y-26869D01*
X61039Y-26855D01*
X61049Y-26841D01*
X61058Y-26813D01*
X61058Y-26785D01*
X61049Y-26757D01*
X61039Y-26742D01*
X61021Y-26728D01*
X60983Y-26714D01*
X60964Y-26700D01*
X60955Y-26686D01*
X60946Y-26658D01*
X60946Y-26630D01*
X60955Y-26602D01*
X60964Y-26588D01*
X60983Y-26574D01*
X61030Y-26574D01*
X61058Y-26588D01*
X61255Y-26869D02*
X61190Y-26728D01*
X61143Y-26869D02*
X61143Y-26574D01*
X61218Y-26574D01*
X61237Y-26588D01*
X61246Y-26602D01*
X61255Y-26630D01*
X61255Y-26672D01*
X61246Y-26700D01*
X61237Y-26714D01*
X61218Y-26728D01*
X61143Y-26728D01*
X61662Y-26619D02*
X61662Y-26324D01*
X61747Y-26605D02*
X61775Y-26619D01*
X61822Y-26619D01*
X61840Y-26605D01*
X61850Y-26591D01*
X61859Y-26563D01*
X61859Y-26535D01*
X61850Y-26507D01*
X61840Y-26492D01*
X61822Y-26478D01*
X61784Y-26464D01*
X61765Y-26450D01*
X61756Y-26436D01*
X61747Y-26408D01*
X61747Y-26380D01*
X61756Y-26352D01*
X61765Y-26338D01*
X61784Y-26324D01*
X61831Y-26324D01*
X61859Y-26338D01*
X61935Y-26352D02*
X61944Y-26338D01*
X61963Y-26324D01*
X62010Y-26324D01*
X62028Y-26338D01*
X62038Y-26352D01*
X62047Y-26380D01*
X62047Y-26408D01*
X62038Y-26450D01*
X61925Y-26619D01*
X62047Y-26619D01*
X60962Y-26419D02*
X60962Y-26124D01*
X61047Y-26405D02*
X61075Y-26419D01*
X61122Y-26419D01*
X61140Y-26405D01*
X61150Y-26391D01*
X61159Y-26363D01*
X61159Y-26335D01*
X61150Y-26307D01*
X61140Y-26292D01*
X61122Y-26278D01*
X61084Y-26264D01*
X61065Y-26250D01*
X61056Y-26236D01*
X61047Y-26208D01*
X61047Y-26180D01*
X61056Y-26152D01*
X61065Y-26138D01*
X61084Y-26124D01*
X61131Y-26124D01*
X61159Y-26138D01*
X61347Y-26419D02*
X61235Y-26419D01*
X61291Y-26419D02*
X61291Y-26124D01*
X61272Y-26166D01*
X61253Y-26194D01*
X61235Y-26208D01*
X61756Y-26219D02*
X61691Y-26078D01*
X61644Y-26219D02*
X61644Y-25924D01*
X61719Y-25924D01*
X61738Y-25938D01*
X61747Y-25952D01*
X61756Y-25980D01*
X61756Y-26022D01*
X61747Y-26050D01*
X61738Y-26064D01*
X61719Y-26078D01*
X61644Y-26078D01*
X61916Y-26205D02*
X61897Y-26219D01*
X61860Y-26219D01*
X61841Y-26205D01*
X61832Y-26177D01*
X61832Y-26064D01*
X61841Y-26036D01*
X61860Y-26022D01*
X61897Y-26022D01*
X61916Y-26036D01*
X61925Y-26064D01*
X61925Y-26092D01*
X61832Y-26121D01*
X62001Y-26205D02*
X62019Y-26219D01*
X62057Y-26219D01*
X62076Y-26205D01*
X62085Y-26177D01*
X62085Y-26163D01*
X62076Y-26135D01*
X62057Y-26121D01*
X62029Y-26121D01*
X62010Y-26107D01*
X62001Y-26078D01*
X62001Y-26064D01*
X62010Y-26036D01*
X62029Y-26022D01*
X62057Y-26022D01*
X62076Y-26036D01*
X62244Y-26205D02*
X62225Y-26219D01*
X62188Y-26219D01*
X62169Y-26205D01*
X62160Y-26177D01*
X62160Y-26064D01*
X62169Y-26036D01*
X62188Y-26022D01*
X62225Y-26022D01*
X62244Y-26036D01*
X62253Y-26064D01*
X62253Y-26092D01*
X62160Y-26121D01*
X62310Y-26022D02*
X62385Y-26022D01*
X62338Y-25924D02*
X62338Y-26177D01*
X62347Y-26205D01*
X62366Y-26219D01*
X62385Y-26219D01*
X62623Y-25969D02*
X62529Y-25969D01*
X62529Y-25674D01*
X62688Y-25814D02*
X62754Y-25814D01*
X62782Y-25969D02*
X62688Y-25969D01*
X62688Y-25674D01*
X62782Y-25674D01*
X57205Y-31724D02*
X57270Y-32019D01*
X57336Y-31724D01*
X57402Y-32019D02*
X57402Y-31724D01*
X57402Y-31836D02*
X57421Y-31822D01*
X57458Y-31822D01*
X57477Y-31836D01*
X57486Y-31850D01*
X57496Y-31878D01*
X57496Y-31963D01*
X57486Y-31991D01*
X57477Y-32005D01*
X57458Y-32019D01*
X57421Y-32019D01*
X57402Y-32005D01*
X57580Y-32019D02*
X57580Y-31822D01*
X57580Y-31724D02*
X57571Y-31738D01*
X57580Y-31752D01*
X57589Y-31738D01*
X57580Y-31724D01*
X57580Y-31752D01*
X57758Y-32019D02*
X57758Y-31864D01*
X57749Y-31836D01*
X57730Y-31822D01*
X57693Y-31822D01*
X57674Y-31836D01*
X57758Y-32005D02*
X57740Y-32019D01*
X57693Y-32019D01*
X57674Y-32005D01*
X57665Y-31977D01*
X57665Y-31949D01*
X57674Y-31921D01*
X57693Y-31907D01*
X57740Y-31907D01*
X57758Y-31892D01*
X57843Y-32005D02*
X57861Y-32019D01*
X57899Y-32019D01*
X57918Y-32005D01*
X57927Y-31977D01*
X57927Y-31963D01*
X57918Y-31935D01*
X57899Y-31921D01*
X57871Y-31921D01*
X57852Y-31907D01*
X57843Y-31878D01*
X57843Y-31864D01*
X57852Y-31836D01*
X57871Y-31822D01*
X57899Y-31822D01*
X57918Y-31836D01*
X59260Y-30074D02*
X59325Y-30369D01*
X59391Y-30074D01*
X59541Y-30369D02*
X59541Y-30074D01*
X59541Y-30355D02*
X59523Y-30369D01*
X59485Y-30369D01*
X59466Y-30355D01*
X59457Y-30341D01*
X59448Y-30313D01*
X59448Y-30228D01*
X59457Y-30200D01*
X59466Y-30186D01*
X59485Y-30172D01*
X59523Y-30172D01*
X59541Y-30186D01*
X59635Y-30369D02*
X59635Y-30172D01*
X59635Y-30074D02*
X59626Y-30088D01*
X59635Y-30102D01*
X59644Y-30088D01*
X59635Y-30074D01*
X59635Y-30102D01*
X59813Y-30172D02*
X59813Y-30411D01*
X59804Y-30439D01*
X59795Y-30453D01*
X59776Y-30467D01*
X59748Y-30467D01*
X59729Y-30453D01*
X59813Y-30355D02*
X59795Y-30369D01*
X59757Y-30369D01*
X59738Y-30355D01*
X59729Y-30341D01*
X59720Y-30313D01*
X59720Y-30228D01*
X59729Y-30200D01*
X59738Y-30186D01*
X59757Y-30172D01*
X59795Y-30172D01*
X59813Y-30186D01*
X68638Y-22475D02*
X68624Y-22494D01*
X68624Y-22522D01*
X68638Y-22550D01*
X68666Y-22569D01*
X68694Y-22578D01*
X68750Y-22587D01*
X68792Y-22587D01*
X68849Y-22578D01*
X68877Y-22569D01*
X68905Y-22550D01*
X68919Y-22522D01*
X68919Y-22503D01*
X68905Y-22475D01*
X68891Y-22466D01*
X68792Y-22466D01*
X68792Y-22503D01*
X68919Y-22381D02*
X68624Y-22381D01*
X68919Y-22269D01*
X68624Y-22269D01*
X68919Y-22175D02*
X68624Y-22175D01*
X68624Y-22128D01*
X68638Y-22100D01*
X68666Y-22081D01*
X68694Y-22072D01*
X68750Y-22063D01*
X68792Y-22063D01*
X68849Y-22072D01*
X68877Y-22081D01*
X68905Y-22100D01*
X68919Y-22128D01*
X68919Y-22175D01*
X63394Y-24570D02*
X63099Y-24570D01*
X63197Y-24504D02*
X63197Y-24429D01*
X63394Y-24476D02*
X63141Y-24476D01*
X63113Y-24467D01*
X63099Y-24448D01*
X63099Y-24429D01*
X63394Y-24363D02*
X63099Y-24363D01*
X63211Y-24363D02*
X63197Y-24344D01*
X63197Y-24307D01*
X63211Y-24288D01*
X63225Y-24279D01*
X63253Y-24269D01*
X63338Y-24269D01*
X63366Y-24279D01*
X63380Y-24288D01*
X63394Y-24307D01*
X63394Y-24344D01*
X63380Y-24363D01*
X63780Y-24523D02*
X63794Y-24495D01*
X63794Y-24448D01*
X63780Y-24430D01*
X63766Y-24420D01*
X63738Y-24411D01*
X63710Y-24411D01*
X63682Y-24420D01*
X63667Y-24430D01*
X63653Y-24448D01*
X63639Y-24486D01*
X63625Y-24505D01*
X63611Y-24514D01*
X63583Y-24523D01*
X63555Y-24523D01*
X63527Y-24514D01*
X63513Y-24505D01*
X63499Y-24486D01*
X63499Y-24439D01*
X63513Y-24411D01*
X63794Y-24326D02*
X63499Y-24326D01*
X63499Y-24251D01*
X63513Y-24232D01*
X63527Y-24223D01*
X63555Y-24214D01*
X63597Y-24214D01*
X63625Y-24223D01*
X63639Y-24232D01*
X63653Y-24251D01*
X63653Y-24326D01*
X63794Y-24129D02*
X63499Y-24129D01*
X63639Y-24129D02*
X63639Y-24017D01*
X63794Y-24017D02*
X63499Y-24017D01*
X63794Y-23923D02*
X63499Y-23923D01*
X63527Y-23838D02*
X63513Y-23829D01*
X63499Y-23810D01*
X63499Y-23763D01*
X63513Y-23745D01*
X63527Y-23735D01*
X63555Y-23726D01*
X63583Y-23726D01*
X63625Y-23735D01*
X63794Y-23848D01*
X63794Y-23726D01*
X64205Y-24447D02*
X64219Y-24419D01*
X64219Y-24372D01*
X64205Y-24354D01*
X64191Y-24344D01*
X64163Y-24335D01*
X64135Y-24335D01*
X64107Y-24344D01*
X64092Y-24354D01*
X64078Y-24372D01*
X64064Y-24410D01*
X64050Y-24429D01*
X64036Y-24438D01*
X64008Y-24447D01*
X63980Y-24447D01*
X63952Y-24438D01*
X63938Y-24429D01*
X63924Y-24410D01*
X63924Y-24363D01*
X63938Y-24335D01*
X64219Y-24250D02*
X63924Y-24250D01*
X63924Y-24175D01*
X63938Y-24156D01*
X63952Y-24147D01*
X63980Y-24138D01*
X64022Y-24138D01*
X64050Y-24147D01*
X64064Y-24156D01*
X64078Y-24175D01*
X64078Y-24250D01*
X64219Y-24053D02*
X63924Y-24053D01*
X64064Y-24053D02*
X64064Y-23941D01*
X64219Y-23941D02*
X63924Y-23941D01*
X64219Y-23847D02*
X63924Y-23847D01*
X63952Y-23762D02*
X63938Y-23753D01*
X63924Y-23734D01*
X63924Y-23687D01*
X63938Y-23669D01*
X63952Y-23659D01*
X63980Y-23650D01*
X64008Y-23650D01*
X64050Y-23659D01*
X64219Y-23772D01*
X64219Y-23650D01*
X64064Y-23499D02*
X64078Y-23471D01*
X64092Y-23462D01*
X64121Y-23453D01*
X64163Y-23453D01*
X64191Y-23462D01*
X64205Y-23471D01*
X64219Y-23490D01*
X64219Y-23565D01*
X63924Y-23565D01*
X63924Y-23499D01*
X63938Y-23481D01*
X63952Y-23471D01*
X63980Y-23462D01*
X64008Y-23462D01*
X64036Y-23471D01*
X64050Y-23481D01*
X64064Y-23499D01*
X64064Y-23565D01*
X64580Y-24323D02*
X64594Y-24295D01*
X64594Y-24248D01*
X64580Y-24230D01*
X64566Y-24220D01*
X64538Y-24211D01*
X64510Y-24211D01*
X64482Y-24220D01*
X64467Y-24230D01*
X64453Y-24248D01*
X64439Y-24286D01*
X64425Y-24305D01*
X64411Y-24314D01*
X64383Y-24323D01*
X64355Y-24323D01*
X64327Y-24314D01*
X64313Y-24305D01*
X64299Y-24286D01*
X64299Y-24239D01*
X64313Y-24211D01*
X64594Y-24126D02*
X64299Y-24126D01*
X64299Y-24051D01*
X64313Y-24032D01*
X64327Y-24023D01*
X64355Y-24014D01*
X64397Y-24014D01*
X64425Y-24023D01*
X64439Y-24032D01*
X64453Y-24051D01*
X64453Y-24126D01*
X64594Y-23929D02*
X64299Y-23929D01*
X64439Y-23929D02*
X64439Y-23817D01*
X64594Y-23817D02*
X64299Y-23817D01*
X64594Y-23723D02*
X64299Y-23723D01*
X64594Y-23526D02*
X64594Y-23638D01*
X64594Y-23582D02*
X64299Y-23582D01*
X64341Y-23601D01*
X64369Y-23620D01*
X64383Y-23638D01*
X64955Y-24222D02*
X64969Y-24194D01*
X64969Y-24147D01*
X64955Y-24129D01*
X64941Y-24119D01*
X64913Y-24110D01*
X64885Y-24110D01*
X64857Y-24119D01*
X64842Y-24129D01*
X64828Y-24147D01*
X64814Y-24185D01*
X64800Y-24204D01*
X64786Y-24213D01*
X64758Y-24222D01*
X64730Y-24222D01*
X64702Y-24213D01*
X64688Y-24204D01*
X64674Y-24185D01*
X64674Y-24138D01*
X64688Y-24110D01*
X64969Y-24025D02*
X64674Y-24025D01*
X64674Y-23950D01*
X64688Y-23931D01*
X64702Y-23922D01*
X64730Y-23913D01*
X64772Y-23913D01*
X64800Y-23922D01*
X64814Y-23931D01*
X64828Y-23950D01*
X64828Y-24025D01*
X64969Y-23828D02*
X64674Y-23828D01*
X64814Y-23828D02*
X64814Y-23716D01*
X64969Y-23716D02*
X64674Y-23716D01*
X64969Y-23622D02*
X64674Y-23622D01*
X64969Y-23425D02*
X64969Y-23537D01*
X64969Y-23481D02*
X64674Y-23481D01*
X64716Y-23500D01*
X64744Y-23519D01*
X64758Y-23537D01*
X64814Y-23274D02*
X64828Y-23246D01*
X64842Y-23237D01*
X64871Y-23228D01*
X64913Y-23228D01*
X64941Y-23237D01*
X64955Y-23246D01*
X64969Y-23265D01*
X64969Y-23340D01*
X64674Y-23340D01*
X64674Y-23274D01*
X64688Y-23256D01*
X64702Y-23246D01*
X64730Y-23237D01*
X64758Y-23237D01*
X64786Y-23246D01*
X64800Y-23256D01*
X64814Y-23274D01*
X64814Y-23340D01*
X65355Y-24101D02*
X65369Y-24073D01*
X65369Y-24026D01*
X65355Y-24008D01*
X65341Y-23998D01*
X65313Y-23989D01*
X65285Y-23989D01*
X65257Y-23998D01*
X65242Y-24008D01*
X65228Y-24026D01*
X65214Y-24064D01*
X65200Y-24083D01*
X65186Y-24092D01*
X65158Y-24101D01*
X65130Y-24101D01*
X65102Y-24092D01*
X65088Y-24083D01*
X65074Y-24064D01*
X65074Y-24017D01*
X65088Y-23989D01*
X65214Y-23838D02*
X65228Y-23810D01*
X65242Y-23801D01*
X65271Y-23792D01*
X65313Y-23792D01*
X65341Y-23801D01*
X65355Y-23810D01*
X65369Y-23829D01*
X65369Y-23904D01*
X65074Y-23904D01*
X65074Y-23838D01*
X65088Y-23820D01*
X65102Y-23810D01*
X65130Y-23801D01*
X65158Y-23801D01*
X65186Y-23810D01*
X65200Y-23820D01*
X65214Y-23838D01*
X65214Y-23904D01*
X65369Y-23707D02*
X65074Y-23707D01*
X65755Y-24025D02*
X65769Y-23997D01*
X65769Y-23950D01*
X65755Y-23932D01*
X65741Y-23922D01*
X65713Y-23913D01*
X65685Y-23913D01*
X65657Y-23922D01*
X65642Y-23932D01*
X65628Y-23950D01*
X65614Y-23988D01*
X65600Y-24007D01*
X65586Y-24016D01*
X65558Y-24025D01*
X65530Y-24025D01*
X65502Y-24016D01*
X65488Y-24007D01*
X65474Y-23988D01*
X65474Y-23941D01*
X65488Y-23913D01*
X65614Y-23762D02*
X65628Y-23734D01*
X65642Y-23725D01*
X65671Y-23716D01*
X65713Y-23716D01*
X65741Y-23725D01*
X65755Y-23734D01*
X65769Y-23753D01*
X65769Y-23828D01*
X65474Y-23828D01*
X65474Y-23762D01*
X65488Y-23744D01*
X65502Y-23734D01*
X65530Y-23725D01*
X65558Y-23725D01*
X65586Y-23734D01*
X65600Y-23744D01*
X65614Y-23762D01*
X65614Y-23828D01*
X65769Y-23631D02*
X65474Y-23631D01*
X65614Y-23471D02*
X65628Y-23443D01*
X65642Y-23434D01*
X65671Y-23425D01*
X65713Y-23425D01*
X65741Y-23434D01*
X65755Y-23443D01*
X65769Y-23462D01*
X65769Y-23537D01*
X65474Y-23537D01*
X65474Y-23471D01*
X65488Y-23453D01*
X65502Y-23443D01*
X65530Y-23434D01*
X65558Y-23434D01*
X65586Y-23443D01*
X65600Y-23453D01*
X65614Y-23471D01*
X65614Y-23537D01*
X66155Y-23893D02*
X66169Y-23865D01*
X66169Y-23818D01*
X66155Y-23800D01*
X66141Y-23790D01*
X66113Y-23781D01*
X66085Y-23781D01*
X66057Y-23790D01*
X66042Y-23800D01*
X66028Y-23818D01*
X66014Y-23856D01*
X66000Y-23875D01*
X65986Y-23884D01*
X65958Y-23893D01*
X65930Y-23893D01*
X65902Y-23884D01*
X65888Y-23875D01*
X65874Y-23856D01*
X65874Y-23809D01*
X65888Y-23781D01*
X66014Y-23696D02*
X66014Y-23630D01*
X66169Y-23602D02*
X66169Y-23696D01*
X65874Y-23696D01*
X65874Y-23602D01*
X66014Y-23452D02*
X66028Y-23424D01*
X66042Y-23415D01*
X66071Y-23406D01*
X66113Y-23406D01*
X66141Y-23415D01*
X66155Y-23424D01*
X66169Y-23443D01*
X66169Y-23518D01*
X65874Y-23518D01*
X65874Y-23452D01*
X65888Y-23434D01*
X65902Y-23424D01*
X65930Y-23415D01*
X65958Y-23415D01*
X65986Y-23424D01*
X66000Y-23434D01*
X66014Y-23452D01*
X66014Y-23518D01*
X66516Y-23678D02*
X66530Y-23687D01*
X66544Y-23715D01*
X66544Y-23734D01*
X66530Y-23762D01*
X66502Y-23781D01*
X66474Y-23790D01*
X66417Y-23799D01*
X66375Y-23799D01*
X66319Y-23790D01*
X66291Y-23781D01*
X66263Y-23762D01*
X66249Y-23734D01*
X66249Y-23715D01*
X66263Y-23687D01*
X66277Y-23678D01*
X66460Y-23602D02*
X66460Y-23509D01*
X66544Y-23621D02*
X66249Y-23556D01*
X66544Y-23490D01*
X66544Y-23330D02*
X66544Y-23424D01*
X66249Y-23424D01*
X66835Y-23706D02*
X66835Y-23613D01*
X66919Y-23725D02*
X66624Y-23660D01*
X66919Y-23594D01*
X66919Y-23500D02*
X66905Y-23519D01*
X66891Y-23528D01*
X66863Y-23537D01*
X66778Y-23537D01*
X66750Y-23528D01*
X66736Y-23519D01*
X66722Y-23500D01*
X66722Y-23472D01*
X66736Y-23453D01*
X66750Y-23444D01*
X66778Y-23434D01*
X66863Y-23434D01*
X66891Y-23444D01*
X66905Y-23453D01*
X66919Y-23472D01*
X66919Y-23500D01*
X66722Y-23266D02*
X66919Y-23266D01*
X66722Y-23350D02*
X66877Y-23350D01*
X66905Y-23341D01*
X66919Y-23322D01*
X66919Y-23294D01*
X66905Y-23275D01*
X66891Y-23266D01*
X66722Y-23200D02*
X66722Y-23125D01*
X66624Y-23172D02*
X66877Y-23172D01*
X66905Y-23163D01*
X66919Y-23144D01*
X66919Y-23125D01*
X67260Y-23631D02*
X67260Y-23538D01*
X67344Y-23650D02*
X67049Y-23585D01*
X67344Y-23519D01*
X67344Y-23369D02*
X67049Y-23369D01*
X67330Y-23369D02*
X67344Y-23387D01*
X67344Y-23425D01*
X67330Y-23444D01*
X67316Y-23453D01*
X67288Y-23462D01*
X67203Y-23462D01*
X67175Y-23453D01*
X67161Y-23444D01*
X67147Y-23425D01*
X67147Y-23387D01*
X67161Y-23369D01*
X67147Y-23191D02*
X67344Y-23191D01*
X67147Y-23275D02*
X67302Y-23275D01*
X67330Y-23266D01*
X67344Y-23247D01*
X67344Y-23219D01*
X67330Y-23200D01*
X67316Y-23191D01*
X67344Y-23097D02*
X67147Y-23097D01*
X67175Y-23097D02*
X67161Y-23088D01*
X67147Y-23069D01*
X67147Y-23041D01*
X67161Y-23022D01*
X67189Y-23013D01*
X67344Y-23013D01*
X67189Y-23013D02*
X67161Y-23003D01*
X67147Y-22985D01*
X67147Y-22956D01*
X67161Y-22938D01*
X67189Y-22928D01*
X67344Y-22928D01*
X67685Y-23548D02*
X67685Y-23455D01*
X67769Y-23567D02*
X67474Y-23502D01*
X67769Y-23436D01*
X67769Y-23370D02*
X67572Y-23370D01*
X67628Y-23370D02*
X67600Y-23361D01*
X67586Y-23351D01*
X67572Y-23333D01*
X67572Y-23314D01*
X67755Y-23173D02*
X67769Y-23192D01*
X67769Y-23229D01*
X67755Y-23248D01*
X67727Y-23257D01*
X67614Y-23257D01*
X67586Y-23248D01*
X67572Y-23229D01*
X67572Y-23192D01*
X67586Y-23173D01*
X67614Y-23164D01*
X67642Y-23164D01*
X67671Y-23257D01*
X67572Y-23107D02*
X67572Y-23032D01*
X67769Y-23079D02*
X67516Y-23079D01*
X67488Y-23070D01*
X67474Y-23051D01*
X67474Y-23032D01*
X68169Y-22441D02*
X68028Y-22506D01*
X68169Y-22553D02*
X67874Y-22553D01*
X67874Y-22478D01*
X67888Y-22459D01*
X67902Y-22450D01*
X67930Y-22441D01*
X67972Y-22441D01*
X68000Y-22450D01*
X68014Y-22459D01*
X68028Y-22478D01*
X68028Y-22553D01*
X68014Y-22290D02*
X68028Y-22262D01*
X68042Y-22253D01*
X68071Y-22244D01*
X68113Y-22244D01*
X68141Y-22253D01*
X68155Y-22262D01*
X68169Y-22281D01*
X68169Y-22356D01*
X67874Y-22356D01*
X67874Y-22290D01*
X67888Y-22272D01*
X67902Y-22262D01*
X67930Y-22253D01*
X67958Y-22253D01*
X67986Y-22262D01*
X68000Y-22272D01*
X68014Y-22290D01*
X68014Y-22356D01*
X67874Y-22122D02*
X67874Y-22084D01*
X67888Y-22065D01*
X67916Y-22047D01*
X67972Y-22037D01*
X68071Y-22037D01*
X68127Y-22047D01*
X68155Y-22065D01*
X68169Y-22084D01*
X68169Y-22122D01*
X68155Y-22140D01*
X68127Y-22159D01*
X68071Y-22168D01*
X67972Y-22168D01*
X67916Y-22159D01*
X67888Y-22140D01*
X67874Y-22122D01*
G54D12*
X46276Y-21040D02*
X46374Y-21434D01*
X46473Y-21040D01*
X46698Y-21434D02*
X46698Y-21228D01*
X46684Y-21191D01*
X46656Y-21172D01*
X46599Y-21172D01*
X46571Y-21191D01*
X46698Y-21416D02*
X46670Y-21434D01*
X46599Y-21434D01*
X46571Y-21416D01*
X46557Y-21378D01*
X46557Y-21341D01*
X46571Y-21303D01*
X46599Y-21284D01*
X46670Y-21284D01*
X46698Y-21266D01*
X46838Y-21172D02*
X46838Y-21434D01*
X46838Y-21209D02*
X46852Y-21191D01*
X46880Y-21172D01*
X46923Y-21172D01*
X46951Y-21191D01*
X46965Y-21228D01*
X46965Y-21434D01*
X47232Y-21434D02*
X47232Y-21228D01*
X47218Y-21191D01*
X47190Y-21172D01*
X47133Y-21172D01*
X47105Y-21191D01*
X47232Y-21416D02*
X47204Y-21434D01*
X47133Y-21434D01*
X47105Y-21416D01*
X47091Y-21378D01*
X47091Y-21341D01*
X47105Y-21303D01*
X47133Y-21284D01*
X47204Y-21284D01*
X47232Y-21266D01*
G54D11*
X58693Y-31049D02*
X58758Y-31344D01*
X58824Y-31049D01*
X58974Y-31344D02*
X58974Y-31189D01*
X58965Y-31161D01*
X58946Y-31147D01*
X58909Y-31147D01*
X58890Y-31161D01*
X58974Y-31330D02*
X58956Y-31344D01*
X58909Y-31344D01*
X58890Y-31330D01*
X58881Y-31302D01*
X58881Y-31274D01*
X58890Y-31246D01*
X58909Y-31232D01*
X58956Y-31232D01*
X58974Y-31217D01*
X59068Y-31147D02*
X59068Y-31344D01*
X59068Y-31175D02*
X59077Y-31161D01*
X59096Y-31147D01*
X59124Y-31147D01*
X59143Y-31161D01*
X59152Y-31189D01*
X59152Y-31344D01*
X59330Y-31344D02*
X59330Y-31189D01*
X59321Y-31161D01*
X59302Y-31147D01*
X59265Y-31147D01*
X59246Y-31161D01*
X59330Y-31330D02*
X59312Y-31344D01*
X59265Y-31344D01*
X59246Y-31330D01*
X59237Y-31302D01*
X59237Y-31274D01*
X59246Y-31246D01*
X59265Y-31232D01*
X59312Y-31232D01*
X59330Y-31217D01*
G54D13*
X62565Y-12440D02*
X62565Y-12974D01*
X62422Y-12136D02*
X62279Y-12707D01*
X62651Y-12707D01*
X60201Y-12124D02*
X60572Y-12124D01*
X60372Y-12429D01*
X60458Y-12429D01*
X60515Y-12467D01*
X60544Y-12505D01*
X60572Y-12581D01*
X60572Y-12771D01*
X60544Y-12848D01*
X60515Y-12886D01*
X60458Y-12924D01*
X60286Y-12924D01*
X60229Y-12886D01*
X60201Y-12848D01*
X57879Y-12200D02*
X57908Y-12162D01*
X57965Y-12124D01*
X58108Y-12124D01*
X58165Y-12162D01*
X58194Y-12200D01*
X58222Y-12276D01*
X58222Y-12352D01*
X58194Y-12467D01*
X57851Y-12924D01*
X58222Y-12924D01*
X55997Y-12949D02*
X55654Y-12949D01*
X55826Y-12949D02*
X55826Y-12149D01*
X55769Y-12263D01*
X55711Y-12339D01*
X55654Y-12377D01*
X63272Y-21820D02*
X63558Y-21820D01*
X63215Y-22049D02*
X63415Y-21249D01*
X63615Y-22049D01*
X63815Y-22049D02*
X63815Y-21249D01*
X64043Y-21249D01*
X64101Y-21287D01*
X64129Y-21325D01*
X64158Y-21401D01*
X64158Y-21515D01*
X64129Y-21592D01*
X64101Y-21630D01*
X64043Y-21668D01*
X63815Y-21668D01*
X64758Y-21973D02*
X64729Y-22011D01*
X64643Y-22049D01*
X64586Y-22049D01*
X64501Y-22011D01*
X64443Y-21935D01*
X64415Y-21858D01*
X64386Y-21706D01*
X64386Y-21592D01*
X64415Y-21439D01*
X64443Y-21363D01*
X64501Y-21287D01*
X64586Y-21249D01*
X64643Y-21249D01*
X64729Y-21287D01*
X64758Y-21325D01*
X65272Y-21515D02*
X65272Y-22049D01*
X65129Y-21211D02*
X64986Y-21782D01*
X65358Y-21782D01*
X63297Y-19420D02*
X63583Y-19420D01*
X63240Y-19649D02*
X63440Y-18849D01*
X63640Y-19649D01*
X63840Y-19649D02*
X63840Y-18849D01*
X64068Y-18849D01*
X64126Y-18887D01*
X64154Y-18925D01*
X64183Y-19001D01*
X64183Y-19115D01*
X64154Y-19192D01*
X64126Y-19230D01*
X64068Y-19268D01*
X63840Y-19268D01*
X64783Y-19573D02*
X64754Y-19611D01*
X64668Y-19649D01*
X64611Y-19649D01*
X64526Y-19611D01*
X64468Y-19535D01*
X64440Y-19458D01*
X64411Y-19306D01*
X64411Y-19192D01*
X64440Y-19039D01*
X64468Y-18963D01*
X64526Y-18887D01*
X64611Y-18849D01*
X64668Y-18849D01*
X64754Y-18887D01*
X64783Y-18925D01*
X64983Y-18849D02*
X65354Y-18849D01*
X65154Y-19154D01*
X65240Y-19154D01*
X65297Y-19192D01*
X65326Y-19230D01*
X65354Y-19306D01*
X65354Y-19496D01*
X65326Y-19573D01*
X65297Y-19611D01*
X65240Y-19649D01*
X65068Y-19649D01*
X65011Y-19611D01*
X64983Y-19573D01*
X50147Y-19320D02*
X50433Y-19320D01*
X50090Y-19549D02*
X50290Y-18749D01*
X50490Y-19549D01*
X50690Y-19549D02*
X50690Y-18749D01*
X50918Y-18749D01*
X50976Y-18787D01*
X51004Y-18825D01*
X51033Y-18901D01*
X51033Y-19015D01*
X51004Y-19092D01*
X50976Y-19130D01*
X50918Y-19168D01*
X50690Y-19168D01*
X51633Y-19473D02*
X51604Y-19511D01*
X51518Y-19549D01*
X51461Y-19549D01*
X51376Y-19511D01*
X51318Y-19435D01*
X51290Y-19358D01*
X51261Y-19206D01*
X51261Y-19092D01*
X51290Y-18939D01*
X51318Y-18863D01*
X51376Y-18787D01*
X51461Y-18749D01*
X51518Y-18749D01*
X51604Y-18787D01*
X51633Y-18825D01*
X51861Y-18825D02*
X51890Y-18787D01*
X51947Y-18749D01*
X52090Y-18749D01*
X52147Y-18787D01*
X52176Y-18825D01*
X52204Y-18901D01*
X52204Y-18977D01*
X52176Y-19092D01*
X51833Y-19549D01*
X52204Y-19549D01*
X50222Y-21770D02*
X50508Y-21770D01*
X50165Y-21999D02*
X50365Y-21199D01*
X50565Y-21999D01*
X50765Y-21999D02*
X50765Y-21199D01*
X50993Y-21199D01*
X51051Y-21237D01*
X51079Y-21275D01*
X51108Y-21351D01*
X51108Y-21465D01*
X51079Y-21542D01*
X51051Y-21580D01*
X50993Y-21618D01*
X50765Y-21618D01*
X51708Y-21923D02*
X51679Y-21961D01*
X51593Y-21999D01*
X51536Y-21999D01*
X51451Y-21961D01*
X51393Y-21885D01*
X51365Y-21808D01*
X51336Y-21656D01*
X51336Y-21542D01*
X51365Y-21389D01*
X51393Y-21313D01*
X51451Y-21237D01*
X51536Y-21199D01*
X51593Y-21199D01*
X51679Y-21237D01*
X51708Y-21275D01*
X52279Y-21999D02*
X51936Y-21999D01*
X52108Y-21999D02*
X52108Y-21199D01*
X52051Y-21313D01*
X51993Y-21389D01*
X51936Y-21427D01*
G54D14*
X62737Y-20405D02*
X62737Y-22905D01*
X62737Y-22905D02*
X61162Y-22905D01*
X61162Y-22905D02*
X61162Y-20405D01*
X61162Y-20405D02*
X62737Y-20405D01*
X62737Y-17846D02*
X62737Y-20346D01*
X62737Y-20346D02*
X61162Y-20346D01*
X61162Y-20346D02*
X61162Y-17846D01*
X61162Y-17846D02*
X62737Y-17846D01*
X53019Y-22906D02*
X53019Y-20406D01*
X53019Y-20406D02*
X54594Y-20406D01*
X54594Y-20406D02*
X54594Y-22906D01*
X54594Y-22906D02*
X53019Y-22906D01*
X53019Y-20347D02*
X53019Y-17847D01*
X53019Y-17847D02*
X54594Y-17847D01*
X54594Y-17847D02*
X54594Y-20347D01*
X54594Y-20347D02*
X53019Y-20347D01*
G54D15*
X60595Y-17842D02*
X55162Y-17842D01*
X55162Y-17842D02*
X55162Y-23039D01*
X55162Y-23039D02*
X60595Y-23039D01*
X60595Y-23039D02*
X60595Y-17842D01*
X54768Y-17448D02*
X60988Y-17448D01*
X60988Y-17448D02*
X60988Y-23440D01*
X60988Y-23440D02*
X54768Y-23440D01*
X54768Y-23440D02*
X54768Y-17448D01*
G54D16*
X55200Y-13200D02*
X55200Y-15000D01*
X55200Y-15000D02*
X56400Y-15000D01*
X56400Y-13200D02*
X56400Y-15000D01*
X55200Y-13200D02*
X56400Y-13200D01*
X57500Y-13200D02*
X57500Y-15000D01*
X57500Y-15000D02*
X58700Y-15000D01*
X58700Y-13200D02*
X58700Y-15000D01*
X57500Y-13200D02*
X58700Y-13200D01*
X59800Y-13200D02*
X59800Y-15000D01*
X59800Y-15000D02*
X61000Y-15000D01*
X61000Y-13200D02*
X61000Y-15000D01*
X59800Y-13200D02*
X61000Y-13200D01*
X62100Y-13200D02*
X62100Y-15000D01*
X62100Y-15000D02*
X63300Y-15000D01*
X63300Y-13200D02*
X63300Y-15000D01*
X62100Y-13200D02*
X63300Y-13200D01*
G54D17*
X58950Y-12950D02*
X58950Y-12050D01*
X58950Y-12050D02*
X59450Y-12050D01*
X59450Y-12050D02*
X59450Y-12950D01*
X59450Y-12950D02*
X58950Y-12950D01*
M02*
