G04 (created by PCBNEW-RS274X (2012-01-19 BZR 3256)-stable) date Wed Aug 28 15:53:45 2013*
G01*
G70*
G90*
%MOIN*%
G04 Gerber Fmt 3.4, Leading zero omitted, Abs format*
%FSLAX34Y34*%
G04 APERTURE LIST*
%ADD10C,0.006000*%
%ADD11C,0.004900*%
%ADD12C,0.005900*%
G04 APERTURE END LIST*
G54D10*
G54D11*
X53495Y-15269D02*
X53495Y-14974D01*
X53429Y-15072D02*
X53354Y-15072D01*
X53401Y-15269D02*
X53401Y-15016D01*
X53392Y-14988D01*
X53373Y-14974D01*
X53354Y-14974D01*
X53288Y-15269D02*
X53288Y-14974D01*
X53288Y-15086D02*
X53269Y-15072D01*
X53232Y-15072D01*
X53213Y-15086D01*
X53204Y-15100D01*
X53194Y-15128D01*
X53194Y-15213D01*
X53204Y-15241D01*
X53213Y-15255D01*
X53232Y-15269D01*
X53269Y-15269D01*
X53288Y-15255D01*
X53898Y-14805D02*
X53870Y-14819D01*
X53823Y-14819D01*
X53805Y-14805D01*
X53795Y-14791D01*
X53786Y-14763D01*
X53786Y-14735D01*
X53795Y-14707D01*
X53805Y-14692D01*
X53823Y-14678D01*
X53861Y-14664D01*
X53880Y-14650D01*
X53889Y-14636D01*
X53898Y-14608D01*
X53898Y-14580D01*
X53889Y-14552D01*
X53880Y-14538D01*
X53861Y-14524D01*
X53814Y-14524D01*
X53786Y-14538D01*
X53701Y-14819D02*
X53701Y-14524D01*
X53626Y-14524D01*
X53607Y-14538D01*
X53598Y-14552D01*
X53589Y-14580D01*
X53589Y-14622D01*
X53598Y-14650D01*
X53607Y-14664D01*
X53626Y-14678D01*
X53701Y-14678D01*
X53504Y-14819D02*
X53504Y-14524D01*
X53504Y-14664D02*
X53392Y-14664D01*
X53392Y-14819D02*
X53392Y-14524D01*
X53298Y-14819D02*
X53298Y-14524D01*
X53213Y-14552D02*
X53204Y-14538D01*
X53185Y-14524D01*
X53138Y-14524D01*
X53120Y-14538D01*
X53110Y-14552D01*
X53101Y-14580D01*
X53101Y-14608D01*
X53110Y-14650D01*
X53223Y-14819D01*
X53101Y-14819D01*
X54097Y-14355D02*
X54069Y-14369D01*
X54022Y-14369D01*
X54004Y-14355D01*
X53994Y-14341D01*
X53985Y-14313D01*
X53985Y-14285D01*
X53994Y-14257D01*
X54004Y-14242D01*
X54022Y-14228D01*
X54060Y-14214D01*
X54079Y-14200D01*
X54088Y-14186D01*
X54097Y-14158D01*
X54097Y-14130D01*
X54088Y-14102D01*
X54079Y-14088D01*
X54060Y-14074D01*
X54013Y-14074D01*
X53985Y-14088D01*
X53900Y-14369D02*
X53900Y-14074D01*
X53825Y-14074D01*
X53806Y-14088D01*
X53797Y-14102D01*
X53788Y-14130D01*
X53788Y-14172D01*
X53797Y-14200D01*
X53806Y-14214D01*
X53825Y-14228D01*
X53900Y-14228D01*
X53703Y-14369D02*
X53703Y-14074D01*
X53703Y-14214D02*
X53591Y-14214D01*
X53591Y-14369D02*
X53591Y-14074D01*
X53497Y-14369D02*
X53497Y-14074D01*
X53412Y-14102D02*
X53403Y-14088D01*
X53384Y-14074D01*
X53337Y-14074D01*
X53319Y-14088D01*
X53309Y-14102D01*
X53300Y-14130D01*
X53300Y-14158D01*
X53309Y-14200D01*
X53422Y-14369D01*
X53300Y-14369D01*
X53149Y-14214D02*
X53121Y-14228D01*
X53112Y-14242D01*
X53103Y-14271D01*
X53103Y-14313D01*
X53112Y-14341D01*
X53121Y-14355D01*
X53140Y-14369D01*
X53215Y-14369D01*
X53215Y-14074D01*
X53149Y-14074D01*
X53131Y-14088D01*
X53121Y-14102D01*
X53112Y-14130D01*
X53112Y-14158D01*
X53121Y-14186D01*
X53131Y-14200D01*
X53149Y-14214D01*
X53215Y-14214D01*
X54098Y-13905D02*
X54070Y-13919D01*
X54023Y-13919D01*
X54005Y-13905D01*
X53995Y-13891D01*
X53986Y-13863D01*
X53986Y-13835D01*
X53995Y-13807D01*
X54005Y-13792D01*
X54023Y-13778D01*
X54061Y-13764D01*
X54080Y-13750D01*
X54089Y-13736D01*
X54098Y-13708D01*
X54098Y-13680D01*
X54089Y-13652D01*
X54080Y-13638D01*
X54061Y-13624D01*
X54014Y-13624D01*
X53986Y-13638D01*
X53901Y-13919D02*
X53901Y-13624D01*
X53826Y-13624D01*
X53807Y-13638D01*
X53798Y-13652D01*
X53789Y-13680D01*
X53789Y-13722D01*
X53798Y-13750D01*
X53807Y-13764D01*
X53826Y-13778D01*
X53901Y-13778D01*
X53704Y-13919D02*
X53704Y-13624D01*
X53704Y-13764D02*
X53592Y-13764D01*
X53592Y-13919D02*
X53592Y-13624D01*
X53498Y-13919D02*
X53498Y-13624D01*
X53301Y-13919D02*
X53413Y-13919D01*
X53357Y-13919D02*
X53357Y-13624D01*
X53376Y-13666D01*
X53395Y-13694D01*
X53413Y-13708D01*
X54247Y-13405D02*
X54219Y-13419D01*
X54172Y-13419D01*
X54154Y-13405D01*
X54144Y-13391D01*
X54135Y-13363D01*
X54135Y-13335D01*
X54144Y-13307D01*
X54154Y-13292D01*
X54172Y-13278D01*
X54210Y-13264D01*
X54229Y-13250D01*
X54238Y-13236D01*
X54247Y-13208D01*
X54247Y-13180D01*
X54238Y-13152D01*
X54229Y-13138D01*
X54210Y-13124D01*
X54163Y-13124D01*
X54135Y-13138D01*
X54050Y-13419D02*
X54050Y-13124D01*
X53975Y-13124D01*
X53956Y-13138D01*
X53947Y-13152D01*
X53938Y-13180D01*
X53938Y-13222D01*
X53947Y-13250D01*
X53956Y-13264D01*
X53975Y-13278D01*
X54050Y-13278D01*
X53853Y-13419D02*
X53853Y-13124D01*
X53853Y-13264D02*
X53741Y-13264D01*
X53741Y-13419D02*
X53741Y-13124D01*
X53647Y-13419D02*
X53647Y-13124D01*
X53450Y-13419D02*
X53562Y-13419D01*
X53506Y-13419D02*
X53506Y-13124D01*
X53525Y-13166D01*
X53544Y-13194D01*
X53562Y-13208D01*
X53299Y-13264D02*
X53271Y-13278D01*
X53262Y-13292D01*
X53253Y-13321D01*
X53253Y-13363D01*
X53262Y-13391D01*
X53271Y-13405D01*
X53290Y-13419D01*
X53365Y-13419D01*
X53365Y-13124D01*
X53299Y-13124D01*
X53281Y-13138D01*
X53271Y-13152D01*
X53262Y-13180D01*
X53262Y-13208D01*
X53271Y-13236D01*
X53281Y-13250D01*
X53299Y-13264D01*
X53365Y-13264D01*
X54051Y-12905D02*
X54023Y-12919D01*
X53976Y-12919D01*
X53958Y-12905D01*
X53948Y-12891D01*
X53939Y-12863D01*
X53939Y-12835D01*
X53948Y-12807D01*
X53958Y-12792D01*
X53976Y-12778D01*
X54014Y-12764D01*
X54033Y-12750D01*
X54042Y-12736D01*
X54051Y-12708D01*
X54051Y-12680D01*
X54042Y-12652D01*
X54033Y-12638D01*
X54014Y-12624D01*
X53967Y-12624D01*
X53939Y-12638D01*
X53788Y-12764D02*
X53760Y-12778D01*
X53751Y-12792D01*
X53742Y-12821D01*
X53742Y-12863D01*
X53751Y-12891D01*
X53760Y-12905D01*
X53779Y-12919D01*
X53854Y-12919D01*
X53854Y-12624D01*
X53788Y-12624D01*
X53770Y-12638D01*
X53760Y-12652D01*
X53751Y-12680D01*
X53751Y-12708D01*
X53760Y-12736D01*
X53770Y-12750D01*
X53788Y-12764D01*
X53854Y-12764D01*
X53657Y-12919D02*
X53657Y-12624D01*
X54250Y-12455D02*
X54222Y-12469D01*
X54175Y-12469D01*
X54157Y-12455D01*
X54147Y-12441D01*
X54138Y-12413D01*
X54138Y-12385D01*
X54147Y-12357D01*
X54157Y-12342D01*
X54175Y-12328D01*
X54213Y-12314D01*
X54232Y-12300D01*
X54241Y-12286D01*
X54250Y-12258D01*
X54250Y-12230D01*
X54241Y-12202D01*
X54232Y-12188D01*
X54213Y-12174D01*
X54166Y-12174D01*
X54138Y-12188D01*
X53987Y-12314D02*
X53959Y-12328D01*
X53950Y-12342D01*
X53941Y-12371D01*
X53941Y-12413D01*
X53950Y-12441D01*
X53959Y-12455D01*
X53978Y-12469D01*
X54053Y-12469D01*
X54053Y-12174D01*
X53987Y-12174D01*
X53969Y-12188D01*
X53959Y-12202D01*
X53950Y-12230D01*
X53950Y-12258D01*
X53959Y-12286D01*
X53969Y-12300D01*
X53987Y-12314D01*
X54053Y-12314D01*
X53856Y-12469D02*
X53856Y-12174D01*
X53696Y-12314D02*
X53668Y-12328D01*
X53659Y-12342D01*
X53650Y-12371D01*
X53650Y-12413D01*
X53659Y-12441D01*
X53668Y-12455D01*
X53687Y-12469D01*
X53762Y-12469D01*
X53762Y-12174D01*
X53696Y-12174D01*
X53678Y-12188D01*
X53668Y-12202D01*
X53659Y-12230D01*
X53659Y-12258D01*
X53668Y-12286D01*
X53678Y-12300D01*
X53696Y-12314D01*
X53762Y-12314D01*
X55043Y-12705D02*
X55015Y-12719D01*
X54968Y-12719D01*
X54950Y-12705D01*
X54940Y-12691D01*
X54931Y-12663D01*
X54931Y-12635D01*
X54940Y-12607D01*
X54950Y-12592D01*
X54968Y-12578D01*
X55006Y-12564D01*
X55025Y-12550D01*
X55034Y-12536D01*
X55043Y-12508D01*
X55043Y-12480D01*
X55034Y-12452D01*
X55025Y-12438D01*
X55006Y-12424D01*
X54959Y-12424D01*
X54931Y-12438D01*
X54846Y-12564D02*
X54780Y-12564D01*
X54752Y-12719D02*
X54846Y-12719D01*
X54846Y-12424D01*
X54752Y-12424D01*
X54602Y-12564D02*
X54574Y-12578D01*
X54565Y-12592D01*
X54556Y-12621D01*
X54556Y-12663D01*
X54565Y-12691D01*
X54574Y-12705D01*
X54593Y-12719D01*
X54668Y-12719D01*
X54668Y-12424D01*
X54602Y-12424D01*
X54584Y-12438D01*
X54574Y-12452D01*
X54565Y-12480D01*
X54565Y-12508D01*
X54574Y-12536D01*
X54584Y-12550D01*
X54602Y-12564D01*
X54668Y-12564D01*
X54903Y-12191D02*
X54912Y-12205D01*
X54940Y-12219D01*
X54959Y-12219D01*
X54987Y-12205D01*
X55006Y-12177D01*
X55015Y-12149D01*
X55024Y-12092D01*
X55024Y-12050D01*
X55015Y-11994D01*
X55006Y-11966D01*
X54987Y-11938D01*
X54959Y-11924D01*
X54940Y-11924D01*
X54912Y-11938D01*
X54903Y-11952D01*
X54827Y-12135D02*
X54734Y-12135D01*
X54846Y-12219D02*
X54781Y-11924D01*
X54715Y-12219D01*
X54555Y-12219D02*
X54649Y-12219D01*
X54649Y-11924D01*
X55181Y-11685D02*
X55088Y-11685D01*
X55200Y-11769D02*
X55135Y-11474D01*
X55069Y-11769D01*
X54975Y-11769D02*
X54994Y-11755D01*
X55003Y-11741D01*
X55012Y-11713D01*
X55012Y-11628D01*
X55003Y-11600D01*
X54994Y-11586D01*
X54975Y-11572D01*
X54947Y-11572D01*
X54928Y-11586D01*
X54919Y-11600D01*
X54909Y-11628D01*
X54909Y-11713D01*
X54919Y-11741D01*
X54928Y-11755D01*
X54947Y-11769D01*
X54975Y-11769D01*
X54741Y-11572D02*
X54741Y-11769D01*
X54825Y-11572D02*
X54825Y-11727D01*
X54816Y-11755D01*
X54797Y-11769D01*
X54769Y-11769D01*
X54750Y-11755D01*
X54741Y-11741D01*
X54675Y-11572D02*
X54600Y-11572D01*
X54647Y-11474D02*
X54647Y-11727D01*
X54638Y-11755D01*
X54619Y-11769D01*
X54600Y-11769D01*
X55356Y-11235D02*
X55263Y-11235D01*
X55375Y-11319D02*
X55310Y-11024D01*
X55244Y-11319D01*
X55094Y-11319D02*
X55094Y-11024D01*
X55094Y-11305D02*
X55112Y-11319D01*
X55150Y-11319D01*
X55169Y-11305D01*
X55178Y-11291D01*
X55187Y-11263D01*
X55187Y-11178D01*
X55178Y-11150D01*
X55169Y-11136D01*
X55150Y-11122D01*
X55112Y-11122D01*
X55094Y-11136D01*
X54916Y-11122D02*
X54916Y-11319D01*
X55000Y-11122D02*
X55000Y-11277D01*
X54991Y-11305D01*
X54972Y-11319D01*
X54944Y-11319D01*
X54925Y-11305D01*
X54916Y-11291D01*
X54822Y-11319D02*
X54822Y-11122D01*
X54822Y-11150D02*
X54813Y-11136D01*
X54794Y-11122D01*
X54766Y-11122D01*
X54747Y-11136D01*
X54738Y-11164D01*
X54738Y-11319D01*
X54738Y-11164D02*
X54728Y-11136D01*
X54710Y-11122D01*
X54681Y-11122D01*
X54663Y-11136D01*
X54653Y-11164D01*
X54653Y-11319D01*
X55998Y-11385D02*
X55905Y-11385D01*
X56017Y-11469D02*
X55952Y-11174D01*
X55886Y-11469D01*
X55820Y-11469D02*
X55820Y-11272D01*
X55820Y-11328D02*
X55811Y-11300D01*
X55801Y-11286D01*
X55783Y-11272D01*
X55764Y-11272D01*
X55623Y-11455D02*
X55642Y-11469D01*
X55679Y-11469D01*
X55698Y-11455D01*
X55707Y-11427D01*
X55707Y-11314D01*
X55698Y-11286D01*
X55679Y-11272D01*
X55642Y-11272D01*
X55623Y-11286D01*
X55614Y-11314D01*
X55614Y-11342D01*
X55707Y-11371D01*
X55557Y-11272D02*
X55482Y-11272D01*
X55529Y-11469D02*
X55529Y-11216D01*
X55520Y-11188D01*
X55501Y-11174D01*
X55482Y-11174D01*
X55991Y-11019D02*
X56056Y-10878D01*
X56103Y-11019D02*
X56103Y-10724D01*
X56028Y-10724D01*
X56009Y-10738D01*
X56000Y-10752D01*
X55991Y-10780D01*
X55991Y-10822D01*
X56000Y-10850D01*
X56009Y-10864D01*
X56028Y-10878D01*
X56103Y-10878D01*
X55840Y-10864D02*
X55812Y-10878D01*
X55803Y-10892D01*
X55794Y-10921D01*
X55794Y-10963D01*
X55803Y-10991D01*
X55812Y-11005D01*
X55831Y-11019D01*
X55906Y-11019D01*
X55906Y-10724D01*
X55840Y-10724D01*
X55822Y-10738D01*
X55812Y-10752D01*
X55803Y-10780D01*
X55803Y-10808D01*
X55812Y-10836D01*
X55822Y-10850D01*
X55840Y-10864D01*
X55906Y-10864D01*
X55672Y-10724D02*
X55634Y-10724D01*
X55615Y-10738D01*
X55597Y-10766D01*
X55587Y-10822D01*
X55587Y-10921D01*
X55597Y-10977D01*
X55615Y-11005D01*
X55634Y-11019D01*
X55672Y-11019D01*
X55690Y-11005D01*
X55709Y-10977D01*
X55718Y-10921D01*
X55718Y-10822D01*
X55709Y-10766D01*
X55690Y-10738D01*
X55672Y-10724D01*
X46620Y-19624D02*
X46555Y-19919D01*
X46489Y-19624D01*
X46423Y-19919D02*
X46423Y-19624D01*
X46423Y-19736D02*
X46404Y-19722D01*
X46367Y-19722D01*
X46348Y-19736D01*
X46339Y-19750D01*
X46329Y-19778D01*
X46329Y-19863D01*
X46339Y-19891D01*
X46348Y-19905D01*
X46367Y-19919D01*
X46404Y-19919D01*
X46423Y-19905D01*
X46245Y-19919D02*
X46245Y-19722D01*
X46245Y-19624D02*
X46254Y-19638D01*
X46245Y-19652D01*
X46236Y-19638D01*
X46245Y-19624D01*
X46245Y-19652D01*
X46067Y-19919D02*
X46067Y-19764D01*
X46076Y-19736D01*
X46095Y-19722D01*
X46132Y-19722D01*
X46151Y-19736D01*
X46067Y-19905D02*
X46085Y-19919D01*
X46132Y-19919D01*
X46151Y-19905D01*
X46160Y-19877D01*
X46160Y-19849D01*
X46151Y-19821D01*
X46132Y-19807D01*
X46085Y-19807D01*
X46067Y-19792D01*
X45982Y-19905D02*
X45964Y-19919D01*
X45926Y-19919D01*
X45907Y-19905D01*
X45898Y-19877D01*
X45898Y-19863D01*
X45907Y-19835D01*
X45926Y-19821D01*
X45954Y-19821D01*
X45973Y-19807D01*
X45982Y-19778D01*
X45982Y-19764D01*
X45973Y-19736D01*
X45954Y-19722D01*
X45926Y-19722D01*
X45907Y-19736D01*
X46824Y-18718D02*
X47119Y-18783D01*
X46824Y-18849D01*
X47119Y-18999D02*
X46964Y-18999D01*
X46936Y-18990D01*
X46922Y-18971D01*
X46922Y-18934D01*
X46936Y-18915D01*
X47105Y-18999D02*
X47119Y-18981D01*
X47119Y-18934D01*
X47105Y-18915D01*
X47077Y-18906D01*
X47049Y-18906D01*
X47021Y-18915D01*
X47007Y-18934D01*
X47007Y-18981D01*
X46992Y-18999D01*
X46922Y-19093D02*
X47119Y-19093D01*
X46950Y-19093D02*
X46936Y-19102D01*
X46922Y-19121D01*
X46922Y-19149D01*
X46936Y-19168D01*
X46964Y-19177D01*
X47119Y-19177D01*
X47119Y-19355D02*
X46964Y-19355D01*
X46936Y-19346D01*
X46922Y-19327D01*
X46922Y-19290D01*
X46936Y-19271D01*
X47105Y-19355D02*
X47119Y-19337D01*
X47119Y-19290D01*
X47105Y-19271D01*
X47077Y-19262D01*
X47049Y-19262D01*
X47021Y-19271D01*
X47007Y-19290D01*
X47007Y-19337D01*
X46992Y-19355D01*
X47324Y-18160D02*
X47619Y-18225D01*
X47324Y-18291D01*
X47619Y-18441D02*
X47324Y-18441D01*
X47605Y-18441D02*
X47619Y-18423D01*
X47619Y-18385D01*
X47605Y-18366D01*
X47591Y-18357D01*
X47563Y-18348D01*
X47478Y-18348D01*
X47450Y-18357D01*
X47436Y-18366D01*
X47422Y-18385D01*
X47422Y-18423D01*
X47436Y-18441D01*
X47619Y-18535D02*
X47422Y-18535D01*
X47324Y-18535D02*
X47338Y-18526D01*
X47352Y-18535D01*
X47338Y-18544D01*
X47324Y-18535D01*
X47352Y-18535D01*
X47422Y-18713D02*
X47661Y-18713D01*
X47689Y-18704D01*
X47703Y-18695D01*
X47717Y-18676D01*
X47717Y-18648D01*
X47703Y-18629D01*
X47605Y-18713D02*
X47619Y-18695D01*
X47619Y-18657D01*
X47605Y-18638D01*
X47591Y-18629D01*
X47563Y-18620D01*
X47478Y-18620D01*
X47450Y-18629D01*
X47436Y-18638D01*
X47422Y-18657D01*
X47422Y-18695D01*
X47436Y-18713D01*
X48069Y-17818D02*
X47928Y-17753D01*
X48069Y-17706D02*
X47774Y-17706D01*
X47774Y-17781D01*
X47788Y-17800D01*
X47802Y-17809D01*
X47830Y-17818D01*
X47872Y-17818D01*
X47900Y-17809D01*
X47914Y-17800D01*
X47928Y-17781D01*
X47928Y-17706D01*
X48069Y-17903D02*
X47774Y-17903D01*
X47774Y-17978D01*
X47788Y-17997D01*
X47802Y-18006D01*
X47830Y-18015D01*
X47872Y-18015D01*
X47900Y-18006D01*
X47914Y-17997D01*
X47928Y-17978D01*
X47928Y-17903D01*
X48069Y-18100D02*
X47774Y-18100D01*
X47914Y-18100D02*
X47914Y-18212D01*
X48069Y-18212D02*
X47774Y-18212D01*
X48069Y-18306D02*
X47774Y-18306D01*
X47802Y-18391D02*
X47788Y-18400D01*
X47774Y-18419D01*
X47774Y-18466D01*
X47788Y-18484D01*
X47802Y-18494D01*
X47830Y-18503D01*
X47858Y-18503D01*
X47900Y-18494D01*
X48069Y-18381D01*
X48069Y-18503D01*
X48469Y-17618D02*
X48328Y-17553D01*
X48469Y-17506D02*
X48174Y-17506D01*
X48174Y-17581D01*
X48188Y-17600D01*
X48202Y-17609D01*
X48230Y-17618D01*
X48272Y-17618D01*
X48300Y-17609D01*
X48314Y-17600D01*
X48328Y-17581D01*
X48328Y-17506D01*
X48469Y-17703D02*
X48174Y-17703D01*
X48174Y-17778D01*
X48188Y-17797D01*
X48202Y-17806D01*
X48230Y-17815D01*
X48272Y-17815D01*
X48300Y-17806D01*
X48314Y-17797D01*
X48328Y-17778D01*
X48328Y-17703D01*
X48469Y-17900D02*
X48174Y-17900D01*
X48314Y-17900D02*
X48314Y-18012D01*
X48469Y-18012D02*
X48174Y-18012D01*
X48469Y-18106D02*
X48174Y-18106D01*
X48469Y-18303D02*
X48469Y-18191D01*
X48469Y-18247D02*
X48174Y-18247D01*
X48216Y-18228D01*
X48244Y-18209D01*
X48258Y-18191D01*
X48819Y-17465D02*
X48678Y-17400D01*
X48819Y-17353D02*
X48524Y-17353D01*
X48524Y-17428D01*
X48538Y-17447D01*
X48552Y-17456D01*
X48580Y-17465D01*
X48622Y-17465D01*
X48650Y-17456D01*
X48664Y-17447D01*
X48678Y-17428D01*
X48678Y-17353D01*
X48664Y-17616D02*
X48678Y-17644D01*
X48692Y-17653D01*
X48721Y-17662D01*
X48763Y-17662D01*
X48791Y-17653D01*
X48805Y-17644D01*
X48819Y-17625D01*
X48819Y-17550D01*
X48524Y-17550D01*
X48524Y-17616D01*
X48538Y-17634D01*
X48552Y-17644D01*
X48580Y-17653D01*
X48608Y-17653D01*
X48636Y-17644D01*
X48650Y-17634D01*
X48664Y-17616D01*
X48664Y-17550D01*
X48819Y-17747D02*
X48524Y-17747D01*
X49219Y-17217D02*
X49078Y-17152D01*
X49219Y-17105D02*
X48924Y-17105D01*
X48924Y-17180D01*
X48938Y-17199D01*
X48952Y-17208D01*
X48980Y-17217D01*
X49022Y-17217D01*
X49050Y-17208D01*
X49064Y-17199D01*
X49078Y-17180D01*
X49078Y-17105D01*
X49064Y-17368D02*
X49078Y-17396D01*
X49092Y-17405D01*
X49121Y-17414D01*
X49163Y-17414D01*
X49191Y-17405D01*
X49205Y-17396D01*
X49219Y-17377D01*
X49219Y-17302D01*
X48924Y-17302D01*
X48924Y-17368D01*
X48938Y-17386D01*
X48952Y-17396D01*
X48980Y-17405D01*
X49008Y-17405D01*
X49036Y-17396D01*
X49050Y-17386D01*
X49064Y-17368D01*
X49064Y-17302D01*
X49219Y-17499D02*
X48924Y-17499D01*
X49064Y-17659D02*
X49078Y-17687D01*
X49092Y-17696D01*
X49121Y-17705D01*
X49163Y-17705D01*
X49191Y-17696D01*
X49205Y-17687D01*
X49219Y-17668D01*
X49219Y-17593D01*
X48924Y-17593D01*
X48924Y-17659D01*
X48938Y-17677D01*
X48952Y-17687D01*
X48980Y-17696D01*
X49008Y-17696D01*
X49036Y-17687D01*
X49050Y-17677D01*
X49064Y-17659D01*
X49064Y-17593D01*
X49324Y-16875D02*
X49619Y-16940D01*
X49324Y-17006D01*
X49422Y-17044D02*
X49422Y-17119D01*
X49324Y-17072D02*
X49577Y-17072D01*
X49605Y-17081D01*
X49619Y-17100D01*
X49619Y-17119D01*
X49619Y-17185D02*
X49324Y-17185D01*
X49619Y-17269D02*
X49464Y-17269D01*
X49436Y-17260D01*
X49422Y-17241D01*
X49422Y-17213D01*
X49436Y-17194D01*
X49450Y-17185D01*
X49619Y-17363D02*
X49422Y-17363D01*
X49478Y-17363D02*
X49450Y-17372D01*
X49436Y-17382D01*
X49422Y-17400D01*
X49422Y-17419D01*
X49605Y-17560D02*
X49619Y-17541D01*
X49619Y-17504D01*
X49605Y-17485D01*
X49577Y-17476D01*
X49464Y-17476D01*
X49436Y-17485D01*
X49422Y-17504D01*
X49422Y-17541D01*
X49436Y-17560D01*
X49464Y-17569D01*
X49492Y-17569D01*
X49521Y-17476D01*
X49605Y-17645D02*
X49619Y-17663D01*
X49619Y-17701D01*
X49605Y-17720D01*
X49577Y-17729D01*
X49563Y-17729D01*
X49535Y-17720D01*
X49521Y-17701D01*
X49521Y-17673D01*
X49507Y-17654D01*
X49478Y-17645D01*
X49464Y-17645D01*
X49436Y-17654D01*
X49422Y-17673D01*
X49422Y-17701D01*
X49436Y-17720D01*
X49619Y-17813D02*
X49324Y-17813D01*
X49619Y-17897D02*
X49464Y-17897D01*
X49436Y-17888D01*
X49422Y-17869D01*
X49422Y-17841D01*
X49436Y-17822D01*
X49450Y-17813D01*
X49991Y-16767D02*
X50005Y-16758D01*
X50019Y-16730D01*
X50019Y-16711D01*
X50005Y-16683D01*
X49977Y-16664D01*
X49949Y-16655D01*
X49892Y-16646D01*
X49850Y-16646D01*
X49794Y-16655D01*
X49766Y-16664D01*
X49738Y-16683D01*
X49724Y-16711D01*
X49724Y-16730D01*
X49738Y-16758D01*
X49752Y-16767D01*
X50005Y-16843D02*
X50019Y-16871D01*
X50019Y-16918D01*
X50005Y-16936D01*
X49991Y-16946D01*
X49963Y-16955D01*
X49935Y-16955D01*
X49907Y-16946D01*
X49892Y-16936D01*
X49878Y-16918D01*
X49864Y-16880D01*
X49850Y-16861D01*
X49836Y-16852D01*
X49808Y-16843D01*
X49780Y-16843D01*
X49752Y-16852D01*
X49738Y-16861D01*
X49724Y-16880D01*
X49724Y-16927D01*
X49738Y-16955D01*
X50419Y-16573D02*
X50278Y-16508D01*
X50419Y-16461D02*
X50124Y-16461D01*
X50124Y-16536D01*
X50138Y-16555D01*
X50152Y-16564D01*
X50180Y-16573D01*
X50222Y-16573D01*
X50250Y-16564D01*
X50264Y-16555D01*
X50278Y-16536D01*
X50278Y-16461D01*
X50419Y-16761D02*
X50419Y-16649D01*
X50419Y-16705D02*
X50124Y-16705D01*
X50166Y-16686D01*
X50194Y-16667D01*
X50208Y-16649D01*
X50152Y-16837D02*
X50138Y-16846D01*
X50124Y-16865D01*
X50124Y-16912D01*
X50138Y-16930D01*
X50152Y-16940D01*
X50180Y-16949D01*
X50208Y-16949D01*
X50250Y-16940D01*
X50419Y-16827D01*
X50419Y-16949D01*
X50791Y-16373D02*
X50805Y-16364D01*
X50819Y-16336D01*
X50819Y-16317D01*
X50805Y-16289D01*
X50777Y-16270D01*
X50749Y-16261D01*
X50692Y-16252D01*
X50650Y-16252D01*
X50594Y-16261D01*
X50566Y-16270D01*
X50538Y-16289D01*
X50524Y-16317D01*
X50524Y-16336D01*
X50538Y-16364D01*
X50552Y-16373D01*
X50805Y-16449D02*
X50819Y-16477D01*
X50819Y-16524D01*
X50805Y-16542D01*
X50791Y-16552D01*
X50763Y-16561D01*
X50735Y-16561D01*
X50707Y-16552D01*
X50692Y-16542D01*
X50678Y-16524D01*
X50664Y-16486D01*
X50650Y-16467D01*
X50636Y-16458D01*
X50608Y-16449D01*
X50580Y-16449D01*
X50552Y-16458D01*
X50538Y-16467D01*
X50524Y-16486D01*
X50524Y-16533D01*
X50538Y-16561D01*
X50552Y-16637D02*
X50538Y-16646D01*
X50524Y-16665D01*
X50524Y-16712D01*
X50538Y-16730D01*
X50552Y-16740D01*
X50580Y-16749D01*
X50608Y-16749D01*
X50650Y-16740D01*
X50819Y-16627D01*
X50819Y-16749D01*
X51155Y-15796D02*
X51169Y-15824D01*
X51169Y-15871D01*
X51155Y-15889D01*
X51141Y-15899D01*
X51113Y-15908D01*
X51085Y-15908D01*
X51057Y-15899D01*
X51042Y-15889D01*
X51028Y-15871D01*
X51014Y-15833D01*
X51000Y-15814D01*
X50986Y-15805D01*
X50958Y-15796D01*
X50930Y-15796D01*
X50902Y-15805D01*
X50888Y-15814D01*
X50874Y-15833D01*
X50874Y-15880D01*
X50888Y-15908D01*
X51169Y-16105D02*
X51028Y-16040D01*
X51169Y-15993D02*
X50874Y-15993D01*
X50874Y-16068D01*
X50888Y-16087D01*
X50902Y-16096D01*
X50930Y-16105D01*
X50972Y-16105D01*
X51000Y-16096D01*
X51014Y-16087D01*
X51028Y-16068D01*
X51028Y-15993D01*
X51569Y-15612D02*
X51274Y-15612D01*
X51555Y-15697D02*
X51569Y-15725D01*
X51569Y-15772D01*
X51555Y-15790D01*
X51541Y-15800D01*
X51513Y-15809D01*
X51485Y-15809D01*
X51457Y-15800D01*
X51442Y-15790D01*
X51428Y-15772D01*
X51414Y-15734D01*
X51400Y-15715D01*
X51386Y-15706D01*
X51358Y-15697D01*
X51330Y-15697D01*
X51302Y-15706D01*
X51288Y-15715D01*
X51274Y-15734D01*
X51274Y-15781D01*
X51288Y-15809D01*
X51302Y-15885D02*
X51288Y-15894D01*
X51274Y-15913D01*
X51274Y-15960D01*
X51288Y-15978D01*
X51302Y-15988D01*
X51330Y-15997D01*
X51358Y-15997D01*
X51400Y-15988D01*
X51569Y-15875D01*
X51569Y-15997D01*
X51969Y-15462D02*
X51674Y-15462D01*
X51955Y-15547D02*
X51969Y-15575D01*
X51969Y-15622D01*
X51955Y-15640D01*
X51941Y-15650D01*
X51913Y-15659D01*
X51885Y-15659D01*
X51857Y-15650D01*
X51842Y-15640D01*
X51828Y-15622D01*
X51814Y-15584D01*
X51800Y-15565D01*
X51786Y-15556D01*
X51758Y-15547D01*
X51730Y-15547D01*
X51702Y-15556D01*
X51688Y-15565D01*
X51674Y-15584D01*
X51674Y-15631D01*
X51688Y-15659D01*
X51969Y-15847D02*
X51969Y-15735D01*
X51969Y-15791D02*
X51674Y-15791D01*
X51716Y-15772D01*
X51744Y-15753D01*
X51758Y-15735D01*
X52369Y-15406D02*
X52228Y-15341D01*
X52369Y-15294D02*
X52074Y-15294D01*
X52074Y-15369D01*
X52088Y-15388D01*
X52102Y-15397D01*
X52130Y-15406D01*
X52172Y-15406D01*
X52200Y-15397D01*
X52214Y-15388D01*
X52228Y-15369D01*
X52228Y-15294D01*
X52355Y-15566D02*
X52369Y-15547D01*
X52369Y-15510D01*
X52355Y-15491D01*
X52327Y-15482D01*
X52214Y-15482D01*
X52186Y-15491D01*
X52172Y-15510D01*
X52172Y-15547D01*
X52186Y-15566D01*
X52214Y-15575D01*
X52242Y-15575D01*
X52271Y-15482D01*
X52355Y-15651D02*
X52369Y-15669D01*
X52369Y-15707D01*
X52355Y-15726D01*
X52327Y-15735D01*
X52313Y-15735D01*
X52285Y-15726D01*
X52271Y-15707D01*
X52271Y-15679D01*
X52257Y-15660D01*
X52228Y-15651D01*
X52214Y-15651D01*
X52186Y-15660D01*
X52172Y-15679D01*
X52172Y-15707D01*
X52186Y-15726D01*
X52355Y-15894D02*
X52369Y-15875D01*
X52369Y-15838D01*
X52355Y-15819D01*
X52327Y-15810D01*
X52214Y-15810D01*
X52186Y-15819D01*
X52172Y-15838D01*
X52172Y-15875D01*
X52186Y-15894D01*
X52214Y-15903D01*
X52242Y-15903D01*
X52271Y-15810D01*
X52172Y-15960D02*
X52172Y-16035D01*
X52074Y-15988D02*
X52327Y-15988D01*
X52355Y-15997D01*
X52369Y-16016D01*
X52369Y-16035D01*
X52769Y-15273D02*
X52769Y-15179D01*
X52474Y-15179D01*
X52614Y-15338D02*
X52614Y-15404D01*
X52769Y-15432D02*
X52769Y-15338D01*
X52474Y-15338D01*
X52474Y-15432D01*
X56350Y-10338D02*
X56369Y-10324D01*
X56397Y-10324D01*
X56425Y-10338D01*
X56444Y-10366D01*
X56453Y-10394D01*
X56462Y-10450D01*
X56462Y-10492D01*
X56453Y-10549D01*
X56444Y-10577D01*
X56425Y-10605D01*
X56397Y-10619D01*
X56378Y-10619D01*
X56350Y-10605D01*
X56341Y-10591D01*
X56341Y-10492D01*
X56378Y-10492D01*
X56256Y-10619D02*
X56256Y-10324D01*
X56144Y-10619D01*
X56144Y-10324D01*
X56050Y-10619D02*
X56050Y-10324D01*
X56003Y-10324D01*
X55975Y-10338D01*
X55956Y-10366D01*
X55947Y-10394D01*
X55938Y-10450D01*
X55938Y-10492D01*
X55947Y-10549D01*
X55956Y-10577D01*
X55975Y-10605D01*
X56003Y-10619D01*
X56050Y-10619D01*
G54D12*
X58397Y-23916D02*
X58355Y-23934D01*
X58284Y-23934D01*
X58256Y-23916D01*
X58242Y-23897D01*
X58228Y-23859D01*
X58228Y-23822D01*
X58242Y-23784D01*
X58256Y-23766D01*
X58284Y-23747D01*
X58341Y-23728D01*
X58369Y-23709D01*
X58383Y-23691D01*
X58397Y-23653D01*
X58397Y-23616D01*
X58383Y-23578D01*
X58369Y-23559D01*
X58341Y-23540D01*
X58270Y-23540D01*
X58228Y-23559D01*
X57989Y-23916D02*
X58017Y-23934D01*
X58074Y-23934D01*
X58102Y-23916D01*
X58116Y-23878D01*
X58116Y-23728D01*
X58102Y-23691D01*
X58074Y-23672D01*
X58017Y-23672D01*
X57989Y-23691D01*
X57975Y-23728D01*
X57975Y-23766D01*
X58116Y-23803D01*
X57849Y-23672D02*
X57849Y-23934D01*
X57849Y-23709D02*
X57835Y-23691D01*
X57807Y-23672D01*
X57764Y-23672D01*
X57736Y-23691D01*
X57722Y-23728D01*
X57722Y-23934D01*
X57596Y-23916D02*
X57568Y-23934D01*
X57512Y-23934D01*
X57483Y-23916D01*
X57469Y-23878D01*
X57469Y-23859D01*
X57483Y-23822D01*
X57512Y-23803D01*
X57554Y-23803D01*
X57582Y-23784D01*
X57596Y-23747D01*
X57596Y-23728D01*
X57582Y-23691D01*
X57554Y-23672D01*
X57512Y-23672D01*
X57483Y-23691D01*
X57301Y-23934D02*
X57329Y-23916D01*
X57343Y-23897D01*
X57357Y-23859D01*
X57357Y-23747D01*
X57343Y-23709D01*
X57329Y-23691D01*
X57301Y-23672D01*
X57258Y-23672D01*
X57230Y-23691D01*
X57216Y-23709D01*
X57202Y-23747D01*
X57202Y-23859D01*
X57216Y-23897D01*
X57230Y-23916D01*
X57258Y-23934D01*
X57301Y-23934D01*
X57076Y-23934D02*
X57076Y-23672D01*
X57076Y-23747D02*
X57062Y-23709D01*
X57048Y-23691D01*
X57020Y-23672D01*
X56991Y-23672D01*
X56569Y-23728D02*
X56527Y-23747D01*
X56513Y-23766D01*
X56499Y-23803D01*
X56499Y-23859D01*
X56513Y-23897D01*
X56527Y-23916D01*
X56555Y-23934D01*
X56668Y-23934D01*
X56668Y-23540D01*
X56569Y-23540D01*
X56541Y-23559D01*
X56527Y-23578D01*
X56513Y-23616D01*
X56513Y-23653D01*
X56527Y-23691D01*
X56541Y-23709D01*
X56569Y-23728D01*
X56668Y-23728D01*
X56373Y-23934D02*
X56373Y-23672D01*
X56373Y-23540D02*
X56387Y-23559D01*
X56373Y-23578D01*
X56359Y-23559D01*
X56373Y-23540D01*
X56373Y-23578D01*
X56106Y-23934D02*
X56106Y-23728D01*
X56120Y-23691D01*
X56148Y-23672D01*
X56205Y-23672D01*
X56233Y-23691D01*
X56106Y-23916D02*
X56134Y-23934D01*
X56205Y-23934D01*
X56233Y-23916D01*
X56247Y-23878D01*
X56247Y-23841D01*
X56233Y-23803D01*
X56205Y-23784D01*
X56134Y-23784D01*
X56106Y-23766D01*
X55980Y-23916D02*
X55952Y-23934D01*
X55896Y-23934D01*
X55867Y-23916D01*
X55853Y-23878D01*
X55853Y-23859D01*
X55867Y-23822D01*
X55896Y-23803D01*
X55938Y-23803D01*
X55966Y-23784D01*
X55980Y-23747D01*
X55980Y-23728D01*
X55966Y-23691D01*
X55938Y-23672D01*
X55896Y-23672D01*
X55867Y-23691D01*
M02*
