G04 (created by PCBNEW-RS274X (2012-01-19 BZR 3256)-stable) date Wed Aug 28 15:53:45 2013*
G01*
G70*
G90*
%MOIN*%
G04 Gerber Fmt 3.4, Leading zero omitted, Abs format*
%FSLAX34Y34*%
G04 APERTURE LIST*
%ADD10C,0.006000*%
%ADD11R,0.093700X0.015000*%
%ADD12C,0.023600*%
%ADD13C,0.035000*%
%ADD14C,0.004000*%
%ADD15C,0.016000*%
G04 APERTURE END LIST*
G54D10*
G36*
X46736Y-18173D02*
X45497Y-16934D01*
X45666Y-16765D01*
X46905Y-18004D01*
X46736Y-18173D01*
X46736Y-18173D01*
G37*
G36*
X47014Y-17895D02*
X45775Y-16656D01*
X45944Y-16487D01*
X47183Y-17726D01*
X47014Y-17895D01*
X47014Y-17895D01*
G37*
G36*
X51190Y-13719D02*
X49951Y-12480D01*
X50120Y-12311D01*
X51359Y-13550D01*
X51190Y-13719D01*
X51190Y-13719D01*
G37*
G36*
X50912Y-13997D02*
X49673Y-12758D01*
X49842Y-12589D01*
X51081Y-13828D01*
X50912Y-13997D01*
X50912Y-13997D01*
G37*
G36*
X50634Y-14275D02*
X49395Y-13036D01*
X49564Y-12867D01*
X50803Y-14106D01*
X50634Y-14275D01*
X50634Y-14275D01*
G37*
G36*
X50355Y-14554D02*
X49116Y-13315D01*
X49285Y-13146D01*
X50524Y-14385D01*
X50355Y-14554D01*
X50355Y-14554D01*
G37*
G36*
X50077Y-14832D02*
X48838Y-13593D01*
X49007Y-13424D01*
X50246Y-14663D01*
X50077Y-14832D01*
X50077Y-14832D01*
G37*
G36*
X49519Y-15390D02*
X48280Y-14151D01*
X48449Y-13982D01*
X49688Y-15221D01*
X49519Y-15390D01*
X49519Y-15390D01*
G37*
G36*
X49242Y-15667D02*
X48003Y-14428D01*
X48172Y-14259D01*
X49411Y-15498D01*
X49242Y-15667D01*
X49242Y-15667D01*
G37*
G36*
X48963Y-15946D02*
X47724Y-14707D01*
X47893Y-14538D01*
X49132Y-15777D01*
X48963Y-15946D01*
X48963Y-15946D01*
G37*
G36*
X48684Y-16225D02*
X47445Y-14986D01*
X47614Y-14817D01*
X48853Y-16056D01*
X48684Y-16225D01*
X48684Y-16225D01*
G37*
G36*
X48406Y-16503D02*
X47167Y-15264D01*
X47336Y-15095D01*
X48575Y-16334D01*
X48406Y-16503D01*
X48406Y-16503D01*
G37*
G36*
X54809Y-10100D02*
X53570Y-08861D01*
X53739Y-08692D01*
X54978Y-09931D01*
X54809Y-10100D01*
X54809Y-10100D01*
G37*
G36*
X48128Y-16781D02*
X46889Y-15542D01*
X47058Y-15373D01*
X48297Y-16612D01*
X48128Y-16781D01*
X48128Y-16781D01*
G37*
G36*
X47849Y-17060D02*
X46610Y-15821D01*
X46779Y-15652D01*
X48018Y-16891D01*
X47849Y-17060D01*
X47849Y-17060D01*
G37*
G36*
X47571Y-17338D02*
X46332Y-16099D01*
X46501Y-15930D01*
X47740Y-17169D01*
X47571Y-17338D01*
X47571Y-17338D01*
G37*
G36*
X54531Y-10378D02*
X53292Y-09139D01*
X53461Y-08970D01*
X54700Y-10209D01*
X54531Y-10378D01*
X54531Y-10378D01*
G37*
G36*
X54252Y-10657D02*
X53013Y-09418D01*
X53182Y-09249D01*
X54421Y-10488D01*
X54252Y-10657D01*
X54252Y-10657D01*
G37*
G36*
X53974Y-10935D02*
X52735Y-09696D01*
X52904Y-09527D01*
X54143Y-10766D01*
X53974Y-10935D01*
X53974Y-10935D01*
G37*
G36*
X53696Y-11213D02*
X52457Y-09974D01*
X52626Y-09805D01*
X53865Y-11044D01*
X53696Y-11213D01*
X53696Y-11213D01*
G37*
G36*
X53417Y-11492D02*
X52178Y-10253D01*
X52347Y-10084D01*
X53586Y-11323D01*
X53417Y-11492D01*
X53417Y-11492D01*
G37*
G36*
X53139Y-11770D02*
X51900Y-10531D01*
X52069Y-10362D01*
X53308Y-11601D01*
X53139Y-11770D01*
X53139Y-11770D01*
G37*
G36*
X52860Y-12049D02*
X51621Y-10810D01*
X51790Y-10641D01*
X53029Y-11880D01*
X52860Y-12049D01*
X52860Y-12049D01*
G37*
G36*
X52582Y-12327D02*
X51343Y-11088D01*
X51512Y-10919D01*
X52751Y-12158D01*
X52582Y-12327D01*
X52582Y-12327D01*
G37*
G36*
X52303Y-12606D02*
X51064Y-11367D01*
X51233Y-11198D01*
X52472Y-12437D01*
X52303Y-12606D01*
X52303Y-12606D01*
G37*
G36*
X52025Y-12884D02*
X50786Y-11645D01*
X50955Y-11476D01*
X52194Y-12715D01*
X52025Y-12884D01*
X52025Y-12884D01*
G37*
G36*
X51747Y-13162D02*
X50508Y-11923D01*
X50677Y-11754D01*
X51916Y-12993D01*
X51747Y-13162D01*
X51747Y-13162D01*
G37*
G36*
X51469Y-13440D02*
X50230Y-12201D01*
X50399Y-12032D01*
X51638Y-13271D01*
X51469Y-13440D01*
X51469Y-13440D01*
G37*
G36*
X47293Y-17616D02*
X46054Y-16377D01*
X46223Y-16208D01*
X47462Y-17447D01*
X47293Y-17616D01*
X47293Y-17616D01*
G37*
G36*
X56479Y-08430D02*
X55240Y-07191D01*
X55409Y-07022D01*
X56648Y-08261D01*
X56479Y-08430D01*
X56479Y-08430D01*
G37*
G36*
X55644Y-09265D02*
X54405Y-08026D01*
X54574Y-07857D01*
X55813Y-09096D01*
X55644Y-09265D01*
X55644Y-09265D01*
G37*
G36*
X55923Y-08986D02*
X54684Y-07747D01*
X54853Y-07578D01*
X56092Y-08817D01*
X55923Y-08986D01*
X55923Y-08986D01*
G37*
G36*
X56201Y-08708D02*
X54962Y-07469D01*
X55131Y-07300D01*
X56370Y-08539D01*
X56201Y-08708D01*
X56201Y-08708D01*
G37*
G36*
X45623Y-19286D02*
X44384Y-18047D01*
X44553Y-17878D01*
X45792Y-19117D01*
X45623Y-19286D01*
X45623Y-19286D01*
G37*
G36*
X55366Y-09543D02*
X54127Y-08304D01*
X54296Y-08135D01*
X55535Y-09374D01*
X55366Y-09543D01*
X55366Y-09543D01*
G37*
G36*
X55088Y-09821D02*
X53849Y-08582D01*
X54018Y-08413D01*
X55257Y-09652D01*
X55088Y-09821D01*
X55088Y-09821D01*
G37*
G36*
X46458Y-18451D02*
X45219Y-17212D01*
X45388Y-17043D01*
X46627Y-18282D01*
X46458Y-18451D01*
X46458Y-18451D01*
G37*
G36*
X46179Y-18730D02*
X44940Y-17491D01*
X45109Y-17322D01*
X46348Y-18561D01*
X46179Y-18730D01*
X46179Y-18730D01*
G37*
G36*
X45900Y-19009D02*
X44661Y-17770D01*
X44830Y-17601D01*
X46069Y-18840D01*
X45900Y-19009D01*
X45900Y-19009D01*
G37*
G54D11*
X55271Y-23689D03*
G54D12*
X67224Y-20295D03*
X48524Y-18209D03*
X48524Y-20453D03*
X67224Y-22480D03*
X67224Y-18012D03*
X48917Y-20453D03*
X48917Y-17815D03*
X66831Y-22874D03*
X66831Y-17618D03*
X66831Y-20295D03*
X68400Y-22000D03*
X67618Y-22800D03*
X56511Y-12189D03*
X48130Y-20453D03*
X48130Y-18602D03*
X67618Y-20295D03*
X67618Y-22087D03*
X49311Y-17815D03*
X49311Y-20453D03*
X66437Y-20295D03*
X66437Y-17618D03*
X66437Y-22874D03*
X65846Y-17894D03*
X65846Y-20571D03*
X49902Y-20177D03*
X49902Y-22835D03*
X65059Y-17894D03*
X65059Y-20571D03*
X50689Y-20177D03*
X50689Y-22835D03*
G54D13*
X58169Y-10059D03*
X55748Y-10295D03*
G54D12*
X53878Y-17756D03*
X53858Y-20433D03*
X61909Y-22854D03*
X61550Y-13700D03*
X61929Y-20295D03*
G54D13*
X68445Y-22657D03*
X68583Y-21476D03*
X57343Y-29528D03*
X47559Y-19252D03*
G54D12*
X63878Y-17894D03*
X63878Y-20571D03*
X51870Y-20177D03*
X51870Y-22835D03*
X64272Y-17894D03*
X64272Y-20571D03*
X51476Y-20177D03*
X51476Y-22835D03*
X63287Y-20295D03*
X63287Y-22874D03*
X52461Y-20453D03*
X52461Y-17815D03*
X63287Y-17618D03*
X63091Y-17894D03*
X63091Y-20531D03*
X52657Y-22835D03*
X52657Y-20217D03*
X65453Y-20571D03*
X50295Y-20177D03*
X50295Y-22835D03*
X65453Y-17894D03*
X48720Y-22835D03*
X66634Y-20571D03*
X49114Y-22835D03*
X49114Y-20177D03*
X66634Y-17894D03*
X68012Y-21693D03*
X53858Y-21535D03*
X53858Y-19232D03*
X61929Y-19193D03*
X61909Y-21516D03*
X48327Y-20177D03*
X48327Y-22441D03*
X67028Y-20571D03*
X67028Y-18287D03*
X47933Y-20177D03*
X47933Y-22047D03*
X67421Y-20571D03*
X67421Y-18681D03*
X63484Y-17894D03*
X63484Y-20571D03*
X52264Y-20177D03*
X52264Y-22835D03*
X65256Y-20295D03*
X65256Y-22874D03*
X50492Y-17815D03*
X50492Y-20453D03*
X65256Y-17618D03*
X65650Y-20295D03*
X65650Y-22874D03*
X50098Y-20453D03*
X50098Y-17815D03*
X65650Y-17618D03*
X66043Y-20295D03*
X66043Y-22874D03*
X49705Y-17815D03*
X49705Y-20453D03*
X66043Y-17618D03*
X64469Y-20295D03*
X64469Y-22874D03*
X51280Y-17815D03*
X51280Y-20453D03*
X64469Y-17618D03*
X64862Y-20295D03*
X64862Y-22874D03*
X50886Y-20453D03*
X50886Y-17815D03*
X64862Y-17618D03*
X63681Y-20295D03*
X63681Y-22874D03*
X52067Y-17815D03*
X52067Y-20453D03*
X63681Y-17618D03*
X64075Y-20295D03*
X64075Y-22874D03*
X51673Y-17815D03*
X51673Y-20453D03*
X64075Y-17618D03*
X64665Y-17894D03*
X64665Y-20571D03*
X51083Y-20177D03*
X51083Y-22835D03*
X61476Y-17461D03*
G54D13*
X46437Y-19272D03*
X47421Y-21535D03*
X59016Y-31850D03*
G54D12*
X54331Y-22835D03*
X54331Y-20157D03*
X61417Y-20630D03*
G54D13*
X53800Y-23300D03*
X55906Y-25492D03*
X50295Y-25492D03*
X47579Y-17972D03*
X68386Y-19370D03*
X59724Y-11457D03*
G54D12*
X53248Y-22638D03*
X53248Y-20079D03*
X62539Y-20728D03*
X62480Y-18209D03*
G54D13*
X59961Y-30689D03*
G54D12*
X66240Y-20571D03*
X49508Y-20177D03*
X49508Y-22835D03*
X66240Y-17894D03*
G54D14*
X59325Y-13975D02*
X59350Y-13975D01*
X67224Y-20295D02*
X67224Y-22480D01*
X67224Y-20295D02*
X67224Y-20276D01*
X48524Y-18209D02*
X48524Y-20453D01*
X53717Y-09953D02*
X58134Y-14370D01*
X67224Y-17716D02*
X67224Y-18012D01*
X63878Y-14370D02*
X67224Y-17716D01*
X58134Y-14370D02*
X63878Y-14370D01*
X67224Y-20295D02*
X67224Y-18012D01*
X66831Y-20295D02*
X66812Y-20276D01*
X66812Y-20276D02*
X66811Y-20276D01*
X48917Y-17815D02*
X48917Y-20453D01*
X66831Y-20295D02*
X66831Y-22874D01*
X66831Y-20295D02*
X66831Y-17618D01*
X57677Y-14469D02*
X63682Y-14469D01*
X63682Y-14469D02*
X66831Y-17618D01*
X53439Y-10231D02*
X57677Y-14469D01*
X68400Y-22018D02*
X68400Y-22000D01*
X68400Y-22018D02*
X67618Y-22800D01*
X53996Y-09674D02*
X56511Y-12189D01*
X48130Y-18602D02*
X48130Y-20453D01*
X67618Y-20295D02*
X67618Y-22087D01*
X49311Y-17815D02*
X49311Y-20453D01*
X66418Y-20276D02*
X66417Y-20276D01*
X66437Y-20295D02*
X66418Y-20276D01*
X53161Y-10509D02*
X57219Y-14567D01*
X63386Y-14567D02*
X66437Y-17618D01*
X57219Y-14567D02*
X63386Y-14567D01*
X66437Y-20295D02*
X66437Y-17618D01*
X66437Y-20295D02*
X66437Y-22874D01*
X65846Y-17894D02*
X65846Y-20571D01*
X49902Y-20177D02*
X49902Y-22835D01*
X48428Y-15242D02*
X49902Y-16716D01*
X49902Y-16716D02*
X49902Y-20177D01*
X65846Y-20571D02*
X65846Y-23032D01*
X51772Y-24705D02*
X49902Y-22835D01*
X64173Y-24705D02*
X51772Y-24705D01*
X65846Y-23032D02*
X64173Y-24705D01*
X65059Y-17894D02*
X65059Y-20571D01*
X50689Y-20177D02*
X50689Y-22835D01*
X48984Y-14686D02*
X50689Y-16391D01*
X50689Y-16391D02*
X50689Y-20177D01*
X65059Y-20571D02*
X65059Y-23031D01*
X52362Y-24508D02*
X50689Y-22835D01*
X63582Y-24508D02*
X52362Y-24508D01*
X65059Y-23031D02*
X63582Y-24508D01*
G54D15*
X54553Y-09117D02*
X55731Y-10295D01*
X55731Y-10295D02*
X55748Y-10295D01*
G54D14*
X63878Y-17894D02*
X63878Y-20571D01*
X51870Y-20177D02*
X51870Y-22835D01*
X50099Y-13571D02*
X51870Y-15342D01*
X51870Y-15342D02*
X51870Y-20177D01*
X63878Y-20571D02*
X63878Y-23031D01*
X53248Y-24213D02*
X51870Y-22835D01*
X62696Y-24213D02*
X53248Y-24213D01*
X63878Y-23031D02*
X62696Y-24213D01*
X64272Y-17894D02*
X64272Y-20571D01*
X51476Y-20177D02*
X51476Y-22835D01*
X49820Y-13850D02*
X51476Y-15506D01*
X51476Y-15506D02*
X51476Y-20177D01*
X64272Y-20571D02*
X64272Y-23031D01*
X52952Y-24311D02*
X51476Y-22835D01*
X62992Y-24311D02*
X52952Y-24311D01*
X64272Y-23031D02*
X62992Y-24311D01*
X52461Y-17815D02*
X52461Y-20453D01*
X50934Y-12736D02*
X53552Y-15354D01*
X61023Y-15354D02*
X63287Y-17618D01*
X53552Y-15354D02*
X61023Y-15354D01*
X63287Y-20295D02*
X63287Y-17618D01*
X63287Y-20295D02*
X63287Y-22874D01*
X63091Y-17894D02*
X63091Y-20531D01*
X52657Y-20217D02*
X52657Y-22835D01*
X50655Y-13015D02*
X52657Y-15017D01*
X52657Y-15017D02*
X52657Y-20217D01*
X52657Y-22835D02*
X53838Y-24016D01*
X63091Y-22932D02*
X63091Y-20531D01*
X62007Y-24016D02*
X63091Y-22932D01*
X53838Y-24016D02*
X62007Y-24016D01*
X50295Y-20177D02*
X50295Y-22835D01*
X65453Y-17894D02*
X65453Y-20571D01*
X65453Y-23031D02*
X63878Y-24606D01*
X63878Y-24606D02*
X52066Y-24606D01*
X52066Y-24606D02*
X50295Y-22835D01*
X65453Y-20571D02*
X65453Y-23031D01*
X50295Y-16551D02*
X50295Y-20177D01*
X48707Y-14963D02*
X50295Y-16551D01*
X48720Y-22835D02*
X48720Y-17204D01*
X48720Y-17204D02*
X47593Y-16077D01*
X66634Y-20571D02*
X66614Y-20571D01*
X49114Y-20177D02*
X49114Y-22835D01*
X66634Y-20571D02*
X66634Y-17894D01*
X66634Y-23032D02*
X64764Y-24902D01*
X64764Y-24902D02*
X51181Y-24902D01*
X51181Y-24902D02*
X49114Y-22835D01*
X66634Y-20571D02*
X66634Y-23032D01*
X49114Y-17042D02*
X49114Y-20177D01*
X47871Y-15799D02*
X49114Y-17042D01*
X68012Y-18071D02*
X64114Y-14173D01*
X64114Y-14173D02*
X59051Y-14173D01*
X59051Y-14173D02*
X54274Y-09396D01*
X68012Y-21693D02*
X68012Y-18071D01*
X53858Y-21535D02*
X54626Y-20767D01*
X54626Y-20767D02*
X54626Y-20000D01*
X54626Y-20000D02*
X53858Y-19232D01*
X61929Y-19193D02*
X61161Y-19961D01*
X61161Y-19961D02*
X61161Y-20768D01*
X61161Y-20768D02*
X61909Y-21516D01*
X50492Y-25000D02*
X48327Y-22835D01*
X65059Y-25000D02*
X50492Y-25000D01*
X67028Y-23031D02*
X65059Y-25000D01*
X48327Y-20177D02*
X48327Y-22441D01*
X67028Y-18287D02*
X67028Y-20571D01*
X47314Y-16356D02*
X48327Y-17369D01*
X48327Y-17369D02*
X48327Y-20177D01*
X67028Y-20571D02*
X67028Y-23031D01*
X48327Y-22835D02*
X48327Y-22441D01*
X50393Y-25098D02*
X47933Y-22638D01*
X65355Y-25098D02*
X50393Y-25098D01*
X67421Y-23032D02*
X65355Y-25098D01*
X47933Y-20177D02*
X47933Y-22047D01*
X67421Y-18681D02*
X67421Y-20571D01*
X47036Y-16634D02*
X47933Y-17531D01*
X47933Y-17531D02*
X47933Y-20177D01*
X67421Y-20571D02*
X67421Y-23032D01*
X47933Y-22638D02*
X47933Y-22047D01*
X63484Y-17894D02*
X63484Y-20571D01*
X52264Y-20177D02*
X52264Y-22835D01*
X50377Y-13293D02*
X52264Y-15180D01*
X52264Y-15180D02*
X52264Y-20177D01*
X63484Y-20571D02*
X63484Y-23032D01*
X53543Y-24114D02*
X52264Y-22835D01*
X62402Y-24114D02*
X53543Y-24114D01*
X63484Y-23032D02*
X62402Y-24114D01*
X50492Y-17815D02*
X50492Y-20453D01*
X52325Y-11345D02*
X55842Y-14862D01*
X62500Y-14862D02*
X65256Y-17618D01*
X55842Y-14862D02*
X62500Y-14862D01*
X65256Y-20295D02*
X65256Y-17618D01*
X65256Y-20295D02*
X65256Y-22874D01*
X50098Y-17815D02*
X50098Y-20453D01*
X52604Y-11066D02*
X56302Y-14764D01*
X62796Y-14764D02*
X65650Y-17618D01*
X56302Y-14764D02*
X62796Y-14764D01*
X65650Y-20295D02*
X65650Y-17618D01*
X65650Y-20295D02*
X65650Y-22874D01*
X49705Y-17815D02*
X49705Y-20453D01*
X52882Y-10788D02*
X56759Y-14665D01*
X63090Y-14665D02*
X66043Y-17618D01*
X56759Y-14665D02*
X63090Y-14665D01*
X66043Y-20295D02*
X66043Y-17618D01*
X66043Y-20295D02*
X66043Y-22874D01*
X64469Y-20295D02*
X64469Y-22874D01*
X51280Y-17815D02*
X51280Y-20453D01*
X51768Y-11902D02*
X54925Y-15059D01*
X61910Y-15059D02*
X64469Y-17618D01*
X54925Y-15059D02*
X61910Y-15059D01*
X64469Y-20295D02*
X64469Y-17618D01*
X50886Y-17815D02*
X50886Y-20453D01*
X52047Y-11623D02*
X55385Y-14961D01*
X62205Y-14961D02*
X64862Y-17618D01*
X55385Y-14961D02*
X62205Y-14961D01*
X64862Y-20295D02*
X64862Y-17618D01*
X64862Y-20295D02*
X64862Y-22874D01*
X52067Y-17815D02*
X52067Y-20453D01*
X51212Y-12458D02*
X54010Y-15256D01*
X61319Y-15256D02*
X63681Y-17618D01*
X54010Y-15256D02*
X61319Y-15256D01*
X63681Y-20295D02*
X63681Y-17618D01*
X63681Y-20295D02*
X63681Y-22874D01*
X51673Y-17815D02*
X51673Y-20453D01*
X51490Y-12180D02*
X54467Y-15157D01*
X61614Y-15157D02*
X64075Y-17618D01*
X54467Y-15157D02*
X61614Y-15157D01*
X64075Y-20295D02*
X64075Y-17618D01*
X64075Y-20295D02*
X64075Y-22874D01*
X64665Y-17894D02*
X64665Y-20571D01*
X51083Y-20177D02*
X51083Y-22835D01*
X49542Y-14128D02*
X51083Y-15669D01*
X51083Y-15669D02*
X51083Y-20177D01*
X64665Y-20571D02*
X64665Y-23032D01*
X52657Y-24409D02*
X51083Y-22835D01*
X63288Y-24409D02*
X52657Y-24409D01*
X64665Y-23032D02*
X63288Y-24409D01*
G54D15*
X46201Y-17469D02*
X47008Y-18276D01*
X47008Y-18701D02*
X46437Y-19272D01*
X47008Y-18276D02*
X47008Y-18701D01*
X55271Y-23689D02*
X54122Y-23689D01*
X53800Y-23300D02*
X54122Y-23689D01*
X55906Y-25492D02*
X50295Y-25492D01*
X46850Y-22047D02*
X46850Y-20344D01*
X46850Y-20344D02*
X45088Y-18582D01*
X50295Y-25492D02*
X46850Y-22047D01*
X46479Y-17191D02*
X47260Y-17972D01*
X47260Y-17972D02*
X47579Y-17972D01*
G54D14*
X49508Y-20177D02*
X49508Y-22835D01*
X66240Y-17894D02*
X66240Y-20571D01*
X66240Y-23032D02*
X64469Y-24803D01*
X64469Y-24803D02*
X51476Y-24803D01*
X51476Y-24803D02*
X49508Y-22835D01*
X66240Y-20571D02*
X66240Y-23032D01*
X49508Y-16880D02*
X49508Y-20177D01*
X48149Y-15521D02*
X49508Y-16880D01*
M02*
