G04 (created by PCBNEW-RS274X (2012-01-19 BZR 3256)-stable) date 5/23/2012 10:45:28 AM*
G01*
G70*
G90*
%MOIN*%
G04 Gerber Fmt 3.4, Leading zero omitted, Abs format*
%FSLAX34Y34*%
G04 APERTURE LIST*
%ADD10C,0.006000*%
%ADD11C,0.012000*%
G04 APERTURE END LIST*
G54D10*
G54D11*
X58538Y-25311D02*
X58500Y-25369D01*
X58461Y-25397D01*
X58385Y-25426D01*
X58347Y-25426D01*
X58271Y-25397D01*
X58233Y-25369D01*
X58195Y-25311D01*
X58195Y-25197D01*
X58233Y-25140D01*
X58271Y-25111D01*
X58347Y-25083D01*
X58385Y-25083D01*
X58461Y-25111D01*
X58500Y-25140D01*
X58538Y-25197D01*
X58538Y-25311D01*
X58576Y-25369D01*
X58614Y-25397D01*
X58690Y-25426D01*
X58842Y-25426D01*
X58919Y-25397D01*
X58957Y-25369D01*
X58995Y-25311D01*
X58995Y-25197D01*
X58957Y-25140D01*
X58919Y-25111D01*
X58842Y-25083D01*
X58690Y-25083D01*
X58614Y-25111D01*
X58576Y-25140D01*
X58538Y-25197D01*
X58271Y-24855D02*
X58233Y-24826D01*
X58195Y-24769D01*
X58195Y-24626D01*
X58233Y-24569D01*
X58271Y-24540D01*
X58347Y-24512D01*
X58423Y-24512D01*
X58538Y-24540D01*
X58995Y-24883D01*
X58995Y-24512D01*
X58919Y-24255D02*
X58957Y-24227D01*
X58995Y-24255D01*
X58957Y-24284D01*
X58919Y-24255D01*
X58995Y-24255D01*
X58195Y-23683D02*
X58195Y-23969D01*
X58576Y-23998D01*
X58538Y-23969D01*
X58500Y-23912D01*
X58500Y-23769D01*
X58538Y-23712D01*
X58576Y-23683D01*
X58652Y-23655D01*
X58842Y-23655D01*
X58919Y-23683D01*
X58957Y-23712D01*
X58995Y-23769D01*
X58995Y-23912D01*
X58957Y-23969D01*
X58919Y-23998D01*
X58195Y-23284D02*
X58195Y-23227D01*
X58233Y-23170D01*
X58271Y-23141D01*
X58347Y-23112D01*
X58500Y-23084D01*
X58690Y-23084D01*
X58842Y-23112D01*
X58919Y-23141D01*
X58957Y-23170D01*
X58995Y-23227D01*
X58995Y-23284D01*
X58957Y-23341D01*
X58919Y-23370D01*
X58842Y-23398D01*
X58690Y-23427D01*
X58500Y-23427D01*
X58347Y-23398D01*
X58271Y-23370D01*
X58233Y-23341D01*
X58195Y-23284D01*
X58195Y-22713D02*
X58195Y-22656D01*
X58233Y-22599D01*
X58271Y-22570D01*
X58347Y-22541D01*
X58500Y-22513D01*
X58690Y-22513D01*
X58842Y-22541D01*
X58919Y-22570D01*
X58957Y-22599D01*
X58995Y-22656D01*
X58995Y-22713D01*
X58957Y-22770D01*
X58919Y-22799D01*
X58842Y-22827D01*
X58690Y-22856D01*
X58500Y-22856D01*
X58347Y-22827D01*
X58271Y-22799D01*
X58233Y-22770D01*
X58195Y-22713D01*
X58995Y-21799D02*
X58461Y-21799D01*
X58538Y-21799D02*
X58500Y-21771D01*
X58461Y-21713D01*
X58461Y-21628D01*
X58500Y-21571D01*
X58576Y-21542D01*
X58995Y-21542D01*
X58576Y-21542D02*
X58500Y-21513D01*
X58461Y-21456D01*
X58461Y-21371D01*
X58500Y-21313D01*
X58576Y-21285D01*
X58995Y-21285D01*
X58995Y-20999D02*
X58461Y-20999D01*
X58538Y-20999D02*
X58500Y-20971D01*
X58461Y-20913D01*
X58461Y-20828D01*
X58500Y-20771D01*
X58576Y-20742D01*
X58995Y-20742D01*
X58576Y-20742D02*
X58500Y-20713D01*
X58461Y-20656D01*
X58461Y-20571D01*
X58500Y-20513D01*
X58576Y-20485D01*
X58995Y-20485D01*
X58031Y-39181D02*
X58031Y-06701D01*
X54992Y-39181D02*
X59311Y-39181D01*
X54992Y-06701D02*
X59311Y-06701D01*
X58031Y-06701D02*
X58261Y-07144D01*
X58031Y-06701D02*
X57801Y-07144D01*
X58031Y-39181D02*
X58261Y-38738D01*
X58031Y-39181D02*
X57801Y-38738D01*
X28943Y-42136D02*
X28600Y-42136D01*
X28772Y-42136D02*
X28772Y-41336D01*
X28715Y-41450D01*
X28657Y-41526D01*
X28600Y-41564D01*
X29171Y-41412D02*
X29200Y-41374D01*
X29257Y-41336D01*
X29400Y-41336D01*
X29457Y-41374D01*
X29486Y-41412D01*
X29514Y-41488D01*
X29514Y-41564D01*
X29486Y-41679D01*
X29143Y-42136D01*
X29514Y-42136D01*
X29885Y-41336D02*
X29942Y-41336D01*
X29999Y-41374D01*
X30028Y-41412D01*
X30057Y-41488D01*
X30085Y-41641D01*
X30085Y-41831D01*
X30057Y-41983D01*
X30028Y-42060D01*
X29999Y-42098D01*
X29942Y-42136D01*
X29885Y-42136D01*
X29828Y-42098D01*
X29799Y-42060D01*
X29771Y-41983D01*
X29742Y-41831D01*
X29742Y-41641D01*
X29771Y-41488D01*
X29799Y-41412D01*
X29828Y-41374D01*
X29885Y-41336D01*
X30342Y-42060D02*
X30370Y-42098D01*
X30342Y-42136D01*
X30313Y-42098D01*
X30342Y-42060D01*
X30342Y-42136D01*
X30742Y-41336D02*
X30799Y-41336D01*
X30856Y-41374D01*
X30885Y-41412D01*
X30914Y-41488D01*
X30942Y-41641D01*
X30942Y-41831D01*
X30914Y-41983D01*
X30885Y-42060D01*
X30856Y-42098D01*
X30799Y-42136D01*
X30742Y-42136D01*
X30685Y-42098D01*
X30656Y-42060D01*
X30628Y-41983D01*
X30599Y-41831D01*
X30599Y-41641D01*
X30628Y-41488D01*
X30656Y-41412D01*
X30685Y-41374D01*
X30742Y-41336D01*
X31313Y-41336D02*
X31370Y-41336D01*
X31427Y-41374D01*
X31456Y-41412D01*
X31485Y-41488D01*
X31513Y-41641D01*
X31513Y-41831D01*
X31485Y-41983D01*
X31456Y-42060D01*
X31427Y-42098D01*
X31370Y-42136D01*
X31313Y-42136D01*
X31256Y-42098D01*
X31227Y-42060D01*
X31199Y-41983D01*
X31170Y-41831D01*
X31170Y-41641D01*
X31199Y-41488D01*
X31227Y-41412D01*
X31256Y-41374D01*
X31313Y-41336D01*
X31884Y-41336D02*
X31941Y-41336D01*
X31998Y-41374D01*
X32027Y-41412D01*
X32056Y-41488D01*
X32084Y-41641D01*
X32084Y-41831D01*
X32056Y-41983D01*
X32027Y-42060D01*
X31998Y-42098D01*
X31941Y-42136D01*
X31884Y-42136D01*
X31827Y-42098D01*
X31798Y-42060D01*
X31770Y-41983D01*
X31741Y-41831D01*
X31741Y-41641D01*
X31770Y-41488D01*
X31798Y-41412D01*
X31827Y-41374D01*
X31884Y-41336D01*
X32798Y-42136D02*
X32798Y-41602D01*
X32798Y-41679D02*
X32826Y-41641D01*
X32884Y-41602D01*
X32969Y-41602D01*
X33026Y-41641D01*
X33055Y-41717D01*
X33055Y-42136D01*
X33055Y-41717D02*
X33084Y-41641D01*
X33141Y-41602D01*
X33226Y-41602D01*
X33284Y-41641D01*
X33312Y-41717D01*
X33312Y-42136D01*
X33598Y-42136D02*
X33598Y-41602D01*
X33598Y-41679D02*
X33626Y-41641D01*
X33684Y-41602D01*
X33769Y-41602D01*
X33826Y-41641D01*
X33855Y-41717D01*
X33855Y-42136D01*
X33855Y-41717D02*
X33884Y-41641D01*
X33941Y-41602D01*
X34026Y-41602D01*
X34084Y-41641D01*
X34112Y-41717D01*
X34112Y-42136D01*
X07748Y-41172D02*
X54992Y-41172D01*
X07748Y-39181D02*
X07748Y-42452D01*
X54992Y-39181D02*
X54992Y-42452D01*
X54992Y-41172D02*
X54549Y-41402D01*
X54992Y-41172D02*
X54549Y-40942D01*
X07748Y-41172D02*
X08191Y-41402D01*
X07748Y-41172D02*
X08191Y-40942D01*
X30917Y-02718D02*
X30574Y-02719D01*
X30746Y-02719D02*
X30744Y-01919D01*
X30687Y-02033D01*
X30630Y-02109D01*
X30573Y-02147D01*
X31488Y-02717D02*
X31145Y-02718D01*
X31317Y-02718D02*
X31315Y-01918D01*
X31258Y-02032D01*
X31201Y-02108D01*
X31144Y-02146D01*
X31857Y-01917D02*
X31914Y-01916D01*
X31971Y-01954D01*
X32000Y-01992D01*
X32029Y-02068D01*
X32058Y-02221D01*
X32058Y-02411D01*
X32030Y-02563D01*
X32001Y-02640D01*
X31973Y-02678D01*
X31916Y-02716D01*
X31859Y-02717D01*
X31802Y-02679D01*
X31772Y-02641D01*
X31744Y-02564D01*
X31715Y-02412D01*
X31715Y-02222D01*
X31743Y-02069D01*
X31771Y-01993D01*
X31800Y-01955D01*
X31857Y-01917D01*
X32315Y-02640D02*
X32344Y-02678D01*
X32316Y-02716D01*
X32287Y-02678D01*
X32315Y-02640D01*
X32316Y-02716D01*
X32714Y-01915D02*
X32771Y-01915D01*
X32828Y-01953D01*
X32857Y-01991D01*
X32886Y-02067D01*
X32915Y-02220D01*
X32915Y-02410D01*
X32887Y-02562D01*
X32858Y-02639D01*
X32829Y-02677D01*
X32773Y-02715D01*
X32716Y-02715D01*
X32659Y-02677D01*
X32629Y-02639D01*
X32601Y-02562D01*
X32572Y-02410D01*
X32572Y-02220D01*
X32600Y-02067D01*
X32628Y-01991D01*
X32657Y-01953D01*
X32714Y-01915D01*
X33285Y-01914D02*
X33342Y-01914D01*
X33399Y-01952D01*
X33428Y-01990D01*
X33457Y-02066D01*
X33486Y-02219D01*
X33486Y-02409D01*
X33458Y-02561D01*
X33429Y-02638D01*
X33400Y-02676D01*
X33344Y-02714D01*
X33287Y-02714D01*
X33229Y-02676D01*
X33200Y-02638D01*
X33172Y-02561D01*
X33143Y-02409D01*
X33143Y-02219D01*
X33171Y-02066D01*
X33199Y-01990D01*
X33228Y-01952D01*
X33285Y-01914D01*
X33856Y-01913D02*
X33913Y-01913D01*
X33970Y-01951D01*
X33999Y-01989D01*
X34028Y-02065D01*
X34057Y-02218D01*
X34057Y-02408D01*
X34029Y-02560D01*
X34000Y-02637D01*
X33971Y-02675D01*
X33915Y-02713D01*
X33858Y-02713D01*
X33800Y-02675D01*
X33771Y-02637D01*
X33743Y-02560D01*
X33714Y-02408D01*
X33714Y-02218D01*
X33742Y-02065D01*
X33770Y-01989D01*
X33799Y-01951D01*
X33856Y-01913D01*
X34772Y-02712D02*
X34771Y-02178D01*
X34771Y-02255D02*
X34799Y-02216D01*
X34857Y-02177D01*
X34942Y-02177D01*
X34999Y-02216D01*
X35028Y-02292D01*
X35029Y-02711D01*
X35028Y-02292D02*
X35057Y-02216D01*
X35114Y-02177D01*
X35199Y-02177D01*
X35257Y-02216D01*
X35285Y-02292D01*
X35286Y-02711D01*
X35572Y-02710D02*
X35571Y-02176D01*
X35571Y-02253D02*
X35599Y-02215D01*
X35657Y-02176D01*
X35742Y-02176D01*
X35799Y-02215D01*
X35828Y-02291D01*
X35829Y-02710D01*
X35828Y-02291D02*
X35857Y-02215D01*
X35914Y-02176D01*
X35999Y-02175D01*
X36057Y-02214D01*
X36085Y-02290D01*
X36086Y-02709D01*
X54997Y-03017D02*
X11690Y-03044D01*
X55000Y-08260D02*
X54997Y-01737D01*
X11693Y-08287D02*
X11690Y-01764D01*
X11690Y-03044D02*
X12133Y-02813D01*
X11690Y-03044D02*
X12133Y-03274D01*
X54997Y-03017D02*
X54554Y-02787D01*
X54997Y-03017D02*
X54554Y-03248D01*
X40989Y-03856D02*
X40875Y-03856D01*
X40818Y-03894D01*
X40789Y-03932D01*
X40732Y-04046D01*
X40702Y-04199D01*
X40702Y-04503D01*
X40731Y-04580D01*
X40759Y-04618D01*
X40816Y-04656D01*
X40930Y-04656D01*
X40988Y-04618D01*
X41017Y-04580D01*
X41045Y-04503D01*
X41045Y-04313D01*
X41017Y-04237D01*
X40988Y-04199D01*
X40931Y-04161D01*
X40817Y-04161D01*
X40759Y-04199D01*
X40731Y-04237D01*
X40702Y-04313D01*
X41417Y-03857D02*
X41474Y-03857D01*
X41531Y-03895D01*
X41560Y-03933D01*
X41589Y-04009D01*
X41616Y-04162D01*
X41616Y-04352D01*
X41588Y-04504D01*
X41559Y-04581D01*
X41530Y-04619D01*
X41472Y-04657D01*
X41415Y-04657D01*
X41359Y-04619D01*
X41330Y-04581D01*
X41302Y-04504D01*
X41273Y-04352D01*
X41273Y-04162D01*
X41303Y-04009D01*
X41331Y-03933D01*
X41360Y-03895D01*
X41417Y-03857D01*
X41873Y-04582D02*
X41901Y-04620D01*
X41872Y-04658D01*
X41844Y-04620D01*
X41873Y-04582D01*
X41872Y-04658D01*
X42274Y-03858D02*
X42331Y-03859D01*
X42388Y-03897D01*
X42417Y-03935D01*
X42446Y-04011D01*
X42473Y-04164D01*
X42473Y-04354D01*
X42445Y-04506D01*
X42416Y-04583D01*
X42387Y-04621D01*
X42329Y-04659D01*
X42272Y-04658D01*
X42216Y-04620D01*
X42187Y-04582D01*
X42159Y-04505D01*
X42130Y-04353D01*
X42130Y-04163D01*
X42160Y-04010D01*
X42188Y-03934D01*
X42217Y-03896D01*
X42274Y-03858D01*
X42845Y-03859D02*
X42902Y-03860D01*
X42959Y-03898D01*
X42988Y-03936D01*
X43017Y-04012D01*
X43044Y-04165D01*
X43044Y-04355D01*
X43016Y-04507D01*
X42987Y-04584D01*
X42958Y-04622D01*
X42900Y-04660D01*
X42843Y-04659D01*
X42787Y-04621D01*
X42758Y-04583D01*
X42730Y-04506D01*
X42701Y-04354D01*
X42701Y-04164D01*
X42731Y-04011D01*
X42759Y-03935D01*
X42788Y-03897D01*
X42845Y-03859D01*
X43416Y-03860D02*
X43473Y-03860D01*
X43530Y-03899D01*
X43559Y-03937D01*
X43588Y-04013D01*
X43615Y-04166D01*
X43615Y-04356D01*
X43587Y-04508D01*
X43558Y-04585D01*
X43529Y-04623D01*
X43471Y-04660D01*
X43414Y-04660D01*
X43358Y-04622D01*
X43329Y-04584D01*
X43301Y-04507D01*
X43272Y-04355D01*
X43272Y-04165D01*
X43302Y-04012D01*
X43330Y-03936D01*
X43359Y-03898D01*
X43416Y-03860D01*
X44328Y-04662D02*
X44329Y-04128D01*
X44329Y-04205D02*
X44357Y-04167D01*
X44415Y-04128D01*
X44500Y-04128D01*
X44557Y-04167D01*
X44586Y-04243D01*
X44585Y-04662D01*
X44586Y-04243D02*
X44615Y-04167D01*
X44672Y-04129D01*
X44757Y-04129D01*
X44815Y-04168D01*
X44843Y-04244D01*
X44842Y-04663D01*
X45128Y-04663D02*
X45129Y-04129D01*
X45129Y-04206D02*
X45157Y-04168D01*
X45215Y-04130D01*
X45300Y-04130D01*
X45357Y-04169D01*
X45386Y-04245D01*
X45385Y-04664D01*
X45386Y-04245D02*
X45415Y-04169D01*
X45472Y-04130D01*
X45557Y-04130D01*
X45615Y-04169D01*
X45643Y-04245D01*
X45642Y-04664D01*
X55004Y-04992D02*
X31370Y-04961D01*
X55000Y-08311D02*
X55005Y-03712D01*
X31366Y-08280D02*
X31371Y-03681D01*
X31370Y-04961D02*
X31813Y-04731D01*
X31370Y-04961D02*
X31813Y-05192D01*
X55004Y-04992D02*
X54561Y-04761D01*
X55004Y-04992D02*
X54561Y-05222D01*
X50874Y-06005D02*
X50531Y-06007D01*
X50703Y-06006D02*
X50700Y-05206D01*
X50644Y-05320D01*
X50586Y-05396D01*
X50529Y-05435D01*
X51242Y-05204D02*
X51299Y-05204D01*
X51356Y-05242D01*
X51386Y-05280D01*
X51415Y-05356D01*
X51443Y-05508D01*
X51444Y-05698D01*
X51417Y-05851D01*
X51388Y-05928D01*
X51359Y-05966D01*
X51302Y-06004D01*
X51245Y-06004D01*
X51188Y-05966D01*
X51159Y-05928D01*
X51131Y-05852D01*
X51101Y-05700D01*
X51100Y-05510D01*
X51129Y-05357D01*
X51157Y-05280D01*
X51185Y-05242D01*
X51242Y-05204D01*
X51702Y-05927D02*
X51730Y-05964D01*
X51702Y-06003D01*
X51673Y-05965D01*
X51702Y-05927D01*
X51702Y-06003D01*
X52099Y-05201D02*
X52156Y-05201D01*
X52213Y-05239D01*
X52243Y-05277D01*
X52272Y-05353D01*
X52300Y-05505D01*
X52301Y-05695D01*
X52274Y-05848D01*
X52245Y-05925D01*
X52216Y-05963D01*
X52159Y-06001D01*
X52102Y-06001D01*
X52045Y-05963D01*
X52016Y-05925D01*
X51988Y-05849D01*
X51958Y-05697D01*
X51957Y-05507D01*
X51986Y-05354D01*
X52014Y-05277D01*
X52042Y-05239D01*
X52099Y-05201D01*
X52670Y-05199D02*
X52727Y-05199D01*
X52784Y-05237D01*
X52814Y-05275D01*
X52843Y-05351D01*
X52871Y-05504D01*
X52872Y-05693D01*
X52845Y-05846D01*
X52816Y-05923D01*
X52787Y-05961D01*
X52730Y-05999D01*
X52673Y-05999D01*
X52616Y-05961D01*
X52587Y-05923D01*
X52559Y-05847D01*
X52529Y-05695D01*
X52528Y-05505D01*
X52557Y-05352D01*
X52585Y-05275D01*
X52613Y-05237D01*
X52670Y-05199D01*
X53241Y-05197D02*
X53298Y-05197D01*
X53355Y-05235D01*
X53385Y-05273D01*
X53414Y-05349D01*
X53442Y-05502D01*
X53443Y-05692D01*
X53416Y-05844D01*
X53387Y-05921D01*
X53358Y-05959D01*
X53301Y-05997D01*
X53244Y-05997D01*
X53187Y-05959D01*
X53158Y-05922D01*
X53130Y-05845D01*
X53100Y-05693D01*
X53099Y-05503D01*
X53128Y-05350D01*
X53156Y-05274D01*
X53184Y-05235D01*
X53241Y-05197D01*
X54158Y-05994D02*
X54156Y-05460D01*
X54157Y-05537D02*
X54184Y-05499D01*
X54242Y-05460D01*
X54327Y-05459D01*
X54384Y-05498D01*
X54414Y-05574D01*
X54415Y-05993D01*
X54414Y-05574D02*
X54442Y-05498D01*
X54499Y-05459D01*
X54584Y-05459D01*
X54642Y-05497D01*
X54671Y-05573D01*
X54672Y-05992D01*
X54958Y-05991D02*
X54956Y-05457D01*
X54957Y-05534D02*
X54984Y-05496D01*
X55042Y-05457D01*
X55127Y-05457D01*
X55184Y-05495D01*
X55214Y-05571D01*
X55215Y-05990D01*
X55214Y-05571D02*
X55242Y-05495D01*
X55299Y-05456D01*
X55384Y-05456D01*
X55442Y-05495D01*
X55471Y-05570D01*
X55472Y-05989D01*
X54985Y-06311D02*
X51048Y-06318D01*
X54988Y-08280D02*
X54983Y-05031D01*
X51051Y-08287D02*
X51046Y-05038D01*
X51048Y-06318D02*
X51491Y-06087D01*
X51048Y-06318D02*
X51491Y-06548D01*
X54985Y-06311D02*
X54542Y-06081D01*
X54985Y-06311D02*
X54542Y-06542D01*
M02*
