M48
;DRILL file {Pcbnew (2012-01-19 BZR 3256)-stable} date 5/23/2012 10:45:42 AM
;FORMAT={-:-/ absolute / metric / decimal}
FMAT,2
METRIC,TZ
T1C0.635
T2C1.016
T3C3.500
%
G90
G05
M71
T1
X48.070Y-80.790
X48.138Y-56.789
X49.400Y-89.019
X64.887Y-56.789
X65.636Y-80.790
X71.511Y-78.791
X73.261Y-77.790
X82.161Y-57.114
X82.161Y-59.665
X82.187Y-67.290
X82.187Y-69.814
X82.238Y-64.740
X104.988Y-77.864
X108.389Y-78.859
X115.113Y-56.789
X115.413Y-80.790
X132.461Y-80.790
T2
X88.892Y-43.160
X88.892Y-45.700
X88.892Y-48.240
X88.892Y-50.780
X88.892Y-53.320
X88.892Y-55.860
X88.892Y-58.400
X88.892Y-60.940
X88.892Y-63.480
X88.892Y-66.020
X88.892Y-68.560
X88.892Y-71.100
X88.892Y-73.640
X88.892Y-76.180
X88.892Y-78.720
X88.892Y-81.260
X88.892Y-83.800
X88.892Y-86.340
X88.892Y-88.880
X88.892Y-91.420
X91.432Y-43.160
X91.432Y-45.700
X91.432Y-48.240
X91.432Y-50.780
X91.432Y-53.320
X91.432Y-55.860
X91.432Y-58.400
X91.432Y-60.940
X91.432Y-63.480
X91.432Y-66.020
X91.432Y-68.560
X91.432Y-71.100
X91.432Y-73.640
X91.432Y-76.180
X91.432Y-78.720
X91.432Y-81.260
X91.432Y-83.800
X91.432Y-86.340
X91.432Y-88.880
X91.432Y-91.420
T3
X29.660Y-21.039
X79.659Y-21.039
X129.659Y-21.039
T0
M30
